G75*
%MOIN*%
%OFA0B0*%
%FSLAX25Y25*%
%IPPOS*%
%LPD*%
%AMOC8*
5,1,8,0,0,1.08239X$1,22.5*
%
%ADD10OC8,0.06000*%
%ADD11C,0.04362*%
%ADD12C,0.01600*%
%ADD13C,0.03200*%
%ADD14C,0.02800*%
D10*
X0054083Y0036288D03*
X0054083Y0046288D03*
X0064083Y0046288D03*
X0064083Y0036288D03*
X0074083Y0036288D03*
X0074083Y0046288D03*
X0084083Y0046288D03*
X0084083Y0036288D03*
X0094083Y0036288D03*
X0094083Y0046288D03*
X0104083Y0046288D03*
X0104083Y0036288D03*
X0114083Y0036288D03*
X0114083Y0046288D03*
D11*
X0113769Y0096957D03*
X0119674Y0096957D03*
X0125580Y0096957D03*
X0131485Y0096957D03*
X0131485Y0126957D03*
X0125580Y0126957D03*
X0119674Y0126957D03*
X0113769Y0126957D03*
X0096485Y0126957D03*
X0090580Y0126957D03*
X0084674Y0126957D03*
X0078769Y0126957D03*
X0061485Y0126957D03*
X0055580Y0126957D03*
X0049674Y0126957D03*
X0043769Y0126957D03*
X0043769Y0096957D03*
X0049674Y0096957D03*
X0055580Y0096957D03*
X0061485Y0096957D03*
X0078769Y0096957D03*
X0084674Y0096957D03*
X0090580Y0096957D03*
X0096485Y0096957D03*
X0061485Y0071957D03*
X0055580Y0071957D03*
X0049674Y0071957D03*
X0043769Y0071957D03*
X0043769Y0156957D03*
X0049674Y0156957D03*
X0055580Y0156957D03*
X0061485Y0156957D03*
X0078769Y0156957D03*
X0084674Y0156957D03*
X0090580Y0156957D03*
X0096485Y0156957D03*
X0113769Y0156957D03*
X0119674Y0156957D03*
X0125580Y0156957D03*
X0131485Y0156957D03*
D12*
X0023529Y0167918D02*
X0023529Y0031745D01*
X0024906Y0033123D01*
X0027437Y0034584D01*
X0030260Y0035340D01*
X0033182Y0035340D01*
X0036005Y0034584D01*
X0038536Y0033123D01*
X0040603Y0031056D01*
X0042064Y0028525D01*
X0042820Y0025702D01*
X0042820Y0022780D01*
X0042064Y0019957D01*
X0040603Y0017426D01*
X0039226Y0016049D01*
X0136028Y0016049D01*
X0134257Y0017820D01*
X0132796Y0020351D01*
X0132039Y0023173D01*
X0132039Y0026096D01*
X0132796Y0028919D01*
X0134257Y0031450D01*
X0136323Y0033516D01*
X0138854Y0034977D01*
X0141677Y0035734D01*
X0144600Y0035734D01*
X0147423Y0034977D01*
X0149954Y0033516D01*
X0151724Y0031745D01*
X0151724Y0167918D01*
X0149954Y0166147D01*
X0147423Y0164686D01*
X0144600Y0163929D01*
X0141677Y0163929D01*
X0138854Y0164686D01*
X0136323Y0166147D01*
X0134257Y0168213D01*
X0132796Y0170744D01*
X0132039Y0173567D01*
X0132039Y0176490D01*
X0132796Y0179312D01*
X0134257Y0181843D01*
X0135969Y0183555D01*
X0039560Y0183280D01*
X0040603Y0182237D01*
X0042064Y0179706D01*
X0042820Y0176883D01*
X0042820Y0173961D01*
X0042064Y0171138D01*
X0040603Y0168607D01*
X0038536Y0166540D01*
X0036005Y0165079D01*
X0033182Y0164323D01*
X0030260Y0164323D01*
X0027437Y0165079D01*
X0024906Y0166540D01*
X0023529Y0167918D01*
X0023529Y0167903D02*
X0023544Y0167903D01*
X0023529Y0166304D02*
X0025315Y0166304D01*
X0023529Y0164706D02*
X0028830Y0164706D01*
X0023529Y0163107D02*
X0044754Y0163107D01*
X0044754Y0163141D02*
X0044754Y0160820D01*
X0044161Y0160939D01*
X0043769Y0160939D01*
X0043769Y0156958D01*
X0043768Y0156958D01*
X0043768Y0160939D01*
X0043376Y0160939D01*
X0042607Y0160786D01*
X0041883Y0160485D01*
X0041231Y0160050D01*
X0040676Y0159495D01*
X0040240Y0158843D01*
X0039940Y0158119D01*
X0039787Y0157350D01*
X0039787Y0156958D01*
X0043768Y0156958D01*
X0043768Y0156957D01*
X0043769Y0156957D01*
X0043769Y0152976D01*
X0044161Y0152976D01*
X0044930Y0153129D01*
X0045254Y0153264D01*
X0046424Y0152094D01*
X0048533Y0151220D01*
X0050815Y0151220D01*
X0052627Y0151971D01*
X0053653Y0151546D01*
X0047515Y0145408D01*
X0044638Y0145408D01*
X0044162Y0145605D01*
X0042430Y0145605D01*
X0040829Y0144942D01*
X0039603Y0143716D01*
X0031966Y0136078D01*
X0031302Y0134477D01*
X0031302Y0044201D01*
X0031966Y0042600D01*
X0047517Y0027049D01*
X0048742Y0025824D01*
X0050343Y0025161D01*
X0071170Y0025161D01*
X0072771Y0025824D01*
X0076680Y0029732D01*
X0076799Y0029732D01*
X0079083Y0032017D01*
X0081368Y0029732D01*
X0086799Y0029732D01*
X0089083Y0032017D01*
X0091368Y0029732D01*
X0094495Y0029732D01*
X0095537Y0028690D01*
X0096762Y0027465D01*
X0098363Y0026802D01*
X0125725Y0026802D01*
X0127326Y0027465D01*
X0128551Y0028690D01*
X0128551Y0028690D01*
X0133795Y0033934D01*
X0135020Y0035159D01*
X0135683Y0036760D01*
X0135683Y0043876D01*
X0136386Y0045572D01*
X0136386Y0047543D01*
X0135631Y0049365D01*
X0134237Y0050759D01*
X0132416Y0051513D01*
X0130444Y0051513D01*
X0128623Y0050759D01*
X0127229Y0049365D01*
X0126474Y0047543D01*
X0126474Y0045572D01*
X0126972Y0044370D01*
X0126972Y0039431D01*
X0123054Y0035513D01*
X0120639Y0035513D01*
X0120639Y0039004D01*
X0118355Y0041288D01*
X0120639Y0043573D01*
X0120639Y0046684D01*
X0139745Y0065789D01*
X0140408Y0067390D01*
X0140408Y0106210D01*
X0139745Y0107811D01*
X0138519Y0109036D01*
X0135841Y0111715D01*
X0135841Y0123200D01*
X0136349Y0123708D01*
X0137222Y0125816D01*
X0137222Y0128099D01*
X0136349Y0130207D01*
X0134735Y0131821D01*
X0132626Y0132694D01*
X0130344Y0132694D01*
X0128532Y0131944D01*
X0126721Y0132694D01*
X0124438Y0132694D01*
X0122627Y0131944D01*
X0120815Y0132694D01*
X0118533Y0132694D01*
X0116424Y0131821D01*
X0115254Y0130651D01*
X0114930Y0130786D01*
X0114161Y0130939D01*
X0113769Y0130939D01*
X0113769Y0126958D01*
X0113768Y0126958D01*
X0113768Y0130939D01*
X0113376Y0130939D01*
X0112607Y0130786D01*
X0111883Y0130485D01*
X0111231Y0130050D01*
X0110676Y0129495D01*
X0110240Y0128843D01*
X0109940Y0128119D01*
X0109787Y0127350D01*
X0109787Y0126958D01*
X0113768Y0126958D01*
X0113768Y0126957D01*
X0113769Y0126957D01*
X0113769Y0122976D01*
X0114161Y0122976D01*
X0114930Y0123129D01*
X0115254Y0123264D01*
X0116424Y0122094D01*
X0118533Y0121220D01*
X0120815Y0121220D01*
X0122627Y0121971D01*
X0124438Y0121220D01*
X0126721Y0121220D01*
X0127129Y0121390D01*
X0127129Y0109044D01*
X0127792Y0107443D01*
X0131696Y0103539D01*
X0131696Y0102694D01*
X0130344Y0102694D01*
X0128532Y0101944D01*
X0126721Y0102694D01*
X0124438Y0102694D01*
X0122627Y0101944D01*
X0120815Y0102694D01*
X0118533Y0102694D01*
X0116424Y0101821D01*
X0115254Y0100651D01*
X0114930Y0100786D01*
X0114161Y0100939D01*
X0113769Y0100939D01*
X0113769Y0096958D01*
X0113768Y0096958D01*
X0113768Y0100939D01*
X0113376Y0100939D01*
X0112607Y0100786D01*
X0111883Y0100485D01*
X0111231Y0100050D01*
X0110676Y0099495D01*
X0110240Y0098843D01*
X0109940Y0098119D01*
X0109787Y0097350D01*
X0109787Y0096958D01*
X0113768Y0096958D01*
X0113768Y0096957D01*
X0113769Y0096957D01*
X0113769Y0092976D01*
X0114161Y0092976D01*
X0114930Y0093129D01*
X0115254Y0093264D01*
X0116424Y0092094D01*
X0118533Y0091220D01*
X0120815Y0091220D01*
X0122627Y0091971D01*
X0124438Y0091220D01*
X0126721Y0091220D01*
X0128532Y0091971D01*
X0130344Y0091220D01*
X0131696Y0091220D01*
X0131696Y0070061D01*
X0114479Y0052844D01*
X0113563Y0052844D01*
X0112973Y0054267D01*
X0111748Y0055493D01*
X0066590Y0100650D01*
X0065422Y0101134D01*
X0064735Y0101821D01*
X0062626Y0102694D01*
X0060344Y0102694D01*
X0058532Y0101944D01*
X0056721Y0102694D01*
X0054438Y0102694D01*
X0052627Y0101944D01*
X0050815Y0102694D01*
X0048533Y0102694D01*
X0046424Y0101821D01*
X0045254Y0100651D01*
X0044930Y0100786D01*
X0044161Y0100939D01*
X0043769Y0100939D01*
X0043769Y0096958D01*
X0043768Y0096958D01*
X0043768Y0100939D01*
X0043376Y0100939D01*
X0043164Y0100896D01*
X0043164Y0123019D01*
X0043376Y0122976D01*
X0043768Y0122976D01*
X0043768Y0126957D01*
X0043769Y0126957D01*
X0043769Y0122976D01*
X0044161Y0122976D01*
X0044930Y0123129D01*
X0045254Y0123264D01*
X0046424Y0122094D01*
X0048533Y0121220D01*
X0050815Y0121220D01*
X0052627Y0121971D01*
X0054438Y0121220D01*
X0056721Y0121220D01*
X0058532Y0121971D01*
X0060344Y0121220D01*
X0062626Y0121220D01*
X0064735Y0122094D01*
X0066349Y0123708D01*
X0067222Y0125816D01*
X0067222Y0128099D01*
X0066349Y0130207D01*
X0065841Y0130715D01*
X0065841Y0133926D01*
X0065178Y0135527D01*
X0062579Y0138126D01*
X0061354Y0139351D01*
X0059753Y0140014D01*
X0054442Y0140014D01*
X0065178Y0150750D01*
X0065841Y0152351D01*
X0065841Y0153200D01*
X0066349Y0153708D01*
X0067222Y0155816D01*
X0067222Y0158099D01*
X0066748Y0159243D01*
X0075507Y0159243D01*
X0075240Y0158843D01*
X0074940Y0158119D01*
X0074787Y0157350D01*
X0074787Y0156958D01*
X0078768Y0156958D01*
X0078768Y0156957D01*
X0078769Y0156957D01*
X0078769Y0152976D01*
X0079161Y0152976D01*
X0079930Y0153129D01*
X0080254Y0153264D01*
X0081424Y0152094D01*
X0083533Y0151220D01*
X0085815Y0151220D01*
X0087627Y0151971D01*
X0089438Y0151220D01*
X0091721Y0151220D01*
X0093532Y0151971D01*
X0095344Y0151220D01*
X0097626Y0151220D01*
X0099735Y0152094D01*
X0101349Y0153708D01*
X0102222Y0155816D01*
X0102222Y0158099D01*
X0101748Y0159243D01*
X0110507Y0159243D01*
X0110240Y0158843D01*
X0109940Y0158119D01*
X0109787Y0157350D01*
X0109787Y0156958D01*
X0113768Y0156958D01*
X0113768Y0156957D01*
X0113769Y0156957D01*
X0113769Y0152976D01*
X0114161Y0152976D01*
X0114930Y0153129D01*
X0115254Y0153264D01*
X0116424Y0152094D01*
X0118533Y0151220D01*
X0120815Y0151220D01*
X0122627Y0151971D01*
X0124438Y0151220D01*
X0126721Y0151220D01*
X0128532Y0151971D01*
X0130344Y0151220D01*
X0132626Y0151220D01*
X0134735Y0152094D01*
X0136349Y0153708D01*
X0137222Y0155816D01*
X0137222Y0158099D01*
X0136349Y0160207D01*
X0134735Y0161821D01*
X0132626Y0162694D01*
X0130344Y0162694D01*
X0128532Y0161944D01*
X0126721Y0162694D01*
X0124672Y0162694D01*
X0124672Y0163455D01*
X0123887Y0165351D01*
X0122437Y0166801D01*
X0120469Y0168769D01*
X0118574Y0169554D01*
X0087782Y0169554D01*
X0085887Y0168769D01*
X0085461Y0168344D01*
X0085036Y0168769D01*
X0083141Y0169554D01*
X0051168Y0169554D01*
X0049273Y0168769D01*
X0047823Y0167319D01*
X0046990Y0166486D01*
X0046990Y0166486D01*
X0045539Y0165036D01*
X0044754Y0163141D01*
X0044754Y0161509D02*
X0023529Y0161509D01*
X0023529Y0159910D02*
X0041091Y0159910D01*
X0040020Y0158312D02*
X0023529Y0158312D01*
X0023529Y0156713D02*
X0039787Y0156713D01*
X0039787Y0156565D02*
X0039940Y0155796D01*
X0040240Y0155072D01*
X0040676Y0154420D01*
X0041231Y0153865D01*
X0041883Y0153429D01*
X0042607Y0153129D01*
X0043376Y0152976D01*
X0043768Y0152976D01*
X0043768Y0156957D01*
X0039787Y0156957D01*
X0039787Y0156565D01*
X0040223Y0155115D02*
X0023529Y0155115D01*
X0023529Y0153516D02*
X0041753Y0153516D01*
X0043768Y0153516D02*
X0043769Y0153516D01*
X0043768Y0155115D02*
X0043769Y0155115D01*
X0043768Y0156713D02*
X0043769Y0156713D01*
X0043768Y0158312D02*
X0043769Y0158312D01*
X0043768Y0159910D02*
X0043769Y0159910D01*
X0045403Y0164706D02*
X0034612Y0164706D01*
X0038127Y0166304D02*
X0046808Y0166304D01*
X0048407Y0167903D02*
X0039899Y0167903D01*
X0041119Y0169501D02*
X0051040Y0169501D01*
X0042482Y0172698D02*
X0132272Y0172698D01*
X0132039Y0174297D02*
X0042820Y0174297D01*
X0042820Y0175895D02*
X0132039Y0175895D01*
X0132309Y0177494D02*
X0042657Y0177494D01*
X0042229Y0179093D02*
X0132737Y0179093D01*
X0133592Y0180691D02*
X0041495Y0180691D01*
X0040550Y0182290D02*
X0134703Y0182290D01*
X0132700Y0171100D02*
X0042042Y0171100D01*
X0050230Y0158557D02*
X0050230Y0157157D01*
X0049674Y0156957D01*
X0052499Y0151918D02*
X0052755Y0151918D01*
X0052427Y0150319D02*
X0023529Y0150319D01*
X0023529Y0148721D02*
X0050828Y0148721D01*
X0049230Y0147122D02*
X0023529Y0147122D01*
X0023529Y0145524D02*
X0042234Y0145524D01*
X0044358Y0145524D02*
X0047631Y0145524D01*
X0049320Y0141052D02*
X0043493Y0141052D01*
X0043296Y0141249D01*
X0035658Y0133611D01*
X0035658Y0045068D01*
X0051209Y0029517D01*
X0070304Y0029517D01*
X0074280Y0033493D01*
X0074280Y0036091D01*
X0074083Y0036288D01*
X0077498Y0030431D02*
X0080669Y0030431D01*
X0075780Y0028832D02*
X0095395Y0028832D01*
X0095537Y0028690D02*
X0095537Y0028690D01*
X0097320Y0027234D02*
X0074182Y0027234D01*
X0072317Y0025635D02*
X0132039Y0025635D01*
X0132039Y0024037D02*
X0042820Y0024037D01*
X0042820Y0025635D02*
X0049197Y0025635D01*
X0047332Y0027234D02*
X0042410Y0027234D01*
X0041887Y0028832D02*
X0045733Y0028832D01*
X0044135Y0030431D02*
X0040964Y0030431D01*
X0039629Y0032029D02*
X0042536Y0032029D01*
X0040938Y0033628D02*
X0037661Y0033628D01*
X0039339Y0035226D02*
X0033607Y0035226D01*
X0029836Y0035226D02*
X0023529Y0035226D01*
X0023529Y0033628D02*
X0025782Y0033628D01*
X0023813Y0032029D02*
X0023529Y0032029D01*
X0023529Y0036825D02*
X0037741Y0036825D01*
X0036142Y0038424D02*
X0023529Y0038424D01*
X0023529Y0040022D02*
X0034544Y0040022D01*
X0032945Y0041621D02*
X0023529Y0041621D01*
X0023529Y0043219D02*
X0031709Y0043219D01*
X0031302Y0044818D02*
X0023529Y0044818D01*
X0023529Y0046416D02*
X0031302Y0046416D01*
X0031302Y0048015D02*
X0023529Y0048015D01*
X0023529Y0049613D02*
X0031302Y0049613D01*
X0031302Y0051212D02*
X0023529Y0051212D01*
X0023529Y0052810D02*
X0031302Y0052810D01*
X0031302Y0054409D02*
X0023529Y0054409D01*
X0023529Y0056007D02*
X0031302Y0056007D01*
X0031302Y0057606D02*
X0023529Y0057606D01*
X0023529Y0059204D02*
X0031302Y0059204D01*
X0031302Y0060803D02*
X0023529Y0060803D01*
X0023529Y0062401D02*
X0031302Y0062401D01*
X0031302Y0064000D02*
X0023529Y0064000D01*
X0023529Y0065598D02*
X0031302Y0065598D01*
X0031302Y0067197D02*
X0023529Y0067197D01*
X0023529Y0068795D02*
X0031302Y0068795D01*
X0031302Y0070394D02*
X0023529Y0070394D01*
X0023529Y0071992D02*
X0031302Y0071992D01*
X0031302Y0073591D02*
X0023529Y0073591D01*
X0023529Y0075189D02*
X0031302Y0075189D01*
X0031302Y0076788D02*
X0023529Y0076788D01*
X0023529Y0078386D02*
X0031302Y0078386D01*
X0031302Y0079985D02*
X0023529Y0079985D01*
X0023529Y0081583D02*
X0031302Y0081583D01*
X0031302Y0083182D02*
X0023529Y0083182D01*
X0023529Y0084780D02*
X0031302Y0084780D01*
X0031302Y0086379D02*
X0023529Y0086379D01*
X0023529Y0087977D02*
X0031302Y0087977D01*
X0031302Y0089576D02*
X0023529Y0089576D01*
X0023529Y0091174D02*
X0031302Y0091174D01*
X0031302Y0092773D02*
X0023529Y0092773D01*
X0023529Y0094371D02*
X0031302Y0094371D01*
X0031302Y0095970D02*
X0023529Y0095970D01*
X0023529Y0097568D02*
X0031302Y0097568D01*
X0031302Y0099167D02*
X0023529Y0099167D01*
X0023529Y0100765D02*
X0031302Y0100765D01*
X0031302Y0102364D02*
X0023529Y0102364D01*
X0023529Y0103962D02*
X0031302Y0103962D01*
X0031302Y0105561D02*
X0023529Y0105561D01*
X0023529Y0107159D02*
X0031302Y0107159D01*
X0031302Y0108758D02*
X0023529Y0108758D01*
X0023529Y0110357D02*
X0031302Y0110357D01*
X0031302Y0111955D02*
X0023529Y0111955D01*
X0023529Y0113554D02*
X0031302Y0113554D01*
X0031302Y0115152D02*
X0023529Y0115152D01*
X0023529Y0116751D02*
X0031302Y0116751D01*
X0031302Y0118349D02*
X0023529Y0118349D01*
X0023529Y0119948D02*
X0031302Y0119948D01*
X0031302Y0121546D02*
X0023529Y0121546D01*
X0023529Y0123145D02*
X0031302Y0123145D01*
X0031302Y0124743D02*
X0023529Y0124743D01*
X0023529Y0126342D02*
X0031302Y0126342D01*
X0031302Y0127940D02*
X0023529Y0127940D01*
X0023529Y0129539D02*
X0031302Y0129539D01*
X0031302Y0131137D02*
X0023529Y0131137D01*
X0023529Y0132736D02*
X0031302Y0132736D01*
X0031302Y0134334D02*
X0023529Y0134334D01*
X0023529Y0135933D02*
X0031905Y0135933D01*
X0033418Y0137531D02*
X0023529Y0137531D01*
X0023529Y0139130D02*
X0035017Y0139130D01*
X0036615Y0140728D02*
X0023529Y0140728D01*
X0023529Y0142327D02*
X0038214Y0142327D01*
X0039812Y0143925D02*
X0023529Y0143925D01*
X0023529Y0151918D02*
X0046849Y0151918D01*
X0049320Y0141052D02*
X0061485Y0153217D01*
X0061485Y0156957D01*
X0067222Y0156713D02*
X0074787Y0156713D01*
X0074787Y0156565D02*
X0074940Y0155796D01*
X0075240Y0155072D01*
X0075676Y0154420D01*
X0076231Y0153865D01*
X0076883Y0153429D01*
X0077607Y0153129D01*
X0078376Y0152976D01*
X0078768Y0152976D01*
X0078768Y0156957D01*
X0074787Y0156957D01*
X0074787Y0156565D01*
X0075223Y0155115D02*
X0066931Y0155115D01*
X0066157Y0153516D02*
X0076753Y0153516D01*
X0078768Y0153516D02*
X0078769Y0153516D01*
X0078768Y0155115D02*
X0078769Y0155115D01*
X0078768Y0156713D02*
X0078769Y0156713D01*
X0075020Y0158312D02*
X0067134Y0158312D01*
X0065662Y0151918D02*
X0081849Y0151918D01*
X0087499Y0151918D02*
X0087755Y0151918D01*
X0093404Y0151918D02*
X0093660Y0151918D01*
X0099310Y0151918D02*
X0116849Y0151918D01*
X0113768Y0152976D02*
X0113768Y0156957D01*
X0109787Y0156957D01*
X0109787Y0156565D01*
X0109940Y0155796D01*
X0110240Y0155072D01*
X0110676Y0154420D01*
X0111231Y0153865D01*
X0111883Y0153429D01*
X0112607Y0153129D01*
X0113376Y0152976D01*
X0113768Y0152976D01*
X0113768Y0153516D02*
X0113769Y0153516D01*
X0113768Y0155115D02*
X0113769Y0155115D01*
X0113768Y0156713D02*
X0113769Y0156713D01*
X0111753Y0153516D02*
X0101157Y0153516D01*
X0101931Y0155115D02*
X0110223Y0155115D01*
X0109787Y0156713D02*
X0102222Y0156713D01*
X0102134Y0158312D02*
X0110020Y0158312D01*
X0118701Y0169501D02*
X0133513Y0169501D01*
X0134567Y0167903D02*
X0121335Y0167903D01*
X0122934Y0166304D02*
X0136166Y0166304D01*
X0138819Y0164706D02*
X0124154Y0164706D01*
X0124672Y0163107D02*
X0151724Y0163107D01*
X0151724Y0161509D02*
X0135047Y0161509D01*
X0136472Y0159910D02*
X0151724Y0159910D01*
X0151724Y0158312D02*
X0137134Y0158312D01*
X0137222Y0156713D02*
X0151724Y0156713D01*
X0151724Y0155115D02*
X0136931Y0155115D01*
X0136157Y0153516D02*
X0151724Y0153516D01*
X0151724Y0151918D02*
X0134310Y0151918D01*
X0128660Y0151918D02*
X0128404Y0151918D01*
X0122755Y0151918D02*
X0122499Y0151918D01*
X0115740Y0131137D02*
X0100419Y0131137D01*
X0099735Y0131821D02*
X0097626Y0132694D01*
X0095344Y0132694D01*
X0093532Y0131944D01*
X0091721Y0132694D01*
X0089438Y0132694D01*
X0087627Y0131944D01*
X0085815Y0132694D01*
X0083533Y0132694D01*
X0081424Y0131821D01*
X0080254Y0130651D01*
X0079930Y0130786D01*
X0079161Y0130939D01*
X0078769Y0130939D01*
X0078769Y0126958D01*
X0078768Y0126958D01*
X0078768Y0130939D01*
X0078376Y0130939D01*
X0077607Y0130786D01*
X0076883Y0130485D01*
X0076231Y0130050D01*
X0075676Y0129495D01*
X0075240Y0128843D01*
X0074940Y0128119D01*
X0074787Y0127350D01*
X0074787Y0126958D01*
X0078768Y0126958D01*
X0078768Y0126957D01*
X0078769Y0126957D01*
X0078769Y0122976D01*
X0079161Y0122976D01*
X0079930Y0123129D01*
X0080254Y0123264D01*
X0081424Y0122094D01*
X0083533Y0121220D01*
X0085815Y0121220D01*
X0087627Y0121971D01*
X0089438Y0121220D01*
X0091721Y0121220D01*
X0093532Y0121971D01*
X0095344Y0121220D01*
X0097626Y0121220D01*
X0099735Y0122094D01*
X0101349Y0123708D01*
X0102222Y0125816D01*
X0102222Y0128099D01*
X0101349Y0130207D01*
X0099735Y0131821D01*
X0101626Y0129539D02*
X0110720Y0129539D01*
X0109905Y0127940D02*
X0102222Y0127940D01*
X0102222Y0126342D02*
X0109832Y0126342D01*
X0109787Y0126565D02*
X0109940Y0125796D01*
X0110240Y0125072D01*
X0110676Y0124420D01*
X0111231Y0123865D01*
X0111883Y0123429D01*
X0112607Y0123129D01*
X0113376Y0122976D01*
X0113768Y0122976D01*
X0113768Y0126957D01*
X0109787Y0126957D01*
X0109787Y0126565D01*
X0110460Y0124743D02*
X0101777Y0124743D01*
X0100786Y0123145D02*
X0112570Y0123145D01*
X0113768Y0123145D02*
X0113769Y0123145D01*
X0114967Y0123145D02*
X0115374Y0123145D01*
X0113769Y0124743D02*
X0113768Y0124743D01*
X0113768Y0126342D02*
X0113769Y0126342D01*
X0113768Y0127940D02*
X0113769Y0127940D01*
X0113768Y0129539D02*
X0113769Y0129539D01*
X0117747Y0121546D02*
X0098412Y0121546D01*
X0094558Y0121546D02*
X0092507Y0121546D01*
X0088652Y0121546D02*
X0086601Y0121546D01*
X0082747Y0121546D02*
X0063412Y0121546D01*
X0065786Y0123145D02*
X0077570Y0123145D01*
X0077607Y0123129D02*
X0078376Y0122976D01*
X0078768Y0122976D01*
X0078768Y0126957D01*
X0074787Y0126957D01*
X0074787Y0126565D01*
X0074940Y0125796D01*
X0075240Y0125072D01*
X0075676Y0124420D01*
X0076231Y0123865D01*
X0076883Y0123429D01*
X0077607Y0123129D01*
X0078768Y0123145D02*
X0078769Y0123145D01*
X0079967Y0123145D02*
X0080374Y0123145D01*
X0078769Y0124743D02*
X0078768Y0124743D01*
X0078768Y0126342D02*
X0078769Y0126342D01*
X0078230Y0126357D02*
X0078769Y0126957D01*
X0078768Y0127940D02*
X0078769Y0127940D01*
X0078768Y0129539D02*
X0078769Y0129539D01*
X0080740Y0131137D02*
X0065841Y0131137D01*
X0065841Y0132736D02*
X0151724Y0132736D01*
X0151724Y0134334D02*
X0065672Y0134334D01*
X0064772Y0135933D02*
X0151724Y0135933D01*
X0151724Y0137531D02*
X0063174Y0137531D01*
X0061575Y0139130D02*
X0151724Y0139130D01*
X0151724Y0140728D02*
X0055156Y0140728D01*
X0056755Y0142327D02*
X0151724Y0142327D01*
X0151724Y0143925D02*
X0058353Y0143925D01*
X0059952Y0145524D02*
X0151724Y0145524D01*
X0151724Y0147122D02*
X0061550Y0147122D01*
X0063149Y0148721D02*
X0151724Y0148721D01*
X0151724Y0150319D02*
X0064747Y0150319D01*
X0058887Y0135658D02*
X0042351Y0135658D01*
X0038808Y0132115D01*
X0038808Y0061564D01*
X0054083Y0046288D01*
X0058431Y0051212D02*
X0059735Y0051212D01*
X0059083Y0050560D02*
X0056799Y0052844D01*
X0053688Y0052844D01*
X0043164Y0063368D01*
X0043164Y0068019D01*
X0043376Y0067976D01*
X0043768Y0067976D01*
X0043768Y0071957D01*
X0043769Y0071957D01*
X0043769Y0067976D01*
X0044161Y0067976D01*
X0044930Y0068129D01*
X0045254Y0068264D01*
X0046424Y0067094D01*
X0048533Y0066220D01*
X0050815Y0066220D01*
X0052627Y0066971D01*
X0054438Y0066220D01*
X0056721Y0066220D01*
X0057897Y0066708D01*
X0073517Y0051088D01*
X0072095Y0051088D01*
X0070325Y0049318D01*
X0066799Y0052844D01*
X0061368Y0052844D01*
X0059083Y0050560D01*
X0056833Y0052810D02*
X0061334Y0052810D01*
X0066833Y0052810D02*
X0071795Y0052810D01*
X0073394Y0051212D02*
X0068431Y0051212D01*
X0070030Y0049613D02*
X0070620Y0049613D01*
X0070197Y0054409D02*
X0052123Y0054409D01*
X0050525Y0056007D02*
X0068598Y0056007D01*
X0067000Y0057606D02*
X0048926Y0057606D01*
X0047328Y0059204D02*
X0065401Y0059204D01*
X0063802Y0060803D02*
X0045729Y0060803D01*
X0044131Y0062401D02*
X0062204Y0062401D01*
X0060605Y0064000D02*
X0043164Y0064000D01*
X0043164Y0065598D02*
X0059007Y0065598D01*
X0061485Y0069280D02*
X0078965Y0051800D01*
X0078965Y0041406D01*
X0084083Y0036288D01*
X0087498Y0030431D02*
X0090669Y0030431D01*
X0095030Y0035357D02*
X0094083Y0036288D01*
X0095030Y0035357D02*
X0099230Y0031157D01*
X0124858Y0031157D01*
X0131328Y0037627D01*
X0131328Y0046455D01*
X0131430Y0046557D01*
X0126786Y0044818D02*
X0120639Y0044818D01*
X0120639Y0046416D02*
X0126474Y0046416D01*
X0126669Y0048015D02*
X0121970Y0048015D01*
X0123569Y0049613D02*
X0127477Y0049613D01*
X0129716Y0051212D02*
X0125167Y0051212D01*
X0126766Y0052810D02*
X0151724Y0052810D01*
X0151724Y0051212D02*
X0133144Y0051212D01*
X0135383Y0049613D02*
X0151724Y0049613D01*
X0151724Y0048015D02*
X0136191Y0048015D01*
X0136386Y0046416D02*
X0151724Y0046416D01*
X0151724Y0044818D02*
X0136073Y0044818D01*
X0135683Y0043219D02*
X0151724Y0043219D01*
X0151724Y0041621D02*
X0135683Y0041621D01*
X0135683Y0040022D02*
X0151724Y0040022D01*
X0151724Y0038424D02*
X0135683Y0038424D01*
X0135683Y0036825D02*
X0151724Y0036825D01*
X0151724Y0035226D02*
X0146493Y0035226D01*
X0149760Y0033628D02*
X0151724Y0033628D01*
X0151724Y0032029D02*
X0151440Y0032029D01*
X0139784Y0035226D02*
X0135048Y0035226D01*
X0136517Y0033628D02*
X0133489Y0033628D01*
X0134837Y0032029D02*
X0131890Y0032029D01*
X0130292Y0030431D02*
X0133669Y0030431D01*
X0132773Y0028832D02*
X0128693Y0028832D01*
X0126769Y0027234D02*
X0132344Y0027234D01*
X0132236Y0022438D02*
X0042729Y0022438D01*
X0042301Y0020840D02*
X0132665Y0020840D01*
X0133436Y0019241D02*
X0041651Y0019241D01*
X0040728Y0017643D02*
X0134434Y0017643D01*
X0124366Y0036825D02*
X0120639Y0036825D01*
X0120639Y0038424D02*
X0125964Y0038424D01*
X0126972Y0040022D02*
X0119621Y0040022D01*
X0118687Y0041621D02*
X0126972Y0041621D01*
X0126972Y0043219D02*
X0120286Y0043219D01*
X0114083Y0046288D02*
X0136052Y0068257D01*
X0136052Y0105343D01*
X0131485Y0109910D01*
X0131485Y0126957D01*
X0136777Y0124743D02*
X0151724Y0124743D01*
X0151724Y0123145D02*
X0135841Y0123145D01*
X0135841Y0121546D02*
X0151724Y0121546D01*
X0151724Y0119948D02*
X0135841Y0119948D01*
X0135841Y0118349D02*
X0151724Y0118349D01*
X0151724Y0116751D02*
X0135841Y0116751D01*
X0135841Y0115152D02*
X0151724Y0115152D01*
X0151724Y0113554D02*
X0135841Y0113554D01*
X0135841Y0111955D02*
X0151724Y0111955D01*
X0151724Y0110357D02*
X0137199Y0110357D01*
X0138797Y0108758D02*
X0151724Y0108758D01*
X0151724Y0107159D02*
X0140014Y0107159D01*
X0140408Y0105561D02*
X0151724Y0105561D01*
X0151724Y0103962D02*
X0140408Y0103962D01*
X0140408Y0102364D02*
X0151724Y0102364D01*
X0151724Y0100765D02*
X0140408Y0100765D01*
X0140408Y0099167D02*
X0151724Y0099167D01*
X0151724Y0097568D02*
X0140408Y0097568D01*
X0140408Y0095970D02*
X0151724Y0095970D01*
X0151724Y0094371D02*
X0140408Y0094371D01*
X0140408Y0092773D02*
X0151724Y0092773D01*
X0151724Y0091174D02*
X0140408Y0091174D01*
X0140408Y0089576D02*
X0151724Y0089576D01*
X0151724Y0087977D02*
X0140408Y0087977D01*
X0140408Y0086379D02*
X0151724Y0086379D01*
X0151724Y0084780D02*
X0140408Y0084780D01*
X0140408Y0083182D02*
X0151724Y0083182D01*
X0151724Y0081583D02*
X0140408Y0081583D01*
X0140408Y0079985D02*
X0151724Y0079985D01*
X0151724Y0078386D02*
X0140408Y0078386D01*
X0140408Y0076788D02*
X0151724Y0076788D01*
X0151724Y0075189D02*
X0140408Y0075189D01*
X0140408Y0073591D02*
X0151724Y0073591D01*
X0151724Y0071992D02*
X0140408Y0071992D01*
X0140408Y0070394D02*
X0151724Y0070394D01*
X0151724Y0068795D02*
X0140408Y0068795D01*
X0140328Y0067197D02*
X0151724Y0067197D01*
X0151724Y0065598D02*
X0139554Y0065598D01*
X0137955Y0064000D02*
X0151724Y0064000D01*
X0151724Y0062401D02*
X0136357Y0062401D01*
X0134758Y0060803D02*
X0151724Y0060803D01*
X0151724Y0059204D02*
X0133160Y0059204D01*
X0131561Y0057606D02*
X0151724Y0057606D01*
X0151724Y0056007D02*
X0129963Y0056007D01*
X0128364Y0054409D02*
X0151724Y0054409D01*
X0131696Y0070394D02*
X0096847Y0070394D01*
X0095248Y0071992D02*
X0131696Y0071992D01*
X0131696Y0073591D02*
X0093650Y0073591D01*
X0092051Y0075189D02*
X0131696Y0075189D01*
X0131696Y0076788D02*
X0090453Y0076788D01*
X0088854Y0078386D02*
X0131696Y0078386D01*
X0131696Y0079985D02*
X0087256Y0079985D01*
X0085657Y0081583D02*
X0131696Y0081583D01*
X0131696Y0083182D02*
X0084059Y0083182D01*
X0082460Y0084780D02*
X0131696Y0084780D01*
X0131696Y0086379D02*
X0080862Y0086379D01*
X0079263Y0087977D02*
X0131696Y0087977D01*
X0131696Y0089576D02*
X0077665Y0089576D01*
X0076066Y0091174D02*
X0131696Y0091174D01*
X0129546Y0102364D02*
X0127519Y0102364D01*
X0129674Y0105561D02*
X0043164Y0105561D01*
X0043164Y0107159D02*
X0128076Y0107159D01*
X0127248Y0108758D02*
X0043164Y0108758D01*
X0043164Y0110357D02*
X0127129Y0110357D01*
X0127129Y0111955D02*
X0043164Y0111955D01*
X0043164Y0113554D02*
X0127129Y0113554D01*
X0127129Y0115152D02*
X0043164Y0115152D01*
X0043164Y0116751D02*
X0127129Y0116751D01*
X0127129Y0118349D02*
X0043164Y0118349D01*
X0043164Y0119948D02*
X0127129Y0119948D01*
X0123652Y0121546D02*
X0121601Y0121546D01*
X0135419Y0131137D02*
X0151724Y0131137D01*
X0151724Y0129539D02*
X0136626Y0129539D01*
X0137222Y0127940D02*
X0151724Y0127940D01*
X0151724Y0126342D02*
X0137222Y0126342D01*
X0131273Y0103962D02*
X0043164Y0103962D01*
X0043164Y0102364D02*
X0047735Y0102364D01*
X0045369Y0100765D02*
X0044978Y0100765D01*
X0043769Y0100765D02*
X0043768Y0100765D01*
X0043768Y0099167D02*
X0043769Y0099167D01*
X0043768Y0097568D02*
X0043769Y0097568D01*
X0043769Y0096957D02*
X0043769Y0092976D01*
X0044161Y0092976D01*
X0044930Y0093129D01*
X0045254Y0093264D01*
X0046424Y0092094D01*
X0048533Y0091220D01*
X0050815Y0091220D01*
X0052627Y0091971D01*
X0054438Y0091220D01*
X0056721Y0091220D01*
X0058532Y0091971D01*
X0060344Y0091220D01*
X0062626Y0091220D01*
X0063385Y0091535D01*
X0102076Y0052844D01*
X0101368Y0052844D01*
X0099083Y0050560D01*
X0096799Y0052844D01*
X0091368Y0052844D01*
X0089083Y0050560D01*
X0086799Y0052844D01*
X0083248Y0052844D01*
X0082658Y0054267D01*
X0081433Y0055493D01*
X0066896Y0070029D01*
X0067222Y0070816D01*
X0067222Y0073099D01*
X0066349Y0075207D01*
X0064735Y0076821D01*
X0062626Y0077694D01*
X0060344Y0077694D01*
X0058532Y0076944D01*
X0056721Y0077694D01*
X0054438Y0077694D01*
X0052627Y0076944D01*
X0050815Y0077694D01*
X0048533Y0077694D01*
X0046424Y0076821D01*
X0045254Y0075651D01*
X0044930Y0075786D01*
X0044161Y0075939D01*
X0043769Y0075939D01*
X0043769Y0071958D01*
X0043768Y0071958D01*
X0043768Y0075939D01*
X0043376Y0075939D01*
X0043164Y0075896D01*
X0043164Y0093019D01*
X0043376Y0092976D01*
X0043768Y0092976D01*
X0043768Y0096957D01*
X0043769Y0096957D01*
X0043768Y0095970D02*
X0043769Y0095970D01*
X0043768Y0094371D02*
X0043769Y0094371D01*
X0043164Y0092773D02*
X0045745Y0092773D01*
X0043164Y0091174D02*
X0063746Y0091174D01*
X0065344Y0089576D02*
X0043164Y0089576D01*
X0043164Y0087977D02*
X0066943Y0087977D01*
X0068541Y0086379D02*
X0043164Y0086379D01*
X0043164Y0084780D02*
X0070140Y0084780D01*
X0071738Y0083182D02*
X0043164Y0083182D01*
X0043164Y0081583D02*
X0073337Y0081583D01*
X0074935Y0079985D02*
X0043164Y0079985D01*
X0043164Y0078386D02*
X0076534Y0078386D01*
X0078132Y0076788D02*
X0064768Y0076788D01*
X0066356Y0075189D02*
X0079731Y0075189D01*
X0081329Y0073591D02*
X0067018Y0073591D01*
X0067222Y0071992D02*
X0082928Y0071992D01*
X0084526Y0070394D02*
X0067047Y0070394D01*
X0068130Y0068795D02*
X0086125Y0068795D01*
X0087723Y0067197D02*
X0069729Y0067197D01*
X0071327Y0065598D02*
X0089322Y0065598D01*
X0090920Y0064000D02*
X0072926Y0064000D01*
X0074524Y0062401D02*
X0092519Y0062401D01*
X0094117Y0060803D02*
X0076123Y0060803D01*
X0077721Y0059204D02*
X0095716Y0059204D01*
X0097314Y0057606D02*
X0079320Y0057606D01*
X0080918Y0056007D02*
X0098913Y0056007D01*
X0100512Y0054409D02*
X0082517Y0054409D01*
X0086833Y0052810D02*
X0091334Y0052810D01*
X0089735Y0051212D02*
X0088431Y0051212D01*
X0096833Y0052810D02*
X0101334Y0052810D01*
X0099735Y0051212D02*
X0098431Y0051212D01*
X0106438Y0060803D02*
X0122438Y0060803D01*
X0124036Y0062401D02*
X0104839Y0062401D01*
X0103241Y0064000D02*
X0125635Y0064000D01*
X0127233Y0065598D02*
X0101642Y0065598D01*
X0100044Y0067197D02*
X0128832Y0067197D01*
X0130430Y0068795D02*
X0098445Y0068795D01*
X0108036Y0059204D02*
X0120839Y0059204D01*
X0119241Y0057606D02*
X0109635Y0057606D01*
X0111233Y0056007D02*
X0117642Y0056007D01*
X0116044Y0054409D02*
X0112832Y0054409D01*
X0109280Y0051800D02*
X0109280Y0041091D01*
X0114083Y0036288D01*
X0109280Y0051800D02*
X0064123Y0096957D01*
X0061485Y0096957D01*
X0059546Y0102364D02*
X0057519Y0102364D01*
X0053640Y0102364D02*
X0051613Y0102364D01*
X0063424Y0102364D02*
X0082735Y0102364D01*
X0083533Y0102694D02*
X0081424Y0101821D01*
X0080254Y0100651D01*
X0079930Y0100786D01*
X0079161Y0100939D01*
X0078769Y0100939D01*
X0078769Y0096958D01*
X0078768Y0096958D01*
X0078768Y0100939D01*
X0078376Y0100939D01*
X0077607Y0100786D01*
X0076883Y0100485D01*
X0076231Y0100050D01*
X0075676Y0099495D01*
X0075240Y0098843D01*
X0074940Y0098119D01*
X0074787Y0097350D01*
X0074787Y0096958D01*
X0078768Y0096958D01*
X0078768Y0096957D01*
X0078769Y0096957D01*
X0078769Y0092976D01*
X0079161Y0092976D01*
X0079930Y0093129D01*
X0080254Y0093264D01*
X0081424Y0092094D01*
X0083533Y0091220D01*
X0085815Y0091220D01*
X0087627Y0091971D01*
X0089438Y0091220D01*
X0091721Y0091220D01*
X0093532Y0091971D01*
X0095344Y0091220D01*
X0097626Y0091220D01*
X0099735Y0092094D01*
X0101349Y0093708D01*
X0102222Y0095816D01*
X0102222Y0098099D01*
X0101349Y0100207D01*
X0099735Y0101821D01*
X0097626Y0102694D01*
X0095344Y0102694D01*
X0093532Y0101944D01*
X0091721Y0102694D01*
X0089438Y0102694D01*
X0087627Y0101944D01*
X0085815Y0102694D01*
X0083533Y0102694D01*
X0086613Y0102364D02*
X0088640Y0102364D01*
X0092519Y0102364D02*
X0094546Y0102364D01*
X0098424Y0102364D02*
X0117735Y0102364D01*
X0115369Y0100765D02*
X0114978Y0100765D01*
X0113769Y0100765D02*
X0113768Y0100765D01*
X0112559Y0100765D02*
X0100790Y0100765D01*
X0101780Y0099167D02*
X0110457Y0099167D01*
X0109831Y0097568D02*
X0102222Y0097568D01*
X0102222Y0095970D02*
X0109906Y0095970D01*
X0109940Y0095796D02*
X0110240Y0095072D01*
X0110676Y0094420D01*
X0111231Y0093865D01*
X0111883Y0093429D01*
X0112607Y0093129D01*
X0113376Y0092976D01*
X0113768Y0092976D01*
X0113768Y0096957D01*
X0109787Y0096957D01*
X0109787Y0096565D01*
X0109940Y0095796D01*
X0110724Y0094371D02*
X0101624Y0094371D01*
X0100414Y0092773D02*
X0115745Y0092773D01*
X0113769Y0094371D02*
X0113768Y0094371D01*
X0113768Y0095970D02*
X0113769Y0095970D01*
X0113768Y0097568D02*
X0113769Y0097568D01*
X0113768Y0099167D02*
X0113769Y0099167D01*
X0121613Y0102364D02*
X0123640Y0102364D01*
X0080369Y0100765D02*
X0079978Y0100765D01*
X0078769Y0100765D02*
X0078768Y0100765D01*
X0077559Y0100765D02*
X0066312Y0100765D01*
X0068074Y0099167D02*
X0075457Y0099167D01*
X0074831Y0097568D02*
X0069672Y0097568D01*
X0071271Y0095970D02*
X0074906Y0095970D01*
X0074940Y0095796D02*
X0075240Y0095072D01*
X0075676Y0094420D01*
X0076231Y0093865D01*
X0076883Y0093429D01*
X0077607Y0093129D01*
X0078376Y0092976D01*
X0078768Y0092976D01*
X0078768Y0096957D01*
X0074787Y0096957D01*
X0074787Y0096565D01*
X0074940Y0095796D01*
X0075724Y0094371D02*
X0072869Y0094371D01*
X0074468Y0092773D02*
X0080745Y0092773D01*
X0078769Y0094371D02*
X0078768Y0094371D01*
X0078768Y0095970D02*
X0078769Y0095970D01*
X0078768Y0097568D02*
X0078769Y0097568D01*
X0078768Y0099167D02*
X0078769Y0099167D01*
X0059558Y0121546D02*
X0057507Y0121546D01*
X0053652Y0121546D02*
X0051601Y0121546D01*
X0047747Y0121546D02*
X0043164Y0121546D01*
X0043768Y0123145D02*
X0043769Y0123145D01*
X0044967Y0123145D02*
X0045374Y0123145D01*
X0043769Y0124743D02*
X0043768Y0124743D01*
X0043768Y0126342D02*
X0043769Y0126342D01*
X0043769Y0126957D02*
X0044630Y0126357D01*
X0058887Y0135658D02*
X0061485Y0133060D01*
X0061485Y0126957D01*
X0066777Y0124743D02*
X0075460Y0124743D01*
X0074832Y0126342D02*
X0067222Y0126342D01*
X0067222Y0127940D02*
X0074905Y0127940D01*
X0075720Y0129539D02*
X0066626Y0129539D01*
X0083268Y0169501D02*
X0087655Y0169501D01*
X0147458Y0164706D02*
X0151724Y0164706D01*
X0151724Y0166304D02*
X0150111Y0166304D01*
X0151710Y0167903D02*
X0151724Y0167903D01*
X0061485Y0071957D02*
X0061485Y0069280D01*
X0046321Y0067197D02*
X0043164Y0067197D01*
X0043768Y0068795D02*
X0043769Y0068795D01*
X0043768Y0070394D02*
X0043769Y0070394D01*
X0043768Y0071992D02*
X0043769Y0071992D01*
X0043768Y0073591D02*
X0043769Y0073591D01*
X0043768Y0075189D02*
X0043769Y0075189D01*
X0043164Y0076788D02*
X0046391Y0076788D01*
D13*
X0045501Y0117942D02*
X0070973Y0117942D01*
X0078230Y0125198D01*
X0078230Y0126357D01*
X0081721Y0148257D02*
X0109280Y0148257D01*
X0113769Y0152745D01*
X0113769Y0156957D01*
X0119517Y0157115D02*
X0119517Y0162430D01*
X0117548Y0164398D01*
X0088808Y0164398D01*
X0085230Y0160820D01*
X0085230Y0157157D01*
X0084674Y0156957D02*
X0084477Y0157154D01*
X0084477Y0162036D01*
X0082115Y0164398D01*
X0052194Y0164398D01*
X0049910Y0162115D01*
X0049910Y0157194D01*
X0049674Y0156957D01*
X0043769Y0126957D02*
X0043769Y0119674D01*
X0045501Y0117942D01*
X0078769Y0151209D02*
X0081721Y0148257D01*
X0078769Y0151209D02*
X0078769Y0156957D01*
X0119517Y0157115D02*
X0119674Y0156957D01*
X0119635Y0156997D01*
X0119635Y0160068D01*
D14*
X0131430Y0046557D03*
M02*
