G75*
%MOIN*%
%OFA0B0*%
%FSLAX25Y25*%
%IPPOS*%
%LPD*%
%AMOC8*
5,1,8,0,0,1.08239X$1,22.5*
%
%ADD10OC8,0.06000*%
%ADD11C,0.04362*%
%ADD12C,0.01600*%
%ADD13C,0.03200*%
%ADD14C,0.02800*%
D10*
X0054083Y0036288D03*
X0054083Y0046288D03*
X0064083Y0046288D03*
X0064083Y0036288D03*
X0074083Y0036288D03*
X0074083Y0046288D03*
X0084083Y0046288D03*
X0084083Y0036288D03*
X0094083Y0036288D03*
X0094083Y0046288D03*
X0104083Y0046288D03*
X0104083Y0036288D03*
X0114083Y0036288D03*
X0114083Y0046288D03*
D11*
X0113769Y0096957D03*
X0119674Y0096957D03*
X0125580Y0096957D03*
X0131485Y0096957D03*
X0131485Y0126957D03*
X0125580Y0126957D03*
X0119674Y0126957D03*
X0113769Y0126957D03*
X0096485Y0126957D03*
X0090580Y0126957D03*
X0084674Y0126957D03*
X0078769Y0126957D03*
X0061485Y0126957D03*
X0055580Y0126957D03*
X0049674Y0126957D03*
X0043769Y0126957D03*
X0043769Y0096957D03*
X0049674Y0096957D03*
X0055580Y0096957D03*
X0061485Y0096957D03*
X0078769Y0096957D03*
X0084674Y0096957D03*
X0090580Y0096957D03*
X0096485Y0096957D03*
X0061485Y0071957D03*
X0055580Y0071957D03*
X0049674Y0071957D03*
X0043769Y0071957D03*
X0043769Y0156957D03*
X0049674Y0156957D03*
X0055580Y0156957D03*
X0061485Y0156957D03*
X0078769Y0156957D03*
X0084674Y0156957D03*
X0090580Y0156957D03*
X0096485Y0156957D03*
X0113769Y0156957D03*
X0119674Y0156957D03*
X0125580Y0156957D03*
X0131485Y0156957D03*
D12*
X0023529Y0167918D02*
X0023529Y0031745D01*
X0024906Y0033123D01*
X0027437Y0034584D01*
X0030260Y0035340D01*
X0033182Y0035340D01*
X0036005Y0034584D01*
X0038536Y0033123D01*
X0040603Y0031056D01*
X0042064Y0028525D01*
X0042820Y0025702D01*
X0042820Y0022780D01*
X0042064Y0019957D01*
X0040603Y0017426D01*
X0039226Y0016049D01*
X0136028Y0016049D01*
X0134257Y0017820D01*
X0132796Y0020351D01*
X0132039Y0023173D01*
X0132039Y0026096D01*
X0132796Y0028919D01*
X0134257Y0031450D01*
X0136323Y0033516D01*
X0138854Y0034977D01*
X0141677Y0035734D01*
X0144600Y0035734D01*
X0147423Y0034977D01*
X0149954Y0033516D01*
X0151724Y0031745D01*
X0151724Y0167918D01*
X0149954Y0166147D01*
X0147423Y0164686D01*
X0144600Y0163929D01*
X0141677Y0163929D01*
X0138854Y0164686D01*
X0136323Y0166147D01*
X0134257Y0168213D01*
X0132796Y0170744D01*
X0132039Y0173567D01*
X0132039Y0176490D01*
X0132796Y0179312D01*
X0134257Y0181843D01*
X0135969Y0183555D01*
X0039560Y0183280D01*
X0040603Y0182237D01*
X0042064Y0179706D01*
X0042820Y0176883D01*
X0042820Y0173961D01*
X0042064Y0171138D01*
X0040603Y0168607D01*
X0038536Y0166540D01*
X0036005Y0165079D01*
X0033182Y0164323D01*
X0030260Y0164323D01*
X0027437Y0165079D01*
X0024906Y0166540D01*
X0023529Y0167918D01*
X0023529Y0167903D02*
X0023544Y0167903D01*
X0023529Y0166304D02*
X0025315Y0166304D01*
X0023529Y0164706D02*
X0028830Y0164706D01*
X0023529Y0163107D02*
X0050740Y0163107D01*
X0050569Y0162694D02*
X0048533Y0162694D01*
X0046424Y0161821D01*
X0045254Y0160651D01*
X0044930Y0160786D01*
X0044161Y0160939D01*
X0043769Y0160939D01*
X0043769Y0156958D01*
X0043768Y0156958D01*
X0043768Y0160939D01*
X0043376Y0160939D01*
X0042607Y0160786D01*
X0041883Y0160485D01*
X0041231Y0160050D01*
X0040676Y0159495D01*
X0040240Y0158843D01*
X0039940Y0158119D01*
X0039787Y0157350D01*
X0039787Y0156958D01*
X0043768Y0156958D01*
X0043768Y0156957D01*
X0043769Y0156957D01*
X0043769Y0152976D01*
X0044161Y0152976D01*
X0044518Y0153047D01*
X0044518Y0130867D01*
X0044161Y0130939D01*
X0043769Y0130939D01*
X0043769Y0126958D01*
X0043768Y0126958D01*
X0043768Y0130939D01*
X0043376Y0130939D01*
X0042607Y0130786D01*
X0041883Y0130485D01*
X0041231Y0130050D01*
X0040676Y0129495D01*
X0040240Y0128843D01*
X0039940Y0128119D01*
X0039787Y0127350D01*
X0039787Y0126958D01*
X0043768Y0126958D01*
X0043768Y0126957D01*
X0043769Y0126957D01*
X0043769Y0122976D01*
X0044161Y0122976D01*
X0044518Y0123047D01*
X0044518Y0100867D01*
X0044161Y0100939D01*
X0043769Y0100939D01*
X0043769Y0096958D01*
X0043768Y0096958D01*
X0043768Y0100939D01*
X0043376Y0100939D01*
X0042607Y0100786D01*
X0041883Y0100485D01*
X0041231Y0100050D01*
X0040676Y0099495D01*
X0040240Y0098843D01*
X0039940Y0098119D01*
X0039787Y0097350D01*
X0039787Y0096958D01*
X0043768Y0096958D01*
X0043768Y0096957D01*
X0043769Y0096957D01*
X0043769Y0092976D01*
X0044161Y0092976D01*
X0044518Y0093047D01*
X0044518Y0075867D01*
X0044161Y0075939D01*
X0043769Y0075939D01*
X0043769Y0071958D01*
X0043768Y0071958D01*
X0043768Y0075939D01*
X0043376Y0075939D01*
X0042607Y0075786D01*
X0041883Y0075485D01*
X0041231Y0075050D01*
X0040676Y0074495D01*
X0040240Y0073843D01*
X0039940Y0073119D01*
X0039787Y0072350D01*
X0039787Y0071958D01*
X0043768Y0071958D01*
X0043768Y0071957D01*
X0043769Y0071957D01*
X0043769Y0067976D01*
X0044161Y0067976D01*
X0044930Y0068129D01*
X0045254Y0068264D01*
X0046424Y0067094D01*
X0048533Y0066220D01*
X0050424Y0066220D01*
X0050424Y0064711D01*
X0051209Y0062816D01*
X0058849Y0055176D01*
X0058849Y0050794D01*
X0056799Y0052844D01*
X0051368Y0052844D01*
X0047528Y0049004D01*
X0047528Y0043573D01*
X0049812Y0041288D01*
X0047528Y0039004D01*
X0047528Y0033573D01*
X0050074Y0031026D01*
X0050074Y0029012D01*
X0050737Y0027411D01*
X0054485Y0023663D01*
X0055711Y0022438D01*
X0057312Y0021775D01*
X0120270Y0021775D01*
X0121871Y0022438D01*
X0132236Y0022438D01*
X0132039Y0024037D02*
X0123470Y0024037D01*
X0125068Y0025635D02*
X0132039Y0025635D01*
X0132344Y0027234D02*
X0126667Y0027234D01*
X0128265Y0028832D02*
X0132773Y0028832D01*
X0133669Y0030431D02*
X0129864Y0030431D01*
X0131462Y0032029D02*
X0134837Y0032029D01*
X0136517Y0033628D02*
X0133061Y0033628D01*
X0134659Y0035226D02*
X0139784Y0035226D01*
X0137856Y0038424D02*
X0151724Y0038424D01*
X0151724Y0040022D02*
X0139377Y0040022D01*
X0139323Y0039890D02*
X0139986Y0041491D01*
X0139986Y0134585D01*
X0139323Y0136186D01*
X0136077Y0139431D01*
X0136077Y0153436D01*
X0136349Y0153708D01*
X0137222Y0155816D01*
X0137222Y0158099D01*
X0136349Y0160207D01*
X0134735Y0161821D01*
X0132626Y0162694D01*
X0130961Y0162694D01*
X0130187Y0164563D01*
X0128736Y0166013D01*
X0125980Y0168769D01*
X0124085Y0169554D01*
X0092507Y0169554D01*
X0090612Y0168769D01*
X0090107Y0168265D01*
X0089602Y0168769D01*
X0087707Y0169554D01*
X0057467Y0169554D01*
X0055572Y0168769D01*
X0054122Y0167319D01*
X0051327Y0164524D01*
X0050569Y0162694D01*
X0051509Y0164706D02*
X0034612Y0164706D01*
X0038127Y0166304D02*
X0053107Y0166304D01*
X0054706Y0167903D02*
X0039899Y0167903D01*
X0041119Y0169501D02*
X0057340Y0169501D01*
X0066748Y0159243D02*
X0075507Y0159243D01*
X0075240Y0158843D01*
X0074940Y0158119D01*
X0074787Y0157350D01*
X0074787Y0156958D01*
X0078768Y0156958D01*
X0078768Y0156957D01*
X0078769Y0156957D01*
X0078769Y0152976D01*
X0079161Y0152976D01*
X0079518Y0153047D01*
X0079518Y0130867D01*
X0079161Y0130939D01*
X0078769Y0130939D01*
X0078769Y0126958D01*
X0078768Y0126958D01*
X0078768Y0130939D01*
X0078376Y0130939D01*
X0077607Y0130786D01*
X0076883Y0130485D01*
X0076231Y0130050D01*
X0075676Y0129495D01*
X0075240Y0128843D01*
X0074940Y0128119D01*
X0074787Y0127350D01*
X0074787Y0126958D01*
X0078768Y0126958D01*
X0078768Y0126957D01*
X0078769Y0126957D01*
X0078769Y0122976D01*
X0079161Y0122976D01*
X0079518Y0123048D01*
X0079518Y0100867D01*
X0079161Y0100939D01*
X0078769Y0100939D01*
X0078769Y0096958D01*
X0078768Y0096958D01*
X0078768Y0100939D01*
X0078376Y0100939D01*
X0077607Y0100786D01*
X0076883Y0100485D01*
X0076231Y0100050D01*
X0075676Y0099495D01*
X0075240Y0098843D01*
X0074940Y0098119D01*
X0074787Y0097350D01*
X0074787Y0096958D01*
X0078768Y0096958D01*
X0078768Y0096957D01*
X0078769Y0096957D01*
X0078769Y0092976D01*
X0078928Y0092976D01*
X0078928Y0050404D01*
X0077842Y0049318D01*
X0076072Y0051088D01*
X0074283Y0051088D01*
X0074283Y0046488D01*
X0073883Y0046488D01*
X0073883Y0051088D01*
X0072095Y0051088D01*
X0070325Y0049318D01*
X0069161Y0050482D01*
X0069161Y0058337D01*
X0068376Y0060232D01*
X0066925Y0061683D01*
X0062388Y0066220D01*
X0062626Y0066220D01*
X0064735Y0067094D01*
X0066349Y0068708D01*
X0067222Y0070816D01*
X0067222Y0073099D01*
X0066349Y0075207D01*
X0064735Y0076821D01*
X0062626Y0077694D01*
X0060735Y0077694D01*
X0060735Y0091220D01*
X0062626Y0091220D01*
X0064735Y0092094D01*
X0066349Y0093708D01*
X0067222Y0095816D01*
X0067222Y0098099D01*
X0066349Y0100207D01*
X0064735Y0101821D01*
X0062626Y0102694D01*
X0060735Y0102694D01*
X0060735Y0121220D01*
X0062626Y0121220D01*
X0064735Y0122094D01*
X0066349Y0123708D01*
X0067222Y0125816D01*
X0067222Y0128099D01*
X0066349Y0130207D01*
X0064735Y0131821D01*
X0062626Y0132694D01*
X0060735Y0132694D01*
X0060735Y0151220D01*
X0062626Y0151220D01*
X0064735Y0152094D01*
X0066349Y0153708D01*
X0067222Y0155816D01*
X0067222Y0158099D01*
X0066748Y0159243D01*
X0067134Y0158312D02*
X0075020Y0158312D01*
X0074787Y0156957D02*
X0074787Y0156565D01*
X0074940Y0155796D01*
X0075240Y0155072D01*
X0075676Y0154420D01*
X0076231Y0153865D01*
X0076883Y0153429D01*
X0077607Y0153129D01*
X0078376Y0152976D01*
X0078768Y0152976D01*
X0078768Y0156957D01*
X0074787Y0156957D01*
X0074787Y0156713D02*
X0067222Y0156713D01*
X0066931Y0155115D02*
X0075223Y0155115D01*
X0076753Y0153516D02*
X0066157Y0153516D01*
X0064310Y0151918D02*
X0079518Y0151918D01*
X0079518Y0150319D02*
X0060735Y0150319D01*
X0060735Y0148721D02*
X0079518Y0148721D01*
X0079518Y0147122D02*
X0060735Y0147122D01*
X0060735Y0145524D02*
X0079518Y0145524D01*
X0079518Y0143925D02*
X0060735Y0143925D01*
X0060735Y0142327D02*
X0079518Y0142327D01*
X0079518Y0140728D02*
X0060735Y0140728D01*
X0060735Y0139130D02*
X0079518Y0139130D01*
X0079518Y0137531D02*
X0060735Y0137531D01*
X0060735Y0135933D02*
X0079518Y0135933D01*
X0079518Y0134334D02*
X0060735Y0134334D01*
X0060735Y0132736D02*
X0079518Y0132736D01*
X0079518Y0131137D02*
X0065419Y0131137D01*
X0066626Y0129539D02*
X0075720Y0129539D01*
X0074905Y0127940D02*
X0067222Y0127940D01*
X0067222Y0126342D02*
X0074832Y0126342D01*
X0074787Y0126565D02*
X0074940Y0125796D01*
X0075240Y0125072D01*
X0075676Y0124420D01*
X0076231Y0123865D01*
X0076883Y0123429D01*
X0077607Y0123129D01*
X0078376Y0122976D01*
X0078768Y0122976D01*
X0078768Y0126957D01*
X0074787Y0126957D01*
X0074787Y0126565D01*
X0075460Y0124743D02*
X0066777Y0124743D01*
X0065786Y0123145D02*
X0077570Y0123145D01*
X0078768Y0123145D02*
X0078769Y0123145D01*
X0078768Y0124743D02*
X0078769Y0124743D01*
X0078768Y0126342D02*
X0078769Y0126342D01*
X0078768Y0127940D02*
X0078769Y0127940D01*
X0078768Y0129539D02*
X0078769Y0129539D01*
X0079518Y0121546D02*
X0063412Y0121546D01*
X0060735Y0119948D02*
X0079518Y0119948D01*
X0079518Y0118349D02*
X0060735Y0118349D01*
X0060735Y0116751D02*
X0079518Y0116751D01*
X0079518Y0115152D02*
X0060735Y0115152D01*
X0060735Y0113554D02*
X0079518Y0113554D01*
X0079518Y0111955D02*
X0060735Y0111955D01*
X0060735Y0110357D02*
X0079518Y0110357D01*
X0079518Y0108758D02*
X0060735Y0108758D01*
X0060735Y0107159D02*
X0079518Y0107159D01*
X0079518Y0105561D02*
X0060735Y0105561D01*
X0060735Y0103962D02*
X0079518Y0103962D01*
X0079518Y0102364D02*
X0063424Y0102364D01*
X0065790Y0100765D02*
X0077559Y0100765D01*
X0078768Y0100765D02*
X0078769Y0100765D01*
X0078768Y0099167D02*
X0078769Y0099167D01*
X0078768Y0097568D02*
X0078769Y0097568D01*
X0078768Y0096957D02*
X0074787Y0096957D01*
X0074787Y0096565D01*
X0074940Y0095796D01*
X0075240Y0095072D01*
X0075676Y0094420D01*
X0076231Y0093865D01*
X0076883Y0093429D01*
X0077607Y0093129D01*
X0078376Y0092976D01*
X0078768Y0092976D01*
X0078768Y0096957D01*
X0078768Y0095970D02*
X0078769Y0095970D01*
X0078768Y0094371D02*
X0078769Y0094371D01*
X0078928Y0092773D02*
X0065414Y0092773D01*
X0066624Y0094371D02*
X0075724Y0094371D01*
X0074906Y0095970D02*
X0067222Y0095970D01*
X0067222Y0097568D02*
X0074831Y0097568D01*
X0075457Y0099167D02*
X0066780Y0099167D01*
X0060735Y0091174D02*
X0078928Y0091174D01*
X0078928Y0089576D02*
X0060735Y0089576D01*
X0060735Y0087977D02*
X0078928Y0087977D01*
X0078928Y0086379D02*
X0060735Y0086379D01*
X0060735Y0084780D02*
X0078928Y0084780D01*
X0078928Y0083182D02*
X0060735Y0083182D01*
X0060735Y0081583D02*
X0078928Y0081583D01*
X0078928Y0079985D02*
X0060735Y0079985D01*
X0060735Y0078386D02*
X0078928Y0078386D01*
X0078928Y0076788D02*
X0064768Y0076788D01*
X0066356Y0075189D02*
X0078928Y0075189D01*
X0078928Y0073591D02*
X0067018Y0073591D01*
X0067222Y0071992D02*
X0078928Y0071992D01*
X0078928Y0070394D02*
X0067047Y0070394D01*
X0066385Y0068795D02*
X0078928Y0068795D01*
X0078928Y0067197D02*
X0064838Y0067197D01*
X0063010Y0065598D02*
X0078928Y0065598D01*
X0078928Y0064000D02*
X0064608Y0064000D01*
X0066207Y0062401D02*
X0078928Y0062401D01*
X0078928Y0060803D02*
X0067805Y0060803D01*
X0068802Y0059204D02*
X0078928Y0059204D01*
X0078928Y0057606D02*
X0069161Y0057606D01*
X0069161Y0056007D02*
X0078928Y0056007D01*
X0078928Y0054409D02*
X0069161Y0054409D01*
X0069161Y0052810D02*
X0078928Y0052810D01*
X0078928Y0051212D02*
X0069161Y0051212D01*
X0070030Y0049613D02*
X0070620Y0049613D01*
X0073883Y0049613D02*
X0074283Y0049613D01*
X0074283Y0048015D02*
X0073883Y0048015D01*
X0077547Y0049613D02*
X0078137Y0049613D01*
X0064083Y0036288D02*
X0064230Y0035357D01*
X0064230Y0033543D01*
X0068650Y0029123D01*
X0118195Y0029123D01*
X0123030Y0033957D01*
X0123030Y0049357D01*
X0109030Y0063357D01*
X0109030Y0144413D01*
X0096485Y0156957D01*
X0097830Y0155757D01*
X0102222Y0157381D02*
X0102222Y0158099D01*
X0101748Y0159243D01*
X0110507Y0159243D01*
X0110240Y0158843D01*
X0109940Y0158119D01*
X0109787Y0157350D01*
X0109787Y0156958D01*
X0113768Y0156958D01*
X0113768Y0156957D01*
X0113769Y0156957D01*
X0113769Y0152976D01*
X0114161Y0152976D01*
X0114518Y0153047D01*
X0114518Y0130867D01*
X0114161Y0130939D01*
X0113769Y0130939D01*
X0113769Y0126958D01*
X0113768Y0126958D01*
X0113768Y0130939D01*
X0113386Y0130939D01*
X0113386Y0145279D01*
X0112723Y0146880D01*
X0111497Y0148105D01*
X0102222Y0157381D01*
X0102134Y0158312D02*
X0110020Y0158312D01*
X0109787Y0156957D02*
X0109787Y0156565D01*
X0109940Y0155796D01*
X0110240Y0155072D01*
X0110676Y0154420D01*
X0111231Y0153865D01*
X0111883Y0153429D01*
X0112607Y0153129D01*
X0113376Y0152976D01*
X0113768Y0152976D01*
X0113768Y0156957D01*
X0109787Y0156957D01*
X0109787Y0156713D02*
X0102889Y0156713D01*
X0104488Y0155115D02*
X0110223Y0155115D01*
X0111753Y0153516D02*
X0106086Y0153516D01*
X0107685Y0151918D02*
X0114518Y0151918D01*
X0114518Y0150319D02*
X0109283Y0150319D01*
X0110882Y0148721D02*
X0114518Y0148721D01*
X0114518Y0147122D02*
X0112480Y0147122D01*
X0111497Y0148105D02*
X0111497Y0148105D01*
X0113284Y0145524D02*
X0114518Y0145524D01*
X0114518Y0143925D02*
X0113386Y0143925D01*
X0113386Y0142327D02*
X0114518Y0142327D01*
X0114518Y0140728D02*
X0113386Y0140728D01*
X0113386Y0139130D02*
X0114518Y0139130D01*
X0114518Y0137531D02*
X0113386Y0137531D01*
X0113386Y0135933D02*
X0114518Y0135933D01*
X0114518Y0134334D02*
X0113386Y0134334D01*
X0113386Y0132736D02*
X0114518Y0132736D01*
X0114518Y0131137D02*
X0113386Y0131137D01*
X0113768Y0129539D02*
X0113769Y0129539D01*
X0113768Y0127940D02*
X0113769Y0127940D01*
X0113769Y0126957D02*
X0113769Y0122976D01*
X0114161Y0122976D01*
X0114518Y0123047D01*
X0114518Y0100867D01*
X0114161Y0100939D01*
X0113769Y0100939D01*
X0113769Y0096958D01*
X0113768Y0096958D01*
X0113768Y0100939D01*
X0113386Y0100939D01*
X0113386Y0122976D01*
X0113768Y0122976D01*
X0113768Y0126957D01*
X0113769Y0126957D01*
X0113768Y0126342D02*
X0113769Y0126342D01*
X0113768Y0124743D02*
X0113769Y0124743D01*
X0113768Y0123145D02*
X0113769Y0123145D01*
X0113386Y0121546D02*
X0114518Y0121546D01*
X0114518Y0119948D02*
X0113386Y0119948D01*
X0113386Y0118349D02*
X0114518Y0118349D01*
X0114518Y0116751D02*
X0113386Y0116751D01*
X0113386Y0115152D02*
X0114518Y0115152D01*
X0114518Y0113554D02*
X0113386Y0113554D01*
X0113386Y0111955D02*
X0114518Y0111955D01*
X0114518Y0110357D02*
X0113386Y0110357D01*
X0113386Y0108758D02*
X0114518Y0108758D01*
X0114518Y0107159D02*
X0113386Y0107159D01*
X0113386Y0105561D02*
X0114518Y0105561D01*
X0114518Y0103962D02*
X0113386Y0103962D01*
X0113386Y0102364D02*
X0114518Y0102364D01*
X0113769Y0100765D02*
X0113768Y0100765D01*
X0113768Y0099167D02*
X0113769Y0099167D01*
X0113768Y0097568D02*
X0113769Y0097568D01*
X0113769Y0096957D02*
X0113769Y0092976D01*
X0114161Y0092976D01*
X0114930Y0093129D01*
X0115254Y0093264D01*
X0116424Y0092094D01*
X0118533Y0091220D01*
X0120815Y0091220D01*
X0122627Y0091971D01*
X0124438Y0091220D01*
X0126721Y0091220D01*
X0127074Y0091367D01*
X0127074Y0050977D01*
X0126723Y0051825D01*
X0125497Y0053050D01*
X0113386Y0065162D01*
X0113386Y0092976D01*
X0113768Y0092976D01*
X0113768Y0096957D01*
X0113769Y0096957D01*
X0113768Y0095970D02*
X0113769Y0095970D01*
X0113768Y0094371D02*
X0113769Y0094371D01*
X0113386Y0092773D02*
X0115745Y0092773D01*
X0113386Y0091174D02*
X0127074Y0091174D01*
X0127074Y0089576D02*
X0113386Y0089576D01*
X0113386Y0087977D02*
X0127074Y0087977D01*
X0127074Y0086379D02*
X0113386Y0086379D01*
X0113386Y0084780D02*
X0127074Y0084780D01*
X0127074Y0083182D02*
X0113386Y0083182D01*
X0113386Y0081583D02*
X0127074Y0081583D01*
X0127074Y0079985D02*
X0113386Y0079985D01*
X0113386Y0078386D02*
X0127074Y0078386D01*
X0127074Y0076788D02*
X0113386Y0076788D01*
X0113386Y0075189D02*
X0127074Y0075189D01*
X0127074Y0073591D02*
X0113386Y0073591D01*
X0113386Y0071992D02*
X0127074Y0071992D01*
X0127074Y0070394D02*
X0113386Y0070394D01*
X0113386Y0068795D02*
X0127074Y0068795D01*
X0127074Y0067197D02*
X0113386Y0067197D01*
X0113386Y0065598D02*
X0127074Y0065598D01*
X0127074Y0064000D02*
X0114548Y0064000D01*
X0116146Y0062401D02*
X0127074Y0062401D01*
X0127074Y0060803D02*
X0117745Y0060803D01*
X0119343Y0059204D02*
X0127074Y0059204D01*
X0127074Y0057606D02*
X0120942Y0057606D01*
X0122540Y0056007D02*
X0127074Y0056007D01*
X0127074Y0054409D02*
X0124139Y0054409D01*
X0125737Y0052810D02*
X0127074Y0052810D01*
X0127074Y0051212D02*
X0126977Y0051212D01*
X0131430Y0046557D02*
X0131430Y0096957D01*
X0131485Y0096957D01*
X0139986Y0097568D02*
X0151724Y0097568D01*
X0151724Y0095970D02*
X0139986Y0095970D01*
X0139986Y0094371D02*
X0151724Y0094371D01*
X0151724Y0092773D02*
X0139986Y0092773D01*
X0139986Y0091174D02*
X0151724Y0091174D01*
X0151724Y0089576D02*
X0139986Y0089576D01*
X0139986Y0087977D02*
X0151724Y0087977D01*
X0151724Y0086379D02*
X0139986Y0086379D01*
X0139986Y0084780D02*
X0151724Y0084780D01*
X0151724Y0083182D02*
X0139986Y0083182D01*
X0139986Y0081583D02*
X0151724Y0081583D01*
X0151724Y0079985D02*
X0139986Y0079985D01*
X0139986Y0078386D02*
X0151724Y0078386D01*
X0151724Y0076788D02*
X0139986Y0076788D01*
X0139986Y0075189D02*
X0151724Y0075189D01*
X0151724Y0073591D02*
X0139986Y0073591D01*
X0139986Y0071992D02*
X0151724Y0071992D01*
X0151724Y0070394D02*
X0139986Y0070394D01*
X0139986Y0068795D02*
X0151724Y0068795D01*
X0151724Y0067197D02*
X0139986Y0067197D01*
X0139986Y0065598D02*
X0151724Y0065598D01*
X0151724Y0064000D02*
X0139986Y0064000D01*
X0139986Y0062401D02*
X0151724Y0062401D01*
X0151724Y0060803D02*
X0139986Y0060803D01*
X0139986Y0059204D02*
X0151724Y0059204D01*
X0151724Y0057606D02*
X0139986Y0057606D01*
X0139986Y0056007D02*
X0151724Y0056007D01*
X0151724Y0054409D02*
X0139986Y0054409D01*
X0139986Y0052810D02*
X0151724Y0052810D01*
X0151724Y0051212D02*
X0139986Y0051212D01*
X0139986Y0049613D02*
X0151724Y0049613D01*
X0151724Y0048015D02*
X0139986Y0048015D01*
X0139986Y0046416D02*
X0151724Y0046416D01*
X0151724Y0044818D02*
X0139986Y0044818D01*
X0139986Y0043219D02*
X0151724Y0043219D01*
X0151724Y0041621D02*
X0139986Y0041621D01*
X0139323Y0039890D02*
X0121871Y0022438D01*
X0119403Y0026131D02*
X0135630Y0042357D01*
X0135630Y0133718D01*
X0131721Y0137627D01*
X0131721Y0156721D01*
X0131485Y0156957D01*
X0135047Y0161509D02*
X0151724Y0161509D01*
X0151724Y0163107D02*
X0130790Y0163107D01*
X0130044Y0164706D02*
X0138819Y0164706D01*
X0136166Y0166304D02*
X0128445Y0166304D01*
X0126847Y0167903D02*
X0134567Y0167903D01*
X0133513Y0169501D02*
X0124213Y0169501D01*
X0132700Y0171100D02*
X0042042Y0171100D01*
X0042482Y0172698D02*
X0132272Y0172698D01*
X0132039Y0174297D02*
X0042820Y0174297D01*
X0042820Y0175895D02*
X0132039Y0175895D01*
X0132309Y0177494D02*
X0042657Y0177494D01*
X0042229Y0179093D02*
X0132737Y0179093D01*
X0133592Y0180691D02*
X0041495Y0180691D01*
X0040550Y0182290D02*
X0134703Y0182290D01*
X0147458Y0164706D02*
X0151724Y0164706D01*
X0151724Y0166304D02*
X0150111Y0166304D01*
X0151710Y0167903D02*
X0151724Y0167903D01*
X0151724Y0159910D02*
X0136472Y0159910D01*
X0137134Y0158312D02*
X0151724Y0158312D01*
X0151724Y0156713D02*
X0137222Y0156713D01*
X0136931Y0155115D02*
X0151724Y0155115D01*
X0151724Y0153516D02*
X0136157Y0153516D01*
X0136077Y0151918D02*
X0151724Y0151918D01*
X0151724Y0150319D02*
X0136077Y0150319D01*
X0136077Y0148721D02*
X0151724Y0148721D01*
X0151724Y0147122D02*
X0136077Y0147122D01*
X0136077Y0145524D02*
X0151724Y0145524D01*
X0151724Y0143925D02*
X0136077Y0143925D01*
X0136077Y0142327D02*
X0151724Y0142327D01*
X0151724Y0140728D02*
X0136077Y0140728D01*
X0136378Y0139130D02*
X0151724Y0139130D01*
X0151724Y0137531D02*
X0137977Y0137531D01*
X0139427Y0135933D02*
X0151724Y0135933D01*
X0151724Y0134334D02*
X0139986Y0134334D01*
X0139986Y0132736D02*
X0151724Y0132736D01*
X0151724Y0131137D02*
X0139986Y0131137D01*
X0139986Y0129539D02*
X0151724Y0129539D01*
X0151724Y0127940D02*
X0139986Y0127940D01*
X0139986Y0126342D02*
X0151724Y0126342D01*
X0151724Y0124743D02*
X0139986Y0124743D01*
X0139986Y0123145D02*
X0151724Y0123145D01*
X0151724Y0121546D02*
X0139986Y0121546D01*
X0139986Y0119948D02*
X0151724Y0119948D01*
X0151724Y0118349D02*
X0139986Y0118349D01*
X0139986Y0116751D02*
X0151724Y0116751D01*
X0151724Y0115152D02*
X0139986Y0115152D01*
X0139986Y0113554D02*
X0151724Y0113554D01*
X0151724Y0111955D02*
X0139986Y0111955D01*
X0139986Y0110357D02*
X0151724Y0110357D01*
X0151724Y0108758D02*
X0139986Y0108758D01*
X0139986Y0107159D02*
X0151724Y0107159D01*
X0151724Y0105561D02*
X0139986Y0105561D01*
X0139986Y0103962D02*
X0151724Y0103962D01*
X0151724Y0102364D02*
X0139986Y0102364D01*
X0139986Y0100765D02*
X0151724Y0100765D01*
X0151724Y0099167D02*
X0139986Y0099167D01*
X0103769Y0101800D02*
X0103769Y0046603D01*
X0104083Y0046288D01*
X0099005Y0041367D02*
X0104083Y0036288D01*
X0099005Y0041367D02*
X0099005Y0052351D01*
X0096485Y0054871D01*
X0096485Y0096957D01*
X0103769Y0101800D02*
X0096485Y0109083D01*
X0096485Y0126957D01*
X0113768Y0153516D02*
X0113769Y0153516D01*
X0113768Y0155115D02*
X0113769Y0155115D01*
X0113768Y0156713D02*
X0113769Y0156713D01*
X0092379Y0169501D02*
X0087835Y0169501D01*
X0078769Y0156713D02*
X0078768Y0156713D01*
X0078768Y0155115D02*
X0078769Y0155115D01*
X0078768Y0153516D02*
X0078769Y0153516D01*
X0046112Y0161509D02*
X0023529Y0161509D01*
X0023529Y0159910D02*
X0041091Y0159910D01*
X0040020Y0158312D02*
X0023529Y0158312D01*
X0023529Y0156713D02*
X0039787Y0156713D01*
X0039787Y0156565D02*
X0039940Y0155796D01*
X0040240Y0155072D01*
X0040676Y0154420D01*
X0041231Y0153865D01*
X0041883Y0153429D01*
X0042607Y0153129D01*
X0043376Y0152976D01*
X0043768Y0152976D01*
X0043768Y0156957D01*
X0039787Y0156957D01*
X0039787Y0156565D01*
X0040223Y0155115D02*
X0023529Y0155115D01*
X0023529Y0153516D02*
X0041753Y0153516D01*
X0043768Y0153516D02*
X0043769Y0153516D01*
X0043768Y0155115D02*
X0043769Y0155115D01*
X0043768Y0156713D02*
X0043769Y0156713D01*
X0043768Y0158312D02*
X0043769Y0158312D01*
X0043768Y0159910D02*
X0043769Y0159910D01*
X0044518Y0151918D02*
X0023529Y0151918D01*
X0023529Y0150319D02*
X0044518Y0150319D01*
X0044518Y0148721D02*
X0023529Y0148721D01*
X0023529Y0147122D02*
X0044518Y0147122D01*
X0044518Y0145524D02*
X0023529Y0145524D01*
X0023529Y0143925D02*
X0044518Y0143925D01*
X0044518Y0142327D02*
X0023529Y0142327D01*
X0023529Y0140728D02*
X0044518Y0140728D01*
X0044518Y0139130D02*
X0023529Y0139130D01*
X0023529Y0137531D02*
X0044518Y0137531D01*
X0044518Y0135933D02*
X0023529Y0135933D01*
X0023529Y0134334D02*
X0044518Y0134334D01*
X0044518Y0132736D02*
X0023529Y0132736D01*
X0023529Y0131137D02*
X0044518Y0131137D01*
X0043769Y0129539D02*
X0043768Y0129539D01*
X0043768Y0127940D02*
X0043769Y0127940D01*
X0043768Y0126957D02*
X0039787Y0126957D01*
X0039787Y0126565D01*
X0039940Y0125796D01*
X0040240Y0125072D01*
X0040676Y0124420D01*
X0041231Y0123865D01*
X0041883Y0123429D01*
X0042607Y0123129D01*
X0043376Y0122976D01*
X0043768Y0122976D01*
X0043768Y0126957D01*
X0043768Y0126342D02*
X0043769Y0126342D01*
X0043768Y0124743D02*
X0043769Y0124743D01*
X0043768Y0123145D02*
X0043769Y0123145D01*
X0042570Y0123145D02*
X0023529Y0123145D01*
X0023529Y0124743D02*
X0040460Y0124743D01*
X0039832Y0126342D02*
X0023529Y0126342D01*
X0023529Y0127940D02*
X0039905Y0127940D01*
X0040720Y0129539D02*
X0023529Y0129539D01*
X0023529Y0121546D02*
X0044518Y0121546D01*
X0044518Y0119948D02*
X0023529Y0119948D01*
X0023529Y0118349D02*
X0044518Y0118349D01*
X0044518Y0116751D02*
X0023529Y0116751D01*
X0023529Y0115152D02*
X0044518Y0115152D01*
X0044518Y0113554D02*
X0023529Y0113554D01*
X0023529Y0111955D02*
X0044518Y0111955D01*
X0044518Y0110357D02*
X0023529Y0110357D01*
X0023529Y0108758D02*
X0044518Y0108758D01*
X0044518Y0107159D02*
X0023529Y0107159D01*
X0023529Y0105561D02*
X0044518Y0105561D01*
X0044518Y0103962D02*
X0023529Y0103962D01*
X0023529Y0102364D02*
X0044518Y0102364D01*
X0043769Y0100765D02*
X0043768Y0100765D01*
X0042559Y0100765D02*
X0023529Y0100765D01*
X0023529Y0099167D02*
X0040457Y0099167D01*
X0039831Y0097568D02*
X0023529Y0097568D01*
X0023529Y0095970D02*
X0039906Y0095970D01*
X0039940Y0095796D02*
X0040240Y0095072D01*
X0040676Y0094420D01*
X0041231Y0093865D01*
X0041883Y0093429D01*
X0042607Y0093129D01*
X0043376Y0092976D01*
X0043768Y0092976D01*
X0043768Y0096957D01*
X0039787Y0096957D01*
X0039787Y0096565D01*
X0039940Y0095796D01*
X0040724Y0094371D02*
X0023529Y0094371D01*
X0023529Y0092773D02*
X0044518Y0092773D01*
X0044518Y0091174D02*
X0023529Y0091174D01*
X0023529Y0089576D02*
X0044518Y0089576D01*
X0044518Y0087977D02*
X0023529Y0087977D01*
X0023529Y0086379D02*
X0044518Y0086379D01*
X0044518Y0084780D02*
X0023529Y0084780D01*
X0023529Y0083182D02*
X0044518Y0083182D01*
X0044518Y0081583D02*
X0023529Y0081583D01*
X0023529Y0079985D02*
X0044518Y0079985D01*
X0044518Y0078386D02*
X0023529Y0078386D01*
X0023529Y0076788D02*
X0044518Y0076788D01*
X0043769Y0075189D02*
X0043768Y0075189D01*
X0043768Y0073591D02*
X0043769Y0073591D01*
X0043768Y0071992D02*
X0043769Y0071992D01*
X0043768Y0071957D02*
X0039787Y0071957D01*
X0039787Y0071565D01*
X0039940Y0070796D01*
X0040240Y0070072D01*
X0040676Y0069420D01*
X0041231Y0068865D01*
X0041883Y0068429D01*
X0042607Y0068129D01*
X0043376Y0067976D01*
X0043768Y0067976D01*
X0043768Y0071957D01*
X0043768Y0070394D02*
X0043769Y0070394D01*
X0043768Y0068795D02*
X0043769Y0068795D01*
X0046321Y0067197D02*
X0023529Y0067197D01*
X0023529Y0068795D02*
X0041335Y0068795D01*
X0040107Y0070394D02*
X0023529Y0070394D01*
X0023529Y0071992D02*
X0039787Y0071992D01*
X0040136Y0073591D02*
X0023529Y0073591D01*
X0023529Y0075189D02*
X0041439Y0075189D01*
X0050424Y0065598D02*
X0023529Y0065598D01*
X0023529Y0064000D02*
X0050718Y0064000D01*
X0051624Y0062401D02*
X0023529Y0062401D01*
X0023529Y0060803D02*
X0053222Y0060803D01*
X0054821Y0059204D02*
X0023529Y0059204D01*
X0023529Y0057606D02*
X0056419Y0057606D01*
X0058018Y0056007D02*
X0023529Y0056007D01*
X0023529Y0054409D02*
X0058849Y0054409D01*
X0058849Y0052810D02*
X0056833Y0052810D01*
X0058431Y0051212D02*
X0058849Y0051212D01*
X0051334Y0052810D02*
X0023529Y0052810D01*
X0023529Y0051212D02*
X0049735Y0051212D01*
X0048137Y0049613D02*
X0023529Y0049613D01*
X0023529Y0048015D02*
X0047528Y0048015D01*
X0047528Y0046416D02*
X0023529Y0046416D01*
X0023529Y0044818D02*
X0047528Y0044818D01*
X0047881Y0043219D02*
X0023529Y0043219D01*
X0023529Y0041621D02*
X0049480Y0041621D01*
X0048546Y0040022D02*
X0023529Y0040022D01*
X0023529Y0038424D02*
X0047528Y0038424D01*
X0047528Y0036825D02*
X0023529Y0036825D01*
X0023529Y0035226D02*
X0029836Y0035226D01*
X0033607Y0035226D02*
X0047528Y0035226D01*
X0047528Y0033628D02*
X0037661Y0033628D01*
X0039629Y0032029D02*
X0049071Y0032029D01*
X0050074Y0030431D02*
X0040964Y0030431D01*
X0041887Y0028832D02*
X0050148Y0028832D01*
X0050915Y0027234D02*
X0042410Y0027234D01*
X0042820Y0025635D02*
X0052513Y0025635D01*
X0054112Y0024037D02*
X0042820Y0024037D01*
X0042729Y0022438D02*
X0055710Y0022438D01*
X0058178Y0026131D02*
X0119403Y0026131D01*
X0132665Y0020840D02*
X0042301Y0020840D01*
X0041651Y0019241D02*
X0133436Y0019241D01*
X0134434Y0017643D02*
X0040728Y0017643D01*
X0054430Y0029879D02*
X0058178Y0026131D01*
X0054430Y0029879D02*
X0054430Y0035357D01*
X0054083Y0036288D01*
X0025782Y0033628D02*
X0023529Y0033628D01*
X0023529Y0032029D02*
X0023813Y0032029D01*
X0043768Y0094371D02*
X0043769Y0094371D01*
X0043768Y0095970D02*
X0043769Y0095970D01*
X0043768Y0097568D02*
X0043769Y0097568D01*
X0043768Y0099167D02*
X0043769Y0099167D01*
X0136258Y0036825D02*
X0151724Y0036825D01*
X0151724Y0035226D02*
X0146493Y0035226D01*
X0149760Y0033628D02*
X0151724Y0033628D01*
X0151724Y0032029D02*
X0151440Y0032029D01*
D13*
X0125580Y0096957D02*
X0125580Y0126957D01*
X0125580Y0156957D01*
X0125816Y0157194D01*
X0125816Y0161643D01*
X0123060Y0164398D01*
X0093532Y0164398D01*
X0090580Y0161446D01*
X0090580Y0096957D01*
X0090580Y0126957D01*
X0090580Y0156957D01*
X0090580Y0159950D01*
X0090580Y0160501D02*
X0090580Y0156957D01*
X0090580Y0160501D02*
X0086682Y0164398D01*
X0058493Y0164398D01*
X0055698Y0161603D01*
X0055698Y0157076D01*
X0055580Y0156957D01*
X0055580Y0126957D01*
X0055580Y0096957D01*
X0055580Y0071957D01*
X0055580Y0065737D01*
X0064005Y0057312D01*
X0064005Y0046367D01*
X0064083Y0046288D01*
X0074083Y0046288D02*
X0074083Y0092272D01*
X0078769Y0096957D01*
X0078769Y0126957D01*
X0078769Y0156957D01*
X0084674Y0156957D02*
X0084674Y0126957D01*
X0084674Y0096957D01*
X0084083Y0096367D01*
X0084083Y0046288D01*
X0049674Y0071957D02*
X0049674Y0096957D01*
X0049674Y0126957D01*
X0049674Y0156957D01*
X0043769Y0156957D02*
X0043769Y0126957D01*
X0043769Y0096957D01*
X0043769Y0071957D01*
X0113769Y0096957D02*
X0113769Y0126957D01*
X0113769Y0156957D01*
X0119674Y0156957D02*
X0119674Y0126957D01*
X0119674Y0096957D01*
X0125580Y0156957D02*
X0125580Y0158296D01*
D14*
X0131430Y0046557D03*
M02*
