G75*
%MOIN*%
%OFA0B0*%
%FSLAX25Y25*%
%IPPOS*%
%LPD*%
%AMOC8*
5,1,8,0,0,1.08239X$1,22.5*
%
%ADD10C,0.13398*%
%ADD11OC8,0.06800*%
%ADD12C,0.05162*%
%ADD13C,0.03600*%
D10*
X0031721Y0024241D03*
X0143139Y0024635D03*
X0143139Y0175028D03*
X0031721Y0175422D03*
D11*
X0054083Y0046288D03*
X0054083Y0036288D03*
X0064083Y0036288D03*
X0064083Y0046288D03*
X0074083Y0046288D03*
X0074083Y0036288D03*
X0084083Y0036288D03*
X0084083Y0046288D03*
X0094083Y0046288D03*
X0094083Y0036288D03*
X0104083Y0036288D03*
X0104083Y0046288D03*
X0114083Y0046288D03*
X0114083Y0036288D03*
D12*
X0113769Y0096957D03*
X0119674Y0096957D03*
X0125580Y0096957D03*
X0131485Y0096957D03*
X0131485Y0126957D03*
X0125580Y0126957D03*
X0119674Y0126957D03*
X0113769Y0126957D03*
X0096485Y0126957D03*
X0090580Y0126957D03*
X0084674Y0126957D03*
X0078769Y0126957D03*
X0061485Y0126957D03*
X0055580Y0126957D03*
X0049674Y0126957D03*
X0043769Y0126957D03*
X0043769Y0096957D03*
X0049674Y0096957D03*
X0055580Y0096957D03*
X0061485Y0096957D03*
X0078769Y0096957D03*
X0084674Y0096957D03*
X0090580Y0096957D03*
X0096485Y0096957D03*
X0061485Y0071957D03*
X0055580Y0071957D03*
X0049674Y0071957D03*
X0043769Y0071957D03*
X0043769Y0156957D03*
X0049674Y0156957D03*
X0055580Y0156957D03*
X0061485Y0156957D03*
X0078769Y0156957D03*
X0084674Y0156957D03*
X0090580Y0156957D03*
X0096485Y0156957D03*
X0113769Y0156957D03*
X0119674Y0156957D03*
X0125580Y0156957D03*
X0131485Y0156957D03*
D13*
X0131430Y0046557D03*
M02*
