%
M48
M72
T01C0.01200
T02C0.02362
T03C0.04000
T04C0.12598
%
T01
X131430Y46557
T02
X131485Y96957
X125580Y96957
X119674Y96957
X113769Y96957
X96485Y96957
X90580Y96957
X84674Y96957
X78769Y96957
X61485Y96957
X55580Y96957
X49674Y96957
X43769Y96957
X43769Y71957
X49674Y71957
X55580Y71957
X61485Y71957
X61485Y126957
X55580Y126957
X49674Y126957
X43769Y126957
X43769Y156957
X49674Y156957
X55580Y156957
X61485Y156957
X78769Y156957
X84674Y156957
X90580Y156957
X96485Y156957
X113769Y156957
X119674Y156957
X125580Y156957
X131485Y156957
X131485Y126957
X125580Y126957
X119674Y126957
X113769Y126957
X96485Y126957
X90580Y126957
X84674Y126957
X78769Y126957
T03
X74083Y46288
X74083Y36288
X64083Y36288
X54083Y36288
X54083Y46288
X64083Y46288
X84083Y46288
X84083Y36288
X94083Y36288
X94083Y46288
X104083Y46288
X104083Y36288
X114083Y36288
X114083Y46288
T04
X31721Y24241
X143139Y24635
X143139Y175028
X31721Y175422
M30
