G75*
%MOIN*%
%OFA0B0*%
%FSLAX25Y25*%
%IPPOS*%
%LPD*%
%AMOC8*
5,1,8,0,0,1.08239X$1,22.5*
%
%ADD10C,0.00591*%
%ADD11C,0.00400*%
%ADD12C,0.00300*%
%ADD13C,0.00600*%
%ADD14C,0.00500*%
D10*
X0076603Y0027784D02*
X0091564Y0027784D01*
X0091564Y0031328D01*
X0076603Y0031328D02*
X0076603Y0027784D01*
D11*
X0076160Y0070110D02*
X0076160Y0074438D01*
X0079045Y0070110D01*
X0079045Y0074438D01*
X0080510Y0074438D02*
X0083396Y0070110D01*
X0083396Y0074438D01*
X0084860Y0073717D02*
X0084860Y0070832D01*
X0085582Y0070110D01*
X0087024Y0070110D01*
X0087746Y0070832D01*
X0087746Y0073717D01*
X0087024Y0074438D01*
X0085582Y0074438D01*
X0084860Y0073717D01*
X0080510Y0074438D02*
X0080510Y0070110D01*
X0074703Y0070110D02*
X0073260Y0070110D01*
X0073981Y0070110D02*
X0073981Y0074438D01*
X0073260Y0074438D02*
X0074703Y0074438D01*
X0089210Y0074438D02*
X0089210Y0071553D01*
X0090653Y0070110D01*
X0092096Y0071553D01*
X0092096Y0074438D01*
X0093561Y0072996D02*
X0095003Y0074438D01*
X0096446Y0072996D01*
X0096446Y0070110D01*
X0096446Y0072274D02*
X0093561Y0072274D01*
X0093561Y0072996D02*
X0093561Y0070110D01*
X0097911Y0074438D02*
X0100796Y0074438D01*
X0099354Y0074438D02*
X0099354Y0070110D01*
X0102261Y0070110D02*
X0102261Y0074438D01*
X0105146Y0074438D01*
X0106611Y0073717D02*
X0106611Y0070832D01*
X0107333Y0070110D01*
X0108775Y0070110D01*
X0109497Y0070832D01*
X0109497Y0073717D02*
X0108775Y0074438D01*
X0107333Y0074438D01*
X0106611Y0073717D01*
X0105146Y0070110D02*
X0102261Y0070110D01*
X0102261Y0072274D02*
X0103704Y0072274D01*
X0107649Y0106606D02*
X0106882Y0107374D01*
X0107649Y0106606D02*
X0109184Y0106606D01*
X0109951Y0107374D01*
X0109951Y0108141D01*
X0109184Y0108908D01*
X0107649Y0108908D01*
X0106882Y0109676D01*
X0106882Y0110443D01*
X0107649Y0111210D01*
X0109184Y0111210D01*
X0109951Y0110443D01*
X0111486Y0110443D02*
X0112253Y0111210D01*
X0113788Y0111210D01*
X0114555Y0110443D01*
X0114555Y0109676D01*
X0111486Y0106606D01*
X0114555Y0106606D01*
X0113788Y0136606D02*
X0112253Y0136606D01*
X0111486Y0137374D01*
X0111486Y0138908D02*
X0113020Y0139676D01*
X0113788Y0139676D01*
X0114555Y0138908D01*
X0114555Y0137374D01*
X0113788Y0136606D01*
X0111486Y0138908D02*
X0111486Y0141210D01*
X0114555Y0141210D01*
X0109951Y0140443D02*
X0109184Y0141210D01*
X0107649Y0141210D01*
X0106882Y0140443D01*
X0106882Y0139676D01*
X0107649Y0138908D01*
X0109184Y0138908D01*
X0109951Y0138141D01*
X0109951Y0137374D01*
X0109184Y0136606D01*
X0107649Y0136606D01*
X0106882Y0137374D01*
X0107649Y0166606D02*
X0106882Y0167374D01*
X0107649Y0166606D02*
X0109184Y0166606D01*
X0109951Y0167374D01*
X0109951Y0168141D01*
X0109184Y0168908D01*
X0107649Y0168908D01*
X0106882Y0169676D01*
X0106882Y0170443D01*
X0107649Y0171210D01*
X0109184Y0171210D01*
X0109951Y0170443D01*
X0111486Y0170443D02*
X0111486Y0169676D01*
X0112253Y0168908D01*
X0113788Y0168908D01*
X0114555Y0168141D01*
X0114555Y0167374D01*
X0113788Y0166606D01*
X0112253Y0166606D01*
X0111486Y0167374D01*
X0111486Y0168141D01*
X0112253Y0168908D01*
X0113788Y0168908D02*
X0114555Y0169676D01*
X0114555Y0170443D01*
X0113788Y0171210D01*
X0112253Y0171210D01*
X0111486Y0170443D01*
X0079555Y0170443D02*
X0079555Y0167374D01*
X0078788Y0166606D01*
X0077253Y0166606D01*
X0076486Y0167374D01*
X0074951Y0167374D02*
X0074951Y0168141D01*
X0074184Y0168908D01*
X0072649Y0168908D01*
X0071882Y0169676D01*
X0071882Y0170443D01*
X0072649Y0171210D01*
X0074184Y0171210D01*
X0074951Y0170443D01*
X0076486Y0170443D02*
X0076486Y0169676D01*
X0077253Y0168908D01*
X0079555Y0168908D01*
X0079555Y0170443D02*
X0078788Y0171210D01*
X0077253Y0171210D01*
X0076486Y0170443D01*
X0074951Y0167374D02*
X0074184Y0166606D01*
X0072649Y0166606D01*
X0071882Y0167374D01*
X0054671Y0167374D02*
X0053904Y0166606D01*
X0052369Y0166606D01*
X0051602Y0167374D01*
X0054671Y0170443D01*
X0054671Y0167374D01*
X0054671Y0170443D02*
X0053904Y0171210D01*
X0052369Y0171210D01*
X0051602Y0170443D01*
X0051602Y0167374D01*
X0050067Y0166606D02*
X0046998Y0166606D01*
X0048532Y0166606D02*
X0048532Y0171210D01*
X0046998Y0169676D01*
X0045463Y0170443D02*
X0044696Y0171210D01*
X0043161Y0171210D01*
X0042394Y0170443D01*
X0042394Y0169676D01*
X0043161Y0168908D01*
X0044696Y0168908D01*
X0045463Y0168141D01*
X0045463Y0167374D01*
X0044696Y0166606D01*
X0043161Y0166606D01*
X0042394Y0167374D01*
X0041486Y0141210D02*
X0044555Y0141210D01*
X0044555Y0140443D01*
X0041486Y0137374D01*
X0041486Y0136606D01*
X0039951Y0137374D02*
X0039184Y0136606D01*
X0037649Y0136606D01*
X0036882Y0137374D01*
X0037649Y0138908D02*
X0039184Y0138908D01*
X0039951Y0138141D01*
X0039951Y0137374D01*
X0037649Y0138908D02*
X0036882Y0139676D01*
X0036882Y0140443D01*
X0037649Y0141210D01*
X0039184Y0141210D01*
X0039951Y0140443D01*
X0039184Y0111210D02*
X0037649Y0111210D01*
X0036882Y0110443D01*
X0036882Y0109676D01*
X0037649Y0108908D01*
X0039184Y0108908D01*
X0039951Y0108141D01*
X0039951Y0107374D01*
X0039184Y0106606D01*
X0037649Y0106606D01*
X0036882Y0107374D01*
X0039951Y0110443D02*
X0039184Y0111210D01*
X0041486Y0108908D02*
X0044555Y0108908D01*
X0043788Y0106606D02*
X0043788Y0111210D01*
X0041486Y0108908D01*
X0043020Y0083848D02*
X0041486Y0082313D01*
X0039951Y0083081D02*
X0039184Y0083848D01*
X0037649Y0083848D01*
X0036882Y0083081D01*
X0036882Y0082313D01*
X0037649Y0081546D01*
X0039184Y0081546D01*
X0039951Y0080779D01*
X0039951Y0080011D01*
X0039184Y0079244D01*
X0037649Y0079244D01*
X0036882Y0080011D01*
X0041486Y0079244D02*
X0044555Y0079244D01*
X0043020Y0079244D02*
X0043020Y0083848D01*
X0071882Y0107374D02*
X0072649Y0106606D01*
X0074184Y0106606D01*
X0074951Y0107374D01*
X0074951Y0108141D01*
X0074184Y0108908D01*
X0072649Y0108908D01*
X0071882Y0109676D01*
X0071882Y0110443D01*
X0072649Y0111210D01*
X0074184Y0111210D01*
X0074951Y0110443D01*
X0076486Y0110443D02*
X0077253Y0111210D01*
X0078788Y0111210D01*
X0079555Y0110443D01*
X0079555Y0109676D01*
X0078788Y0108908D01*
X0079555Y0108141D01*
X0079555Y0107374D01*
X0078788Y0106606D01*
X0077253Y0106606D01*
X0076486Y0107374D01*
X0078020Y0108908D02*
X0078788Y0108908D01*
X0078788Y0136606D02*
X0077253Y0136606D01*
X0076486Y0137374D01*
X0076486Y0138908D01*
X0078788Y0138908D01*
X0079555Y0138141D01*
X0079555Y0137374D01*
X0078788Y0136606D01*
X0076486Y0138908D02*
X0078020Y0140443D01*
X0079555Y0141210D01*
X0074951Y0140443D02*
X0074184Y0141210D01*
X0072649Y0141210D01*
X0071882Y0140443D01*
X0071882Y0139676D01*
X0072649Y0138908D01*
X0074184Y0138908D01*
X0074951Y0138141D01*
X0074951Y0137374D01*
X0074184Y0136606D01*
X0072649Y0136606D01*
X0071882Y0137374D01*
D12*
X0073423Y0062283D02*
X0072816Y0061676D01*
X0072816Y0061070D01*
X0073423Y0060463D01*
X0074636Y0060463D01*
X0075243Y0059856D01*
X0075243Y0059250D01*
X0074636Y0058643D01*
X0073423Y0058643D01*
X0072816Y0059250D01*
X0075243Y0061676D02*
X0074636Y0062283D01*
X0073423Y0062283D01*
X0076441Y0060463D02*
X0076441Y0059250D01*
X0077048Y0058643D01*
X0078261Y0058643D01*
X0078868Y0059856D02*
X0076441Y0059856D01*
X0076441Y0060463D02*
X0077048Y0061070D01*
X0078261Y0061070D01*
X0078868Y0060463D01*
X0078868Y0059856D01*
X0080066Y0058643D02*
X0080066Y0061070D01*
X0081886Y0061070D01*
X0082493Y0060463D01*
X0082493Y0058643D01*
X0083692Y0058643D02*
X0085512Y0058643D01*
X0086118Y0059250D01*
X0085512Y0059856D01*
X0084298Y0059856D01*
X0083692Y0060463D01*
X0084298Y0061070D01*
X0086118Y0061070D01*
X0087317Y0060463D02*
X0087317Y0059250D01*
X0087923Y0058643D01*
X0089137Y0058643D01*
X0089743Y0059250D01*
X0089743Y0060463D01*
X0089137Y0061070D01*
X0087923Y0061070D01*
X0087317Y0060463D01*
X0090942Y0061070D02*
X0090942Y0058643D01*
X0090942Y0059856D02*
X0092155Y0061070D01*
X0092762Y0061070D01*
X0093963Y0062283D02*
X0093963Y0058643D01*
X0096390Y0058643D02*
X0096390Y0062283D01*
X0095176Y0061070D01*
X0093963Y0062283D01*
X0097588Y0060463D02*
X0097588Y0059250D01*
X0098195Y0058643D01*
X0099408Y0058643D01*
X0100015Y0059250D01*
X0100015Y0060463D01*
X0099408Y0061070D01*
X0098195Y0061070D01*
X0097588Y0060463D01*
X0101213Y0060463D02*
X0101213Y0059250D01*
X0101820Y0058643D01*
X0103640Y0058643D01*
X0103640Y0062283D01*
X0103640Y0061070D02*
X0101820Y0061070D01*
X0101213Y0060463D01*
X0104838Y0061070D02*
X0104838Y0059250D01*
X0105445Y0058643D01*
X0107265Y0058643D01*
X0107265Y0061070D01*
X0108463Y0062283D02*
X0109070Y0062283D01*
X0109070Y0058643D01*
X0108463Y0058643D02*
X0109677Y0058643D01*
X0110880Y0059250D02*
X0110880Y0060463D01*
X0111487Y0061070D01*
X0112700Y0061070D01*
X0113307Y0060463D01*
X0113307Y0059856D01*
X0110880Y0059856D01*
X0110880Y0059250D02*
X0111487Y0058643D01*
X0112700Y0058643D01*
X0114505Y0059250D02*
X0114505Y0061676D01*
X0115112Y0062283D01*
X0116325Y0062283D01*
X0116932Y0061676D01*
X0118130Y0060463D02*
X0118130Y0059250D01*
X0118737Y0058643D01*
X0119950Y0058643D01*
X0120557Y0059250D01*
X0120557Y0060463D01*
X0119950Y0061070D01*
X0118737Y0061070D01*
X0118130Y0060463D01*
X0116932Y0059250D02*
X0116325Y0058643D01*
X0115112Y0058643D01*
X0114505Y0059250D01*
X0121755Y0058643D02*
X0121755Y0061070D01*
X0123576Y0061070D01*
X0124182Y0060463D01*
X0124182Y0058643D01*
X0125381Y0059250D02*
X0125381Y0060463D01*
X0125987Y0061070D01*
X0127201Y0061070D01*
X0127807Y0060463D01*
X0127807Y0059856D01*
X0125381Y0059856D01*
X0125381Y0059250D02*
X0125987Y0058643D01*
X0127201Y0058643D01*
X0129006Y0059250D02*
X0129006Y0060463D01*
X0129612Y0061070D01*
X0131432Y0061070D01*
X0132631Y0061070D02*
X0133844Y0061070D01*
X0133238Y0061676D02*
X0133238Y0059250D01*
X0133844Y0058643D01*
X0135048Y0059250D02*
X0135654Y0058643D01*
X0136868Y0058643D01*
X0137474Y0059250D01*
X0137474Y0060463D01*
X0136868Y0061070D01*
X0135654Y0061070D01*
X0135048Y0060463D01*
X0135048Y0059250D01*
X0131432Y0058643D02*
X0129612Y0058643D01*
X0129006Y0059250D01*
X0138673Y0059856D02*
X0139886Y0061070D01*
X0140493Y0061070D01*
X0141694Y0061070D02*
X0142907Y0062283D01*
X0142907Y0058643D01*
X0141694Y0058643D02*
X0144120Y0058643D01*
X0145319Y0058643D02*
X0145926Y0058643D01*
X0145926Y0059250D01*
X0145319Y0059250D01*
X0145319Y0058643D01*
X0147131Y0059250D02*
X0147131Y0061676D01*
X0147738Y0062283D01*
X0148951Y0062283D01*
X0149558Y0061676D01*
X0147131Y0059250D01*
X0147738Y0058643D01*
X0148951Y0058643D01*
X0149558Y0059250D01*
X0149558Y0061676D01*
X0138673Y0061070D02*
X0138673Y0058643D01*
D13*
X0049083Y0048788D02*
X0049083Y0033788D01*
X0051583Y0031288D01*
X0056583Y0031288D01*
X0059083Y0033788D01*
X0059083Y0048788D01*
X0056583Y0051288D01*
X0051583Y0051288D01*
X0049083Y0048788D01*
X0059083Y0048788D02*
X0061583Y0051288D01*
X0066583Y0051288D01*
X0069083Y0048788D01*
X0069083Y0033788D01*
X0066583Y0031288D01*
X0061583Y0031288D01*
X0059083Y0033788D01*
X0069083Y0033788D02*
X0071583Y0031288D01*
X0076583Y0031288D01*
X0079083Y0033788D01*
X0079083Y0048788D01*
X0076583Y0051288D01*
X0071583Y0051288D01*
X0069083Y0048788D01*
X0079083Y0048788D02*
X0081583Y0051288D01*
X0086583Y0051288D01*
X0089083Y0048788D01*
X0089083Y0033788D01*
X0086583Y0031288D01*
X0081583Y0031288D01*
X0079083Y0033788D01*
X0089083Y0033788D02*
X0091583Y0031288D01*
X0096583Y0031288D01*
X0099083Y0033788D01*
X0099083Y0048788D01*
X0096583Y0051288D01*
X0091583Y0051288D01*
X0089083Y0048788D01*
X0099083Y0048788D02*
X0101583Y0051288D01*
X0106583Y0051288D01*
X0109083Y0048788D01*
X0109083Y0033788D01*
X0106583Y0031288D01*
X0101583Y0031288D01*
X0099083Y0033788D01*
X0109083Y0033788D02*
X0111583Y0031288D01*
X0116583Y0031288D01*
X0119083Y0033788D01*
X0119083Y0048788D01*
X0116583Y0051288D01*
X0111583Y0051288D01*
X0109083Y0048788D01*
D14*
X0107076Y0086721D02*
X0107076Y0102469D01*
X0138572Y0102469D01*
X0138572Y0086721D01*
X0107076Y0086721D01*
X0103572Y0086721D02*
X0103572Y0102469D01*
X0072076Y0102469D01*
X0072076Y0086721D01*
X0103572Y0086721D01*
X0103572Y0116721D02*
X0103572Y0132469D01*
X0072076Y0132469D01*
X0072076Y0116721D01*
X0103572Y0116721D01*
X0107076Y0116721D02*
X0107076Y0132469D01*
X0138572Y0132469D01*
X0138572Y0116721D01*
X0107076Y0116721D01*
X0107076Y0146721D02*
X0107076Y0162469D01*
X0138572Y0162469D01*
X0138572Y0146721D01*
X0107076Y0146721D01*
X0103572Y0146721D02*
X0103572Y0162469D01*
X0072076Y0162469D01*
X0072076Y0146721D01*
X0103572Y0146721D01*
X0068572Y0146721D02*
X0068572Y0162469D01*
X0037076Y0162469D01*
X0037076Y0146721D01*
X0068572Y0146721D01*
X0068572Y0132469D02*
X0037076Y0132469D01*
X0037076Y0116721D01*
X0068572Y0116721D01*
X0068572Y0132469D01*
X0068572Y0102469D02*
X0037076Y0102469D01*
X0037076Y0086721D01*
X0068572Y0086721D01*
X0068572Y0102469D01*
X0068572Y0077469D02*
X0037076Y0077469D01*
X0037076Y0061721D01*
X0068572Y0061721D01*
X0068572Y0077469D01*
M02*
