G75*
%MOIN*%
%OFA0B0*%
%FSLAX25Y25*%
%IPPOS*%
%LPD*%
%AMOC8*
5,1,8,0,0,1.08239X$1,22.5*
%
%ADD10C,0.08858*%
%ADD11R,0.03642X0.02913*%
%ADD12C,0.06600*%
%ADD13R,0.05000X0.02200*%
%ADD14R,0.02200X0.05000*%
%ADD15C,0.06000*%
%ADD16C,0.07800*%
%ADD17C,0.04400*%
%ADD18OC8,0.05200*%
%ADD19R,0.07874X0.06299*%
%ADD20R,0.06299X0.07874*%
%ADD21C,0.05543*%
%ADD22OC8,0.06000*%
%ADD23C,0.05937*%
%ADD24R,0.11811X0.06299*%
%ADD25R,0.03150X0.03150*%
%ADD26C,0.01600*%
%ADD27C,0.03175*%
%ADD28C,0.03200*%
%ADD29C,0.15000*%
D10*
X0038854Y0195431D02*
X0047713Y0195431D01*
X0047713Y0215231D02*
X0038854Y0215231D01*
X0209210Y0219091D02*
X0209210Y0210232D01*
X0229010Y0210232D02*
X0229010Y0219091D01*
X0253187Y0218579D02*
X0253187Y0209720D01*
X0272987Y0209720D02*
X0272987Y0218579D01*
X0273657Y0182514D02*
X0264799Y0182514D01*
X0264799Y0162714D02*
X0273657Y0162714D01*
D11*
X0195921Y0115921D03*
X0191197Y0115921D03*
X0132299Y0103362D03*
X0127575Y0103362D03*
X0125291Y0113244D03*
X0120567Y0113244D03*
D12*
X0179583Y0176276D03*
X0179583Y0216276D03*
D13*
X0178254Y0125370D03*
X0178254Y0122220D03*
X0178254Y0119071D03*
X0178254Y0115921D03*
X0178254Y0112772D03*
X0178254Y0109622D03*
X0178254Y0106472D03*
X0178254Y0103323D03*
X0144454Y0103323D03*
X0144454Y0106472D03*
X0144454Y0109622D03*
X0144454Y0112772D03*
X0144454Y0115921D03*
X0144454Y0119071D03*
X0144454Y0122220D03*
X0144454Y0125370D03*
D14*
X0150331Y0131246D03*
X0153480Y0131246D03*
X0156630Y0131246D03*
X0159780Y0131246D03*
X0162929Y0131246D03*
X0166079Y0131246D03*
X0169228Y0131246D03*
X0172378Y0131246D03*
X0172378Y0097446D03*
X0169228Y0097446D03*
X0166079Y0097446D03*
X0162929Y0097446D03*
X0159780Y0097446D03*
X0156630Y0097446D03*
X0153480Y0097446D03*
X0150331Y0097446D03*
D15*
X0259654Y0096433D02*
X0265654Y0096433D01*
X0265654Y0106433D02*
X0259654Y0106433D01*
X0259654Y0116433D02*
X0265654Y0116433D01*
X0265654Y0126433D02*
X0259654Y0126433D01*
X0259654Y0086433D02*
X0265654Y0086433D01*
X0265654Y0076433D02*
X0259654Y0076433D01*
X0259654Y0066433D02*
X0265654Y0066433D01*
X0265654Y0056433D02*
X0259654Y0056433D01*
D16*
X0154439Y0173051D02*
X0146639Y0173051D01*
X0154639Y0196551D02*
X0162439Y0196551D01*
X0154439Y0220051D02*
X0146639Y0220051D01*
X0106439Y0220051D02*
X0098639Y0220051D01*
X0098639Y0173051D02*
X0106439Y0173051D01*
D17*
X0120724Y0084499D02*
X0120724Y0080099D01*
X0140724Y0080099D02*
X0140724Y0084499D01*
D18*
X0127496Y0046098D03*
X0122496Y0038598D03*
X0132496Y0038598D03*
X0198992Y0150469D03*
X0193992Y0157969D03*
X0203992Y0157969D03*
D19*
X0195882Y0170291D03*
X0195882Y0181315D03*
X0212417Y0181315D03*
X0212417Y0170291D03*
X0228953Y0170291D03*
X0228953Y0181315D03*
X0237457Y0138087D03*
X0237457Y0127063D03*
X0194268Y0128126D03*
X0194268Y0139150D03*
D20*
X0157614Y0061236D03*
X0146591Y0061236D03*
X0086039Y0095409D03*
X0075016Y0095409D03*
X0039583Y0095173D03*
X0028559Y0095173D03*
X0028087Y0131394D03*
X0039110Y0131394D03*
X0074858Y0131906D03*
X0085882Y0131906D03*
X0085252Y0058638D03*
X0074228Y0058638D03*
X0039543Y0058047D03*
X0028520Y0058047D03*
D21*
X0215449Y0035291D03*
X0223323Y0035291D03*
X0231197Y0035291D03*
X0239071Y0035291D03*
D22*
X0095449Y0037811D03*
X0095449Y0027811D03*
X0085449Y0027811D03*
X0075449Y0027811D03*
X0065449Y0027811D03*
X0055449Y0027811D03*
X0045449Y0027811D03*
X0035449Y0027811D03*
X0035449Y0037811D03*
X0045449Y0037811D03*
X0055449Y0037811D03*
X0065449Y0037811D03*
X0075449Y0037811D03*
X0085449Y0037811D03*
D23*
X0210134Y0085764D03*
X0210134Y0095764D03*
X0220134Y0095764D03*
X0220134Y0085764D03*
X0220134Y0105764D03*
X0210134Y0105764D03*
D24*
X0090094Y0113402D03*
X0072772Y0113402D03*
X0043362Y0112732D03*
X0026039Y0112732D03*
X0026039Y0076512D03*
X0043362Y0076512D03*
X0072772Y0077181D03*
X0090094Y0077181D03*
X0090094Y0149622D03*
X0072772Y0149622D03*
X0043362Y0149346D03*
X0026039Y0149346D03*
D25*
X0188598Y0190370D03*
X0194504Y0190370D03*
X0194504Y0198638D03*
X0188598Y0198638D03*
D26*
X0007377Y0252917D02*
X0006813Y0006800D01*
X0309859Y0006800D01*
X0310423Y0252917D01*
X0007377Y0252917D01*
X0007375Y0251966D02*
X0310421Y0251966D01*
X0310417Y0250368D02*
X0007371Y0250368D01*
X0007368Y0248769D02*
X0017038Y0248769D01*
X0016015Y0248495D02*
X0013256Y0246902D01*
X0011003Y0244650D01*
X0009410Y0241891D01*
X0008586Y0238813D01*
X0008586Y0235628D01*
X0009410Y0232550D01*
X0011003Y0229791D01*
X0013256Y0227539D01*
X0016015Y0225946D01*
X0019092Y0225121D01*
X0022278Y0225121D01*
X0025355Y0225946D01*
X0028114Y0227539D01*
X0030367Y0229791D01*
X0031960Y0232550D01*
X0032784Y0235628D01*
X0032784Y0238813D01*
X0031960Y0241891D01*
X0030367Y0244650D01*
X0028114Y0246902D01*
X0025355Y0248495D01*
X0022278Y0249320D01*
X0019092Y0249320D01*
X0016015Y0248495D01*
X0013721Y0247171D02*
X0007364Y0247171D01*
X0007360Y0245572D02*
X0011926Y0245572D01*
X0010613Y0243974D02*
X0007357Y0243974D01*
X0007353Y0242375D02*
X0009690Y0242375D01*
X0009112Y0240777D02*
X0007349Y0240777D01*
X0007346Y0239178D02*
X0008684Y0239178D01*
X0008586Y0237580D02*
X0007342Y0237580D01*
X0007338Y0235981D02*
X0008586Y0235981D01*
X0008919Y0234383D02*
X0007335Y0234383D01*
X0007331Y0232784D02*
X0009348Y0232784D01*
X0010198Y0231186D02*
X0007327Y0231186D01*
X0007324Y0229587D02*
X0011208Y0229587D01*
X0012806Y0227989D02*
X0007320Y0227989D01*
X0007316Y0226390D02*
X0015245Y0226390D01*
X0007313Y0224792D02*
X0035014Y0224792D01*
X0034906Y0224763D02*
X0032573Y0223416D01*
X0030669Y0221512D01*
X0029322Y0219179D01*
X0028625Y0216577D01*
X0028625Y0213884D01*
X0029322Y0211282D01*
X0030669Y0208950D01*
X0032573Y0207045D01*
X0034906Y0205699D01*
X0036279Y0205331D01*
X0034906Y0204963D01*
X0032573Y0203616D01*
X0030669Y0201712D01*
X0029322Y0199379D01*
X0028625Y0196777D01*
X0028625Y0194084D01*
X0029322Y0191482D01*
X0030669Y0189150D01*
X0032573Y0187245D01*
X0034906Y0185899D01*
X0037508Y0185202D01*
X0049059Y0185202D01*
X0051661Y0185899D01*
X0053993Y0187245D01*
X0055898Y0189150D01*
X0057245Y0191482D01*
X0057942Y0194084D01*
X0057942Y0196777D01*
X0057245Y0199379D01*
X0055898Y0201712D01*
X0053993Y0203616D01*
X0051661Y0204963D01*
X0050288Y0205331D01*
X0051661Y0205699D01*
X0053993Y0207045D01*
X0055898Y0208950D01*
X0057245Y0211282D01*
X0057942Y0213884D01*
X0057942Y0216577D01*
X0057245Y0219179D01*
X0055898Y0221512D01*
X0053993Y0223416D01*
X0051661Y0224763D01*
X0049059Y0225460D01*
X0037508Y0225460D01*
X0034906Y0224763D01*
X0032351Y0223193D02*
X0007309Y0223193D01*
X0007305Y0221595D02*
X0030752Y0221595D01*
X0029794Y0219996D02*
X0007302Y0219996D01*
X0007298Y0218398D02*
X0029113Y0218398D01*
X0028685Y0216799D02*
X0007294Y0216799D01*
X0007291Y0215201D02*
X0028625Y0215201D01*
X0028701Y0213602D02*
X0007287Y0213602D01*
X0007284Y0212003D02*
X0029129Y0212003D01*
X0029829Y0210405D02*
X0007280Y0210405D01*
X0007276Y0208806D02*
X0030812Y0208806D01*
X0032411Y0207208D02*
X0007273Y0207208D01*
X0007269Y0205609D02*
X0035239Y0205609D01*
X0033257Y0204011D02*
X0007265Y0204011D01*
X0007262Y0202412D02*
X0031370Y0202412D01*
X0030151Y0200814D02*
X0007258Y0200814D01*
X0007254Y0199215D02*
X0029278Y0199215D01*
X0028850Y0197617D02*
X0007251Y0197617D01*
X0007247Y0196018D02*
X0028625Y0196018D01*
X0028625Y0194420D02*
X0007243Y0194420D01*
X0007240Y0192821D02*
X0028964Y0192821D01*
X0029472Y0191223D02*
X0007236Y0191223D01*
X0007232Y0189624D02*
X0030395Y0189624D01*
X0031793Y0188026D02*
X0007229Y0188026D01*
X0007225Y0186427D02*
X0033990Y0186427D01*
X0052577Y0186427D02*
X0163994Y0186427D01*
X0164369Y0186851D02*
X0164452Y0186886D01*
X0162556Y0184990D01*
X0160475Y0182908D01*
X0159818Y0181323D01*
X0156369Y0182751D01*
X0144710Y0182751D01*
X0141145Y0181274D01*
X0138416Y0178546D01*
X0136939Y0174981D01*
X0136939Y0171122D01*
X0137893Y0168820D01*
X0115186Y0168820D01*
X0116139Y0171122D01*
X0116139Y0174981D01*
X0114663Y0178546D01*
X0111934Y0181274D01*
X0108369Y0182751D01*
X0096710Y0182751D01*
X0093145Y0181274D01*
X0090416Y0178546D01*
X0088939Y0174981D01*
X0088939Y0171122D01*
X0089893Y0168820D01*
X0059530Y0168820D01*
X0057104Y0167816D01*
X0055247Y0165959D01*
X0047584Y0158296D01*
X0036303Y0158296D01*
X0034171Y0157413D01*
X0032540Y0155781D01*
X0031924Y0154296D01*
X0026814Y0154296D01*
X0026814Y0150121D01*
X0025265Y0150121D01*
X0025265Y0154296D01*
X0019897Y0154296D01*
X0019439Y0154173D01*
X0019029Y0153936D01*
X0018693Y0153601D01*
X0018457Y0153191D01*
X0018334Y0152733D01*
X0018334Y0150121D01*
X0025264Y0150121D01*
X0025264Y0148572D01*
X0018334Y0148572D01*
X0018334Y0145960D01*
X0018457Y0145502D01*
X0018693Y0145092D01*
X0019029Y0144756D01*
X0019439Y0144520D01*
X0019897Y0144397D01*
X0025265Y0144397D01*
X0025265Y0148572D01*
X0026814Y0148572D01*
X0026814Y0144397D01*
X0031924Y0144397D01*
X0032510Y0142983D01*
X0032510Y0141081D01*
X0032390Y0141131D01*
X0023783Y0141131D01*
X0021652Y0140248D01*
X0020020Y0138616D01*
X0019137Y0136484D01*
X0019137Y0131778D01*
X0008397Y0121038D01*
X0007392Y0118612D01*
X0007392Y0039845D01*
X0008397Y0037419D01*
X0010254Y0035562D01*
X0014646Y0031170D01*
X0013256Y0030367D01*
X0011003Y0028114D01*
X0009410Y0025355D01*
X0008586Y0022278D01*
X0008586Y0019092D01*
X0009410Y0016015D01*
X0011003Y0013256D01*
X0013256Y0011003D01*
X0016015Y0009410D01*
X0019092Y0008586D01*
X0022278Y0008586D01*
X0025355Y0009410D01*
X0028114Y0011003D01*
X0030367Y0013256D01*
X0031613Y0015414D01*
X0031971Y0015266D01*
X0042077Y0015266D01*
X0044502Y0016271D01*
X0046359Y0018128D01*
X0047242Y0019011D01*
X0049094Y0019011D01*
X0050449Y0020366D01*
X0051804Y0019011D01*
X0059094Y0019011D01*
X0060449Y0020366D01*
X0061804Y0019011D01*
X0069094Y0019011D01*
X0073277Y0023194D01*
X0073461Y0023011D01*
X0075249Y0023011D01*
X0075249Y0027611D01*
X0075649Y0027611D01*
X0075649Y0023011D01*
X0077437Y0023011D01*
X0077620Y0023194D01*
X0081804Y0019011D01*
X0089094Y0019011D01*
X0090449Y0020366D01*
X0091804Y0019011D01*
X0099094Y0019011D01*
X0104249Y0024166D01*
X0104249Y0027277D01*
X0114096Y0037124D01*
X0114096Y0035119D01*
X0119017Y0030198D01*
X0125975Y0030198D01*
X0130324Y0034547D01*
X0130674Y0034198D01*
X0132496Y0034198D01*
X0132496Y0038598D01*
X0132496Y0038598D01*
X0132496Y0034198D01*
X0134319Y0034198D01*
X0136896Y0036776D01*
X0136896Y0038598D01*
X0132496Y0038598D01*
X0132496Y0038598D01*
X0136896Y0038598D01*
X0136896Y0040421D01*
X0136003Y0041314D01*
X0146187Y0051499D01*
X0150894Y0051499D01*
X0152102Y0052000D01*
X0153311Y0051499D01*
X0161917Y0051499D01*
X0164049Y0052382D01*
X0165681Y0054014D01*
X0165939Y0054636D01*
X0214987Y0054636D01*
X0211828Y0051477D01*
X0209972Y0049620D01*
X0208967Y0047195D01*
X0208967Y0040932D01*
X0208182Y0040147D01*
X0206877Y0036996D01*
X0206877Y0033586D01*
X0208182Y0030436D01*
X0210593Y0028025D01*
X0213744Y0026720D01*
X0217154Y0026720D01*
X0219386Y0027644D01*
X0221618Y0026720D01*
X0225028Y0026720D01*
X0227260Y0027644D01*
X0229492Y0026720D01*
X0232902Y0026720D01*
X0236052Y0028025D01*
X0238464Y0030436D01*
X0238589Y0030739D01*
X0238711Y0030720D01*
X0238985Y0030720D01*
X0238985Y0031695D01*
X0239157Y0032109D01*
X0239157Y0030720D01*
X0239431Y0030720D01*
X0240141Y0030832D01*
X0240826Y0031055D01*
X0241467Y0031381D01*
X0242049Y0031804D01*
X0242558Y0032313D01*
X0242981Y0032895D01*
X0243308Y0033536D01*
X0243530Y0034221D01*
X0243643Y0034932D01*
X0243643Y0035205D01*
X0239768Y0035205D01*
X0239768Y0035377D01*
X0243643Y0035377D01*
X0243643Y0035651D01*
X0243530Y0036362D01*
X0243308Y0037046D01*
X0242981Y0037687D01*
X0242558Y0038270D01*
X0242049Y0038778D01*
X0241467Y0039201D01*
X0240826Y0039528D01*
X0240141Y0039750D01*
X0239431Y0039863D01*
X0239157Y0039863D01*
X0239157Y0038473D01*
X0238985Y0038888D01*
X0238985Y0039863D01*
X0238711Y0039863D01*
X0238589Y0039844D01*
X0238464Y0040147D01*
X0236052Y0042558D01*
X0233194Y0043742D01*
X0251815Y0062363D01*
X0252193Y0061448D01*
X0254669Y0058973D01*
X0255405Y0058668D01*
X0255205Y0058276D01*
X0254972Y0057557D01*
X0254854Y0056811D01*
X0254854Y0056633D01*
X0262453Y0056633D01*
X0262453Y0056233D01*
X0254854Y0056233D01*
X0254854Y0056055D01*
X0254972Y0055309D01*
X0255205Y0054591D01*
X0255548Y0053917D01*
X0255992Y0053306D01*
X0256527Y0052772D01*
X0257138Y0052328D01*
X0257811Y0051985D01*
X0258530Y0051751D01*
X0259276Y0051633D01*
X0262454Y0051633D01*
X0262454Y0056233D01*
X0262854Y0056233D01*
X0262854Y0056633D01*
X0270454Y0056633D01*
X0270454Y0056811D01*
X0270335Y0057557D01*
X0270102Y0058276D01*
X0269902Y0058668D01*
X0270638Y0058973D01*
X0273114Y0061448D01*
X0274454Y0064683D01*
X0274454Y0068184D01*
X0273114Y0071418D01*
X0273099Y0071433D01*
X0273114Y0071448D01*
X0274454Y0074683D01*
X0274454Y0078184D01*
X0273114Y0081418D01*
X0273099Y0081433D01*
X0273114Y0081448D01*
X0274454Y0084683D01*
X0274454Y0088184D01*
X0273114Y0091418D01*
X0273099Y0091433D01*
X0273114Y0091448D01*
X0274454Y0094683D01*
X0274454Y0098184D01*
X0273114Y0101418D01*
X0273099Y0101433D01*
X0273114Y0101448D01*
X0274454Y0104683D01*
X0274454Y0108184D01*
X0273114Y0111418D01*
X0273099Y0111433D01*
X0273114Y0111448D01*
X0274454Y0114683D01*
X0274454Y0118184D01*
X0273114Y0121418D01*
X0273099Y0121433D01*
X0273114Y0121448D01*
X0274454Y0124683D01*
X0274454Y0128184D01*
X0273114Y0131418D01*
X0270638Y0133893D01*
X0267404Y0135233D01*
X0257903Y0135233D01*
X0254669Y0133893D01*
X0252193Y0131418D01*
X0250854Y0128184D01*
X0250854Y0124683D01*
X0251537Y0123033D01*
X0250820Y0123033D01*
X0247194Y0126660D01*
X0247194Y0131366D01*
X0246693Y0132575D01*
X0247194Y0133783D01*
X0247194Y0142390D01*
X0246311Y0144522D01*
X0244679Y0146153D01*
X0242547Y0147036D01*
X0232366Y0147036D01*
X0230234Y0146153D01*
X0230070Y0145989D01*
X0221989Y0154069D01*
X0220132Y0155926D01*
X0217707Y0156931D01*
X0212392Y0156931D01*
X0212392Y0161342D01*
X0217508Y0161342D01*
X0219640Y0162225D01*
X0220685Y0163270D01*
X0221730Y0162225D01*
X0223862Y0161342D01*
X0234043Y0161342D01*
X0236175Y0162225D01*
X0237807Y0163856D01*
X0238690Y0165988D01*
X0238690Y0174595D01*
X0238189Y0175803D01*
X0238690Y0177012D01*
X0238690Y0185618D01*
X0237807Y0187750D01*
X0236175Y0189382D01*
X0234043Y0190265D01*
X0229337Y0190265D01*
X0216523Y0203079D01*
X0217396Y0203951D01*
X0217513Y0204156D01*
X0219538Y0206180D01*
X0220825Y0203951D01*
X0222729Y0202047D01*
X0225062Y0200700D01*
X0227664Y0200003D01*
X0230357Y0200003D01*
X0232959Y0200700D01*
X0235291Y0202047D01*
X0237196Y0203951D01*
X0238542Y0206284D01*
X0239239Y0208886D01*
X0239239Y0220437D01*
X0238886Y0221755D01*
X0243448Y0221755D01*
X0242957Y0219925D01*
X0242957Y0208374D01*
X0243655Y0205772D01*
X0245001Y0203440D01*
X0246906Y0201535D01*
X0249238Y0200188D01*
X0251840Y0199491D01*
X0254533Y0199491D01*
X0257135Y0200188D01*
X0259467Y0201535D01*
X0261372Y0203440D01*
X0262659Y0205668D01*
X0264683Y0203644D01*
X0264801Y0203440D01*
X0266706Y0201535D01*
X0269038Y0200188D01*
X0271640Y0199491D01*
X0274333Y0199491D01*
X0276935Y0200188D01*
X0279267Y0201535D01*
X0281172Y0203440D01*
X0281290Y0203644D01*
X0283629Y0205983D01*
X0285380Y0209016D01*
X0286287Y0212399D01*
X0286287Y0215901D01*
X0286072Y0216703D01*
X0286072Y0230507D01*
X0285977Y0230859D01*
X0286594Y0229791D01*
X0288846Y0227539D01*
X0291605Y0225946D01*
X0294683Y0225121D01*
X0297868Y0225121D01*
X0300946Y0225946D01*
X0303705Y0227539D01*
X0305957Y0229791D01*
X0307550Y0232550D01*
X0308375Y0235628D01*
X0308375Y0238813D01*
X0307550Y0241891D01*
X0305957Y0244650D01*
X0303705Y0246902D01*
X0300946Y0248495D01*
X0297868Y0249320D01*
X0294683Y0249320D01*
X0291605Y0248495D01*
X0288846Y0246902D01*
X0286594Y0244650D01*
X0285001Y0241891D01*
X0284176Y0238813D01*
X0284176Y0235628D01*
X0284189Y0235580D01*
X0283414Y0236922D01*
X0280938Y0239399D01*
X0274639Y0245698D01*
X0271606Y0247449D01*
X0268223Y0248355D01*
X0213540Y0248355D01*
X0210158Y0247449D01*
X0207125Y0245698D01*
X0206542Y0245115D01*
X0203991Y0247666D01*
X0200958Y0249417D01*
X0197575Y0250324D01*
X0130469Y0250324D01*
X0127087Y0249417D01*
X0124054Y0247666D01*
X0121578Y0245190D01*
X0109739Y0233351D01*
X0100788Y0233351D01*
X0097406Y0232445D01*
X0094373Y0230694D01*
X0091897Y0228218D01*
X0090146Y0225185D01*
X0089924Y0224359D01*
X0088939Y0221981D01*
X0088939Y0218122D01*
X0089924Y0215744D01*
X0090146Y0214918D01*
X0091897Y0211885D01*
X0094373Y0209409D01*
X0097406Y0207658D01*
X0100788Y0206751D01*
X0116999Y0206751D01*
X0120382Y0207658D01*
X0123414Y0209409D01*
X0137613Y0223607D01*
X0136939Y0221981D01*
X0136939Y0218122D01*
X0138416Y0214557D01*
X0141145Y0211828D01*
X0144710Y0210351D01*
X0156369Y0210351D01*
X0159934Y0211828D01*
X0162663Y0214557D01*
X0164139Y0218122D01*
X0164139Y0221981D01*
X0163417Y0223724D01*
X0174161Y0223724D01*
X0171868Y0221430D01*
X0170483Y0218086D01*
X0170483Y0214465D01*
X0171868Y0211121D01*
X0172183Y0210806D01*
X0172183Y0194616D01*
X0172105Y0194539D01*
X0172139Y0194622D01*
X0172139Y0198481D01*
X0170663Y0202046D01*
X0167934Y0204774D01*
X0164369Y0206251D01*
X0152710Y0206251D01*
X0149145Y0204774D01*
X0146416Y0202046D01*
X0144939Y0198481D01*
X0144939Y0194622D01*
X0146416Y0191057D01*
X0149145Y0188328D01*
X0152710Y0186851D01*
X0164369Y0186851D01*
X0162395Y0184829D02*
X0007221Y0184829D01*
X0007218Y0183230D02*
X0160797Y0183230D01*
X0159946Y0181632D02*
X0159071Y0181632D01*
X0149874Y0188026D02*
X0054774Y0188026D01*
X0056172Y0189624D02*
X0147848Y0189624D01*
X0146347Y0191223D02*
X0057095Y0191223D01*
X0057603Y0192821D02*
X0145685Y0192821D01*
X0145023Y0194420D02*
X0057942Y0194420D01*
X0057942Y0196018D02*
X0144939Y0196018D01*
X0144939Y0197617D02*
X0057717Y0197617D01*
X0057288Y0199215D02*
X0145244Y0199215D01*
X0145906Y0200814D02*
X0056416Y0200814D01*
X0055197Y0202412D02*
X0146783Y0202412D01*
X0148381Y0204011D02*
X0053309Y0204011D01*
X0051328Y0205609D02*
X0151161Y0205609D01*
X0156499Y0210405D02*
X0172183Y0210405D01*
X0172183Y0208806D02*
X0122372Y0208806D01*
X0124411Y0210405D02*
X0144580Y0210405D01*
X0140969Y0212003D02*
X0126009Y0212003D01*
X0127608Y0213602D02*
X0139371Y0213602D01*
X0138149Y0215201D02*
X0129206Y0215201D01*
X0130805Y0216799D02*
X0137487Y0216799D01*
X0136939Y0218398D02*
X0132403Y0218398D01*
X0134002Y0219996D02*
X0136939Y0219996D01*
X0136939Y0221595D02*
X0135600Y0221595D01*
X0137199Y0223193D02*
X0137442Y0223193D01*
X0118704Y0207208D02*
X0172183Y0207208D01*
X0172183Y0205609D02*
X0165918Y0205609D01*
X0168697Y0204011D02*
X0172183Y0204011D01*
X0172183Y0202412D02*
X0170296Y0202412D01*
X0171173Y0200814D02*
X0172183Y0200814D01*
X0172183Y0199215D02*
X0171835Y0199215D01*
X0172139Y0197617D02*
X0172183Y0197617D01*
X0172139Y0196018D02*
X0172183Y0196018D01*
X0188598Y0197260D02*
X0191157Y0194701D01*
X0199031Y0194701D01*
X0212417Y0181315D01*
X0212417Y0170291D02*
X0195882Y0170291D01*
X0198323Y0170291D01*
X0203795Y0164819D01*
X0203795Y0158165D01*
X0203992Y0157969D01*
X0212392Y0157654D02*
X0255909Y0157654D01*
X0255267Y0158766D02*
X0256614Y0156433D01*
X0258518Y0154529D01*
X0260851Y0153182D01*
X0263453Y0152485D01*
X0275004Y0152485D01*
X0277606Y0153182D01*
X0279938Y0154529D01*
X0281843Y0156433D01*
X0283190Y0158766D01*
X0283887Y0161367D01*
X0283887Y0164061D01*
X0283190Y0166662D01*
X0281843Y0168995D01*
X0279938Y0170900D01*
X0277606Y0172246D01*
X0276232Y0172614D01*
X0277606Y0172982D01*
X0279938Y0174329D01*
X0281843Y0176233D01*
X0283190Y0178566D01*
X0283887Y0181167D01*
X0283887Y0183861D01*
X0283190Y0186462D01*
X0281843Y0188795D01*
X0279938Y0190700D01*
X0277606Y0192046D01*
X0275004Y0192743D01*
X0263453Y0192743D01*
X0260851Y0192046D01*
X0258518Y0190700D01*
X0256614Y0188795D01*
X0255267Y0186462D01*
X0254570Y0183861D01*
X0254570Y0181167D01*
X0255267Y0178566D01*
X0256614Y0176233D01*
X0258518Y0174329D01*
X0260851Y0172982D01*
X0262224Y0172614D01*
X0260851Y0172246D01*
X0258518Y0170900D01*
X0256614Y0168995D01*
X0255267Y0166662D01*
X0254570Y0164061D01*
X0254570Y0161367D01*
X0255267Y0158766D01*
X0255137Y0159253D02*
X0212392Y0159253D01*
X0212392Y0160851D02*
X0254708Y0160851D01*
X0254570Y0162450D02*
X0236400Y0162450D01*
X0237886Y0164048D02*
X0254570Y0164048D01*
X0254995Y0165647D02*
X0238548Y0165647D01*
X0238690Y0167245D02*
X0255604Y0167245D01*
X0256527Y0168844D02*
X0238690Y0168844D01*
X0238690Y0170442D02*
X0258061Y0170442D01*
X0260495Y0172041D02*
X0238690Y0172041D01*
X0238690Y0173639D02*
X0259713Y0173639D01*
X0257609Y0175238D02*
X0238423Y0175238D01*
X0238617Y0176836D02*
X0256266Y0176836D01*
X0255343Y0178435D02*
X0238690Y0178435D01*
X0238690Y0180033D02*
X0254874Y0180033D01*
X0254570Y0181632D02*
X0238690Y0181632D01*
X0238690Y0183230D02*
X0254570Y0183230D01*
X0254829Y0184829D02*
X0238690Y0184829D01*
X0238355Y0186427D02*
X0255258Y0186427D01*
X0256170Y0188026D02*
X0237531Y0188026D01*
X0235589Y0189624D02*
X0257443Y0189624D01*
X0259425Y0191223D02*
X0228379Y0191223D01*
X0226780Y0192821D02*
X0310285Y0192821D01*
X0310282Y0191223D02*
X0279032Y0191223D01*
X0281013Y0189624D02*
X0310278Y0189624D01*
X0310274Y0188026D02*
X0282287Y0188026D01*
X0283199Y0186427D02*
X0310271Y0186427D01*
X0310267Y0184829D02*
X0283627Y0184829D01*
X0283887Y0183230D02*
X0310263Y0183230D01*
X0310260Y0181632D02*
X0283887Y0181632D01*
X0283583Y0180033D02*
X0310256Y0180033D01*
X0310252Y0178435D02*
X0283114Y0178435D01*
X0282191Y0176836D02*
X0310249Y0176836D01*
X0310245Y0175238D02*
X0280847Y0175238D01*
X0278744Y0173639D02*
X0310241Y0173639D01*
X0310238Y0172041D02*
X0277962Y0172041D01*
X0280396Y0170442D02*
X0310234Y0170442D01*
X0310230Y0168844D02*
X0281930Y0168844D01*
X0282853Y0167245D02*
X0310227Y0167245D01*
X0310223Y0165647D02*
X0283462Y0165647D01*
X0283887Y0164048D02*
X0310219Y0164048D01*
X0310216Y0162450D02*
X0283887Y0162450D01*
X0283748Y0160851D02*
X0310212Y0160851D01*
X0310208Y0159253D02*
X0283320Y0159253D01*
X0282548Y0157654D02*
X0310205Y0157654D01*
X0310201Y0156056D02*
X0281465Y0156056D01*
X0279814Y0154457D02*
X0310197Y0154457D01*
X0310194Y0152859D02*
X0276398Y0152859D01*
X0262058Y0152859D02*
X0223200Y0152859D01*
X0221601Y0154457D02*
X0258643Y0154457D01*
X0256992Y0156056D02*
X0219819Y0156056D01*
X0219865Y0162450D02*
X0221505Y0162450D01*
X0228953Y0170291D02*
X0212417Y0170291D01*
X0195882Y0181315D02*
X0194504Y0182693D01*
X0194504Y0190370D01*
X0188598Y0190370D02*
X0188598Y0163362D01*
X0193992Y0157969D01*
X0193992Y0157968D01*
X0189592Y0157968D01*
X0189592Y0156146D01*
X0191191Y0154547D01*
X0190592Y0153948D01*
X0190592Y0153290D01*
X0175953Y0167929D01*
X0177773Y0167176D01*
X0181393Y0167176D01*
X0184737Y0168561D01*
X0186145Y0169968D01*
X0186145Y0165988D01*
X0187028Y0163856D01*
X0188659Y0162225D01*
X0190791Y0161342D01*
X0191143Y0161342D01*
X0189592Y0159791D01*
X0189592Y0157969D01*
X0193992Y0157969D01*
X0190652Y0160851D02*
X0183031Y0160851D01*
X0181433Y0162450D02*
X0188435Y0162450D01*
X0186948Y0164048D02*
X0179834Y0164048D01*
X0178236Y0165647D02*
X0186286Y0165647D01*
X0186145Y0167245D02*
X0181561Y0167245D01*
X0185020Y0168844D02*
X0186145Y0168844D01*
X0177605Y0167245D02*
X0176637Y0167245D01*
X0184630Y0159253D02*
X0189592Y0159253D01*
X0189592Y0157654D02*
X0186228Y0157654D01*
X0187827Y0156056D02*
X0189682Y0156056D01*
X0189425Y0154457D02*
X0191101Y0154457D01*
X0198992Y0150469D02*
X0199130Y0150331D01*
X0216394Y0150331D01*
X0228638Y0138087D01*
X0237457Y0138087D01*
X0247194Y0138472D02*
X0310161Y0138472D01*
X0310164Y0140070D02*
X0247194Y0140070D01*
X0247194Y0141669D02*
X0310168Y0141669D01*
X0310172Y0143268D02*
X0246830Y0143268D01*
X0245966Y0144866D02*
X0310175Y0144866D01*
X0310179Y0146465D02*
X0243928Y0146465D01*
X0247194Y0136873D02*
X0310157Y0136873D01*
X0310153Y0135275D02*
X0247194Y0135275D01*
X0247149Y0133676D02*
X0254452Y0133676D01*
X0252853Y0132078D02*
X0246899Y0132078D01*
X0247194Y0130479D02*
X0251805Y0130479D01*
X0251142Y0128881D02*
X0247194Y0128881D01*
X0247194Y0127282D02*
X0250854Y0127282D01*
X0250854Y0125684D02*
X0248170Y0125684D01*
X0249768Y0124085D02*
X0251101Y0124085D01*
X0248087Y0116433D02*
X0237457Y0127063D01*
X0237220Y0126827D01*
X0237220Y0078165D01*
X0220291Y0061236D01*
X0157614Y0061236D01*
X0165418Y0053751D02*
X0214102Y0053751D01*
X0212504Y0052152D02*
X0163494Y0052152D01*
X0146591Y0061236D02*
X0131453Y0046098D01*
X0127496Y0046098D01*
X0136354Y0040963D02*
X0208967Y0040963D01*
X0208967Y0042561D02*
X0137249Y0042561D01*
X0138848Y0044160D02*
X0208967Y0044160D01*
X0208967Y0045758D02*
X0140446Y0045758D01*
X0142045Y0047357D02*
X0209034Y0047357D01*
X0209696Y0048955D02*
X0143643Y0048955D01*
X0145242Y0050554D02*
X0210905Y0050554D01*
X0215567Y0045882D02*
X0215567Y0035409D01*
X0215449Y0035291D01*
X0207794Y0031372D02*
X0127149Y0031372D01*
X0128747Y0032970D02*
X0207132Y0032970D01*
X0206877Y0034569D02*
X0134689Y0034569D01*
X0132496Y0034569D02*
X0132496Y0034569D01*
X0132496Y0036167D02*
X0132496Y0036167D01*
X0132496Y0037766D02*
X0132496Y0037766D01*
X0136287Y0036167D02*
X0206877Y0036167D01*
X0207196Y0037766D02*
X0136896Y0037766D01*
X0136896Y0039364D02*
X0207858Y0039364D01*
X0215567Y0045882D02*
X0244307Y0074622D01*
X0244307Y0094307D01*
X0256433Y0106433D01*
X0262654Y0106433D01*
X0262654Y0096433D02*
X0262339Y0096118D01*
X0256827Y0096118D01*
X0251039Y0090331D01*
X0251039Y0070921D01*
X0223323Y0043205D01*
X0223323Y0035291D01*
X0233612Y0044160D02*
X0309945Y0044160D01*
X0309948Y0045758D02*
X0235210Y0045758D01*
X0236809Y0047357D02*
X0309952Y0047357D01*
X0309956Y0048955D02*
X0238407Y0048955D01*
X0240006Y0050554D02*
X0309959Y0050554D01*
X0309963Y0052152D02*
X0267825Y0052152D01*
X0267496Y0051985D02*
X0268169Y0052328D01*
X0268781Y0052772D01*
X0269315Y0053306D01*
X0269759Y0053917D01*
X0270102Y0054591D01*
X0270335Y0055309D01*
X0270454Y0056055D01*
X0270454Y0056233D01*
X0262854Y0056233D01*
X0262854Y0051633D01*
X0266031Y0051633D01*
X0266778Y0051751D01*
X0267496Y0051985D01*
X0269638Y0053751D02*
X0309967Y0053751D01*
X0309970Y0055349D02*
X0270342Y0055349D01*
X0270432Y0056948D02*
X0309974Y0056948D01*
X0309978Y0058546D02*
X0269964Y0058546D01*
X0271810Y0060145D02*
X0309981Y0060145D01*
X0309985Y0061743D02*
X0273236Y0061743D01*
X0273898Y0063342D02*
X0309989Y0063342D01*
X0309992Y0064940D02*
X0274454Y0064940D01*
X0274454Y0066539D02*
X0309996Y0066539D01*
X0310000Y0068137D02*
X0274454Y0068137D01*
X0273810Y0069736D02*
X0310003Y0069736D01*
X0310007Y0071334D02*
X0273148Y0071334D01*
X0273729Y0072933D02*
X0310010Y0072933D01*
X0310014Y0074532D02*
X0274391Y0074532D01*
X0274454Y0076130D02*
X0310018Y0076130D01*
X0310021Y0077729D02*
X0274454Y0077729D01*
X0273980Y0079327D02*
X0310025Y0079327D01*
X0310029Y0080926D02*
X0273318Y0080926D01*
X0273559Y0082524D02*
X0310032Y0082524D01*
X0310036Y0084123D02*
X0274222Y0084123D01*
X0274454Y0085721D02*
X0310040Y0085721D01*
X0310043Y0087320D02*
X0274454Y0087320D01*
X0274149Y0088918D02*
X0310047Y0088918D01*
X0310051Y0090517D02*
X0273487Y0090517D01*
X0273390Y0092115D02*
X0310054Y0092115D01*
X0310058Y0093714D02*
X0274052Y0093714D01*
X0274454Y0095312D02*
X0310062Y0095312D01*
X0310065Y0096911D02*
X0274454Y0096911D01*
X0274319Y0098509D02*
X0310069Y0098509D01*
X0310073Y0100108D02*
X0273657Y0100108D01*
X0273221Y0101706D02*
X0310076Y0101706D01*
X0310080Y0103305D02*
X0273883Y0103305D01*
X0274454Y0104903D02*
X0310084Y0104903D01*
X0310087Y0106502D02*
X0274454Y0106502D01*
X0274454Y0108100D02*
X0310091Y0108100D01*
X0310095Y0109699D02*
X0273826Y0109699D01*
X0273164Y0111297D02*
X0310098Y0111297D01*
X0310102Y0112896D02*
X0273713Y0112896D01*
X0274376Y0114494D02*
X0310106Y0114494D01*
X0310109Y0116093D02*
X0274454Y0116093D01*
X0274454Y0117691D02*
X0310113Y0117691D01*
X0310117Y0119290D02*
X0273995Y0119290D01*
X0273333Y0120888D02*
X0310120Y0120888D01*
X0310124Y0122487D02*
X0273544Y0122487D01*
X0274206Y0124085D02*
X0310128Y0124085D01*
X0310131Y0125684D02*
X0274454Y0125684D01*
X0274454Y0127282D02*
X0310135Y0127282D01*
X0310139Y0128881D02*
X0274165Y0128881D01*
X0273503Y0130479D02*
X0310142Y0130479D01*
X0310146Y0132078D02*
X0272454Y0132078D01*
X0270855Y0133676D02*
X0310150Y0133676D01*
X0310183Y0148063D02*
X0227995Y0148063D01*
X0226397Y0149662D02*
X0310186Y0149662D01*
X0310190Y0151260D02*
X0224798Y0151260D01*
X0229594Y0146465D02*
X0230986Y0146465D01*
X0210252Y0127142D02*
X0195252Y0127142D01*
X0194268Y0128126D01*
X0193205Y0120764D02*
X0203323Y0120764D01*
X0210173Y0113913D01*
X0210173Y0105646D01*
X0210134Y0105764D02*
X0210134Y0113953D01*
X0203362Y0120724D01*
X0193126Y0120724D01*
X0191197Y0118795D01*
X0191197Y0115921D01*
X0178254Y0115921D01*
X0178215Y0115961D01*
X0164346Y0115961D01*
X0161236Y0119071D01*
X0144454Y0119071D01*
X0140252Y0119071D01*
X0138677Y0117496D01*
X0138677Y0114189D01*
X0140094Y0112772D01*
X0144454Y0112772D01*
X0144454Y0115921D02*
X0159819Y0115921D01*
X0162890Y0112850D01*
X0166157Y0112850D01*
X0172535Y0106472D01*
X0178254Y0106472D01*
X0178215Y0106433D01*
X0172260Y0106433D01*
X0169071Y0109622D01*
X0144454Y0109622D01*
X0144415Y0106512D02*
X0144454Y0106472D01*
X0144415Y0106512D02*
X0138795Y0106512D01*
X0132063Y0113244D01*
X0125291Y0113244D01*
X0125449Y0113087D01*
X0125449Y0109071D01*
X0120724Y0104346D01*
X0120724Y0082299D01*
X0115921Y0077024D02*
X0115921Y0108598D01*
X0116079Y0108598D01*
X0120882Y0113402D01*
X0120882Y0116512D01*
X0123402Y0119031D01*
X0161315Y0119031D01*
X0164465Y0115882D01*
X0191197Y0115882D01*
X0191394Y0116079D01*
X0191394Y0118953D01*
X0193205Y0120764D01*
X0195921Y0115921D02*
X0199661Y0115921D01*
X0202811Y0112772D01*
X0202811Y0105606D01*
X0207457Y0100961D01*
X0224543Y0100961D01*
X0229937Y0106354D01*
X0220134Y0105764D02*
X0220134Y0117260D01*
X0210252Y0127142D01*
X0207518Y0120542D02*
X0204375Y0120542D01*
X0206550Y0118367D01*
X0208406Y0116510D01*
X0209411Y0114084D01*
X0209411Y0110477D01*
X0209759Y0110532D01*
X0209950Y0110532D01*
X0209950Y0107802D01*
X0210191Y0107561D01*
X0210318Y0107561D01*
X0210318Y0110532D01*
X0210509Y0110532D01*
X0211250Y0110415D01*
X0211964Y0110183D01*
X0212385Y0109969D01*
X0212700Y0110731D01*
X0213534Y0111564D01*
X0213534Y0114526D01*
X0207518Y0120542D01*
X0208770Y0119290D02*
X0205627Y0119290D01*
X0207225Y0117691D02*
X0210369Y0117691D01*
X0211967Y0116093D02*
X0208579Y0116093D01*
X0209241Y0114494D02*
X0213534Y0114494D01*
X0213534Y0112896D02*
X0209411Y0112896D01*
X0209411Y0111297D02*
X0213267Y0111297D01*
X0210318Y0109699D02*
X0209950Y0109699D01*
X0209950Y0108100D02*
X0210318Y0108100D01*
X0210134Y0095764D02*
X0203126Y0095764D01*
X0196787Y0089425D01*
X0172496Y0089425D01*
X0169346Y0092575D01*
X0169346Y0097328D01*
X0169228Y0097446D01*
X0172378Y0097446D02*
X0181719Y0097446D01*
X0184465Y0094701D01*
X0187614Y0100882D02*
X0185173Y0103323D01*
X0178254Y0103323D01*
X0187614Y0100882D02*
X0195803Y0100882D01*
X0194622Y0111906D02*
X0188323Y0111906D01*
X0187457Y0112772D01*
X0178254Y0112772D01*
X0178176Y0112850D01*
X0166157Y0112850D01*
X0178254Y0122220D02*
X0178294Y0122181D01*
X0182142Y0122181D01*
X0184425Y0124465D01*
X0184425Y0140094D01*
X0162299Y0162220D01*
X0060843Y0162220D01*
X0047969Y0149346D01*
X0043362Y0149346D01*
X0039110Y0145094D01*
X0039110Y0131394D01*
X0033559Y0136906D02*
X0033559Y0120252D01*
X0026039Y0112732D01*
X0026039Y0109701D01*
X0034110Y0101630D01*
X0034110Y0084583D01*
X0026039Y0076512D01*
X0021472Y0071945D01*
X0021472Y0044425D01*
X0033165Y0032732D01*
X0073205Y0032732D01*
X0075449Y0030488D01*
X0075449Y0030094D01*
X0070370Y0035173D01*
X0070370Y0042535D01*
X0079622Y0051787D01*
X0079622Y0064740D01*
X0072772Y0071591D01*
X0072772Y0077181D01*
X0080488Y0084898D01*
X0080488Y0101787D01*
X0072772Y0109504D01*
X0072772Y0113402D01*
X0080331Y0120961D01*
X0080331Y0136472D01*
X0072772Y0144031D01*
X0072772Y0149622D01*
X0073546Y0148847D02*
X0071997Y0148847D01*
X0071997Y0144672D01*
X0066629Y0144672D01*
X0066171Y0144795D01*
X0065761Y0145032D01*
X0065426Y0145367D01*
X0065189Y0145778D01*
X0065066Y0146235D01*
X0065066Y0146913D01*
X0063624Y0145471D01*
X0063624Y0133666D01*
X0065326Y0135369D01*
X0065326Y0135369D01*
X0065909Y0135951D01*
X0065909Y0136996D01*
X0066792Y0139128D01*
X0068423Y0140760D01*
X0070555Y0141643D01*
X0079162Y0141643D01*
X0079282Y0141593D01*
X0079282Y0143177D01*
X0079272Y0143187D01*
X0078657Y0144672D01*
X0073546Y0144672D01*
X0073546Y0148847D01*
X0073546Y0148063D02*
X0071997Y0148063D01*
X0071997Y0146465D02*
X0073546Y0146465D01*
X0073546Y0144866D02*
X0071997Y0144866D01*
X0066049Y0144866D02*
X0063624Y0144866D01*
X0063624Y0143268D02*
X0079239Y0143268D01*
X0079282Y0141669D02*
X0063624Y0141669D01*
X0063624Y0140070D02*
X0067734Y0140070D01*
X0066520Y0138472D02*
X0063624Y0138472D01*
X0063624Y0136873D02*
X0065909Y0136873D01*
X0065232Y0135275D02*
X0063624Y0135275D01*
X0063624Y0133676D02*
X0063634Y0133676D01*
X0070921Y0131630D02*
X0074583Y0131630D01*
X0074858Y0131906D01*
X0070921Y0131630D02*
X0060843Y0121551D01*
X0060843Y0057496D01*
X0045449Y0042102D01*
X0045449Y0037811D01*
X0055449Y0037811D02*
X0055449Y0046787D01*
X0064819Y0056157D01*
X0064819Y0090291D01*
X0069425Y0094898D01*
X0074504Y0094898D01*
X0075016Y0095409D01*
X0079319Y0085672D02*
X0080528Y0086173D01*
X0081736Y0085672D01*
X0081929Y0085672D01*
X0080904Y0085248D01*
X0079272Y0083616D01*
X0078657Y0082131D01*
X0073546Y0082131D01*
X0073546Y0077956D01*
X0071997Y0077956D01*
X0071997Y0082131D01*
X0071419Y0082131D01*
X0071419Y0085672D01*
X0079319Y0085672D01*
X0079437Y0085721D02*
X0081619Y0085721D01*
X0079778Y0084123D02*
X0071419Y0084123D01*
X0071419Y0082524D02*
X0078820Y0082524D01*
X0073546Y0080926D02*
X0071997Y0080926D01*
X0071997Y0079327D02*
X0073546Y0079327D01*
X0073546Y0076406D02*
X0071997Y0076406D01*
X0071997Y0072231D01*
X0071419Y0072231D01*
X0071419Y0068375D01*
X0078532Y0068375D01*
X0078652Y0068325D01*
X0078652Y0072231D01*
X0073546Y0072231D01*
X0073546Y0076406D01*
X0073546Y0076130D02*
X0071997Y0076130D01*
X0071997Y0074532D02*
X0073546Y0074532D01*
X0073546Y0072933D02*
X0071997Y0072933D01*
X0071419Y0071334D02*
X0078652Y0071334D01*
X0078652Y0069736D02*
X0071419Y0069736D01*
X0074228Y0058638D02*
X0065449Y0049858D01*
X0065449Y0037811D01*
X0075449Y0037811D02*
X0075724Y0038087D01*
X0075724Y0042850D01*
X0078244Y0045370D01*
X0086984Y0045370D01*
X0103520Y0061906D01*
X0103520Y0118126D01*
X0116640Y0131246D01*
X0150331Y0131246D01*
X0153480Y0131246D02*
X0153480Y0137575D01*
X0153402Y0137654D01*
X0159780Y0136945D02*
X0159858Y0137024D01*
X0159780Y0136945D02*
X0159780Y0131246D01*
X0162890Y0131286D02*
X0162929Y0131246D01*
X0162929Y0135449D01*
X0162890Y0131286D02*
X0162890Y0139661D01*
X0161039Y0141512D01*
X0118520Y0141512D01*
X0100331Y0123323D01*
X0100331Y0082929D01*
X0094583Y0077181D01*
X0090094Y0077181D01*
X0085252Y0072339D01*
X0085252Y0058638D01*
X0085449Y0037811D02*
X0107063Y0059425D01*
X0107063Y0117024D01*
X0115409Y0125370D01*
X0144454Y0125370D01*
X0144454Y0122220D02*
X0116984Y0122220D01*
X0113165Y0118402D01*
X0113165Y0118362D01*
X0111866Y0117063D01*
X0111827Y0117063D01*
X0110803Y0116039D01*
X0110803Y0053165D01*
X0095449Y0037811D01*
X0106745Y0029773D02*
X0208845Y0029773D01*
X0210443Y0028175D02*
X0105146Y0028175D01*
X0104249Y0026576D02*
X0285706Y0026576D01*
X0285001Y0025355D02*
X0286594Y0028114D01*
X0288846Y0030367D01*
X0291605Y0031960D01*
X0294683Y0032784D01*
X0297868Y0032784D01*
X0300946Y0031960D01*
X0303705Y0030367D01*
X0305957Y0028114D01*
X0307550Y0025355D01*
X0308375Y0022278D01*
X0308375Y0019092D01*
X0307550Y0016015D01*
X0305957Y0013256D01*
X0303705Y0011003D01*
X0300946Y0009410D01*
X0297868Y0008586D01*
X0294683Y0008586D01*
X0291605Y0009410D01*
X0288846Y0011003D01*
X0286594Y0013256D01*
X0285001Y0016015D01*
X0284176Y0019092D01*
X0284176Y0022278D01*
X0285001Y0025355D01*
X0284900Y0024978D02*
X0104249Y0024978D01*
X0103462Y0023379D02*
X0284471Y0023379D01*
X0284176Y0021781D02*
X0101864Y0021781D01*
X0100265Y0020182D02*
X0284176Y0020182D01*
X0284313Y0018584D02*
X0046815Y0018584D01*
X0045217Y0016985D02*
X0284741Y0016985D01*
X0285364Y0015387D02*
X0042367Y0015387D01*
X0050265Y0020182D02*
X0050633Y0020182D01*
X0045449Y0026551D02*
X0040764Y0021866D01*
X0033283Y0021866D01*
X0013992Y0041157D01*
X0013992Y0117299D01*
X0028087Y0131394D01*
X0033559Y0136906D02*
X0026039Y0144425D01*
X0026039Y0149346D01*
X0025264Y0149662D02*
X0007141Y0149662D01*
X0007144Y0151260D02*
X0018334Y0151260D01*
X0018368Y0152859D02*
X0007148Y0152859D01*
X0007152Y0154457D02*
X0031991Y0154457D01*
X0032814Y0156056D02*
X0007155Y0156056D01*
X0007159Y0157654D02*
X0034753Y0157654D01*
X0026814Y0152859D02*
X0025265Y0152859D01*
X0025265Y0151260D02*
X0026814Y0151260D01*
X0026814Y0148063D02*
X0025265Y0148063D01*
X0025265Y0146465D02*
X0026814Y0146465D01*
X0026814Y0144866D02*
X0025265Y0144866D01*
X0021474Y0140070D02*
X0007119Y0140070D01*
X0007115Y0138472D02*
X0019960Y0138472D01*
X0019298Y0136873D02*
X0007111Y0136873D01*
X0007108Y0135275D02*
X0019137Y0135275D01*
X0019137Y0133676D02*
X0007104Y0133676D01*
X0007100Y0132078D02*
X0019137Y0132078D01*
X0017839Y0130479D02*
X0007097Y0130479D01*
X0007093Y0128881D02*
X0016240Y0128881D01*
X0014641Y0127282D02*
X0007089Y0127282D01*
X0007086Y0125684D02*
X0013043Y0125684D01*
X0011444Y0124085D02*
X0007082Y0124085D01*
X0007078Y0122487D02*
X0009846Y0122487D01*
X0008335Y0120888D02*
X0007075Y0120888D01*
X0007071Y0119290D02*
X0007673Y0119290D01*
X0007392Y0117691D02*
X0007067Y0117691D01*
X0007064Y0116093D02*
X0007392Y0116093D01*
X0007392Y0114494D02*
X0007060Y0114494D01*
X0007056Y0112896D02*
X0007392Y0112896D01*
X0007392Y0111297D02*
X0007053Y0111297D01*
X0007049Y0109699D02*
X0007392Y0109699D01*
X0007392Y0108100D02*
X0007045Y0108100D01*
X0007042Y0106502D02*
X0007392Y0106502D01*
X0007392Y0104903D02*
X0007038Y0104903D01*
X0007034Y0103305D02*
X0007392Y0103305D01*
X0007392Y0101706D02*
X0007031Y0101706D01*
X0007027Y0100108D02*
X0007392Y0100108D01*
X0007392Y0098509D02*
X0007023Y0098509D01*
X0007020Y0096911D02*
X0007392Y0096911D01*
X0007392Y0095312D02*
X0007016Y0095312D01*
X0007012Y0093714D02*
X0007392Y0093714D01*
X0007392Y0092115D02*
X0007009Y0092115D01*
X0007005Y0090517D02*
X0007392Y0090517D01*
X0007392Y0088918D02*
X0007001Y0088918D01*
X0006998Y0087320D02*
X0007392Y0087320D01*
X0007392Y0085721D02*
X0006994Y0085721D01*
X0006990Y0084123D02*
X0007392Y0084123D01*
X0007392Y0082524D02*
X0006987Y0082524D01*
X0006983Y0080926D02*
X0007392Y0080926D01*
X0007392Y0079327D02*
X0006979Y0079327D01*
X0006976Y0077729D02*
X0007392Y0077729D01*
X0007392Y0076130D02*
X0006972Y0076130D01*
X0006968Y0074532D02*
X0007392Y0074532D01*
X0007392Y0072933D02*
X0006965Y0072933D01*
X0006961Y0071334D02*
X0007392Y0071334D01*
X0007392Y0069736D02*
X0006958Y0069736D01*
X0006954Y0068137D02*
X0007392Y0068137D01*
X0007392Y0066539D02*
X0006950Y0066539D01*
X0006947Y0064940D02*
X0007392Y0064940D01*
X0007392Y0063342D02*
X0006943Y0063342D01*
X0006939Y0061743D02*
X0007392Y0061743D01*
X0007392Y0060145D02*
X0006936Y0060145D01*
X0006932Y0058546D02*
X0007392Y0058546D01*
X0007392Y0056948D02*
X0006928Y0056948D01*
X0006925Y0055349D02*
X0007392Y0055349D01*
X0007392Y0053751D02*
X0006921Y0053751D01*
X0006917Y0052152D02*
X0007392Y0052152D01*
X0007392Y0050554D02*
X0006914Y0050554D01*
X0006910Y0048955D02*
X0007392Y0048955D01*
X0007392Y0047357D02*
X0006906Y0047357D01*
X0006903Y0045758D02*
X0007392Y0045758D01*
X0007392Y0044160D02*
X0006899Y0044160D01*
X0006895Y0042561D02*
X0007392Y0042561D01*
X0007392Y0040963D02*
X0006892Y0040963D01*
X0006888Y0039364D02*
X0007591Y0039364D01*
X0008253Y0037766D02*
X0006884Y0037766D01*
X0006881Y0036167D02*
X0009649Y0036167D01*
X0011247Y0034569D02*
X0006877Y0034569D01*
X0006873Y0032970D02*
X0012846Y0032970D01*
X0014444Y0031372D02*
X0006870Y0031372D01*
X0006866Y0029773D02*
X0012662Y0029773D01*
X0011064Y0028175D02*
X0006862Y0028175D01*
X0006859Y0026576D02*
X0010115Y0026576D01*
X0009309Y0024978D02*
X0006855Y0024978D01*
X0006851Y0023379D02*
X0008881Y0023379D01*
X0008586Y0021781D02*
X0006848Y0021781D01*
X0006844Y0020182D02*
X0008586Y0020182D01*
X0008722Y0018584D02*
X0006840Y0018584D01*
X0006837Y0016985D02*
X0009150Y0016985D01*
X0009773Y0015387D02*
X0006833Y0015387D01*
X0006829Y0013788D02*
X0010696Y0013788D01*
X0012070Y0012190D02*
X0006826Y0012190D01*
X0006822Y0010591D02*
X0013970Y0010591D01*
X0017574Y0008993D02*
X0006818Y0008993D01*
X0006815Y0007394D02*
X0309860Y0007394D01*
X0309864Y0008993D02*
X0299386Y0008993D01*
X0302991Y0010591D02*
X0309868Y0010591D01*
X0309871Y0012190D02*
X0304891Y0012190D01*
X0306265Y0013788D02*
X0309875Y0013788D01*
X0309879Y0015387D02*
X0307187Y0015387D01*
X0307810Y0016985D02*
X0309882Y0016985D01*
X0309886Y0018584D02*
X0308239Y0018584D01*
X0308375Y0020182D02*
X0309890Y0020182D01*
X0309893Y0021781D02*
X0308375Y0021781D01*
X0308080Y0023379D02*
X0309897Y0023379D01*
X0309901Y0024978D02*
X0307651Y0024978D01*
X0306845Y0026576D02*
X0309904Y0026576D01*
X0309908Y0028175D02*
X0305897Y0028175D01*
X0304298Y0029773D02*
X0309912Y0029773D01*
X0309915Y0031372D02*
X0301964Y0031372D01*
X0309919Y0032970D02*
X0243019Y0032970D01*
X0243585Y0034569D02*
X0309923Y0034569D01*
X0309926Y0036167D02*
X0243561Y0036167D01*
X0242924Y0037766D02*
X0309930Y0037766D01*
X0309934Y0039364D02*
X0241147Y0039364D01*
X0239157Y0039364D02*
X0238985Y0039364D01*
X0237648Y0040963D02*
X0309937Y0040963D01*
X0309941Y0042561D02*
X0236044Y0042561D01*
X0241604Y0052152D02*
X0257482Y0052152D01*
X0255669Y0053751D02*
X0243203Y0053751D01*
X0244801Y0055349D02*
X0254965Y0055349D01*
X0254875Y0056948D02*
X0246400Y0056948D01*
X0247998Y0058546D02*
X0255343Y0058546D01*
X0253497Y0060145D02*
X0249597Y0060145D01*
X0251195Y0061743D02*
X0252071Y0061743D01*
X0262454Y0055349D02*
X0262854Y0055349D01*
X0262854Y0053751D02*
X0262454Y0053751D01*
X0262454Y0052152D02*
X0262854Y0052152D01*
X0241448Y0031372D02*
X0290587Y0031372D01*
X0288253Y0029773D02*
X0237801Y0029773D01*
X0238985Y0031372D02*
X0239157Y0031372D01*
X0236202Y0028175D02*
X0286654Y0028175D01*
X0286287Y0013788D02*
X0030674Y0013788D01*
X0031597Y0015387D02*
X0031680Y0015387D01*
X0029300Y0012190D02*
X0287660Y0012190D01*
X0289560Y0010591D02*
X0027400Y0010591D01*
X0023796Y0008993D02*
X0293165Y0008993D01*
X0194622Y0111906D02*
X0195921Y0113205D01*
X0195921Y0115921D01*
X0178254Y0125370D02*
X0176906Y0126719D01*
X0176906Y0142772D01*
X0160646Y0159031D01*
X0062772Y0159031D01*
X0053441Y0149701D01*
X0053441Y0122063D01*
X0044110Y0112732D01*
X0043362Y0112732D01*
X0039583Y0108953D01*
X0039583Y0095173D01*
X0035279Y0085436D02*
X0034071Y0085937D01*
X0032862Y0085436D01*
X0024256Y0085436D01*
X0024254Y0085437D01*
X0024254Y0081461D01*
X0025265Y0081461D01*
X0025265Y0077287D01*
X0026814Y0077287D01*
X0026814Y0081461D01*
X0031924Y0081461D01*
X0032540Y0082947D01*
X0034171Y0084578D01*
X0036242Y0085436D01*
X0035279Y0085436D01*
X0034592Y0085721D02*
X0033550Y0085721D01*
X0033715Y0084123D02*
X0024254Y0084123D01*
X0024254Y0082524D02*
X0032365Y0082524D01*
X0026814Y0080926D02*
X0025265Y0080926D01*
X0025265Y0079327D02*
X0026814Y0079327D01*
X0026814Y0077729D02*
X0025265Y0077729D01*
X0025265Y0075737D02*
X0026814Y0075737D01*
X0026814Y0071562D01*
X0031924Y0071562D01*
X0032540Y0070077D01*
X0032943Y0069673D01*
X0032943Y0067734D01*
X0032823Y0067784D01*
X0024254Y0067784D01*
X0024254Y0071562D01*
X0025265Y0071562D01*
X0025265Y0075737D01*
X0025265Y0074532D02*
X0026814Y0074532D01*
X0026814Y0072933D02*
X0025265Y0072933D01*
X0024254Y0071334D02*
X0032019Y0071334D01*
X0032880Y0069736D02*
X0024254Y0069736D01*
X0024254Y0068137D02*
X0032943Y0068137D01*
X0039543Y0072693D02*
X0043362Y0076512D01*
X0046472Y0076512D01*
X0057024Y0087063D01*
X0057024Y0148205D01*
X0064701Y0155882D01*
X0158992Y0155882D01*
X0172220Y0142654D01*
X0172220Y0131404D01*
X0172378Y0131246D01*
X0169228Y0131246D02*
X0169228Y0141591D01*
X0161197Y0149622D01*
X0090094Y0149622D01*
X0085882Y0145409D01*
X0085882Y0131906D01*
X0082594Y0122169D02*
X0081579Y0122169D01*
X0080370Y0122669D01*
X0079162Y0122169D01*
X0070794Y0122169D01*
X0067443Y0118817D01*
X0067443Y0118351D01*
X0071997Y0118351D01*
X0071997Y0114176D01*
X0073546Y0114176D01*
X0073546Y0118351D01*
X0078657Y0118351D01*
X0079272Y0119837D01*
X0080904Y0121468D01*
X0082594Y0122169D01*
X0080810Y0122487D02*
X0079930Y0122487D01*
X0080324Y0120888D02*
X0069513Y0120888D01*
X0067915Y0119290D02*
X0079045Y0119290D01*
X0073546Y0117691D02*
X0071997Y0117691D01*
X0071997Y0116093D02*
X0073546Y0116093D01*
X0073546Y0114494D02*
X0071997Y0114494D01*
X0071997Y0112627D02*
X0073546Y0112627D01*
X0073546Y0108452D01*
X0078657Y0108452D01*
X0079272Y0106967D01*
X0079439Y0106799D01*
X0079439Y0105097D01*
X0079319Y0105146D01*
X0070712Y0105146D01*
X0068581Y0104263D01*
X0067443Y0103125D01*
X0067443Y0108452D01*
X0071997Y0108452D01*
X0071997Y0112627D01*
X0071997Y0111297D02*
X0073546Y0111297D01*
X0073546Y0109699D02*
X0071997Y0109699D01*
X0067443Y0108100D02*
X0078802Y0108100D01*
X0079439Y0106502D02*
X0067443Y0106502D01*
X0067443Y0104903D02*
X0070125Y0104903D01*
X0067622Y0103305D02*
X0067443Y0103305D01*
X0086039Y0109346D02*
X0086039Y0095409D01*
X0086039Y0109346D02*
X0090094Y0113402D01*
X0090094Y0117614D01*
X0116945Y0144465D01*
X0162535Y0144465D01*
X0166079Y0140921D01*
X0166079Y0131246D01*
X0140252Y0119071D02*
X0123362Y0119071D01*
X0120606Y0116315D01*
X0120606Y0113283D01*
X0120567Y0113244D01*
X0115921Y0108598D01*
X0127575Y0103362D02*
X0127575Y0078244D01*
X0123756Y0074425D01*
X0118520Y0074425D01*
X0115921Y0077024D01*
X0140685Y0082339D02*
X0140724Y0082299D01*
X0140685Y0082339D02*
X0140685Y0092850D01*
X0144454Y0096620D01*
X0144454Y0103323D01*
X0132339Y0103323D01*
X0132299Y0103362D01*
X0150331Y0097446D02*
X0150331Y0082693D01*
X0095449Y0027811D01*
X0090633Y0020182D02*
X0090265Y0020182D01*
X0080633Y0020182D02*
X0070265Y0020182D01*
X0071863Y0021781D02*
X0079034Y0021781D01*
X0075649Y0023379D02*
X0075249Y0023379D01*
X0075249Y0024978D02*
X0075649Y0024978D01*
X0075649Y0026576D02*
X0075249Y0026576D01*
X0075449Y0027811D02*
X0075449Y0030094D01*
X0060633Y0020182D02*
X0060265Y0020182D01*
X0045449Y0026551D02*
X0045449Y0027811D01*
X0035449Y0027811D02*
X0033362Y0027811D01*
X0017654Y0043520D01*
X0017654Y0089583D01*
X0023323Y0095252D01*
X0028480Y0095252D01*
X0028559Y0095173D01*
X0020592Y0102495D02*
X0020592Y0107783D01*
X0025265Y0107783D01*
X0025265Y0111957D01*
X0026814Y0111957D01*
X0026814Y0107783D01*
X0031924Y0107783D01*
X0032540Y0106297D01*
X0032983Y0105854D01*
X0032983Y0104860D01*
X0032862Y0104910D01*
X0024256Y0104910D01*
X0022124Y0104027D01*
X0020592Y0102495D01*
X0020592Y0103305D02*
X0021402Y0103305D01*
X0020592Y0104903D02*
X0024239Y0104903D01*
X0025265Y0108100D02*
X0026814Y0108100D01*
X0026814Y0109699D02*
X0025265Y0109699D01*
X0025265Y0111297D02*
X0026814Y0111297D01*
X0026814Y0113507D02*
X0025265Y0113507D01*
X0025265Y0117682D01*
X0023709Y0117682D01*
X0027683Y0121657D01*
X0032390Y0121657D01*
X0033598Y0122157D01*
X0034807Y0121657D01*
X0036242Y0121657D01*
X0034171Y0120799D01*
X0032540Y0119167D01*
X0031924Y0117682D01*
X0026814Y0117682D01*
X0026814Y0113507D01*
X0026814Y0114494D02*
X0025265Y0114494D01*
X0025265Y0116093D02*
X0026814Y0116093D01*
X0023718Y0117691D02*
X0031928Y0117691D01*
X0032662Y0119290D02*
X0025317Y0119290D01*
X0026915Y0120888D02*
X0034387Y0120888D01*
X0032455Y0106502D02*
X0020592Y0106502D01*
X0032879Y0104903D02*
X0032983Y0104903D01*
X0039543Y0072693D02*
X0039543Y0058047D01*
X0028638Y0057929D02*
X0028520Y0058047D01*
X0028638Y0057929D02*
X0028638Y0046394D01*
X0035449Y0039583D01*
X0035449Y0037811D01*
X0108343Y0031372D02*
X0117843Y0031372D01*
X0116245Y0032970D02*
X0109942Y0032970D01*
X0111540Y0034569D02*
X0114646Y0034569D01*
X0114096Y0036167D02*
X0113139Y0036167D01*
X0032510Y0141669D02*
X0007122Y0141669D01*
X0007126Y0143268D02*
X0032392Y0143268D01*
X0018919Y0144866D02*
X0007130Y0144866D01*
X0007133Y0146465D02*
X0018334Y0146465D01*
X0018334Y0148063D02*
X0007137Y0148063D01*
X0007163Y0159253D02*
X0048541Y0159253D01*
X0050139Y0160851D02*
X0007166Y0160851D01*
X0007170Y0162450D02*
X0051738Y0162450D01*
X0053336Y0164048D02*
X0007174Y0164048D01*
X0007177Y0165647D02*
X0054935Y0165647D01*
X0056533Y0167245D02*
X0007181Y0167245D01*
X0007185Y0168844D02*
X0089883Y0168844D01*
X0089221Y0170442D02*
X0007188Y0170442D01*
X0007192Y0172041D02*
X0088939Y0172041D01*
X0088939Y0173639D02*
X0007196Y0173639D01*
X0007199Y0175238D02*
X0089046Y0175238D01*
X0089708Y0176836D02*
X0007203Y0176836D01*
X0007207Y0178435D02*
X0090370Y0178435D01*
X0091904Y0180033D02*
X0007210Y0180033D01*
X0007214Y0181632D02*
X0094007Y0181632D01*
X0111071Y0181632D02*
X0142007Y0181632D01*
X0139904Y0180033D02*
X0113175Y0180033D01*
X0114709Y0178435D02*
X0138370Y0178435D01*
X0137708Y0176836D02*
X0115371Y0176836D01*
X0116033Y0175238D02*
X0137046Y0175238D01*
X0136939Y0173639D02*
X0116139Y0173639D01*
X0116139Y0172041D02*
X0136939Y0172041D01*
X0137221Y0170442D02*
X0115858Y0170442D01*
X0115196Y0168844D02*
X0137883Y0168844D01*
X0099084Y0207208D02*
X0054156Y0207208D01*
X0055755Y0208806D02*
X0095416Y0208806D01*
X0093377Y0210405D02*
X0056738Y0210405D01*
X0057438Y0212003D02*
X0091828Y0212003D01*
X0090905Y0213602D02*
X0057866Y0213602D01*
X0057942Y0215201D02*
X0090070Y0215201D01*
X0089487Y0216799D02*
X0057882Y0216799D01*
X0057454Y0218398D02*
X0088939Y0218398D01*
X0088939Y0219996D02*
X0056773Y0219996D01*
X0055815Y0221595D02*
X0088939Y0221595D01*
X0089442Y0223193D02*
X0054216Y0223193D01*
X0051553Y0224792D02*
X0090040Y0224792D01*
X0090842Y0226390D02*
X0026125Y0226390D01*
X0028564Y0227989D02*
X0091765Y0227989D01*
X0093266Y0229587D02*
X0030163Y0229587D01*
X0031172Y0231186D02*
X0095225Y0231186D01*
X0098672Y0232784D02*
X0032022Y0232784D01*
X0032451Y0234383D02*
X0110770Y0234383D01*
X0112369Y0235981D02*
X0032784Y0235981D01*
X0032784Y0237580D02*
X0113967Y0237580D01*
X0115566Y0239178D02*
X0032686Y0239178D01*
X0032258Y0240777D02*
X0117165Y0240777D01*
X0118763Y0242375D02*
X0031680Y0242375D01*
X0030757Y0243974D02*
X0120362Y0243974D01*
X0121960Y0245572D02*
X0029444Y0245572D01*
X0027649Y0247171D02*
X0123559Y0247171D01*
X0125965Y0248769D02*
X0024332Y0248769D01*
X0064617Y0146465D02*
X0065066Y0146465D01*
X0160110Y0212003D02*
X0171502Y0212003D01*
X0170840Y0213602D02*
X0161708Y0213602D01*
X0162929Y0215201D02*
X0170483Y0215201D01*
X0170483Y0216799D02*
X0163591Y0216799D01*
X0164139Y0218398D02*
X0170612Y0218398D01*
X0171274Y0219996D02*
X0164139Y0219996D01*
X0164139Y0221595D02*
X0172032Y0221595D01*
X0173631Y0223193D02*
X0163637Y0223193D01*
X0179583Y0216276D02*
X0188598Y0207260D01*
X0188598Y0198638D01*
X0188598Y0197260D01*
X0194504Y0198638D02*
X0211630Y0198638D01*
X0228953Y0181315D01*
X0225182Y0194420D02*
X0310289Y0194420D01*
X0310293Y0196018D02*
X0223583Y0196018D01*
X0221985Y0197617D02*
X0310296Y0197617D01*
X0310300Y0199215D02*
X0220386Y0199215D01*
X0218788Y0200814D02*
X0224865Y0200814D01*
X0222364Y0202412D02*
X0217189Y0202412D01*
X0217430Y0204011D02*
X0220791Y0204011D01*
X0219868Y0205609D02*
X0218967Y0205609D01*
X0233155Y0200814D02*
X0248155Y0200814D01*
X0246028Y0202412D02*
X0235657Y0202412D01*
X0237230Y0204011D02*
X0244671Y0204011D01*
X0243749Y0205609D02*
X0238153Y0205609D01*
X0238790Y0207208D02*
X0243270Y0207208D01*
X0242957Y0208806D02*
X0239218Y0208806D01*
X0239239Y0210405D02*
X0242957Y0210405D01*
X0242957Y0212003D02*
X0239239Y0212003D01*
X0239239Y0213602D02*
X0242957Y0213602D01*
X0242957Y0215201D02*
X0239239Y0215201D01*
X0239239Y0216799D02*
X0242957Y0216799D01*
X0242957Y0218398D02*
X0239239Y0218398D01*
X0239239Y0219996D02*
X0242976Y0219996D01*
X0243405Y0221595D02*
X0238929Y0221595D01*
X0262625Y0205609D02*
X0262718Y0205609D01*
X0261702Y0204011D02*
X0264316Y0204011D01*
X0265828Y0202412D02*
X0260345Y0202412D01*
X0258218Y0200814D02*
X0267955Y0200814D01*
X0278018Y0200814D02*
X0310304Y0200814D01*
X0310307Y0202412D02*
X0280145Y0202412D01*
X0281657Y0204011D02*
X0310311Y0204011D01*
X0310315Y0205609D02*
X0283255Y0205609D01*
X0284336Y0207208D02*
X0310318Y0207208D01*
X0310322Y0208806D02*
X0285259Y0208806D01*
X0285752Y0210405D02*
X0310326Y0210405D01*
X0310329Y0212003D02*
X0286181Y0212003D01*
X0286287Y0213602D02*
X0310333Y0213602D01*
X0310337Y0215201D02*
X0286287Y0215201D01*
X0286072Y0216799D02*
X0310340Y0216799D01*
X0310344Y0218398D02*
X0286072Y0218398D01*
X0286072Y0219996D02*
X0310347Y0219996D01*
X0310351Y0221595D02*
X0286072Y0221595D01*
X0286072Y0223193D02*
X0310355Y0223193D01*
X0310358Y0224792D02*
X0286072Y0224792D01*
X0286072Y0226390D02*
X0290836Y0226390D01*
X0288397Y0227989D02*
X0286072Y0227989D01*
X0286072Y0229587D02*
X0286798Y0229587D01*
X0284176Y0235981D02*
X0283958Y0235981D01*
X0284176Y0237580D02*
X0282757Y0237580D01*
X0284274Y0239178D02*
X0281158Y0239178D01*
X0279560Y0240777D02*
X0284702Y0240777D01*
X0285281Y0242375D02*
X0277961Y0242375D01*
X0276363Y0243974D02*
X0286204Y0243974D01*
X0287516Y0245572D02*
X0274764Y0245572D01*
X0272088Y0247171D02*
X0289312Y0247171D01*
X0292629Y0248769D02*
X0202080Y0248769D01*
X0204486Y0247171D02*
X0209676Y0247171D01*
X0206999Y0245572D02*
X0206085Y0245572D01*
X0299923Y0248769D02*
X0310413Y0248769D01*
X0310410Y0247171D02*
X0303240Y0247171D01*
X0305035Y0245572D02*
X0310406Y0245572D01*
X0310402Y0243974D02*
X0306348Y0243974D01*
X0307270Y0242375D02*
X0310399Y0242375D01*
X0310395Y0240777D02*
X0307849Y0240777D01*
X0308277Y0239178D02*
X0310391Y0239178D01*
X0310388Y0237580D02*
X0308375Y0237580D01*
X0308375Y0235981D02*
X0310384Y0235981D01*
X0310380Y0234383D02*
X0308041Y0234383D01*
X0307613Y0232784D02*
X0310377Y0232784D01*
X0310373Y0231186D02*
X0306762Y0231186D01*
X0305753Y0229587D02*
X0310369Y0229587D01*
X0310366Y0227989D02*
X0304155Y0227989D01*
X0301715Y0226390D02*
X0310362Y0226390D01*
X0262654Y0116433D02*
X0248087Y0116433D01*
D27*
X0195803Y0100882D03*
X0184465Y0094701D03*
X0159858Y0137024D03*
X0153402Y0137654D03*
D28*
X0166748Y0166669D02*
X0194268Y0139150D01*
X0194346Y0139071D01*
X0208835Y0139071D01*
X0229937Y0117969D01*
X0229937Y0106354D01*
X0229937Y0078913D01*
X0225055Y0074031D01*
X0215055Y0074031D01*
X0210134Y0078953D01*
X0210134Y0085764D01*
X0132496Y0038598D02*
X0132496Y0028205D01*
X0122575Y0018283D01*
X0081000Y0018283D01*
X0075646Y0023638D01*
X0075646Y0027614D01*
X0075449Y0027811D01*
X0166748Y0166669D02*
X0166748Y0178717D01*
X0179583Y0191551D01*
X0179583Y0216276D01*
D29*
X0195824Y0237024D02*
X0209210Y0223638D01*
X0209210Y0228974D01*
X0215291Y0235055D01*
X0266472Y0235055D01*
X0272772Y0228756D01*
X0272772Y0214365D01*
X0272987Y0214150D01*
X0209210Y0214661D02*
X0209210Y0223638D01*
X0195824Y0237024D02*
X0132220Y0237024D01*
X0115248Y0220051D01*
X0102539Y0220051D01*
M02*
