G75*
%MOIN*%
%OFA0B0*%
%FSLAX25Y25*%
%IPPOS*%
%LPD*%
%AMOC8*
5,1,8,0,0,1.08239X$1,22.5*
%
%ADD10C,0.00000*%
D10*
X0001000Y0001000D02*
X0001591Y0258717D01*
X0316236Y0258717D01*
X0315646Y0001000D01*
X0001000Y0001000D01*
X0014386Y0020685D02*
X0014388Y0020843D01*
X0014394Y0021001D01*
X0014404Y0021159D01*
X0014418Y0021317D01*
X0014436Y0021474D01*
X0014457Y0021631D01*
X0014483Y0021787D01*
X0014513Y0021943D01*
X0014546Y0022098D01*
X0014584Y0022251D01*
X0014625Y0022404D01*
X0014670Y0022556D01*
X0014719Y0022707D01*
X0014772Y0022856D01*
X0014828Y0023004D01*
X0014888Y0023150D01*
X0014952Y0023295D01*
X0015020Y0023438D01*
X0015091Y0023580D01*
X0015165Y0023720D01*
X0015243Y0023857D01*
X0015325Y0023993D01*
X0015409Y0024127D01*
X0015498Y0024258D01*
X0015589Y0024387D01*
X0015684Y0024514D01*
X0015781Y0024639D01*
X0015882Y0024761D01*
X0015986Y0024880D01*
X0016093Y0024997D01*
X0016203Y0025111D01*
X0016316Y0025222D01*
X0016431Y0025331D01*
X0016549Y0025436D01*
X0016670Y0025538D01*
X0016793Y0025638D01*
X0016919Y0025734D01*
X0017047Y0025827D01*
X0017177Y0025917D01*
X0017310Y0026003D01*
X0017445Y0026087D01*
X0017581Y0026166D01*
X0017720Y0026243D01*
X0017861Y0026315D01*
X0018003Y0026385D01*
X0018147Y0026450D01*
X0018293Y0026512D01*
X0018440Y0026570D01*
X0018589Y0026625D01*
X0018739Y0026676D01*
X0018890Y0026723D01*
X0019042Y0026766D01*
X0019195Y0026805D01*
X0019350Y0026841D01*
X0019505Y0026872D01*
X0019661Y0026900D01*
X0019817Y0026924D01*
X0019974Y0026944D01*
X0020132Y0026960D01*
X0020289Y0026972D01*
X0020448Y0026980D01*
X0020606Y0026984D01*
X0020764Y0026984D01*
X0020922Y0026980D01*
X0021081Y0026972D01*
X0021238Y0026960D01*
X0021396Y0026944D01*
X0021553Y0026924D01*
X0021709Y0026900D01*
X0021865Y0026872D01*
X0022020Y0026841D01*
X0022175Y0026805D01*
X0022328Y0026766D01*
X0022480Y0026723D01*
X0022631Y0026676D01*
X0022781Y0026625D01*
X0022930Y0026570D01*
X0023077Y0026512D01*
X0023223Y0026450D01*
X0023367Y0026385D01*
X0023509Y0026315D01*
X0023650Y0026243D01*
X0023789Y0026166D01*
X0023925Y0026087D01*
X0024060Y0026003D01*
X0024193Y0025917D01*
X0024323Y0025827D01*
X0024451Y0025734D01*
X0024577Y0025638D01*
X0024700Y0025538D01*
X0024821Y0025436D01*
X0024939Y0025331D01*
X0025054Y0025222D01*
X0025167Y0025111D01*
X0025277Y0024997D01*
X0025384Y0024880D01*
X0025488Y0024761D01*
X0025589Y0024639D01*
X0025686Y0024514D01*
X0025781Y0024387D01*
X0025872Y0024258D01*
X0025961Y0024127D01*
X0026045Y0023993D01*
X0026127Y0023857D01*
X0026205Y0023720D01*
X0026279Y0023580D01*
X0026350Y0023438D01*
X0026418Y0023295D01*
X0026482Y0023150D01*
X0026542Y0023004D01*
X0026598Y0022856D01*
X0026651Y0022707D01*
X0026700Y0022556D01*
X0026745Y0022404D01*
X0026786Y0022251D01*
X0026824Y0022098D01*
X0026857Y0021943D01*
X0026887Y0021787D01*
X0026913Y0021631D01*
X0026934Y0021474D01*
X0026952Y0021317D01*
X0026966Y0021159D01*
X0026976Y0021001D01*
X0026982Y0020843D01*
X0026984Y0020685D01*
X0026982Y0020527D01*
X0026976Y0020369D01*
X0026966Y0020211D01*
X0026952Y0020053D01*
X0026934Y0019896D01*
X0026913Y0019739D01*
X0026887Y0019583D01*
X0026857Y0019427D01*
X0026824Y0019272D01*
X0026786Y0019119D01*
X0026745Y0018966D01*
X0026700Y0018814D01*
X0026651Y0018663D01*
X0026598Y0018514D01*
X0026542Y0018366D01*
X0026482Y0018220D01*
X0026418Y0018075D01*
X0026350Y0017932D01*
X0026279Y0017790D01*
X0026205Y0017650D01*
X0026127Y0017513D01*
X0026045Y0017377D01*
X0025961Y0017243D01*
X0025872Y0017112D01*
X0025781Y0016983D01*
X0025686Y0016856D01*
X0025589Y0016731D01*
X0025488Y0016609D01*
X0025384Y0016490D01*
X0025277Y0016373D01*
X0025167Y0016259D01*
X0025054Y0016148D01*
X0024939Y0016039D01*
X0024821Y0015934D01*
X0024700Y0015832D01*
X0024577Y0015732D01*
X0024451Y0015636D01*
X0024323Y0015543D01*
X0024193Y0015453D01*
X0024060Y0015367D01*
X0023925Y0015283D01*
X0023789Y0015204D01*
X0023650Y0015127D01*
X0023509Y0015055D01*
X0023367Y0014985D01*
X0023223Y0014920D01*
X0023077Y0014858D01*
X0022930Y0014800D01*
X0022781Y0014745D01*
X0022631Y0014694D01*
X0022480Y0014647D01*
X0022328Y0014604D01*
X0022175Y0014565D01*
X0022020Y0014529D01*
X0021865Y0014498D01*
X0021709Y0014470D01*
X0021553Y0014446D01*
X0021396Y0014426D01*
X0021238Y0014410D01*
X0021081Y0014398D01*
X0020922Y0014390D01*
X0020764Y0014386D01*
X0020606Y0014386D01*
X0020448Y0014390D01*
X0020289Y0014398D01*
X0020132Y0014410D01*
X0019974Y0014426D01*
X0019817Y0014446D01*
X0019661Y0014470D01*
X0019505Y0014498D01*
X0019350Y0014529D01*
X0019195Y0014565D01*
X0019042Y0014604D01*
X0018890Y0014647D01*
X0018739Y0014694D01*
X0018589Y0014745D01*
X0018440Y0014800D01*
X0018293Y0014858D01*
X0018147Y0014920D01*
X0018003Y0014985D01*
X0017861Y0015055D01*
X0017720Y0015127D01*
X0017581Y0015204D01*
X0017445Y0015283D01*
X0017310Y0015367D01*
X0017177Y0015453D01*
X0017047Y0015543D01*
X0016919Y0015636D01*
X0016793Y0015732D01*
X0016670Y0015832D01*
X0016549Y0015934D01*
X0016431Y0016039D01*
X0016316Y0016148D01*
X0016203Y0016259D01*
X0016093Y0016373D01*
X0015986Y0016490D01*
X0015882Y0016609D01*
X0015781Y0016731D01*
X0015684Y0016856D01*
X0015589Y0016983D01*
X0015498Y0017112D01*
X0015409Y0017243D01*
X0015325Y0017377D01*
X0015243Y0017513D01*
X0015165Y0017650D01*
X0015091Y0017790D01*
X0015020Y0017932D01*
X0014952Y0018075D01*
X0014888Y0018220D01*
X0014828Y0018366D01*
X0014772Y0018514D01*
X0014719Y0018663D01*
X0014670Y0018814D01*
X0014625Y0018966D01*
X0014584Y0019119D01*
X0014546Y0019272D01*
X0014513Y0019427D01*
X0014483Y0019583D01*
X0014457Y0019739D01*
X0014436Y0019896D01*
X0014418Y0020053D01*
X0014404Y0020211D01*
X0014394Y0020369D01*
X0014388Y0020527D01*
X0014386Y0020685D01*
X0014386Y0237220D02*
X0014388Y0237378D01*
X0014394Y0237536D01*
X0014404Y0237694D01*
X0014418Y0237852D01*
X0014436Y0238009D01*
X0014457Y0238166D01*
X0014483Y0238322D01*
X0014513Y0238478D01*
X0014546Y0238633D01*
X0014584Y0238786D01*
X0014625Y0238939D01*
X0014670Y0239091D01*
X0014719Y0239242D01*
X0014772Y0239391D01*
X0014828Y0239539D01*
X0014888Y0239685D01*
X0014952Y0239830D01*
X0015020Y0239973D01*
X0015091Y0240115D01*
X0015165Y0240255D01*
X0015243Y0240392D01*
X0015325Y0240528D01*
X0015409Y0240662D01*
X0015498Y0240793D01*
X0015589Y0240922D01*
X0015684Y0241049D01*
X0015781Y0241174D01*
X0015882Y0241296D01*
X0015986Y0241415D01*
X0016093Y0241532D01*
X0016203Y0241646D01*
X0016316Y0241757D01*
X0016431Y0241866D01*
X0016549Y0241971D01*
X0016670Y0242073D01*
X0016793Y0242173D01*
X0016919Y0242269D01*
X0017047Y0242362D01*
X0017177Y0242452D01*
X0017310Y0242538D01*
X0017445Y0242622D01*
X0017581Y0242701D01*
X0017720Y0242778D01*
X0017861Y0242850D01*
X0018003Y0242920D01*
X0018147Y0242985D01*
X0018293Y0243047D01*
X0018440Y0243105D01*
X0018589Y0243160D01*
X0018739Y0243211D01*
X0018890Y0243258D01*
X0019042Y0243301D01*
X0019195Y0243340D01*
X0019350Y0243376D01*
X0019505Y0243407D01*
X0019661Y0243435D01*
X0019817Y0243459D01*
X0019974Y0243479D01*
X0020132Y0243495D01*
X0020289Y0243507D01*
X0020448Y0243515D01*
X0020606Y0243519D01*
X0020764Y0243519D01*
X0020922Y0243515D01*
X0021081Y0243507D01*
X0021238Y0243495D01*
X0021396Y0243479D01*
X0021553Y0243459D01*
X0021709Y0243435D01*
X0021865Y0243407D01*
X0022020Y0243376D01*
X0022175Y0243340D01*
X0022328Y0243301D01*
X0022480Y0243258D01*
X0022631Y0243211D01*
X0022781Y0243160D01*
X0022930Y0243105D01*
X0023077Y0243047D01*
X0023223Y0242985D01*
X0023367Y0242920D01*
X0023509Y0242850D01*
X0023650Y0242778D01*
X0023789Y0242701D01*
X0023925Y0242622D01*
X0024060Y0242538D01*
X0024193Y0242452D01*
X0024323Y0242362D01*
X0024451Y0242269D01*
X0024577Y0242173D01*
X0024700Y0242073D01*
X0024821Y0241971D01*
X0024939Y0241866D01*
X0025054Y0241757D01*
X0025167Y0241646D01*
X0025277Y0241532D01*
X0025384Y0241415D01*
X0025488Y0241296D01*
X0025589Y0241174D01*
X0025686Y0241049D01*
X0025781Y0240922D01*
X0025872Y0240793D01*
X0025961Y0240662D01*
X0026045Y0240528D01*
X0026127Y0240392D01*
X0026205Y0240255D01*
X0026279Y0240115D01*
X0026350Y0239973D01*
X0026418Y0239830D01*
X0026482Y0239685D01*
X0026542Y0239539D01*
X0026598Y0239391D01*
X0026651Y0239242D01*
X0026700Y0239091D01*
X0026745Y0238939D01*
X0026786Y0238786D01*
X0026824Y0238633D01*
X0026857Y0238478D01*
X0026887Y0238322D01*
X0026913Y0238166D01*
X0026934Y0238009D01*
X0026952Y0237852D01*
X0026966Y0237694D01*
X0026976Y0237536D01*
X0026982Y0237378D01*
X0026984Y0237220D01*
X0026982Y0237062D01*
X0026976Y0236904D01*
X0026966Y0236746D01*
X0026952Y0236588D01*
X0026934Y0236431D01*
X0026913Y0236274D01*
X0026887Y0236118D01*
X0026857Y0235962D01*
X0026824Y0235807D01*
X0026786Y0235654D01*
X0026745Y0235501D01*
X0026700Y0235349D01*
X0026651Y0235198D01*
X0026598Y0235049D01*
X0026542Y0234901D01*
X0026482Y0234755D01*
X0026418Y0234610D01*
X0026350Y0234467D01*
X0026279Y0234325D01*
X0026205Y0234185D01*
X0026127Y0234048D01*
X0026045Y0233912D01*
X0025961Y0233778D01*
X0025872Y0233647D01*
X0025781Y0233518D01*
X0025686Y0233391D01*
X0025589Y0233266D01*
X0025488Y0233144D01*
X0025384Y0233025D01*
X0025277Y0232908D01*
X0025167Y0232794D01*
X0025054Y0232683D01*
X0024939Y0232574D01*
X0024821Y0232469D01*
X0024700Y0232367D01*
X0024577Y0232267D01*
X0024451Y0232171D01*
X0024323Y0232078D01*
X0024193Y0231988D01*
X0024060Y0231902D01*
X0023925Y0231818D01*
X0023789Y0231739D01*
X0023650Y0231662D01*
X0023509Y0231590D01*
X0023367Y0231520D01*
X0023223Y0231455D01*
X0023077Y0231393D01*
X0022930Y0231335D01*
X0022781Y0231280D01*
X0022631Y0231229D01*
X0022480Y0231182D01*
X0022328Y0231139D01*
X0022175Y0231100D01*
X0022020Y0231064D01*
X0021865Y0231033D01*
X0021709Y0231005D01*
X0021553Y0230981D01*
X0021396Y0230961D01*
X0021238Y0230945D01*
X0021081Y0230933D01*
X0020922Y0230925D01*
X0020764Y0230921D01*
X0020606Y0230921D01*
X0020448Y0230925D01*
X0020289Y0230933D01*
X0020132Y0230945D01*
X0019974Y0230961D01*
X0019817Y0230981D01*
X0019661Y0231005D01*
X0019505Y0231033D01*
X0019350Y0231064D01*
X0019195Y0231100D01*
X0019042Y0231139D01*
X0018890Y0231182D01*
X0018739Y0231229D01*
X0018589Y0231280D01*
X0018440Y0231335D01*
X0018293Y0231393D01*
X0018147Y0231455D01*
X0018003Y0231520D01*
X0017861Y0231590D01*
X0017720Y0231662D01*
X0017581Y0231739D01*
X0017445Y0231818D01*
X0017310Y0231902D01*
X0017177Y0231988D01*
X0017047Y0232078D01*
X0016919Y0232171D01*
X0016793Y0232267D01*
X0016670Y0232367D01*
X0016549Y0232469D01*
X0016431Y0232574D01*
X0016316Y0232683D01*
X0016203Y0232794D01*
X0016093Y0232908D01*
X0015986Y0233025D01*
X0015882Y0233144D01*
X0015781Y0233266D01*
X0015684Y0233391D01*
X0015589Y0233518D01*
X0015498Y0233647D01*
X0015409Y0233778D01*
X0015325Y0233912D01*
X0015243Y0234048D01*
X0015165Y0234185D01*
X0015091Y0234325D01*
X0015020Y0234467D01*
X0014952Y0234610D01*
X0014888Y0234755D01*
X0014828Y0234901D01*
X0014772Y0235049D01*
X0014719Y0235198D01*
X0014670Y0235349D01*
X0014625Y0235501D01*
X0014584Y0235654D01*
X0014546Y0235807D01*
X0014513Y0235962D01*
X0014483Y0236118D01*
X0014457Y0236274D01*
X0014436Y0236431D01*
X0014418Y0236588D01*
X0014404Y0236746D01*
X0014394Y0236904D01*
X0014388Y0237062D01*
X0014386Y0237220D01*
X0289977Y0237220D02*
X0289979Y0237378D01*
X0289985Y0237536D01*
X0289995Y0237694D01*
X0290009Y0237852D01*
X0290027Y0238009D01*
X0290048Y0238166D01*
X0290074Y0238322D01*
X0290104Y0238478D01*
X0290137Y0238633D01*
X0290175Y0238786D01*
X0290216Y0238939D01*
X0290261Y0239091D01*
X0290310Y0239242D01*
X0290363Y0239391D01*
X0290419Y0239539D01*
X0290479Y0239685D01*
X0290543Y0239830D01*
X0290611Y0239973D01*
X0290682Y0240115D01*
X0290756Y0240255D01*
X0290834Y0240392D01*
X0290916Y0240528D01*
X0291000Y0240662D01*
X0291089Y0240793D01*
X0291180Y0240922D01*
X0291275Y0241049D01*
X0291372Y0241174D01*
X0291473Y0241296D01*
X0291577Y0241415D01*
X0291684Y0241532D01*
X0291794Y0241646D01*
X0291907Y0241757D01*
X0292022Y0241866D01*
X0292140Y0241971D01*
X0292261Y0242073D01*
X0292384Y0242173D01*
X0292510Y0242269D01*
X0292638Y0242362D01*
X0292768Y0242452D01*
X0292901Y0242538D01*
X0293036Y0242622D01*
X0293172Y0242701D01*
X0293311Y0242778D01*
X0293452Y0242850D01*
X0293594Y0242920D01*
X0293738Y0242985D01*
X0293884Y0243047D01*
X0294031Y0243105D01*
X0294180Y0243160D01*
X0294330Y0243211D01*
X0294481Y0243258D01*
X0294633Y0243301D01*
X0294786Y0243340D01*
X0294941Y0243376D01*
X0295096Y0243407D01*
X0295252Y0243435D01*
X0295408Y0243459D01*
X0295565Y0243479D01*
X0295723Y0243495D01*
X0295880Y0243507D01*
X0296039Y0243515D01*
X0296197Y0243519D01*
X0296355Y0243519D01*
X0296513Y0243515D01*
X0296672Y0243507D01*
X0296829Y0243495D01*
X0296987Y0243479D01*
X0297144Y0243459D01*
X0297300Y0243435D01*
X0297456Y0243407D01*
X0297611Y0243376D01*
X0297766Y0243340D01*
X0297919Y0243301D01*
X0298071Y0243258D01*
X0298222Y0243211D01*
X0298372Y0243160D01*
X0298521Y0243105D01*
X0298668Y0243047D01*
X0298814Y0242985D01*
X0298958Y0242920D01*
X0299100Y0242850D01*
X0299241Y0242778D01*
X0299380Y0242701D01*
X0299516Y0242622D01*
X0299651Y0242538D01*
X0299784Y0242452D01*
X0299914Y0242362D01*
X0300042Y0242269D01*
X0300168Y0242173D01*
X0300291Y0242073D01*
X0300412Y0241971D01*
X0300530Y0241866D01*
X0300645Y0241757D01*
X0300758Y0241646D01*
X0300868Y0241532D01*
X0300975Y0241415D01*
X0301079Y0241296D01*
X0301180Y0241174D01*
X0301277Y0241049D01*
X0301372Y0240922D01*
X0301463Y0240793D01*
X0301552Y0240662D01*
X0301636Y0240528D01*
X0301718Y0240392D01*
X0301796Y0240255D01*
X0301870Y0240115D01*
X0301941Y0239973D01*
X0302009Y0239830D01*
X0302073Y0239685D01*
X0302133Y0239539D01*
X0302189Y0239391D01*
X0302242Y0239242D01*
X0302291Y0239091D01*
X0302336Y0238939D01*
X0302377Y0238786D01*
X0302415Y0238633D01*
X0302448Y0238478D01*
X0302478Y0238322D01*
X0302504Y0238166D01*
X0302525Y0238009D01*
X0302543Y0237852D01*
X0302557Y0237694D01*
X0302567Y0237536D01*
X0302573Y0237378D01*
X0302575Y0237220D01*
X0302573Y0237062D01*
X0302567Y0236904D01*
X0302557Y0236746D01*
X0302543Y0236588D01*
X0302525Y0236431D01*
X0302504Y0236274D01*
X0302478Y0236118D01*
X0302448Y0235962D01*
X0302415Y0235807D01*
X0302377Y0235654D01*
X0302336Y0235501D01*
X0302291Y0235349D01*
X0302242Y0235198D01*
X0302189Y0235049D01*
X0302133Y0234901D01*
X0302073Y0234755D01*
X0302009Y0234610D01*
X0301941Y0234467D01*
X0301870Y0234325D01*
X0301796Y0234185D01*
X0301718Y0234048D01*
X0301636Y0233912D01*
X0301552Y0233778D01*
X0301463Y0233647D01*
X0301372Y0233518D01*
X0301277Y0233391D01*
X0301180Y0233266D01*
X0301079Y0233144D01*
X0300975Y0233025D01*
X0300868Y0232908D01*
X0300758Y0232794D01*
X0300645Y0232683D01*
X0300530Y0232574D01*
X0300412Y0232469D01*
X0300291Y0232367D01*
X0300168Y0232267D01*
X0300042Y0232171D01*
X0299914Y0232078D01*
X0299784Y0231988D01*
X0299651Y0231902D01*
X0299516Y0231818D01*
X0299380Y0231739D01*
X0299241Y0231662D01*
X0299100Y0231590D01*
X0298958Y0231520D01*
X0298814Y0231455D01*
X0298668Y0231393D01*
X0298521Y0231335D01*
X0298372Y0231280D01*
X0298222Y0231229D01*
X0298071Y0231182D01*
X0297919Y0231139D01*
X0297766Y0231100D01*
X0297611Y0231064D01*
X0297456Y0231033D01*
X0297300Y0231005D01*
X0297144Y0230981D01*
X0296987Y0230961D01*
X0296829Y0230945D01*
X0296672Y0230933D01*
X0296513Y0230925D01*
X0296355Y0230921D01*
X0296197Y0230921D01*
X0296039Y0230925D01*
X0295880Y0230933D01*
X0295723Y0230945D01*
X0295565Y0230961D01*
X0295408Y0230981D01*
X0295252Y0231005D01*
X0295096Y0231033D01*
X0294941Y0231064D01*
X0294786Y0231100D01*
X0294633Y0231139D01*
X0294481Y0231182D01*
X0294330Y0231229D01*
X0294180Y0231280D01*
X0294031Y0231335D01*
X0293884Y0231393D01*
X0293738Y0231455D01*
X0293594Y0231520D01*
X0293452Y0231590D01*
X0293311Y0231662D01*
X0293172Y0231739D01*
X0293036Y0231818D01*
X0292901Y0231902D01*
X0292768Y0231988D01*
X0292638Y0232078D01*
X0292510Y0232171D01*
X0292384Y0232267D01*
X0292261Y0232367D01*
X0292140Y0232469D01*
X0292022Y0232574D01*
X0291907Y0232683D01*
X0291794Y0232794D01*
X0291684Y0232908D01*
X0291577Y0233025D01*
X0291473Y0233144D01*
X0291372Y0233266D01*
X0291275Y0233391D01*
X0291180Y0233518D01*
X0291089Y0233647D01*
X0291000Y0233778D01*
X0290916Y0233912D01*
X0290834Y0234048D01*
X0290756Y0234185D01*
X0290682Y0234325D01*
X0290611Y0234467D01*
X0290543Y0234610D01*
X0290479Y0234755D01*
X0290419Y0234901D01*
X0290363Y0235049D01*
X0290310Y0235198D01*
X0290261Y0235349D01*
X0290216Y0235501D01*
X0290175Y0235654D01*
X0290137Y0235807D01*
X0290104Y0235962D01*
X0290074Y0236118D01*
X0290048Y0236274D01*
X0290027Y0236431D01*
X0290009Y0236588D01*
X0289995Y0236746D01*
X0289985Y0236904D01*
X0289979Y0237062D01*
X0289977Y0237220D01*
X0289977Y0020685D02*
X0289979Y0020843D01*
X0289985Y0021001D01*
X0289995Y0021159D01*
X0290009Y0021317D01*
X0290027Y0021474D01*
X0290048Y0021631D01*
X0290074Y0021787D01*
X0290104Y0021943D01*
X0290137Y0022098D01*
X0290175Y0022251D01*
X0290216Y0022404D01*
X0290261Y0022556D01*
X0290310Y0022707D01*
X0290363Y0022856D01*
X0290419Y0023004D01*
X0290479Y0023150D01*
X0290543Y0023295D01*
X0290611Y0023438D01*
X0290682Y0023580D01*
X0290756Y0023720D01*
X0290834Y0023857D01*
X0290916Y0023993D01*
X0291000Y0024127D01*
X0291089Y0024258D01*
X0291180Y0024387D01*
X0291275Y0024514D01*
X0291372Y0024639D01*
X0291473Y0024761D01*
X0291577Y0024880D01*
X0291684Y0024997D01*
X0291794Y0025111D01*
X0291907Y0025222D01*
X0292022Y0025331D01*
X0292140Y0025436D01*
X0292261Y0025538D01*
X0292384Y0025638D01*
X0292510Y0025734D01*
X0292638Y0025827D01*
X0292768Y0025917D01*
X0292901Y0026003D01*
X0293036Y0026087D01*
X0293172Y0026166D01*
X0293311Y0026243D01*
X0293452Y0026315D01*
X0293594Y0026385D01*
X0293738Y0026450D01*
X0293884Y0026512D01*
X0294031Y0026570D01*
X0294180Y0026625D01*
X0294330Y0026676D01*
X0294481Y0026723D01*
X0294633Y0026766D01*
X0294786Y0026805D01*
X0294941Y0026841D01*
X0295096Y0026872D01*
X0295252Y0026900D01*
X0295408Y0026924D01*
X0295565Y0026944D01*
X0295723Y0026960D01*
X0295880Y0026972D01*
X0296039Y0026980D01*
X0296197Y0026984D01*
X0296355Y0026984D01*
X0296513Y0026980D01*
X0296672Y0026972D01*
X0296829Y0026960D01*
X0296987Y0026944D01*
X0297144Y0026924D01*
X0297300Y0026900D01*
X0297456Y0026872D01*
X0297611Y0026841D01*
X0297766Y0026805D01*
X0297919Y0026766D01*
X0298071Y0026723D01*
X0298222Y0026676D01*
X0298372Y0026625D01*
X0298521Y0026570D01*
X0298668Y0026512D01*
X0298814Y0026450D01*
X0298958Y0026385D01*
X0299100Y0026315D01*
X0299241Y0026243D01*
X0299380Y0026166D01*
X0299516Y0026087D01*
X0299651Y0026003D01*
X0299784Y0025917D01*
X0299914Y0025827D01*
X0300042Y0025734D01*
X0300168Y0025638D01*
X0300291Y0025538D01*
X0300412Y0025436D01*
X0300530Y0025331D01*
X0300645Y0025222D01*
X0300758Y0025111D01*
X0300868Y0024997D01*
X0300975Y0024880D01*
X0301079Y0024761D01*
X0301180Y0024639D01*
X0301277Y0024514D01*
X0301372Y0024387D01*
X0301463Y0024258D01*
X0301552Y0024127D01*
X0301636Y0023993D01*
X0301718Y0023857D01*
X0301796Y0023720D01*
X0301870Y0023580D01*
X0301941Y0023438D01*
X0302009Y0023295D01*
X0302073Y0023150D01*
X0302133Y0023004D01*
X0302189Y0022856D01*
X0302242Y0022707D01*
X0302291Y0022556D01*
X0302336Y0022404D01*
X0302377Y0022251D01*
X0302415Y0022098D01*
X0302448Y0021943D01*
X0302478Y0021787D01*
X0302504Y0021631D01*
X0302525Y0021474D01*
X0302543Y0021317D01*
X0302557Y0021159D01*
X0302567Y0021001D01*
X0302573Y0020843D01*
X0302575Y0020685D01*
X0302573Y0020527D01*
X0302567Y0020369D01*
X0302557Y0020211D01*
X0302543Y0020053D01*
X0302525Y0019896D01*
X0302504Y0019739D01*
X0302478Y0019583D01*
X0302448Y0019427D01*
X0302415Y0019272D01*
X0302377Y0019119D01*
X0302336Y0018966D01*
X0302291Y0018814D01*
X0302242Y0018663D01*
X0302189Y0018514D01*
X0302133Y0018366D01*
X0302073Y0018220D01*
X0302009Y0018075D01*
X0301941Y0017932D01*
X0301870Y0017790D01*
X0301796Y0017650D01*
X0301718Y0017513D01*
X0301636Y0017377D01*
X0301552Y0017243D01*
X0301463Y0017112D01*
X0301372Y0016983D01*
X0301277Y0016856D01*
X0301180Y0016731D01*
X0301079Y0016609D01*
X0300975Y0016490D01*
X0300868Y0016373D01*
X0300758Y0016259D01*
X0300645Y0016148D01*
X0300530Y0016039D01*
X0300412Y0015934D01*
X0300291Y0015832D01*
X0300168Y0015732D01*
X0300042Y0015636D01*
X0299914Y0015543D01*
X0299784Y0015453D01*
X0299651Y0015367D01*
X0299516Y0015283D01*
X0299380Y0015204D01*
X0299241Y0015127D01*
X0299100Y0015055D01*
X0298958Y0014985D01*
X0298814Y0014920D01*
X0298668Y0014858D01*
X0298521Y0014800D01*
X0298372Y0014745D01*
X0298222Y0014694D01*
X0298071Y0014647D01*
X0297919Y0014604D01*
X0297766Y0014565D01*
X0297611Y0014529D01*
X0297456Y0014498D01*
X0297300Y0014470D01*
X0297144Y0014446D01*
X0296987Y0014426D01*
X0296829Y0014410D01*
X0296672Y0014398D01*
X0296513Y0014390D01*
X0296355Y0014386D01*
X0296197Y0014386D01*
X0296039Y0014390D01*
X0295880Y0014398D01*
X0295723Y0014410D01*
X0295565Y0014426D01*
X0295408Y0014446D01*
X0295252Y0014470D01*
X0295096Y0014498D01*
X0294941Y0014529D01*
X0294786Y0014565D01*
X0294633Y0014604D01*
X0294481Y0014647D01*
X0294330Y0014694D01*
X0294180Y0014745D01*
X0294031Y0014800D01*
X0293884Y0014858D01*
X0293738Y0014920D01*
X0293594Y0014985D01*
X0293452Y0015055D01*
X0293311Y0015127D01*
X0293172Y0015204D01*
X0293036Y0015283D01*
X0292901Y0015367D01*
X0292768Y0015453D01*
X0292638Y0015543D01*
X0292510Y0015636D01*
X0292384Y0015732D01*
X0292261Y0015832D01*
X0292140Y0015934D01*
X0292022Y0016039D01*
X0291907Y0016148D01*
X0291794Y0016259D01*
X0291684Y0016373D01*
X0291577Y0016490D01*
X0291473Y0016609D01*
X0291372Y0016731D01*
X0291275Y0016856D01*
X0291180Y0016983D01*
X0291089Y0017112D01*
X0291000Y0017243D01*
X0290916Y0017377D01*
X0290834Y0017513D01*
X0290756Y0017650D01*
X0290682Y0017790D01*
X0290611Y0017932D01*
X0290543Y0018075D01*
X0290479Y0018220D01*
X0290419Y0018366D01*
X0290363Y0018514D01*
X0290310Y0018663D01*
X0290261Y0018814D01*
X0290216Y0018966D01*
X0290175Y0019119D01*
X0290137Y0019272D01*
X0290104Y0019427D01*
X0290074Y0019583D01*
X0290048Y0019739D01*
X0290027Y0019896D01*
X0290009Y0020053D01*
X0289995Y0020211D01*
X0289985Y0020369D01*
X0289979Y0020527D01*
X0289977Y0020685D01*
M02*
