G75*
%MOIN*%
%OFA0B0*%
%FSLAX25Y25*%
%IPPOS*%
%LPD*%
%AMOC8*
5,1,8,0,0,1.08239X$1,22.5*
%
%ADD10C,0.13398*%
%ADD11C,0.09658*%
%ADD12C,0.07400*%
%ADD13C,0.06800*%
%ADD14C,0.08600*%
%ADD15C,0.05200*%
%ADD16OC8,0.06000*%
%ADD17C,0.06343*%
%ADD18OC8,0.06800*%
%ADD19C,0.06737*%
%ADD20C,0.03975*%
D10*
X0020685Y0020685D03*
X0020685Y0237220D03*
X0296276Y0237220D03*
X0296276Y0020685D03*
D11*
X0273657Y0162714D02*
X0264799Y0162714D01*
X0264799Y0182514D02*
X0273657Y0182514D01*
X0272987Y0209720D02*
X0272987Y0218579D01*
X0253187Y0218579D02*
X0253187Y0209720D01*
X0229010Y0210232D02*
X0229010Y0219091D01*
X0209210Y0219091D02*
X0209210Y0210232D01*
X0047713Y0215231D02*
X0038854Y0215231D01*
X0038854Y0195431D02*
X0047713Y0195431D01*
D12*
X0179583Y0176276D03*
X0179583Y0216276D03*
D13*
X0259654Y0126433D02*
X0265654Y0126433D01*
X0265654Y0116433D02*
X0259654Y0116433D01*
X0259654Y0106433D02*
X0265654Y0106433D01*
X0265654Y0096433D02*
X0259654Y0096433D01*
X0259654Y0086433D02*
X0265654Y0086433D01*
X0265654Y0076433D02*
X0259654Y0076433D01*
X0259654Y0066433D02*
X0265654Y0066433D01*
X0265654Y0056433D02*
X0259654Y0056433D01*
D14*
X0154439Y0173051D02*
X0146639Y0173051D01*
X0154639Y0196551D02*
X0162439Y0196551D01*
X0154439Y0220051D02*
X0146639Y0220051D01*
X0106439Y0220051D02*
X0098639Y0220051D01*
X0098639Y0173051D02*
X0106439Y0173051D01*
D15*
X0120724Y0084499D02*
X0120724Y0080099D01*
X0140724Y0080099D02*
X0140724Y0084499D01*
D16*
X0127496Y0046098D03*
X0122496Y0038598D03*
X0132496Y0038598D03*
X0198992Y0150469D03*
X0193992Y0157969D03*
X0203992Y0157969D03*
D17*
X0215449Y0035291D03*
X0223323Y0035291D03*
X0231197Y0035291D03*
X0239071Y0035291D03*
D18*
X0095449Y0037811D03*
X0095449Y0027811D03*
X0085449Y0027811D03*
X0075449Y0027811D03*
X0065449Y0027811D03*
X0055449Y0027811D03*
X0045449Y0027811D03*
X0035449Y0027811D03*
X0035449Y0037811D03*
X0045449Y0037811D03*
X0055449Y0037811D03*
X0065449Y0037811D03*
X0075449Y0037811D03*
X0085449Y0037811D03*
D19*
X0210134Y0085764D03*
X0210134Y0095764D03*
X0220134Y0095764D03*
X0220134Y0085764D03*
X0220134Y0105764D03*
X0210134Y0105764D03*
D20*
X0195803Y0100882D03*
X0184465Y0094701D03*
X0159858Y0137024D03*
X0153402Y0137654D03*
M02*
