G75*
%MOIN*%
%OFA0B0*%
%FSLAX25Y25*%
%IPPOS*%
%LPD*%
%AMOC8*
5,1,8,0,0,1.08239X$1,22.5*
%
%ADD10C,0.08858*%
%ADD11C,0.06600*%
%ADD12C,0.06000*%
%ADD13C,0.07800*%
%ADD14C,0.04400*%
%ADD15OC8,0.05200*%
%ADD16C,0.05543*%
%ADD17OC8,0.06000*%
%ADD18C,0.05937*%
%ADD19C,0.03175*%
%ADD20C,0.01600*%
%ADD21C,0.06600*%
%ADD22C,0.03200*%
%ADD23C,0.15000*%
D10*
X0038854Y0195431D02*
X0047713Y0195431D01*
X0047713Y0215231D02*
X0038854Y0215231D01*
X0209210Y0219091D02*
X0209210Y0210232D01*
X0229010Y0210232D02*
X0229010Y0219091D01*
X0253187Y0218579D02*
X0253187Y0209720D01*
X0272987Y0209720D02*
X0272987Y0218579D01*
X0273657Y0182514D02*
X0264799Y0182514D01*
X0264799Y0162714D02*
X0273657Y0162714D01*
D11*
X0179583Y0176276D03*
X0179583Y0216276D03*
D12*
X0259654Y0126433D02*
X0265654Y0126433D01*
X0265654Y0116433D02*
X0259654Y0116433D01*
X0259654Y0106433D02*
X0265654Y0106433D01*
X0265654Y0096433D02*
X0259654Y0096433D01*
X0259654Y0086433D02*
X0265654Y0086433D01*
X0265654Y0076433D02*
X0259654Y0076433D01*
X0259654Y0066433D02*
X0265654Y0066433D01*
X0265654Y0056433D02*
X0259654Y0056433D01*
D13*
X0154439Y0173051D02*
X0146639Y0173051D01*
X0154639Y0196551D02*
X0162439Y0196551D01*
X0154439Y0220051D02*
X0146639Y0220051D01*
X0106439Y0220051D02*
X0098639Y0220051D01*
X0098639Y0173051D02*
X0106439Y0173051D01*
D14*
X0120724Y0084499D02*
X0120724Y0080099D01*
X0140724Y0080099D02*
X0140724Y0084499D01*
D15*
X0127496Y0046098D03*
X0122496Y0038598D03*
X0132496Y0038598D03*
X0198992Y0150469D03*
X0193992Y0157969D03*
X0203992Y0157969D03*
D16*
X0215449Y0035291D03*
X0223323Y0035291D03*
X0231197Y0035291D03*
X0239071Y0035291D03*
D17*
X0095449Y0037811D03*
X0095449Y0027811D03*
X0085449Y0027811D03*
X0075449Y0027811D03*
X0065449Y0027811D03*
X0055449Y0027811D03*
X0045449Y0027811D03*
X0035449Y0027811D03*
X0035449Y0037811D03*
X0045449Y0037811D03*
X0055449Y0037811D03*
X0065449Y0037811D03*
X0075449Y0037811D03*
X0085449Y0037811D03*
D18*
X0210134Y0085764D03*
X0210134Y0095764D03*
X0220134Y0095764D03*
X0220134Y0085764D03*
X0220134Y0105764D03*
X0210134Y0105764D03*
D19*
X0195803Y0100882D03*
X0184465Y0094701D03*
X0159858Y0137024D03*
X0153402Y0137654D03*
D20*
X0007377Y0252917D02*
X0006813Y0006800D01*
X0309859Y0006800D01*
X0310423Y0252917D01*
X0007377Y0252917D01*
X0007375Y0251966D02*
X0310421Y0251966D01*
X0310417Y0250368D02*
X0007371Y0250368D01*
X0007368Y0248769D02*
X0017038Y0248769D01*
X0016015Y0248495D02*
X0013256Y0246902D01*
X0011003Y0244650D01*
X0009410Y0241891D01*
X0008586Y0238813D01*
X0008586Y0235628D01*
X0009410Y0232550D01*
X0011003Y0229791D01*
X0013256Y0227539D01*
X0016015Y0225946D01*
X0019092Y0225121D01*
X0022278Y0225121D01*
X0025355Y0225946D01*
X0028114Y0227539D01*
X0030367Y0229791D01*
X0031960Y0232550D01*
X0032784Y0235628D01*
X0032784Y0238813D01*
X0031960Y0241891D01*
X0030367Y0244650D01*
X0028114Y0246902D01*
X0025355Y0248495D01*
X0022278Y0249320D01*
X0019092Y0249320D01*
X0016015Y0248495D01*
X0013721Y0247171D02*
X0007364Y0247171D01*
X0007360Y0245572D02*
X0011926Y0245572D01*
X0010613Y0243974D02*
X0007357Y0243974D01*
X0007353Y0242375D02*
X0009690Y0242375D01*
X0009112Y0240777D02*
X0007349Y0240777D01*
X0007346Y0239178D02*
X0008684Y0239178D01*
X0008586Y0237580D02*
X0007342Y0237580D01*
X0007338Y0235981D02*
X0008586Y0235981D01*
X0008919Y0234383D02*
X0007335Y0234383D01*
X0007331Y0232784D02*
X0009348Y0232784D01*
X0010198Y0231186D02*
X0007327Y0231186D01*
X0007324Y0229587D02*
X0011208Y0229587D01*
X0012806Y0227989D02*
X0007320Y0227989D01*
X0007316Y0226390D02*
X0015245Y0226390D01*
X0007313Y0224792D02*
X0034035Y0224792D01*
X0035117Y0225873D02*
X0032778Y0223534D01*
X0032573Y0223416D01*
X0030669Y0221512D01*
X0029322Y0219179D01*
X0028625Y0216577D01*
X0028625Y0213884D01*
X0029322Y0211282D01*
X0030669Y0208950D01*
X0032573Y0207045D01*
X0032778Y0206928D01*
X0034374Y0205331D01*
X0032778Y0203734D01*
X0032573Y0203616D01*
X0030669Y0201712D01*
X0029322Y0199379D01*
X0028625Y0196777D01*
X0028625Y0194084D01*
X0029322Y0191482D01*
X0030669Y0189150D01*
X0032573Y0187245D01*
X0032778Y0187128D01*
X0035117Y0184788D01*
X0038150Y0183037D01*
X0041532Y0182131D01*
X0095212Y0182131D01*
X0093145Y0181274D01*
X0090416Y0178546D01*
X0088939Y0174981D01*
X0088939Y0171122D01*
X0090416Y0167557D01*
X0093145Y0164828D01*
X0096710Y0163351D01*
X0108369Y0163351D01*
X0111934Y0164828D01*
X0114663Y0167557D01*
X0116139Y0171122D01*
X0116139Y0174981D01*
X0114663Y0178546D01*
X0111934Y0181274D01*
X0109867Y0182131D01*
X0143212Y0182131D01*
X0141145Y0181274D01*
X0138416Y0178546D01*
X0136939Y0174981D01*
X0136939Y0171122D01*
X0138416Y0167557D01*
X0141145Y0164828D01*
X0144710Y0163351D01*
X0156369Y0163351D01*
X0157817Y0163951D01*
X0178168Y0163951D01*
X0181513Y0165337D01*
X0185052Y0168876D01*
X0189273Y0168876D01*
X0195781Y0162368D01*
X0193992Y0162368D01*
X0192170Y0162368D01*
X0189592Y0159791D01*
X0189592Y0157969D01*
X0193992Y0157969D01*
X0193992Y0162368D01*
X0193992Y0157969D01*
X0193992Y0157969D01*
X0193992Y0157968D01*
X0189592Y0157968D01*
X0189592Y0156146D01*
X0191191Y0154547D01*
X0190592Y0153948D01*
X0190592Y0147206D01*
X0154451Y0147206D01*
X0152025Y0146202D01*
X0150169Y0144345D01*
X0150110Y0144286D01*
X0149217Y0143916D01*
X0147139Y0141838D01*
X0146014Y0139123D01*
X0146014Y0136184D01*
X0147139Y0133469D01*
X0149217Y0131391D01*
X0151932Y0130266D01*
X0154871Y0130266D01*
X0155870Y0130680D01*
X0158389Y0129636D01*
X0161328Y0129636D01*
X0163229Y0130424D01*
X0186140Y0130424D01*
X0207106Y0109458D01*
X0207027Y0109401D01*
X0206497Y0108870D01*
X0206055Y0108263D01*
X0205715Y0107594D01*
X0205678Y0107482D01*
X0199174Y0107482D01*
X0197273Y0108269D01*
X0194334Y0108269D01*
X0191619Y0107145D01*
X0189540Y0105067D01*
X0188416Y0102351D01*
X0188416Y0101060D01*
X0185934Y0102088D01*
X0182995Y0102088D01*
X0180280Y0100964D01*
X0178202Y0098885D01*
X0177077Y0096170D01*
X0177077Y0093231D01*
X0178202Y0090516D01*
X0180280Y0088438D01*
X0181509Y0087929D01*
X0182413Y0087025D01*
X0184269Y0085169D01*
X0186695Y0084164D01*
X0201365Y0084164D01*
X0201365Y0084020D01*
X0202700Y0080797D01*
X0202773Y0080724D01*
X0202773Y0077441D01*
X0203900Y0074722D01*
X0205981Y0072640D01*
X0218462Y0060160D01*
X0221182Y0059033D01*
X0254608Y0059033D01*
X0254669Y0058973D01*
X0255405Y0058668D01*
X0255205Y0058276D01*
X0254972Y0057557D01*
X0254854Y0056811D01*
X0254854Y0056633D01*
X0262453Y0056633D01*
X0262453Y0056233D01*
X0254854Y0056233D01*
X0254854Y0056055D01*
X0254972Y0055309D01*
X0255205Y0054591D01*
X0255548Y0053917D01*
X0255992Y0053306D01*
X0256527Y0052772D01*
X0257138Y0052328D01*
X0257811Y0051985D01*
X0258530Y0051751D01*
X0259276Y0051633D01*
X0262454Y0051633D01*
X0262454Y0056233D01*
X0262854Y0056233D01*
X0262854Y0051633D01*
X0266031Y0051633D01*
X0266778Y0051751D01*
X0267222Y0051896D01*
X0267222Y0040679D01*
X0252266Y0025723D01*
X0238597Y0025723D01*
X0238597Y0030738D01*
X0238711Y0030720D01*
X0238985Y0030720D01*
X0238985Y0031695D01*
X0239157Y0032109D01*
X0239157Y0030720D01*
X0239431Y0030720D01*
X0240141Y0030832D01*
X0240826Y0031055D01*
X0241467Y0031381D01*
X0242049Y0031804D01*
X0242558Y0032313D01*
X0242981Y0032895D01*
X0243308Y0033536D01*
X0243530Y0034221D01*
X0243643Y0034932D01*
X0243643Y0035205D01*
X0239768Y0035205D01*
X0239768Y0035377D01*
X0243643Y0035377D01*
X0243643Y0035651D01*
X0243530Y0036362D01*
X0243308Y0037046D01*
X0242981Y0037687D01*
X0242558Y0038270D01*
X0242049Y0038778D01*
X0241467Y0039201D01*
X0240826Y0039528D01*
X0240141Y0039750D01*
X0239431Y0039863D01*
X0239157Y0039863D01*
X0239157Y0038473D01*
X0238985Y0038888D01*
X0238985Y0039863D01*
X0238711Y0039863D01*
X0238589Y0039844D01*
X0238464Y0040147D01*
X0236052Y0042558D01*
X0232902Y0043863D01*
X0229492Y0043863D01*
X0227260Y0042938D01*
X0225028Y0043863D01*
X0221618Y0043863D01*
X0219386Y0042938D01*
X0217154Y0043863D01*
X0213744Y0043863D01*
X0210593Y0042558D01*
X0208182Y0040147D01*
X0206877Y0036996D01*
X0206877Y0033586D01*
X0208182Y0030436D01*
X0210593Y0028025D01*
X0213744Y0026720D01*
X0217154Y0026720D01*
X0218038Y0027086D01*
X0216636Y0025683D01*
X0125923Y0025683D01*
X0126156Y0025917D01*
X0128013Y0027773D01*
X0129017Y0030199D01*
X0129017Y0033240D01*
X0130324Y0034547D01*
X0130674Y0034198D01*
X0132496Y0034198D01*
X0132496Y0038598D01*
X0132496Y0038598D01*
X0132496Y0034198D01*
X0134319Y0034198D01*
X0136896Y0036776D01*
X0136896Y0038598D01*
X0132496Y0038598D01*
X0132496Y0038598D01*
X0136896Y0038598D01*
X0136896Y0040421D01*
X0135297Y0042020D01*
X0135896Y0042619D01*
X0135896Y0049578D01*
X0130975Y0054498D01*
X0124017Y0054498D01*
X0119096Y0049578D01*
X0119096Y0046998D01*
X0119017Y0046998D01*
X0114096Y0042078D01*
X0114096Y0035119D01*
X0115393Y0033822D01*
X0110432Y0028860D01*
X0104249Y0028860D01*
X0104249Y0031456D01*
X0102894Y0032811D01*
X0104249Y0034166D01*
X0104249Y0041456D01*
X0099094Y0046611D01*
X0091804Y0046611D01*
X0090449Y0045256D01*
X0089094Y0046611D01*
X0081804Y0046611D01*
X0080449Y0045256D01*
X0079094Y0046611D01*
X0071804Y0046611D01*
X0070449Y0045256D01*
X0069094Y0046611D01*
X0061804Y0046611D01*
X0060449Y0045256D01*
X0059094Y0046611D01*
X0051804Y0046611D01*
X0050449Y0045256D01*
X0049094Y0046611D01*
X0041804Y0046611D01*
X0040449Y0045256D01*
X0039094Y0046611D01*
X0031804Y0046611D01*
X0026649Y0041456D01*
X0026649Y0034166D01*
X0028004Y0032811D01*
X0026649Y0031456D01*
X0026649Y0031213D01*
X0025355Y0031960D01*
X0022278Y0032784D01*
X0019092Y0032784D01*
X0016015Y0031960D01*
X0013256Y0030367D01*
X0011003Y0028114D01*
X0009410Y0025355D01*
X0008586Y0022278D01*
X0008586Y0019092D01*
X0009410Y0016015D01*
X0011003Y0013256D01*
X0013256Y0011003D01*
X0016015Y0009410D01*
X0019092Y0008586D01*
X0022278Y0008586D01*
X0025355Y0009410D01*
X0028114Y0011003D01*
X0030367Y0013256D01*
X0031960Y0016015D01*
X0032762Y0019011D01*
X0039094Y0019011D01*
X0040449Y0020366D01*
X0041804Y0019011D01*
X0049094Y0019011D01*
X0050449Y0020366D01*
X0051804Y0019011D01*
X0059094Y0019011D01*
X0060218Y0020135D01*
X0066262Y0014092D01*
X0068344Y0012010D01*
X0071063Y0010883D01*
X0221173Y0010883D01*
X0223893Y0012010D01*
X0227496Y0015614D01*
X0228979Y0014131D01*
X0231060Y0012049D01*
X0233780Y0010923D01*
X0256803Y0010923D01*
X0259522Y0012049D01*
X0278814Y0031341D01*
X0280895Y0033422D01*
X0282022Y0036142D01*
X0282022Y0061921D01*
X0280895Y0064641D01*
X0278203Y0067333D01*
X0285251Y0067333D01*
X0288596Y0068718D01*
X0302730Y0082852D01*
X0305289Y0085412D01*
X0306675Y0088757D01*
X0306675Y0182928D01*
X0305289Y0186273D01*
X0288754Y0202808D01*
X0286194Y0205368D01*
X0282849Y0206754D01*
X0282782Y0206754D01*
X0283216Y0208374D01*
X0283216Y0219925D01*
X0282519Y0222527D01*
X0281172Y0224860D01*
X0279267Y0226764D01*
X0276935Y0228111D01*
X0274333Y0228808D01*
X0271640Y0228808D01*
X0269038Y0228111D01*
X0266706Y0226764D01*
X0264801Y0224860D01*
X0263514Y0222631D01*
X0261490Y0224655D01*
X0261372Y0224860D01*
X0259467Y0226764D01*
X0257135Y0228111D01*
X0254533Y0228808D01*
X0251840Y0228808D01*
X0249238Y0228111D01*
X0248980Y0227961D01*
X0242371Y0227961D01*
X0242371Y0228538D01*
X0241464Y0231921D01*
X0239714Y0234954D01*
X0237237Y0237430D01*
X0228182Y0246485D01*
X0225149Y0248236D01*
X0221767Y0249143D01*
X0081257Y0249143D01*
X0077874Y0248236D01*
X0074841Y0246485D01*
X0072365Y0244009D01*
X0056887Y0228531D01*
X0041532Y0228531D01*
X0038150Y0227624D01*
X0035117Y0225873D01*
X0036012Y0226390D02*
X0026125Y0226390D01*
X0028564Y0227989D02*
X0039509Y0227989D01*
X0032351Y0223193D02*
X0007309Y0223193D01*
X0007305Y0221595D02*
X0030752Y0221595D01*
X0029794Y0219996D02*
X0007302Y0219996D01*
X0007298Y0218398D02*
X0029113Y0218398D01*
X0028685Y0216799D02*
X0007294Y0216799D01*
X0007291Y0215201D02*
X0028625Y0215201D01*
X0028701Y0213602D02*
X0007287Y0213602D01*
X0007284Y0212003D02*
X0029129Y0212003D01*
X0029829Y0210405D02*
X0007280Y0210405D01*
X0007276Y0208806D02*
X0030812Y0208806D01*
X0032411Y0207208D02*
X0007273Y0207208D01*
X0007269Y0205609D02*
X0034096Y0205609D01*
X0033055Y0204011D02*
X0007265Y0204011D01*
X0007262Y0202412D02*
X0031370Y0202412D01*
X0030151Y0200814D02*
X0007258Y0200814D01*
X0007254Y0199215D02*
X0029278Y0199215D01*
X0028850Y0197617D02*
X0007251Y0197617D01*
X0007247Y0196018D02*
X0028625Y0196018D01*
X0028625Y0194420D02*
X0007243Y0194420D01*
X0007240Y0192821D02*
X0028964Y0192821D01*
X0029472Y0191223D02*
X0007236Y0191223D01*
X0007232Y0189624D02*
X0030395Y0189624D01*
X0031793Y0188026D02*
X0007229Y0188026D01*
X0007225Y0186427D02*
X0033478Y0186427D01*
X0035076Y0184829D02*
X0007221Y0184829D01*
X0007218Y0183230D02*
X0037815Y0183230D01*
X0007214Y0181632D02*
X0094007Y0181632D01*
X0091904Y0180033D02*
X0007210Y0180033D01*
X0007207Y0178435D02*
X0090370Y0178435D01*
X0089708Y0176836D02*
X0007203Y0176836D01*
X0007199Y0175238D02*
X0089046Y0175238D01*
X0088939Y0173639D02*
X0007196Y0173639D01*
X0007192Y0172041D02*
X0088939Y0172041D01*
X0089221Y0170442D02*
X0007188Y0170442D01*
X0007185Y0168844D02*
X0089883Y0168844D01*
X0090727Y0167245D02*
X0007181Y0167245D01*
X0007177Y0165647D02*
X0092326Y0165647D01*
X0095027Y0164048D02*
X0007174Y0164048D01*
X0007170Y0162450D02*
X0195699Y0162450D01*
X0194101Y0164048D02*
X0178402Y0164048D01*
X0181823Y0165647D02*
X0192502Y0165647D01*
X0190904Y0167245D02*
X0183422Y0167245D01*
X0185020Y0168844D02*
X0189305Y0168844D01*
X0190652Y0160851D02*
X0007166Y0160851D01*
X0007163Y0159253D02*
X0189592Y0159253D01*
X0189592Y0157654D02*
X0007159Y0157654D01*
X0007155Y0156056D02*
X0189682Y0156056D01*
X0191101Y0154457D02*
X0007152Y0154457D01*
X0007148Y0152859D02*
X0190592Y0152859D01*
X0190592Y0151260D02*
X0007144Y0151260D01*
X0007141Y0149662D02*
X0190592Y0149662D01*
X0190592Y0148063D02*
X0007137Y0148063D01*
X0007133Y0146465D02*
X0152660Y0146465D01*
X0150690Y0144866D02*
X0007130Y0144866D01*
X0007126Y0143268D02*
X0148568Y0143268D01*
X0147069Y0141669D02*
X0007122Y0141669D01*
X0007119Y0140070D02*
X0146407Y0140070D01*
X0146014Y0138472D02*
X0007115Y0138472D01*
X0007111Y0136873D02*
X0146014Y0136873D01*
X0146391Y0135275D02*
X0007108Y0135275D01*
X0007104Y0133676D02*
X0147053Y0133676D01*
X0148530Y0132078D02*
X0007100Y0132078D01*
X0007097Y0130479D02*
X0151417Y0130479D01*
X0155386Y0130479D02*
X0156353Y0130479D01*
X0159858Y0137024D02*
X0188874Y0137024D01*
X0220134Y0105764D01*
X0215370Y0100882D02*
X0195803Y0100882D01*
X0188811Y0103305D02*
X0007034Y0103305D01*
X0007038Y0104903D02*
X0189473Y0104903D01*
X0190976Y0106502D02*
X0007042Y0106502D01*
X0007045Y0108100D02*
X0193926Y0108100D01*
X0197681Y0108100D02*
X0205973Y0108100D01*
X0206865Y0109699D02*
X0007049Y0109699D01*
X0007053Y0111297D02*
X0205267Y0111297D01*
X0203668Y0112896D02*
X0007056Y0112896D01*
X0007060Y0114494D02*
X0202070Y0114494D01*
X0200471Y0116093D02*
X0007064Y0116093D01*
X0007067Y0117691D02*
X0198872Y0117691D01*
X0197274Y0119290D02*
X0007071Y0119290D01*
X0007075Y0120888D02*
X0195675Y0120888D01*
X0194077Y0122487D02*
X0007078Y0122487D01*
X0007082Y0124085D02*
X0192478Y0124085D01*
X0190880Y0125684D02*
X0007086Y0125684D01*
X0007089Y0127282D02*
X0189281Y0127282D01*
X0187683Y0128881D02*
X0007093Y0128881D01*
X0007031Y0101706D02*
X0182073Y0101706D01*
X0179424Y0100108D02*
X0007027Y0100108D01*
X0007023Y0098509D02*
X0178046Y0098509D01*
X0177384Y0096911D02*
X0007020Y0096911D01*
X0007016Y0095312D02*
X0177077Y0095312D01*
X0177077Y0093714D02*
X0007012Y0093714D01*
X0007009Y0092115D02*
X0118206Y0092115D01*
X0119133Y0092499D02*
X0116193Y0091281D01*
X0113942Y0089031D01*
X0112724Y0086091D01*
X0112724Y0078508D01*
X0113942Y0075568D01*
X0116193Y0073317D01*
X0119133Y0072099D01*
X0122316Y0072099D01*
X0125256Y0073317D01*
X0127506Y0075568D01*
X0128724Y0078508D01*
X0128724Y0086091D01*
X0127506Y0089031D01*
X0125256Y0091281D01*
X0122316Y0092499D01*
X0119133Y0092499D01*
X0123243Y0092115D02*
X0138206Y0092115D01*
X0139133Y0092499D02*
X0136193Y0091281D01*
X0133942Y0089031D01*
X0132724Y0086091D01*
X0132724Y0078508D01*
X0133942Y0075568D01*
X0136193Y0073317D01*
X0139133Y0072099D01*
X0142316Y0072099D01*
X0145256Y0073317D01*
X0147506Y0075568D01*
X0148724Y0078508D01*
X0148724Y0086091D01*
X0147506Y0089031D01*
X0145256Y0091281D01*
X0142316Y0092499D01*
X0139133Y0092499D01*
X0135428Y0090517D02*
X0126021Y0090517D01*
X0127553Y0088918D02*
X0133896Y0088918D01*
X0133234Y0087320D02*
X0128215Y0087320D01*
X0128724Y0085721D02*
X0132724Y0085721D01*
X0132724Y0084123D02*
X0128724Y0084123D01*
X0128724Y0082524D02*
X0132724Y0082524D01*
X0132724Y0080926D02*
X0128724Y0080926D01*
X0128724Y0079327D02*
X0132724Y0079327D01*
X0133047Y0077729D02*
X0128402Y0077729D01*
X0127739Y0076130D02*
X0133709Y0076130D01*
X0134978Y0074532D02*
X0126470Y0074532D01*
X0124329Y0072933D02*
X0137120Y0072933D01*
X0144329Y0072933D02*
X0205688Y0072933D01*
X0204090Y0074532D02*
X0146470Y0074532D01*
X0147739Y0076130D02*
X0203316Y0076130D01*
X0202773Y0077729D02*
X0148402Y0077729D01*
X0148724Y0079327D02*
X0202773Y0079327D01*
X0202647Y0080926D02*
X0148724Y0080926D01*
X0148724Y0082524D02*
X0201985Y0082524D01*
X0201365Y0084123D02*
X0148724Y0084123D01*
X0148724Y0085721D02*
X0183717Y0085721D01*
X0182118Y0087320D02*
X0148215Y0087320D01*
X0147553Y0088918D02*
X0179800Y0088918D01*
X0178202Y0090517D02*
X0146021Y0090517D01*
X0143243Y0092115D02*
X0177540Y0092115D01*
X0184465Y0094307D02*
X0188008Y0090764D01*
X0215134Y0090764D01*
X0220134Y0085764D01*
X0220134Y0095764D02*
X0220134Y0096118D01*
X0215370Y0100882D01*
X0188416Y0101706D02*
X0186856Y0101706D01*
X0184465Y0094701D02*
X0184465Y0094307D01*
X0207287Y0071334D02*
X0006961Y0071334D01*
X0006958Y0069736D02*
X0208885Y0069736D01*
X0210484Y0068137D02*
X0006954Y0068137D01*
X0006950Y0066539D02*
X0212082Y0066539D01*
X0213681Y0064940D02*
X0006947Y0064940D01*
X0006943Y0063342D02*
X0215279Y0063342D01*
X0216878Y0061743D02*
X0006939Y0061743D01*
X0006936Y0060145D02*
X0218497Y0060145D01*
X0210601Y0042561D02*
X0135838Y0042561D01*
X0135896Y0044160D02*
X0267222Y0044160D01*
X0267222Y0045758D02*
X0135896Y0045758D01*
X0135896Y0047357D02*
X0267222Y0047357D01*
X0267222Y0048955D02*
X0135896Y0048955D01*
X0134920Y0050554D02*
X0267222Y0050554D01*
X0262854Y0052152D02*
X0262454Y0052152D01*
X0262454Y0053751D02*
X0262854Y0053751D01*
X0262854Y0055349D02*
X0262454Y0055349D01*
X0257482Y0052152D02*
X0133321Y0052152D01*
X0131723Y0053751D02*
X0255669Y0053751D01*
X0254965Y0055349D02*
X0006925Y0055349D01*
X0006921Y0053751D02*
X0123269Y0053751D01*
X0121671Y0052152D02*
X0006917Y0052152D01*
X0006914Y0050554D02*
X0120072Y0050554D01*
X0119096Y0048955D02*
X0006910Y0048955D01*
X0006906Y0047357D02*
X0119096Y0047357D01*
X0117777Y0045758D02*
X0099947Y0045758D01*
X0101545Y0044160D02*
X0116178Y0044160D01*
X0114580Y0042561D02*
X0103144Y0042561D01*
X0104249Y0040963D02*
X0114096Y0040963D01*
X0114096Y0039364D02*
X0104249Y0039364D01*
X0104249Y0037766D02*
X0114096Y0037766D01*
X0114096Y0036167D02*
X0104249Y0036167D01*
X0104249Y0034569D02*
X0114646Y0034569D01*
X0114542Y0032970D02*
X0103053Y0032970D01*
X0104249Y0031372D02*
X0112943Y0031372D01*
X0111345Y0029773D02*
X0104249Y0029773D01*
X0113165Y0022260D02*
X0122417Y0031512D01*
X0122417Y0038520D01*
X0122496Y0038598D01*
X0129017Y0032970D02*
X0207132Y0032970D01*
X0206877Y0034569D02*
X0134689Y0034569D01*
X0132496Y0034569D02*
X0132496Y0034569D01*
X0132496Y0036167D02*
X0132496Y0036167D01*
X0132496Y0037766D02*
X0132496Y0037766D01*
X0136287Y0036167D02*
X0206877Y0036167D01*
X0207196Y0037766D02*
X0136896Y0037766D01*
X0136896Y0039364D02*
X0207858Y0039364D01*
X0208998Y0040963D02*
X0136354Y0040963D01*
X0129017Y0031372D02*
X0207794Y0031372D01*
X0208845Y0029773D02*
X0128841Y0029773D01*
X0128179Y0028175D02*
X0210443Y0028175D01*
X0217528Y0026576D02*
X0126816Y0026576D01*
X0113165Y0022260D02*
X0091157Y0022260D01*
X0085606Y0027811D01*
X0085449Y0027811D01*
X0068164Y0012190D02*
X0029300Y0012190D01*
X0030674Y0013788D02*
X0066566Y0013788D01*
X0064967Y0015387D02*
X0031597Y0015387D01*
X0032220Y0016985D02*
X0063369Y0016985D01*
X0061770Y0018584D02*
X0032648Y0018584D01*
X0040265Y0020182D02*
X0040633Y0020182D01*
X0050265Y0020182D02*
X0050633Y0020182D01*
X0027400Y0010591D02*
X0289560Y0010591D01*
X0288846Y0011003D02*
X0291605Y0009410D01*
X0294683Y0008586D01*
X0297868Y0008586D01*
X0300946Y0009410D01*
X0303705Y0011003D01*
X0305957Y0013256D01*
X0307550Y0016015D01*
X0308375Y0019092D01*
X0308375Y0022278D01*
X0307550Y0025355D01*
X0305957Y0028114D01*
X0303705Y0030367D01*
X0300946Y0031960D01*
X0297868Y0032784D01*
X0294683Y0032784D01*
X0291605Y0031960D01*
X0288846Y0030367D01*
X0286594Y0028114D01*
X0285001Y0025355D01*
X0284176Y0022278D01*
X0284176Y0019092D01*
X0285001Y0016015D01*
X0286594Y0013256D01*
X0288846Y0011003D01*
X0287660Y0012190D02*
X0259663Y0012190D01*
X0261261Y0013788D02*
X0286287Y0013788D01*
X0285364Y0015387D02*
X0262860Y0015387D01*
X0264458Y0016985D02*
X0284741Y0016985D01*
X0284313Y0018584D02*
X0266057Y0018584D01*
X0267655Y0020182D02*
X0284176Y0020182D01*
X0284176Y0021781D02*
X0269254Y0021781D01*
X0270852Y0023379D02*
X0284471Y0023379D01*
X0284900Y0024978D02*
X0272451Y0024978D01*
X0274049Y0026576D02*
X0285706Y0026576D01*
X0286654Y0028175D02*
X0275648Y0028175D01*
X0277246Y0029773D02*
X0288253Y0029773D01*
X0290587Y0031372D02*
X0278845Y0031372D01*
X0278814Y0031341D02*
X0278814Y0031341D01*
X0280443Y0032970D02*
X0309919Y0032970D01*
X0309915Y0031372D02*
X0301964Y0031372D01*
X0304298Y0029773D02*
X0309912Y0029773D01*
X0309908Y0028175D02*
X0305897Y0028175D01*
X0306845Y0026576D02*
X0309904Y0026576D01*
X0309901Y0024978D02*
X0307651Y0024978D01*
X0308080Y0023379D02*
X0309897Y0023379D01*
X0309893Y0021781D02*
X0308375Y0021781D01*
X0308375Y0020182D02*
X0309890Y0020182D01*
X0309886Y0018584D02*
X0308239Y0018584D01*
X0307810Y0016985D02*
X0309882Y0016985D01*
X0309879Y0015387D02*
X0307187Y0015387D01*
X0306265Y0013788D02*
X0309875Y0013788D01*
X0309871Y0012190D02*
X0304891Y0012190D01*
X0302991Y0010591D02*
X0309868Y0010591D01*
X0309864Y0008993D02*
X0299386Y0008993D01*
X0293165Y0008993D02*
X0023796Y0008993D01*
X0017574Y0008993D02*
X0006818Y0008993D01*
X0006822Y0010591D02*
X0013970Y0010591D01*
X0012070Y0012190D02*
X0006826Y0012190D01*
X0006829Y0013788D02*
X0010696Y0013788D01*
X0009773Y0015387D02*
X0006833Y0015387D01*
X0006837Y0016985D02*
X0009150Y0016985D01*
X0008722Y0018584D02*
X0006840Y0018584D01*
X0006844Y0020182D02*
X0008586Y0020182D01*
X0008586Y0021781D02*
X0006848Y0021781D01*
X0006851Y0023379D02*
X0008881Y0023379D01*
X0009309Y0024978D02*
X0006855Y0024978D01*
X0006859Y0026576D02*
X0010115Y0026576D01*
X0011064Y0028175D02*
X0006862Y0028175D01*
X0006866Y0029773D02*
X0012662Y0029773D01*
X0014997Y0031372D02*
X0006870Y0031372D01*
X0006873Y0032970D02*
X0027845Y0032970D01*
X0026649Y0031372D02*
X0026374Y0031372D01*
X0026649Y0034569D02*
X0006877Y0034569D01*
X0006881Y0036167D02*
X0026649Y0036167D01*
X0026649Y0037766D02*
X0006884Y0037766D01*
X0006888Y0039364D02*
X0026649Y0039364D01*
X0026649Y0040963D02*
X0006892Y0040963D01*
X0006895Y0042561D02*
X0027754Y0042561D01*
X0029353Y0044160D02*
X0006899Y0044160D01*
X0006903Y0045758D02*
X0030951Y0045758D01*
X0039947Y0045758D02*
X0040951Y0045758D01*
X0049947Y0045758D02*
X0050951Y0045758D01*
X0059947Y0045758D02*
X0060951Y0045758D01*
X0069947Y0045758D02*
X0070951Y0045758D01*
X0079947Y0045758D02*
X0080951Y0045758D01*
X0089947Y0045758D02*
X0090951Y0045758D01*
X0114978Y0074532D02*
X0006968Y0074532D01*
X0006972Y0076130D02*
X0113709Y0076130D01*
X0113047Y0077729D02*
X0006976Y0077729D01*
X0006979Y0079327D02*
X0112724Y0079327D01*
X0112724Y0080926D02*
X0006983Y0080926D01*
X0006987Y0082524D02*
X0112724Y0082524D01*
X0112724Y0084123D02*
X0006990Y0084123D01*
X0006994Y0085721D02*
X0112724Y0085721D01*
X0113234Y0087320D02*
X0006998Y0087320D01*
X0007001Y0088918D02*
X0113896Y0088918D01*
X0115428Y0090517D02*
X0007005Y0090517D01*
X0006965Y0072933D02*
X0117120Y0072933D01*
X0153402Y0137654D02*
X0153402Y0138244D01*
X0155764Y0140606D01*
X0248480Y0140606D01*
X0262654Y0126433D01*
X0306675Y0125684D02*
X0310131Y0125684D01*
X0310135Y0127282D02*
X0306675Y0127282D01*
X0306675Y0128881D02*
X0310139Y0128881D01*
X0310142Y0130479D02*
X0306675Y0130479D01*
X0306675Y0132078D02*
X0310146Y0132078D01*
X0310150Y0133676D02*
X0306675Y0133676D01*
X0306675Y0135275D02*
X0310153Y0135275D01*
X0310157Y0136873D02*
X0306675Y0136873D01*
X0306675Y0138472D02*
X0310161Y0138472D01*
X0310164Y0140070D02*
X0306675Y0140070D01*
X0306675Y0141669D02*
X0310168Y0141669D01*
X0310172Y0143268D02*
X0306675Y0143268D01*
X0306675Y0144866D02*
X0310175Y0144866D01*
X0310179Y0146465D02*
X0306675Y0146465D01*
X0306675Y0148063D02*
X0310183Y0148063D01*
X0310186Y0149662D02*
X0306675Y0149662D01*
X0306675Y0151260D02*
X0310190Y0151260D01*
X0310194Y0152859D02*
X0306675Y0152859D01*
X0306675Y0154457D02*
X0310197Y0154457D01*
X0310201Y0156056D02*
X0306675Y0156056D01*
X0306675Y0157654D02*
X0310205Y0157654D01*
X0310208Y0159253D02*
X0306675Y0159253D01*
X0306675Y0160851D02*
X0310212Y0160851D01*
X0310216Y0162450D02*
X0306675Y0162450D01*
X0306675Y0164048D02*
X0310219Y0164048D01*
X0310223Y0165647D02*
X0306675Y0165647D01*
X0306675Y0167245D02*
X0310227Y0167245D01*
X0310230Y0168844D02*
X0306675Y0168844D01*
X0306675Y0170442D02*
X0310234Y0170442D01*
X0310238Y0172041D02*
X0306675Y0172041D01*
X0306675Y0173639D02*
X0310241Y0173639D01*
X0310245Y0175238D02*
X0306675Y0175238D01*
X0306675Y0176836D02*
X0310249Y0176836D01*
X0310252Y0178435D02*
X0306675Y0178435D01*
X0306675Y0180033D02*
X0310256Y0180033D01*
X0310260Y0181632D02*
X0306675Y0181632D01*
X0306550Y0183230D02*
X0310263Y0183230D01*
X0310267Y0184829D02*
X0305888Y0184829D01*
X0305135Y0186427D02*
X0310271Y0186427D01*
X0310274Y0188026D02*
X0303536Y0188026D01*
X0301938Y0189624D02*
X0310278Y0189624D01*
X0310282Y0191223D02*
X0300339Y0191223D01*
X0298741Y0192821D02*
X0310285Y0192821D01*
X0310289Y0194420D02*
X0297142Y0194420D01*
X0295544Y0196018D02*
X0310293Y0196018D01*
X0310296Y0197617D02*
X0293945Y0197617D01*
X0292347Y0199215D02*
X0310300Y0199215D01*
X0310304Y0200814D02*
X0290748Y0200814D01*
X0289150Y0202412D02*
X0310307Y0202412D01*
X0310311Y0204011D02*
X0287551Y0204011D01*
X0285612Y0205609D02*
X0310315Y0205609D01*
X0310318Y0207208D02*
X0282903Y0207208D01*
X0283216Y0208806D02*
X0310322Y0208806D01*
X0310326Y0210405D02*
X0283216Y0210405D01*
X0283216Y0212003D02*
X0310329Y0212003D01*
X0310333Y0213602D02*
X0283216Y0213602D01*
X0283216Y0215201D02*
X0310337Y0215201D01*
X0310340Y0216799D02*
X0283216Y0216799D01*
X0283216Y0218398D02*
X0310344Y0218398D01*
X0310347Y0219996D02*
X0283197Y0219996D01*
X0282769Y0221595D02*
X0310351Y0221595D01*
X0310355Y0223193D02*
X0282134Y0223193D01*
X0281211Y0224792D02*
X0310358Y0224792D01*
X0310362Y0226390D02*
X0301715Y0226390D01*
X0300946Y0225946D02*
X0303705Y0227539D01*
X0305957Y0229791D01*
X0307550Y0232550D01*
X0308375Y0235628D01*
X0308375Y0238813D01*
X0307550Y0241891D01*
X0305957Y0244650D01*
X0303705Y0246902D01*
X0300946Y0248495D01*
X0297868Y0249320D01*
X0294683Y0249320D01*
X0291605Y0248495D01*
X0288846Y0246902D01*
X0286594Y0244650D01*
X0285001Y0241891D01*
X0284176Y0238813D01*
X0284176Y0235628D01*
X0285001Y0232550D01*
X0286594Y0229791D01*
X0288846Y0227539D01*
X0291605Y0225946D01*
X0294683Y0225121D01*
X0297868Y0225121D01*
X0300946Y0225946D01*
X0304155Y0227989D02*
X0310366Y0227989D01*
X0310369Y0229587D02*
X0305753Y0229587D01*
X0306762Y0231186D02*
X0310373Y0231186D01*
X0310377Y0232784D02*
X0307613Y0232784D01*
X0308041Y0234383D02*
X0310380Y0234383D01*
X0310384Y0235981D02*
X0308375Y0235981D01*
X0308375Y0237580D02*
X0310388Y0237580D01*
X0310391Y0239178D02*
X0308277Y0239178D01*
X0307849Y0240777D02*
X0310395Y0240777D01*
X0310399Y0242375D02*
X0307270Y0242375D01*
X0306348Y0243974D02*
X0310402Y0243974D01*
X0310406Y0245572D02*
X0305035Y0245572D01*
X0303240Y0247171D02*
X0310410Y0247171D01*
X0310413Y0248769D02*
X0299923Y0248769D01*
X0292629Y0248769D02*
X0223160Y0248769D01*
X0226995Y0247171D02*
X0289312Y0247171D01*
X0287516Y0245572D02*
X0229095Y0245572D01*
X0230694Y0243974D02*
X0286204Y0243974D01*
X0285281Y0242375D02*
X0232292Y0242375D01*
X0233891Y0240777D02*
X0284702Y0240777D01*
X0284274Y0239178D02*
X0235489Y0239178D01*
X0237088Y0237580D02*
X0284176Y0237580D01*
X0284176Y0235981D02*
X0238686Y0235981D01*
X0240043Y0234383D02*
X0284510Y0234383D01*
X0284938Y0232784D02*
X0240966Y0232784D01*
X0241662Y0231186D02*
X0285789Y0231186D01*
X0286798Y0229587D02*
X0242090Y0229587D01*
X0242371Y0227989D02*
X0249027Y0227989D01*
X0257346Y0227989D02*
X0268827Y0227989D01*
X0266332Y0226390D02*
X0259841Y0226390D01*
X0261411Y0224792D02*
X0264762Y0224792D01*
X0263839Y0223193D02*
X0262952Y0223193D01*
X0277146Y0227989D02*
X0288397Y0227989D01*
X0290836Y0226390D02*
X0279641Y0226390D01*
X0193992Y0160851D02*
X0193992Y0160851D01*
X0193992Y0159253D02*
X0193992Y0159253D01*
X0143027Y0164048D02*
X0110051Y0164048D01*
X0112753Y0165647D02*
X0140326Y0165647D01*
X0138727Y0167245D02*
X0114351Y0167245D01*
X0115196Y0168844D02*
X0137883Y0168844D01*
X0137221Y0170442D02*
X0115858Y0170442D01*
X0116139Y0172041D02*
X0136939Y0172041D01*
X0136939Y0173639D02*
X0116139Y0173639D01*
X0116033Y0175238D02*
X0137046Y0175238D01*
X0137708Y0176836D02*
X0115371Y0176836D01*
X0114709Y0178435D02*
X0138370Y0178435D01*
X0139904Y0180033D02*
X0113175Y0180033D01*
X0111071Y0181632D02*
X0142007Y0181632D01*
X0069133Y0240777D02*
X0032258Y0240777D01*
X0032686Y0239178D02*
X0067534Y0239178D01*
X0065936Y0237580D02*
X0032784Y0237580D01*
X0032784Y0235981D02*
X0064337Y0235981D01*
X0062739Y0234383D02*
X0032451Y0234383D01*
X0032022Y0232784D02*
X0061140Y0232784D01*
X0059542Y0231186D02*
X0031172Y0231186D01*
X0030163Y0229587D02*
X0057943Y0229587D01*
X0070732Y0242375D02*
X0031680Y0242375D01*
X0030757Y0243974D02*
X0072330Y0243974D01*
X0073929Y0245572D02*
X0029444Y0245572D01*
X0027649Y0247171D02*
X0076029Y0247171D01*
X0079864Y0248769D02*
X0024332Y0248769D01*
X0006932Y0058546D02*
X0255343Y0058546D01*
X0254875Y0056948D02*
X0006928Y0056948D01*
X0006815Y0007394D02*
X0309860Y0007394D01*
X0309923Y0034569D02*
X0281370Y0034569D01*
X0282022Y0036167D02*
X0309926Y0036167D01*
X0309930Y0037766D02*
X0282022Y0037766D01*
X0282022Y0039364D02*
X0309934Y0039364D01*
X0309937Y0040963D02*
X0282022Y0040963D01*
X0282022Y0042561D02*
X0309941Y0042561D01*
X0309945Y0044160D02*
X0282022Y0044160D01*
X0282022Y0045758D02*
X0309948Y0045758D01*
X0309952Y0047357D02*
X0282022Y0047357D01*
X0282022Y0048955D02*
X0309956Y0048955D01*
X0309959Y0050554D02*
X0282022Y0050554D01*
X0282022Y0052152D02*
X0309963Y0052152D01*
X0309967Y0053751D02*
X0282022Y0053751D01*
X0282022Y0055349D02*
X0309970Y0055349D01*
X0309974Y0056948D02*
X0282022Y0056948D01*
X0282022Y0058546D02*
X0309978Y0058546D01*
X0309981Y0060145D02*
X0282022Y0060145D01*
X0282022Y0061743D02*
X0309985Y0061743D01*
X0309989Y0063342D02*
X0281433Y0063342D01*
X0280596Y0064940D02*
X0309992Y0064940D01*
X0309996Y0066539D02*
X0278997Y0066539D01*
X0287193Y0068137D02*
X0310000Y0068137D01*
X0310003Y0069736D02*
X0289613Y0069736D01*
X0291212Y0071334D02*
X0310007Y0071334D01*
X0310010Y0072933D02*
X0292810Y0072933D01*
X0294409Y0074532D02*
X0310014Y0074532D01*
X0310018Y0076130D02*
X0296007Y0076130D01*
X0297606Y0077729D02*
X0310021Y0077729D01*
X0310025Y0079327D02*
X0299204Y0079327D01*
X0300803Y0080926D02*
X0310029Y0080926D01*
X0310032Y0082524D02*
X0302401Y0082524D01*
X0302730Y0082852D02*
X0302730Y0082852D01*
X0304000Y0084123D02*
X0310036Y0084123D01*
X0310040Y0085721D02*
X0305417Y0085721D01*
X0306079Y0087320D02*
X0310043Y0087320D01*
X0310047Y0088918D02*
X0306675Y0088918D01*
X0306675Y0090517D02*
X0310051Y0090517D01*
X0310054Y0092115D02*
X0306675Y0092115D01*
X0306675Y0093714D02*
X0310058Y0093714D01*
X0310062Y0095312D02*
X0306675Y0095312D01*
X0306675Y0096911D02*
X0310065Y0096911D01*
X0310069Y0098509D02*
X0306675Y0098509D01*
X0306675Y0100108D02*
X0310073Y0100108D01*
X0310076Y0101706D02*
X0306675Y0101706D01*
X0306675Y0103305D02*
X0310080Y0103305D01*
X0310084Y0104903D02*
X0306675Y0104903D01*
X0306675Y0106502D02*
X0310087Y0106502D01*
X0310091Y0108100D02*
X0306675Y0108100D01*
X0306675Y0109699D02*
X0310095Y0109699D01*
X0310098Y0111297D02*
X0306675Y0111297D01*
X0306675Y0112896D02*
X0310102Y0112896D01*
X0310106Y0114494D02*
X0306675Y0114494D01*
X0306675Y0116093D02*
X0310109Y0116093D01*
X0310113Y0117691D02*
X0306675Y0117691D01*
X0306675Y0119290D02*
X0310117Y0119290D01*
X0310120Y0120888D02*
X0306675Y0120888D01*
X0306675Y0122487D02*
X0310124Y0122487D01*
X0310128Y0124085D02*
X0306675Y0124085D01*
X0267222Y0042561D02*
X0236044Y0042561D01*
X0237648Y0040963D02*
X0267222Y0040963D01*
X0265907Y0039364D02*
X0241147Y0039364D01*
X0239157Y0039364D02*
X0238985Y0039364D01*
X0242924Y0037766D02*
X0264308Y0037766D01*
X0262710Y0036167D02*
X0243561Y0036167D01*
X0243585Y0034569D02*
X0261111Y0034569D01*
X0259513Y0032970D02*
X0243019Y0032970D01*
X0241448Y0031372D02*
X0257914Y0031372D01*
X0256316Y0029773D02*
X0238597Y0029773D01*
X0238597Y0028175D02*
X0254717Y0028175D01*
X0253119Y0026576D02*
X0238597Y0026576D01*
X0238985Y0031372D02*
X0239157Y0031372D01*
X0227723Y0015387D02*
X0227269Y0015387D01*
X0228979Y0014131D02*
X0228979Y0014131D01*
X0229322Y0013788D02*
X0225671Y0013788D01*
X0224072Y0012190D02*
X0230920Y0012190D01*
D21*
X0262654Y0076433D02*
X0283441Y0076433D01*
X0297575Y0090567D01*
X0297575Y0181118D01*
X0281039Y0197654D01*
X0260567Y0197654D01*
X0253087Y0205134D01*
X0253087Y0214050D01*
X0253187Y0214150D01*
X0269228Y0162714D02*
X0284189Y0147754D01*
X0284189Y0092929D01*
X0277693Y0086433D01*
X0262654Y0086433D01*
X0176358Y0173051D02*
X0179583Y0176276D01*
X0176358Y0173051D02*
X0150539Y0173051D01*
X0179583Y0216276D02*
X0175807Y0220051D01*
X0150539Y0220051D01*
D22*
X0179583Y0176276D02*
X0192339Y0176276D01*
X0204110Y0164504D01*
X0204110Y0158087D01*
X0203992Y0157969D01*
X0193992Y0157969D02*
X0161354Y0157969D01*
X0142929Y0139543D01*
X0142929Y0120291D01*
X0175803Y0087417D01*
X0175803Y0099307D01*
X0182929Y0106433D01*
X0209465Y0106433D01*
X0210134Y0105764D01*
X0210134Y0085764D02*
X0210173Y0085724D01*
X0210173Y0078913D01*
X0222654Y0066433D01*
X0262654Y0066433D01*
X0262732Y0066354D01*
X0268717Y0066354D01*
X0274622Y0060449D01*
X0274622Y0037614D01*
X0255331Y0018323D01*
X0235252Y0018323D01*
X0231197Y0022378D01*
X0231197Y0035291D01*
X0231118Y0035213D01*
X0231118Y0029701D01*
X0219701Y0018283D01*
X0072535Y0018283D01*
X0065449Y0025370D01*
X0065449Y0027811D01*
X0132496Y0038598D02*
X0132575Y0038520D01*
X0199976Y0038520D01*
X0217890Y0056433D01*
X0206787Y0056433D01*
X0175803Y0087417D01*
X0217890Y0056433D02*
X0262654Y0056433D01*
X0262732Y0056354D01*
X0262732Y0047496D01*
X0252496Y0037260D01*
X0239071Y0035291D01*
D23*
X0211533Y0182514D02*
X0197181Y0196866D01*
X0158854Y0196866D01*
X0158539Y0196551D01*
X0157419Y0195431D01*
X0043283Y0195431D01*
X0043283Y0215231D02*
X0062396Y0215231D01*
X0083008Y0235843D01*
X0220016Y0235843D01*
X0229071Y0226787D01*
X0229071Y0214722D01*
X0229010Y0214661D01*
X0252675Y0214661D01*
X0253187Y0214150D01*
X0269228Y0182514D02*
X0211533Y0182514D01*
M02*
