%
M48
M72
T01C0.01575
T02C0.02400
T03C0.03200
T04C0.03543
T05C0.03937
T06C0.04000
T07C0.04400
T08C0.05200
T09C0.05906
T10C0.12598
%
T01
X159858Y137024
X153402Y137654
X195803Y100882
X184465Y94701
T02
X140724Y82299
X120724Y82299
T03
X127496Y46098
X122496Y38598
X132496Y38598
X198992Y150469
X193992Y157969
X203992Y157969
T04
X215449Y35291
X223323Y35291
X231197Y35291
X239071Y35291
T05
X220134Y85764
X220134Y95764
X210134Y95764
X210134Y85764
X210134Y105764
X220134Y105764
T06
X262654Y106433
X262654Y96433
X262654Y86433
X262654Y76433
X262654Y66433
X262654Y56433
X262654Y116433
X262654Y126433
X95449Y37811
X95449Y27811
X85449Y27811
X75449Y27811
X65449Y27811
X55449Y27811
X45449Y27811
X35449Y27811
X35449Y37811
X45449Y37811
X55449Y37811
X65449Y37811
X75449Y37811
X85449Y37811
T07
X179583Y176276
X179583Y216276
T08
X158539Y196551
X150539Y173051
X102539Y173051
X102539Y220051
X150539Y220051
T09
X209210Y214661
X229010Y214661
X253187Y214150
X272987Y214150
X269228Y182514
X269228Y162714
X43283Y195431
X43283Y215231
T10
X20685Y20685
X20685Y237220
X296276Y237220
X296276Y20685
M30
