G75*
%MOIN*%
%OFA0B0*%
%FSLAX25Y25*%
%IPPOS*%
%LPD*%
%AMOC8*
5,1,8,0,0,1.08239X$1,22.5*
%
%ADD10C,0.00000*%
D10*
X0001328Y0004123D02*
X0001013Y0201013D01*
X0375461Y0201013D01*
X0375383Y0004123D01*
X0001328Y0004123D01*
X0014792Y0023847D02*
X0014794Y0024005D01*
X0014800Y0024163D01*
X0014810Y0024321D01*
X0014824Y0024479D01*
X0014842Y0024636D01*
X0014863Y0024793D01*
X0014889Y0024949D01*
X0014919Y0025105D01*
X0014952Y0025260D01*
X0014990Y0025413D01*
X0015031Y0025566D01*
X0015076Y0025718D01*
X0015125Y0025869D01*
X0015178Y0026018D01*
X0015234Y0026166D01*
X0015294Y0026312D01*
X0015358Y0026457D01*
X0015426Y0026600D01*
X0015497Y0026742D01*
X0015571Y0026882D01*
X0015649Y0027019D01*
X0015731Y0027155D01*
X0015815Y0027289D01*
X0015904Y0027420D01*
X0015995Y0027549D01*
X0016090Y0027676D01*
X0016187Y0027801D01*
X0016288Y0027923D01*
X0016392Y0028042D01*
X0016499Y0028159D01*
X0016609Y0028273D01*
X0016722Y0028384D01*
X0016837Y0028493D01*
X0016955Y0028598D01*
X0017076Y0028700D01*
X0017199Y0028800D01*
X0017325Y0028896D01*
X0017453Y0028989D01*
X0017583Y0029079D01*
X0017716Y0029165D01*
X0017851Y0029249D01*
X0017987Y0029328D01*
X0018126Y0029405D01*
X0018267Y0029477D01*
X0018409Y0029547D01*
X0018553Y0029612D01*
X0018699Y0029674D01*
X0018846Y0029732D01*
X0018995Y0029787D01*
X0019145Y0029838D01*
X0019296Y0029885D01*
X0019448Y0029928D01*
X0019601Y0029967D01*
X0019756Y0030003D01*
X0019911Y0030034D01*
X0020067Y0030062D01*
X0020223Y0030086D01*
X0020380Y0030106D01*
X0020538Y0030122D01*
X0020695Y0030134D01*
X0020854Y0030142D01*
X0021012Y0030146D01*
X0021170Y0030146D01*
X0021328Y0030142D01*
X0021487Y0030134D01*
X0021644Y0030122D01*
X0021802Y0030106D01*
X0021959Y0030086D01*
X0022115Y0030062D01*
X0022271Y0030034D01*
X0022426Y0030003D01*
X0022581Y0029967D01*
X0022734Y0029928D01*
X0022886Y0029885D01*
X0023037Y0029838D01*
X0023187Y0029787D01*
X0023336Y0029732D01*
X0023483Y0029674D01*
X0023629Y0029612D01*
X0023773Y0029547D01*
X0023915Y0029477D01*
X0024056Y0029405D01*
X0024195Y0029328D01*
X0024331Y0029249D01*
X0024466Y0029165D01*
X0024599Y0029079D01*
X0024729Y0028989D01*
X0024857Y0028896D01*
X0024983Y0028800D01*
X0025106Y0028700D01*
X0025227Y0028598D01*
X0025345Y0028493D01*
X0025460Y0028384D01*
X0025573Y0028273D01*
X0025683Y0028159D01*
X0025790Y0028042D01*
X0025894Y0027923D01*
X0025995Y0027801D01*
X0026092Y0027676D01*
X0026187Y0027549D01*
X0026278Y0027420D01*
X0026367Y0027289D01*
X0026451Y0027155D01*
X0026533Y0027019D01*
X0026611Y0026882D01*
X0026685Y0026742D01*
X0026756Y0026600D01*
X0026824Y0026457D01*
X0026888Y0026312D01*
X0026948Y0026166D01*
X0027004Y0026018D01*
X0027057Y0025869D01*
X0027106Y0025718D01*
X0027151Y0025566D01*
X0027192Y0025413D01*
X0027230Y0025260D01*
X0027263Y0025105D01*
X0027293Y0024949D01*
X0027319Y0024793D01*
X0027340Y0024636D01*
X0027358Y0024479D01*
X0027372Y0024321D01*
X0027382Y0024163D01*
X0027388Y0024005D01*
X0027390Y0023847D01*
X0027388Y0023689D01*
X0027382Y0023531D01*
X0027372Y0023373D01*
X0027358Y0023215D01*
X0027340Y0023058D01*
X0027319Y0022901D01*
X0027293Y0022745D01*
X0027263Y0022589D01*
X0027230Y0022434D01*
X0027192Y0022281D01*
X0027151Y0022128D01*
X0027106Y0021976D01*
X0027057Y0021825D01*
X0027004Y0021676D01*
X0026948Y0021528D01*
X0026888Y0021382D01*
X0026824Y0021237D01*
X0026756Y0021094D01*
X0026685Y0020952D01*
X0026611Y0020812D01*
X0026533Y0020675D01*
X0026451Y0020539D01*
X0026367Y0020405D01*
X0026278Y0020274D01*
X0026187Y0020145D01*
X0026092Y0020018D01*
X0025995Y0019893D01*
X0025894Y0019771D01*
X0025790Y0019652D01*
X0025683Y0019535D01*
X0025573Y0019421D01*
X0025460Y0019310D01*
X0025345Y0019201D01*
X0025227Y0019096D01*
X0025106Y0018994D01*
X0024983Y0018894D01*
X0024857Y0018798D01*
X0024729Y0018705D01*
X0024599Y0018615D01*
X0024466Y0018529D01*
X0024331Y0018445D01*
X0024195Y0018366D01*
X0024056Y0018289D01*
X0023915Y0018217D01*
X0023773Y0018147D01*
X0023629Y0018082D01*
X0023483Y0018020D01*
X0023336Y0017962D01*
X0023187Y0017907D01*
X0023037Y0017856D01*
X0022886Y0017809D01*
X0022734Y0017766D01*
X0022581Y0017727D01*
X0022426Y0017691D01*
X0022271Y0017660D01*
X0022115Y0017632D01*
X0021959Y0017608D01*
X0021802Y0017588D01*
X0021644Y0017572D01*
X0021487Y0017560D01*
X0021328Y0017552D01*
X0021170Y0017548D01*
X0021012Y0017548D01*
X0020854Y0017552D01*
X0020695Y0017560D01*
X0020538Y0017572D01*
X0020380Y0017588D01*
X0020223Y0017608D01*
X0020067Y0017632D01*
X0019911Y0017660D01*
X0019756Y0017691D01*
X0019601Y0017727D01*
X0019448Y0017766D01*
X0019296Y0017809D01*
X0019145Y0017856D01*
X0018995Y0017907D01*
X0018846Y0017962D01*
X0018699Y0018020D01*
X0018553Y0018082D01*
X0018409Y0018147D01*
X0018267Y0018217D01*
X0018126Y0018289D01*
X0017987Y0018366D01*
X0017851Y0018445D01*
X0017716Y0018529D01*
X0017583Y0018615D01*
X0017453Y0018705D01*
X0017325Y0018798D01*
X0017199Y0018894D01*
X0017076Y0018994D01*
X0016955Y0019096D01*
X0016837Y0019201D01*
X0016722Y0019310D01*
X0016609Y0019421D01*
X0016499Y0019535D01*
X0016392Y0019652D01*
X0016288Y0019771D01*
X0016187Y0019893D01*
X0016090Y0020018D01*
X0015995Y0020145D01*
X0015904Y0020274D01*
X0015815Y0020405D01*
X0015731Y0020539D01*
X0015649Y0020675D01*
X0015571Y0020812D01*
X0015497Y0020952D01*
X0015426Y0021094D01*
X0015358Y0021237D01*
X0015294Y0021382D01*
X0015234Y0021528D01*
X0015178Y0021676D01*
X0015125Y0021825D01*
X0015076Y0021976D01*
X0015031Y0022128D01*
X0014990Y0022281D01*
X0014952Y0022434D01*
X0014919Y0022589D01*
X0014889Y0022745D01*
X0014863Y0022901D01*
X0014842Y0023058D01*
X0014824Y0023215D01*
X0014810Y0023373D01*
X0014800Y0023531D01*
X0014794Y0023689D01*
X0014792Y0023847D01*
X0197469Y0116761D02*
X0197471Y0116909D01*
X0197477Y0117057D01*
X0197487Y0117205D01*
X0197501Y0117352D01*
X0197519Y0117499D01*
X0197540Y0117645D01*
X0197566Y0117791D01*
X0197596Y0117936D01*
X0197629Y0118080D01*
X0197667Y0118223D01*
X0197708Y0118365D01*
X0197753Y0118506D01*
X0197801Y0118646D01*
X0197854Y0118785D01*
X0197910Y0118922D01*
X0197970Y0119057D01*
X0198033Y0119191D01*
X0198100Y0119323D01*
X0198171Y0119453D01*
X0198245Y0119581D01*
X0198322Y0119707D01*
X0198403Y0119831D01*
X0198487Y0119953D01*
X0198574Y0120072D01*
X0198665Y0120189D01*
X0198759Y0120304D01*
X0198855Y0120416D01*
X0198955Y0120526D01*
X0199057Y0120632D01*
X0199163Y0120736D01*
X0199271Y0120837D01*
X0199382Y0120935D01*
X0199495Y0121031D01*
X0199611Y0121123D01*
X0199729Y0121212D01*
X0199850Y0121297D01*
X0199973Y0121380D01*
X0200098Y0121459D01*
X0200225Y0121535D01*
X0200354Y0121607D01*
X0200485Y0121676D01*
X0200618Y0121741D01*
X0200753Y0121802D01*
X0200889Y0121860D01*
X0201026Y0121915D01*
X0201165Y0121965D01*
X0201306Y0122012D01*
X0201447Y0122055D01*
X0201590Y0122095D01*
X0201734Y0122130D01*
X0201878Y0122162D01*
X0202024Y0122189D01*
X0202170Y0122213D01*
X0202317Y0122233D01*
X0202464Y0122249D01*
X0202611Y0122261D01*
X0202759Y0122269D01*
X0202907Y0122273D01*
X0203055Y0122273D01*
X0203203Y0122269D01*
X0203351Y0122261D01*
X0203498Y0122249D01*
X0203645Y0122233D01*
X0203792Y0122213D01*
X0203938Y0122189D01*
X0204084Y0122162D01*
X0204228Y0122130D01*
X0204372Y0122095D01*
X0204515Y0122055D01*
X0204656Y0122012D01*
X0204797Y0121965D01*
X0204936Y0121915D01*
X0205073Y0121860D01*
X0205209Y0121802D01*
X0205344Y0121741D01*
X0205477Y0121676D01*
X0205608Y0121607D01*
X0205737Y0121535D01*
X0205864Y0121459D01*
X0205989Y0121380D01*
X0206112Y0121297D01*
X0206233Y0121212D01*
X0206351Y0121123D01*
X0206467Y0121031D01*
X0206580Y0120935D01*
X0206691Y0120837D01*
X0206799Y0120736D01*
X0206905Y0120632D01*
X0207007Y0120526D01*
X0207107Y0120416D01*
X0207203Y0120304D01*
X0207297Y0120189D01*
X0207388Y0120072D01*
X0207475Y0119953D01*
X0207559Y0119831D01*
X0207640Y0119707D01*
X0207717Y0119581D01*
X0207791Y0119453D01*
X0207862Y0119323D01*
X0207929Y0119191D01*
X0207992Y0119057D01*
X0208052Y0118922D01*
X0208108Y0118785D01*
X0208161Y0118646D01*
X0208209Y0118506D01*
X0208254Y0118365D01*
X0208295Y0118223D01*
X0208333Y0118080D01*
X0208366Y0117936D01*
X0208396Y0117791D01*
X0208422Y0117645D01*
X0208443Y0117499D01*
X0208461Y0117352D01*
X0208475Y0117205D01*
X0208485Y0117057D01*
X0208491Y0116909D01*
X0208493Y0116761D01*
X0208491Y0116613D01*
X0208485Y0116465D01*
X0208475Y0116317D01*
X0208461Y0116170D01*
X0208443Y0116023D01*
X0208422Y0115877D01*
X0208396Y0115731D01*
X0208366Y0115586D01*
X0208333Y0115442D01*
X0208295Y0115299D01*
X0208254Y0115157D01*
X0208209Y0115016D01*
X0208161Y0114876D01*
X0208108Y0114737D01*
X0208052Y0114600D01*
X0207992Y0114465D01*
X0207929Y0114331D01*
X0207862Y0114199D01*
X0207791Y0114069D01*
X0207717Y0113941D01*
X0207640Y0113815D01*
X0207559Y0113691D01*
X0207475Y0113569D01*
X0207388Y0113450D01*
X0207297Y0113333D01*
X0207203Y0113218D01*
X0207107Y0113106D01*
X0207007Y0112996D01*
X0206905Y0112890D01*
X0206799Y0112786D01*
X0206691Y0112685D01*
X0206580Y0112587D01*
X0206467Y0112491D01*
X0206351Y0112399D01*
X0206233Y0112310D01*
X0206112Y0112225D01*
X0205989Y0112142D01*
X0205864Y0112063D01*
X0205737Y0111987D01*
X0205608Y0111915D01*
X0205477Y0111846D01*
X0205344Y0111781D01*
X0205209Y0111720D01*
X0205073Y0111662D01*
X0204936Y0111607D01*
X0204797Y0111557D01*
X0204656Y0111510D01*
X0204515Y0111467D01*
X0204372Y0111427D01*
X0204228Y0111392D01*
X0204084Y0111360D01*
X0203938Y0111333D01*
X0203792Y0111309D01*
X0203645Y0111289D01*
X0203498Y0111273D01*
X0203351Y0111261D01*
X0203203Y0111253D01*
X0203055Y0111249D01*
X0202907Y0111249D01*
X0202759Y0111253D01*
X0202611Y0111261D01*
X0202464Y0111273D01*
X0202317Y0111289D01*
X0202170Y0111309D01*
X0202024Y0111333D01*
X0201878Y0111360D01*
X0201734Y0111392D01*
X0201590Y0111427D01*
X0201447Y0111467D01*
X0201306Y0111510D01*
X0201165Y0111557D01*
X0201026Y0111607D01*
X0200889Y0111662D01*
X0200753Y0111720D01*
X0200618Y0111781D01*
X0200485Y0111846D01*
X0200354Y0111915D01*
X0200225Y0111987D01*
X0200098Y0112063D01*
X0199973Y0112142D01*
X0199850Y0112225D01*
X0199729Y0112310D01*
X0199611Y0112399D01*
X0199495Y0112491D01*
X0199382Y0112587D01*
X0199271Y0112685D01*
X0199163Y0112786D01*
X0199057Y0112890D01*
X0198955Y0112996D01*
X0198855Y0113106D01*
X0198759Y0113218D01*
X0198665Y0113333D01*
X0198574Y0113450D01*
X0198487Y0113569D01*
X0198403Y0113691D01*
X0198322Y0113815D01*
X0198245Y0113941D01*
X0198171Y0114069D01*
X0198100Y0114199D01*
X0198033Y0114331D01*
X0197970Y0114465D01*
X0197910Y0114600D01*
X0197854Y0114737D01*
X0197801Y0114876D01*
X0197753Y0115016D01*
X0197708Y0115157D01*
X0197667Y0115299D01*
X0197629Y0115442D01*
X0197596Y0115586D01*
X0197566Y0115731D01*
X0197540Y0115877D01*
X0197519Y0116023D01*
X0197501Y0116170D01*
X0197487Y0116317D01*
X0197477Y0116465D01*
X0197471Y0116613D01*
X0197469Y0116761D01*
X0349438Y0181328D02*
X0349440Y0181486D01*
X0349446Y0181644D01*
X0349456Y0181802D01*
X0349470Y0181960D01*
X0349488Y0182117D01*
X0349509Y0182274D01*
X0349535Y0182430D01*
X0349565Y0182586D01*
X0349598Y0182741D01*
X0349636Y0182894D01*
X0349677Y0183047D01*
X0349722Y0183199D01*
X0349771Y0183350D01*
X0349824Y0183499D01*
X0349880Y0183647D01*
X0349940Y0183793D01*
X0350004Y0183938D01*
X0350072Y0184081D01*
X0350143Y0184223D01*
X0350217Y0184363D01*
X0350295Y0184500D01*
X0350377Y0184636D01*
X0350461Y0184770D01*
X0350550Y0184901D01*
X0350641Y0185030D01*
X0350736Y0185157D01*
X0350833Y0185282D01*
X0350934Y0185404D01*
X0351038Y0185523D01*
X0351145Y0185640D01*
X0351255Y0185754D01*
X0351368Y0185865D01*
X0351483Y0185974D01*
X0351601Y0186079D01*
X0351722Y0186181D01*
X0351845Y0186281D01*
X0351971Y0186377D01*
X0352099Y0186470D01*
X0352229Y0186560D01*
X0352362Y0186646D01*
X0352497Y0186730D01*
X0352633Y0186809D01*
X0352772Y0186886D01*
X0352913Y0186958D01*
X0353055Y0187028D01*
X0353199Y0187093D01*
X0353345Y0187155D01*
X0353492Y0187213D01*
X0353641Y0187268D01*
X0353791Y0187319D01*
X0353942Y0187366D01*
X0354094Y0187409D01*
X0354247Y0187448D01*
X0354402Y0187484D01*
X0354557Y0187515D01*
X0354713Y0187543D01*
X0354869Y0187567D01*
X0355026Y0187587D01*
X0355184Y0187603D01*
X0355341Y0187615D01*
X0355500Y0187623D01*
X0355658Y0187627D01*
X0355816Y0187627D01*
X0355974Y0187623D01*
X0356133Y0187615D01*
X0356290Y0187603D01*
X0356448Y0187587D01*
X0356605Y0187567D01*
X0356761Y0187543D01*
X0356917Y0187515D01*
X0357072Y0187484D01*
X0357227Y0187448D01*
X0357380Y0187409D01*
X0357532Y0187366D01*
X0357683Y0187319D01*
X0357833Y0187268D01*
X0357982Y0187213D01*
X0358129Y0187155D01*
X0358275Y0187093D01*
X0358419Y0187028D01*
X0358561Y0186958D01*
X0358702Y0186886D01*
X0358841Y0186809D01*
X0358977Y0186730D01*
X0359112Y0186646D01*
X0359245Y0186560D01*
X0359375Y0186470D01*
X0359503Y0186377D01*
X0359629Y0186281D01*
X0359752Y0186181D01*
X0359873Y0186079D01*
X0359991Y0185974D01*
X0360106Y0185865D01*
X0360219Y0185754D01*
X0360329Y0185640D01*
X0360436Y0185523D01*
X0360540Y0185404D01*
X0360641Y0185282D01*
X0360738Y0185157D01*
X0360833Y0185030D01*
X0360924Y0184901D01*
X0361013Y0184770D01*
X0361097Y0184636D01*
X0361179Y0184500D01*
X0361257Y0184363D01*
X0361331Y0184223D01*
X0361402Y0184081D01*
X0361470Y0183938D01*
X0361534Y0183793D01*
X0361594Y0183647D01*
X0361650Y0183499D01*
X0361703Y0183350D01*
X0361752Y0183199D01*
X0361797Y0183047D01*
X0361838Y0182894D01*
X0361876Y0182741D01*
X0361909Y0182586D01*
X0361939Y0182430D01*
X0361965Y0182274D01*
X0361986Y0182117D01*
X0362004Y0181960D01*
X0362018Y0181802D01*
X0362028Y0181644D01*
X0362034Y0181486D01*
X0362036Y0181328D01*
X0362034Y0181170D01*
X0362028Y0181012D01*
X0362018Y0180854D01*
X0362004Y0180696D01*
X0361986Y0180539D01*
X0361965Y0180382D01*
X0361939Y0180226D01*
X0361909Y0180070D01*
X0361876Y0179915D01*
X0361838Y0179762D01*
X0361797Y0179609D01*
X0361752Y0179457D01*
X0361703Y0179306D01*
X0361650Y0179157D01*
X0361594Y0179009D01*
X0361534Y0178863D01*
X0361470Y0178718D01*
X0361402Y0178575D01*
X0361331Y0178433D01*
X0361257Y0178293D01*
X0361179Y0178156D01*
X0361097Y0178020D01*
X0361013Y0177886D01*
X0360924Y0177755D01*
X0360833Y0177626D01*
X0360738Y0177499D01*
X0360641Y0177374D01*
X0360540Y0177252D01*
X0360436Y0177133D01*
X0360329Y0177016D01*
X0360219Y0176902D01*
X0360106Y0176791D01*
X0359991Y0176682D01*
X0359873Y0176577D01*
X0359752Y0176475D01*
X0359629Y0176375D01*
X0359503Y0176279D01*
X0359375Y0176186D01*
X0359245Y0176096D01*
X0359112Y0176010D01*
X0358977Y0175926D01*
X0358841Y0175847D01*
X0358702Y0175770D01*
X0358561Y0175698D01*
X0358419Y0175628D01*
X0358275Y0175563D01*
X0358129Y0175501D01*
X0357982Y0175443D01*
X0357833Y0175388D01*
X0357683Y0175337D01*
X0357532Y0175290D01*
X0357380Y0175247D01*
X0357227Y0175208D01*
X0357072Y0175172D01*
X0356917Y0175141D01*
X0356761Y0175113D01*
X0356605Y0175089D01*
X0356448Y0175069D01*
X0356290Y0175053D01*
X0356133Y0175041D01*
X0355974Y0175033D01*
X0355816Y0175029D01*
X0355658Y0175029D01*
X0355500Y0175033D01*
X0355341Y0175041D01*
X0355184Y0175053D01*
X0355026Y0175069D01*
X0354869Y0175089D01*
X0354713Y0175113D01*
X0354557Y0175141D01*
X0354402Y0175172D01*
X0354247Y0175208D01*
X0354094Y0175247D01*
X0353942Y0175290D01*
X0353791Y0175337D01*
X0353641Y0175388D01*
X0353492Y0175443D01*
X0353345Y0175501D01*
X0353199Y0175563D01*
X0353055Y0175628D01*
X0352913Y0175698D01*
X0352772Y0175770D01*
X0352633Y0175847D01*
X0352497Y0175926D01*
X0352362Y0176010D01*
X0352229Y0176096D01*
X0352099Y0176186D01*
X0351971Y0176279D01*
X0351845Y0176375D01*
X0351722Y0176475D01*
X0351601Y0176577D01*
X0351483Y0176682D01*
X0351368Y0176791D01*
X0351255Y0176902D01*
X0351145Y0177016D01*
X0351038Y0177133D01*
X0350934Y0177252D01*
X0350833Y0177374D01*
X0350736Y0177499D01*
X0350641Y0177626D01*
X0350550Y0177755D01*
X0350461Y0177886D01*
X0350377Y0178020D01*
X0350295Y0178156D01*
X0350217Y0178293D01*
X0350143Y0178433D01*
X0350072Y0178575D01*
X0350004Y0178718D01*
X0349940Y0178863D01*
X0349880Y0179009D01*
X0349824Y0179157D01*
X0349771Y0179306D01*
X0349722Y0179457D01*
X0349677Y0179609D01*
X0349636Y0179762D01*
X0349598Y0179915D01*
X0349565Y0180070D01*
X0349535Y0180226D01*
X0349509Y0180382D01*
X0349488Y0180539D01*
X0349470Y0180696D01*
X0349456Y0180854D01*
X0349446Y0181012D01*
X0349440Y0181170D01*
X0349438Y0181328D01*
X0349438Y0023847D02*
X0349440Y0024005D01*
X0349446Y0024163D01*
X0349456Y0024321D01*
X0349470Y0024479D01*
X0349488Y0024636D01*
X0349509Y0024793D01*
X0349535Y0024949D01*
X0349565Y0025105D01*
X0349598Y0025260D01*
X0349636Y0025413D01*
X0349677Y0025566D01*
X0349722Y0025718D01*
X0349771Y0025869D01*
X0349824Y0026018D01*
X0349880Y0026166D01*
X0349940Y0026312D01*
X0350004Y0026457D01*
X0350072Y0026600D01*
X0350143Y0026742D01*
X0350217Y0026882D01*
X0350295Y0027019D01*
X0350377Y0027155D01*
X0350461Y0027289D01*
X0350550Y0027420D01*
X0350641Y0027549D01*
X0350736Y0027676D01*
X0350833Y0027801D01*
X0350934Y0027923D01*
X0351038Y0028042D01*
X0351145Y0028159D01*
X0351255Y0028273D01*
X0351368Y0028384D01*
X0351483Y0028493D01*
X0351601Y0028598D01*
X0351722Y0028700D01*
X0351845Y0028800D01*
X0351971Y0028896D01*
X0352099Y0028989D01*
X0352229Y0029079D01*
X0352362Y0029165D01*
X0352497Y0029249D01*
X0352633Y0029328D01*
X0352772Y0029405D01*
X0352913Y0029477D01*
X0353055Y0029547D01*
X0353199Y0029612D01*
X0353345Y0029674D01*
X0353492Y0029732D01*
X0353641Y0029787D01*
X0353791Y0029838D01*
X0353942Y0029885D01*
X0354094Y0029928D01*
X0354247Y0029967D01*
X0354402Y0030003D01*
X0354557Y0030034D01*
X0354713Y0030062D01*
X0354869Y0030086D01*
X0355026Y0030106D01*
X0355184Y0030122D01*
X0355341Y0030134D01*
X0355500Y0030142D01*
X0355658Y0030146D01*
X0355816Y0030146D01*
X0355974Y0030142D01*
X0356133Y0030134D01*
X0356290Y0030122D01*
X0356448Y0030106D01*
X0356605Y0030086D01*
X0356761Y0030062D01*
X0356917Y0030034D01*
X0357072Y0030003D01*
X0357227Y0029967D01*
X0357380Y0029928D01*
X0357532Y0029885D01*
X0357683Y0029838D01*
X0357833Y0029787D01*
X0357982Y0029732D01*
X0358129Y0029674D01*
X0358275Y0029612D01*
X0358419Y0029547D01*
X0358561Y0029477D01*
X0358702Y0029405D01*
X0358841Y0029328D01*
X0358977Y0029249D01*
X0359112Y0029165D01*
X0359245Y0029079D01*
X0359375Y0028989D01*
X0359503Y0028896D01*
X0359629Y0028800D01*
X0359752Y0028700D01*
X0359873Y0028598D01*
X0359991Y0028493D01*
X0360106Y0028384D01*
X0360219Y0028273D01*
X0360329Y0028159D01*
X0360436Y0028042D01*
X0360540Y0027923D01*
X0360641Y0027801D01*
X0360738Y0027676D01*
X0360833Y0027549D01*
X0360924Y0027420D01*
X0361013Y0027289D01*
X0361097Y0027155D01*
X0361179Y0027019D01*
X0361257Y0026882D01*
X0361331Y0026742D01*
X0361402Y0026600D01*
X0361470Y0026457D01*
X0361534Y0026312D01*
X0361594Y0026166D01*
X0361650Y0026018D01*
X0361703Y0025869D01*
X0361752Y0025718D01*
X0361797Y0025566D01*
X0361838Y0025413D01*
X0361876Y0025260D01*
X0361909Y0025105D01*
X0361939Y0024949D01*
X0361965Y0024793D01*
X0361986Y0024636D01*
X0362004Y0024479D01*
X0362018Y0024321D01*
X0362028Y0024163D01*
X0362034Y0024005D01*
X0362036Y0023847D01*
X0362034Y0023689D01*
X0362028Y0023531D01*
X0362018Y0023373D01*
X0362004Y0023215D01*
X0361986Y0023058D01*
X0361965Y0022901D01*
X0361939Y0022745D01*
X0361909Y0022589D01*
X0361876Y0022434D01*
X0361838Y0022281D01*
X0361797Y0022128D01*
X0361752Y0021976D01*
X0361703Y0021825D01*
X0361650Y0021676D01*
X0361594Y0021528D01*
X0361534Y0021382D01*
X0361470Y0021237D01*
X0361402Y0021094D01*
X0361331Y0020952D01*
X0361257Y0020812D01*
X0361179Y0020675D01*
X0361097Y0020539D01*
X0361013Y0020405D01*
X0360924Y0020274D01*
X0360833Y0020145D01*
X0360738Y0020018D01*
X0360641Y0019893D01*
X0360540Y0019771D01*
X0360436Y0019652D01*
X0360329Y0019535D01*
X0360219Y0019421D01*
X0360106Y0019310D01*
X0359991Y0019201D01*
X0359873Y0019096D01*
X0359752Y0018994D01*
X0359629Y0018894D01*
X0359503Y0018798D01*
X0359375Y0018705D01*
X0359245Y0018615D01*
X0359112Y0018529D01*
X0358977Y0018445D01*
X0358841Y0018366D01*
X0358702Y0018289D01*
X0358561Y0018217D01*
X0358419Y0018147D01*
X0358275Y0018082D01*
X0358129Y0018020D01*
X0357982Y0017962D01*
X0357833Y0017907D01*
X0357683Y0017856D01*
X0357532Y0017809D01*
X0357380Y0017766D01*
X0357227Y0017727D01*
X0357072Y0017691D01*
X0356917Y0017660D01*
X0356761Y0017632D01*
X0356605Y0017608D01*
X0356448Y0017588D01*
X0356290Y0017572D01*
X0356133Y0017560D01*
X0355974Y0017552D01*
X0355816Y0017548D01*
X0355658Y0017548D01*
X0355500Y0017552D01*
X0355341Y0017560D01*
X0355184Y0017572D01*
X0355026Y0017588D01*
X0354869Y0017608D01*
X0354713Y0017632D01*
X0354557Y0017660D01*
X0354402Y0017691D01*
X0354247Y0017727D01*
X0354094Y0017766D01*
X0353942Y0017809D01*
X0353791Y0017856D01*
X0353641Y0017907D01*
X0353492Y0017962D01*
X0353345Y0018020D01*
X0353199Y0018082D01*
X0353055Y0018147D01*
X0352913Y0018217D01*
X0352772Y0018289D01*
X0352633Y0018366D01*
X0352497Y0018445D01*
X0352362Y0018529D01*
X0352229Y0018615D01*
X0352099Y0018705D01*
X0351971Y0018798D01*
X0351845Y0018894D01*
X0351722Y0018994D01*
X0351601Y0019096D01*
X0351483Y0019201D01*
X0351368Y0019310D01*
X0351255Y0019421D01*
X0351145Y0019535D01*
X0351038Y0019652D01*
X0350934Y0019771D01*
X0350833Y0019893D01*
X0350736Y0020018D01*
X0350641Y0020145D01*
X0350550Y0020274D01*
X0350461Y0020405D01*
X0350377Y0020539D01*
X0350295Y0020675D01*
X0350217Y0020812D01*
X0350143Y0020952D01*
X0350072Y0021094D01*
X0350004Y0021237D01*
X0349940Y0021382D01*
X0349880Y0021528D01*
X0349824Y0021676D01*
X0349771Y0021825D01*
X0349722Y0021976D01*
X0349677Y0022128D01*
X0349636Y0022281D01*
X0349598Y0022434D01*
X0349565Y0022589D01*
X0349535Y0022745D01*
X0349509Y0022901D01*
X0349488Y0023058D01*
X0349470Y0023215D01*
X0349456Y0023373D01*
X0349446Y0023531D01*
X0349440Y0023689D01*
X0349438Y0023847D01*
X0014792Y0181328D02*
X0014794Y0181486D01*
X0014800Y0181644D01*
X0014810Y0181802D01*
X0014824Y0181960D01*
X0014842Y0182117D01*
X0014863Y0182274D01*
X0014889Y0182430D01*
X0014919Y0182586D01*
X0014952Y0182741D01*
X0014990Y0182894D01*
X0015031Y0183047D01*
X0015076Y0183199D01*
X0015125Y0183350D01*
X0015178Y0183499D01*
X0015234Y0183647D01*
X0015294Y0183793D01*
X0015358Y0183938D01*
X0015426Y0184081D01*
X0015497Y0184223D01*
X0015571Y0184363D01*
X0015649Y0184500D01*
X0015731Y0184636D01*
X0015815Y0184770D01*
X0015904Y0184901D01*
X0015995Y0185030D01*
X0016090Y0185157D01*
X0016187Y0185282D01*
X0016288Y0185404D01*
X0016392Y0185523D01*
X0016499Y0185640D01*
X0016609Y0185754D01*
X0016722Y0185865D01*
X0016837Y0185974D01*
X0016955Y0186079D01*
X0017076Y0186181D01*
X0017199Y0186281D01*
X0017325Y0186377D01*
X0017453Y0186470D01*
X0017583Y0186560D01*
X0017716Y0186646D01*
X0017851Y0186730D01*
X0017987Y0186809D01*
X0018126Y0186886D01*
X0018267Y0186958D01*
X0018409Y0187028D01*
X0018553Y0187093D01*
X0018699Y0187155D01*
X0018846Y0187213D01*
X0018995Y0187268D01*
X0019145Y0187319D01*
X0019296Y0187366D01*
X0019448Y0187409D01*
X0019601Y0187448D01*
X0019756Y0187484D01*
X0019911Y0187515D01*
X0020067Y0187543D01*
X0020223Y0187567D01*
X0020380Y0187587D01*
X0020538Y0187603D01*
X0020695Y0187615D01*
X0020854Y0187623D01*
X0021012Y0187627D01*
X0021170Y0187627D01*
X0021328Y0187623D01*
X0021487Y0187615D01*
X0021644Y0187603D01*
X0021802Y0187587D01*
X0021959Y0187567D01*
X0022115Y0187543D01*
X0022271Y0187515D01*
X0022426Y0187484D01*
X0022581Y0187448D01*
X0022734Y0187409D01*
X0022886Y0187366D01*
X0023037Y0187319D01*
X0023187Y0187268D01*
X0023336Y0187213D01*
X0023483Y0187155D01*
X0023629Y0187093D01*
X0023773Y0187028D01*
X0023915Y0186958D01*
X0024056Y0186886D01*
X0024195Y0186809D01*
X0024331Y0186730D01*
X0024466Y0186646D01*
X0024599Y0186560D01*
X0024729Y0186470D01*
X0024857Y0186377D01*
X0024983Y0186281D01*
X0025106Y0186181D01*
X0025227Y0186079D01*
X0025345Y0185974D01*
X0025460Y0185865D01*
X0025573Y0185754D01*
X0025683Y0185640D01*
X0025790Y0185523D01*
X0025894Y0185404D01*
X0025995Y0185282D01*
X0026092Y0185157D01*
X0026187Y0185030D01*
X0026278Y0184901D01*
X0026367Y0184770D01*
X0026451Y0184636D01*
X0026533Y0184500D01*
X0026611Y0184363D01*
X0026685Y0184223D01*
X0026756Y0184081D01*
X0026824Y0183938D01*
X0026888Y0183793D01*
X0026948Y0183647D01*
X0027004Y0183499D01*
X0027057Y0183350D01*
X0027106Y0183199D01*
X0027151Y0183047D01*
X0027192Y0182894D01*
X0027230Y0182741D01*
X0027263Y0182586D01*
X0027293Y0182430D01*
X0027319Y0182274D01*
X0027340Y0182117D01*
X0027358Y0181960D01*
X0027372Y0181802D01*
X0027382Y0181644D01*
X0027388Y0181486D01*
X0027390Y0181328D01*
X0027388Y0181170D01*
X0027382Y0181012D01*
X0027372Y0180854D01*
X0027358Y0180696D01*
X0027340Y0180539D01*
X0027319Y0180382D01*
X0027293Y0180226D01*
X0027263Y0180070D01*
X0027230Y0179915D01*
X0027192Y0179762D01*
X0027151Y0179609D01*
X0027106Y0179457D01*
X0027057Y0179306D01*
X0027004Y0179157D01*
X0026948Y0179009D01*
X0026888Y0178863D01*
X0026824Y0178718D01*
X0026756Y0178575D01*
X0026685Y0178433D01*
X0026611Y0178293D01*
X0026533Y0178156D01*
X0026451Y0178020D01*
X0026367Y0177886D01*
X0026278Y0177755D01*
X0026187Y0177626D01*
X0026092Y0177499D01*
X0025995Y0177374D01*
X0025894Y0177252D01*
X0025790Y0177133D01*
X0025683Y0177016D01*
X0025573Y0176902D01*
X0025460Y0176791D01*
X0025345Y0176682D01*
X0025227Y0176577D01*
X0025106Y0176475D01*
X0024983Y0176375D01*
X0024857Y0176279D01*
X0024729Y0176186D01*
X0024599Y0176096D01*
X0024466Y0176010D01*
X0024331Y0175926D01*
X0024195Y0175847D01*
X0024056Y0175770D01*
X0023915Y0175698D01*
X0023773Y0175628D01*
X0023629Y0175563D01*
X0023483Y0175501D01*
X0023336Y0175443D01*
X0023187Y0175388D01*
X0023037Y0175337D01*
X0022886Y0175290D01*
X0022734Y0175247D01*
X0022581Y0175208D01*
X0022426Y0175172D01*
X0022271Y0175141D01*
X0022115Y0175113D01*
X0021959Y0175089D01*
X0021802Y0175069D01*
X0021644Y0175053D01*
X0021487Y0175041D01*
X0021328Y0175033D01*
X0021170Y0175029D01*
X0021012Y0175029D01*
X0020854Y0175033D01*
X0020695Y0175041D01*
X0020538Y0175053D01*
X0020380Y0175069D01*
X0020223Y0175089D01*
X0020067Y0175113D01*
X0019911Y0175141D01*
X0019756Y0175172D01*
X0019601Y0175208D01*
X0019448Y0175247D01*
X0019296Y0175290D01*
X0019145Y0175337D01*
X0018995Y0175388D01*
X0018846Y0175443D01*
X0018699Y0175501D01*
X0018553Y0175563D01*
X0018409Y0175628D01*
X0018267Y0175698D01*
X0018126Y0175770D01*
X0017987Y0175847D01*
X0017851Y0175926D01*
X0017716Y0176010D01*
X0017583Y0176096D01*
X0017453Y0176186D01*
X0017325Y0176279D01*
X0017199Y0176375D01*
X0017076Y0176475D01*
X0016955Y0176577D01*
X0016837Y0176682D01*
X0016722Y0176791D01*
X0016609Y0176902D01*
X0016499Y0177016D01*
X0016392Y0177133D01*
X0016288Y0177252D01*
X0016187Y0177374D01*
X0016090Y0177499D01*
X0015995Y0177626D01*
X0015904Y0177755D01*
X0015815Y0177886D01*
X0015731Y0178020D01*
X0015649Y0178156D01*
X0015571Y0178293D01*
X0015497Y0178433D01*
X0015426Y0178575D01*
X0015358Y0178718D01*
X0015294Y0178863D01*
X0015234Y0179009D01*
X0015178Y0179157D01*
X0015125Y0179306D01*
X0015076Y0179457D01*
X0015031Y0179609D01*
X0014990Y0179762D01*
X0014952Y0179915D01*
X0014919Y0180070D01*
X0014889Y0180226D01*
X0014863Y0180382D01*
X0014842Y0180539D01*
X0014824Y0180696D01*
X0014810Y0180854D01*
X0014800Y0181012D01*
X0014794Y0181170D01*
X0014792Y0181328D01*
M02*
