%
M48
M72
T01C0.01575
T02C0.01969
T03C0.02362
T04C0.03200
T05C0.04000
T06C0.11024
T07C0.12598
%
T01
X276997Y54950
X245107Y183296
T02
X86446Y73847
X82902Y62430
T03
X102272Y134123
X102272Y140028
T04
X37587Y138414
X27587Y138414
X27194Y112824
X37194Y112824
X37194Y86839
X27194Y86839
X27194Y60855
X37194Y60855
X37194Y34477
X27194Y34477
X128009Y17391
X147009Y17391
T05
X104280Y23572
X104280Y33572
X104280Y43572
X177824Y66209
X187824Y66209
X187824Y76209
X177824Y76209
X177824Y86209
X187824Y86209
X162706Y108020
X162706Y118020
X143060Y117981
X143060Y107981
X296800Y107272
X296800Y97272
X296800Y87272
X296800Y77272
X296800Y67272
X296800Y117272
X296800Y127272
X296800Y137272
T06
X202981Y116761
T07
X21091Y23847
X21091Y181328
X355737Y181328
X355737Y23847
M30
