G75*
%MOIN*%
%OFA0B0*%
%FSLAX25Y25*%
%IPPOS*%
%LPD*%
%AMOC8*
5,1,8,0,0,1.08239X$1,22.5*
%
%ADD10C,0.05200*%
%ADD11C,0.06000*%
%ADD12OC8,0.05200*%
%ADD13OC8,0.06000*%
%ADD14R,0.02200X0.05000*%
%ADD15R,0.05000X0.02200*%
%ADD16R,0.06299X0.07874*%
%ADD17R,0.07874X0.06299*%
%ADD18R,0.11811X0.06299*%
%ADD19R,0.02913X0.03642*%
%ADD20R,0.03642X0.02913*%
%ADD21C,0.04362*%
%ADD22R,0.03937X0.07874*%
%ADD23R,0.05512X0.03937*%
%ADD24R,0.07900X0.05900*%
%ADD25R,0.07900X0.15000*%
%ADD26R,0.03150X0.03150*%
%ADD27R,0.09449X0.07087*%
%ADD28R,0.06600X0.03200*%
%ADD29C,0.01600*%
%ADD30C,0.03569*%
%ADD31C,0.03175*%
D10*
X0128009Y0017391D03*
X0147009Y0017391D03*
D11*
X0107280Y0023572D02*
X0101280Y0023572D01*
X0101280Y0033572D02*
X0107280Y0033572D01*
X0107280Y0043572D02*
X0101280Y0043572D01*
X0140060Y0107981D02*
X0146060Y0107981D01*
X0159706Y0108020D02*
X0165706Y0108020D01*
X0165706Y0118020D02*
X0159706Y0118020D01*
X0146060Y0117981D02*
X0140060Y0117981D01*
X0293800Y0117272D02*
X0299800Y0117272D01*
X0299800Y0107272D02*
X0293800Y0107272D01*
X0293800Y0097272D02*
X0299800Y0097272D01*
X0299800Y0087272D02*
X0293800Y0087272D01*
X0293800Y0077272D02*
X0299800Y0077272D01*
X0299800Y0067272D02*
X0293800Y0067272D01*
X0293800Y0127272D02*
X0299800Y0127272D01*
X0299800Y0137272D02*
X0293800Y0137272D01*
D12*
X0037587Y0138414D03*
X0027587Y0138414D03*
X0027194Y0112824D03*
X0037194Y0112824D03*
X0037194Y0086839D03*
X0027194Y0086839D03*
X0027194Y0060855D03*
X0037194Y0060855D03*
X0037194Y0034477D03*
X0027194Y0034477D03*
D13*
X0177824Y0066209D03*
X0187824Y0066209D03*
X0187824Y0076209D03*
X0177824Y0076209D03*
X0177824Y0086209D03*
X0187824Y0086209D03*
D14*
X0149674Y0081456D03*
X0146524Y0081456D03*
X0143375Y0081456D03*
X0140225Y0081456D03*
X0137076Y0081456D03*
X0133926Y0081456D03*
X0130776Y0081456D03*
X0127627Y0081456D03*
X0127627Y0047656D03*
X0130776Y0047656D03*
X0133926Y0047656D03*
X0137076Y0047656D03*
X0140225Y0047656D03*
X0143375Y0047656D03*
X0146524Y0047656D03*
X0149674Y0047656D03*
D15*
X0155550Y0053532D03*
X0155550Y0056682D03*
X0155550Y0059831D03*
X0155550Y0062981D03*
X0155550Y0066131D03*
X0155550Y0069280D03*
X0155550Y0072430D03*
X0155550Y0075580D03*
X0121750Y0075580D03*
X0121750Y0072430D03*
X0121750Y0069280D03*
X0121750Y0066131D03*
X0121750Y0062981D03*
X0121750Y0059831D03*
X0121750Y0056682D03*
X0121750Y0053532D03*
D16*
X0065265Y0034398D03*
X0054241Y0034398D03*
X0053729Y0060934D03*
X0064753Y0060934D03*
X0065146Y0086997D03*
X0054123Y0086997D03*
X0054123Y0113060D03*
X0065146Y0113060D03*
X0108493Y0118335D03*
X0119517Y0118335D03*
X0064753Y0138729D03*
X0053729Y0138729D03*
X0199792Y0076682D03*
X0210816Y0076682D03*
X0210776Y0059831D03*
X0199753Y0059831D03*
X0196643Y0037076D03*
X0207666Y0037076D03*
X0207076Y0024792D03*
X0196052Y0024792D03*
X0259241Y0133847D03*
X0270265Y0133847D03*
X0261367Y0159162D03*
X0250343Y0159162D03*
X0250580Y0171957D03*
X0261603Y0171957D03*
X0318729Y0173454D03*
X0329753Y0173454D03*
D17*
X0275304Y0155501D03*
X0275304Y0144477D03*
X0096682Y0073808D03*
X0096682Y0062784D03*
D18*
X0220540Y0108178D03*
X0237863Y0108178D03*
X0255028Y0108178D03*
X0272351Y0108178D03*
X0259753Y0054831D03*
X0242430Y0054831D03*
X0241957Y0025540D03*
X0259280Y0025540D03*
D19*
X0148611Y0031800D03*
X0142312Y0031800D03*
X0142312Y0036524D03*
X0148611Y0036524D03*
D20*
X0141091Y0095461D03*
X0136367Y0095461D03*
D21*
X0104454Y0134123D02*
X0100091Y0134123D01*
X0100091Y0140028D02*
X0104454Y0140028D01*
D22*
X0152942Y0131839D03*
X0158847Y0131839D03*
X0217902Y0131839D03*
X0223808Y0131839D03*
X0223808Y0183060D03*
X0170658Y0183020D03*
X0164753Y0183020D03*
X0152942Y0183020D03*
D23*
X0291524Y0156209D03*
X0300973Y0152469D03*
X0291524Y0148729D03*
D24*
X0224124Y0087550D03*
X0224124Y0078550D03*
X0224124Y0069550D03*
D25*
X0248924Y0078650D03*
D26*
X0323650Y0161643D03*
X0329556Y0161643D03*
D27*
X0289595Y0165087D03*
X0275422Y0165087D03*
X0275422Y0181032D03*
X0289595Y0181032D03*
D28*
X0126209Y0101406D03*
X0097863Y0101406D03*
D29*
X0006120Y0008923D02*
X0005820Y0196213D01*
X0163973Y0196213D01*
X0160059Y0192299D01*
X0159216Y0190264D01*
X0159216Y0190088D01*
X0158847Y0189720D01*
X0157594Y0190973D01*
X0155852Y0191694D01*
X0150031Y0191694D01*
X0148290Y0190973D01*
X0146957Y0189641D01*
X0146236Y0187900D01*
X0146236Y0184145D01*
X0114822Y0152732D01*
X0113980Y0150697D01*
X0113980Y0148494D01*
X0113980Y0126411D01*
X0113684Y0126288D01*
X0112351Y0124956D01*
X0111975Y0124047D01*
X0111879Y0124072D01*
X0109268Y0124072D01*
X0109268Y0119110D01*
X0107718Y0119110D01*
X0107718Y0117561D01*
X0103543Y0117561D01*
X0103543Y0114161D01*
X0103666Y0113704D01*
X0103903Y0113293D01*
X0104238Y0112958D01*
X0104649Y0112721D01*
X0105106Y0112598D01*
X0107718Y0112598D01*
X0107718Y0117561D01*
X0109268Y0117561D01*
X0109268Y0113161D01*
X0103339Y0107232D01*
X0102105Y0107743D01*
X0093621Y0107743D01*
X0091880Y0107022D01*
X0090547Y0105690D01*
X0089826Y0103949D01*
X0089826Y0098864D01*
X0090230Y0097888D01*
X0087558Y0097888D01*
X0078991Y0106456D01*
X0078991Y0131130D01*
X0078148Y0133165D01*
X0072639Y0138673D01*
X0072639Y0143608D01*
X0071918Y0145349D01*
X0070586Y0146682D01*
X0068845Y0147403D01*
X0060661Y0147403D01*
X0059241Y0146815D01*
X0057821Y0147403D01*
X0049637Y0147403D01*
X0047896Y0146682D01*
X0046564Y0145349D01*
X0046115Y0144266D01*
X0042112Y0144266D01*
X0040626Y0145751D01*
X0034548Y0145751D01*
X0030511Y0141713D01*
X0029410Y0142814D01*
X0027587Y0142814D01*
X0025765Y0142814D01*
X0023187Y0140237D01*
X0023187Y0138414D01*
X0023187Y0136592D01*
X0025765Y0134014D01*
X0027587Y0134014D01*
X0027587Y0138414D01*
X0023187Y0138414D01*
X0027587Y0138414D01*
X0027587Y0138414D01*
X0027587Y0138414D01*
X0027587Y0113217D01*
X0027194Y0112824D01*
X0027194Y0112824D01*
X0027194Y0117224D01*
X0029016Y0117224D01*
X0030117Y0116123D01*
X0034155Y0120161D01*
X0040233Y0120161D01*
X0041797Y0118597D01*
X0046509Y0118597D01*
X0046957Y0119680D01*
X0048290Y0121013D01*
X0050031Y0121734D01*
X0058215Y0121734D01*
X0059635Y0121146D01*
X0061055Y0121734D01*
X0067917Y0121734D01*
X0067917Y0127735D01*
X0065596Y0130055D01*
X0060661Y0130055D01*
X0059241Y0130643D01*
X0057821Y0130055D01*
X0049637Y0130055D01*
X0047896Y0130776D01*
X0046564Y0132109D01*
X0046115Y0133192D01*
X0042741Y0133192D01*
X0040626Y0131077D01*
X0034548Y0131077D01*
X0030511Y0135115D01*
X0029410Y0134014D01*
X0027587Y0134014D01*
X0027587Y0138414D01*
X0037036Y0147863D01*
X0068729Y0147863D01*
X0098257Y0118335D01*
X0108493Y0118335D01*
X0107718Y0117657D02*
X0078991Y0117657D01*
X0078991Y0119255D02*
X0103543Y0119255D01*
X0103543Y0119110D02*
X0107718Y0119110D01*
X0107718Y0124072D01*
X0105106Y0124072D01*
X0104649Y0123950D01*
X0104238Y0123713D01*
X0103903Y0123378D01*
X0103666Y0122967D01*
X0103543Y0122509D01*
X0103543Y0119110D01*
X0103543Y0120854D02*
X0078991Y0120854D01*
X0078991Y0122452D02*
X0103543Y0122452D01*
X0105025Y0124051D02*
X0078991Y0124051D01*
X0078991Y0125649D02*
X0113044Y0125649D01*
X0113980Y0127248D02*
X0105933Y0127248D01*
X0105830Y0127205D02*
X0108372Y0128258D01*
X0110318Y0130204D01*
X0111372Y0132747D01*
X0111372Y0135499D01*
X0110719Y0137076D01*
X0111372Y0138652D01*
X0111372Y0141404D01*
X0110318Y0143947D01*
X0108372Y0145893D01*
X0105830Y0146946D01*
X0098715Y0146946D01*
X0096173Y0145893D01*
X0094226Y0143947D01*
X0093173Y0141404D01*
X0093173Y0138652D01*
X0093826Y0137076D01*
X0093173Y0135499D01*
X0093173Y0132747D01*
X0094226Y0130204D01*
X0096173Y0128258D01*
X0098715Y0127205D01*
X0105830Y0127205D01*
X0108960Y0128846D02*
X0113980Y0128846D01*
X0113980Y0130445D02*
X0110418Y0130445D01*
X0111080Y0132043D02*
X0113980Y0132043D01*
X0113980Y0133642D02*
X0111372Y0133642D01*
X0111372Y0135240D02*
X0113980Y0135240D01*
X0113980Y0136839D02*
X0110817Y0136839D01*
X0111283Y0138437D02*
X0113980Y0138437D01*
X0113980Y0140036D02*
X0111372Y0140036D01*
X0111276Y0141634D02*
X0113980Y0141634D01*
X0113980Y0143233D02*
X0110614Y0143233D01*
X0109434Y0144831D02*
X0113980Y0144831D01*
X0113980Y0146430D02*
X0107077Y0146430D01*
X0113980Y0148028D02*
X0005897Y0148028D01*
X0005900Y0146430D02*
X0047644Y0146430D01*
X0046349Y0144831D02*
X0041546Y0144831D01*
X0037902Y0138729D02*
X0037587Y0138414D01*
X0037902Y0138729D02*
X0053729Y0138729D01*
X0064753Y0138729D02*
X0073454Y0130028D01*
X0073454Y0104162D01*
X0085265Y0092351D01*
X0108493Y0092351D01*
X0119388Y0081456D01*
X0127627Y0081456D01*
X0130776Y0081456D02*
X0130776Y0085028D01*
X0119517Y0096288D01*
X0119517Y0105343D01*
X0126997Y0112824D01*
X0126997Y0133296D01*
X0152981Y0159280D01*
X0250225Y0159280D01*
X0250343Y0159162D01*
X0250343Y0122154D01*
X0256131Y0116367D01*
X0264162Y0116367D01*
X0272351Y0108178D01*
X0272295Y0116065D02*
X0267299Y0121061D01*
X0265264Y0121904D01*
X0258424Y0121904D01*
X0255880Y0124448D01*
X0255880Y0125173D01*
X0263333Y0125173D01*
X0265074Y0125894D01*
X0266406Y0127227D01*
X0266783Y0128136D01*
X0266878Y0128110D01*
X0269490Y0128110D01*
X0269490Y0133072D01*
X0271039Y0133072D01*
X0271039Y0128110D01*
X0273651Y0128110D01*
X0274109Y0128233D01*
X0274519Y0128470D01*
X0274855Y0128805D01*
X0275091Y0129215D01*
X0275214Y0129673D01*
X0275214Y0133072D01*
X0271039Y0133072D01*
X0271039Y0134622D01*
X0275214Y0134622D01*
X0275214Y0136591D01*
X0280183Y0136591D01*
X0281924Y0137312D01*
X0283257Y0138644D01*
X0283978Y0140385D01*
X0283978Y0143077D01*
X0287065Y0146164D01*
X0287091Y0146066D01*
X0287328Y0145655D01*
X0287663Y0145320D01*
X0288074Y0145083D01*
X0288532Y0144961D01*
X0291340Y0144961D01*
X0291340Y0148545D01*
X0291709Y0148545D01*
X0291709Y0144961D01*
X0294517Y0144961D01*
X0294975Y0145083D01*
X0295386Y0145320D01*
X0295721Y0145655D01*
X0295958Y0146066D01*
X0296016Y0146285D01*
X0297275Y0145764D01*
X0304671Y0145764D01*
X0306412Y0146485D01*
X0306860Y0146932D01*
X0315579Y0146932D01*
X0317614Y0147775D01*
X0325169Y0155331D01*
X0326167Y0155331D01*
X0326603Y0155511D01*
X0327039Y0155331D01*
X0332073Y0155331D01*
X0332090Y0155338D01*
X0332090Y0146219D01*
X0318798Y0132928D01*
X0305087Y0132928D01*
X0304183Y0133832D01*
X0303451Y0134135D01*
X0303461Y0134145D01*
X0303905Y0134757D01*
X0304248Y0135430D01*
X0304482Y0136148D01*
X0304600Y0136895D01*
X0304600Y0137072D01*
X0297000Y0137072D01*
X0297000Y0137472D01*
X0304600Y0137472D01*
X0304600Y0137650D01*
X0304482Y0138396D01*
X0304248Y0139115D01*
X0303905Y0139788D01*
X0303461Y0140399D01*
X0302927Y0140934D01*
X0302316Y0141378D01*
X0301643Y0141721D01*
X0300924Y0141954D01*
X0300178Y0142072D01*
X0297000Y0142072D01*
X0297000Y0137473D01*
X0296600Y0137473D01*
X0296600Y0142072D01*
X0293422Y0142072D01*
X0292676Y0141954D01*
X0291957Y0141721D01*
X0291284Y0141378D01*
X0290673Y0140934D01*
X0290139Y0140399D01*
X0289695Y0139788D01*
X0289352Y0139115D01*
X0289118Y0138396D01*
X0289000Y0137650D01*
X0289000Y0137472D01*
X0296600Y0137472D01*
X0296600Y0137072D01*
X0289000Y0137072D01*
X0289000Y0136895D01*
X0289118Y0136148D01*
X0289352Y0135430D01*
X0289695Y0134757D01*
X0290139Y0134145D01*
X0290149Y0134135D01*
X0289417Y0133832D01*
X0287241Y0131655D01*
X0286622Y0130161D01*
X0286476Y0130015D01*
X0282145Y0125684D01*
X0281302Y0123649D01*
X0281302Y0114981D01*
X0280940Y0115343D01*
X0279199Y0116065D01*
X0272295Y0116065D01*
X0270703Y0117657D02*
X0281302Y0117657D01*
X0281302Y0119255D02*
X0269105Y0119255D01*
X0267506Y0120854D02*
X0281302Y0120854D01*
X0281302Y0122452D02*
X0257876Y0122452D01*
X0256278Y0124051D02*
X0281469Y0124051D01*
X0282131Y0125649D02*
X0264482Y0125649D01*
X0266415Y0127248D02*
X0283708Y0127248D01*
X0285307Y0128846D02*
X0274878Y0128846D01*
X0275214Y0130445D02*
X0286739Y0130445D01*
X0287629Y0132043D02*
X0275214Y0132043D01*
X0271039Y0132043D02*
X0269490Y0132043D01*
X0269490Y0130445D02*
X0271039Y0130445D01*
X0271039Y0128846D02*
X0269490Y0128846D01*
X0271039Y0133642D02*
X0289227Y0133642D01*
X0289448Y0135240D02*
X0275214Y0135240D01*
X0273690Y0137272D02*
X0270265Y0133847D01*
X0282902Y0121209D01*
X0282902Y0103375D01*
X0277784Y0098257D01*
X0264005Y0098257D01*
X0256131Y0106131D01*
X0256131Y0109280D01*
X0255028Y0108178D01*
X0243532Y0119674D01*
X0243532Y0140776D01*
X0236446Y0147863D01*
X0219517Y0147863D01*
X0211643Y0139989D01*
X0211643Y0122666D01*
X0223335Y0110973D01*
X0220540Y0108178D01*
X0220540Y0097627D01*
X0223847Y0094320D01*
X0223847Y0087828D01*
X0224124Y0087550D01*
X0224799Y0087285D02*
X0231816Y0087285D01*
X0232090Y0087558D02*
X0230256Y0085724D01*
X0229874Y0085882D01*
X0229874Y0086875D01*
X0224799Y0086875D01*
X0224799Y0088225D01*
X0223449Y0088225D01*
X0223449Y0092300D01*
X0219937Y0092300D01*
X0219480Y0092178D01*
X0219069Y0091941D01*
X0218734Y0091606D01*
X0218701Y0091548D01*
X0203801Y0106449D01*
X0204339Y0106449D01*
X0206961Y0107152D01*
X0209313Y0108509D01*
X0211233Y0110429D01*
X0212590Y0112780D01*
X0213293Y0115403D01*
X0213293Y0118118D01*
X0212590Y0120741D01*
X0211233Y0123092D01*
X0209313Y0125012D01*
X0206961Y0126370D01*
X0204339Y0127072D01*
X0201624Y0127072D01*
X0199001Y0126370D01*
X0196649Y0125012D01*
X0194730Y0123092D01*
X0193372Y0120741D01*
X0192669Y0118118D01*
X0192669Y0117580D01*
X0166354Y0143896D01*
X0164319Y0144739D01*
X0146368Y0144739D01*
X0146201Y0144669D01*
X0155275Y0153743D01*
X0242680Y0153743D01*
X0243178Y0152542D01*
X0244510Y0151209D01*
X0244806Y0151087D01*
X0244806Y0121053D01*
X0245649Y0119018D01*
X0251437Y0113230D01*
X0251540Y0113128D01*
X0248886Y0113128D01*
X0248428Y0113005D01*
X0248245Y0112899D01*
X0247784Y0114011D01*
X0246452Y0115343D01*
X0244711Y0116065D01*
X0243557Y0116065D01*
X0243557Y0138334D01*
X0242715Y0140370D01*
X0241157Y0141927D01*
X0236433Y0146652D01*
X0234397Y0147494D01*
X0220384Y0147494D01*
X0218349Y0146652D01*
X0216791Y0145094D01*
X0213208Y0141511D01*
X0212365Y0139476D01*
X0212365Y0138907D01*
X0211918Y0138460D01*
X0211197Y0136719D01*
X0211197Y0126960D01*
X0211918Y0125219D01*
X0213251Y0123887D01*
X0214992Y0123165D01*
X0220813Y0123165D01*
X0222554Y0123887D01*
X0223887Y0125219D01*
X0224253Y0126102D01*
X0226013Y0126102D01*
X0226471Y0126225D01*
X0226882Y0126462D01*
X0227217Y0126797D01*
X0227454Y0127208D01*
X0227576Y0127665D01*
X0227576Y0131655D01*
X0224608Y0131655D01*
X0224608Y0132024D01*
X0227576Y0132024D01*
X0227576Y0136013D01*
X0227467Y0136420D01*
X0231003Y0136420D01*
X0232483Y0134940D01*
X0232483Y0116065D01*
X0231015Y0116065D01*
X0229274Y0115343D01*
X0227942Y0114011D01*
X0227451Y0112826D01*
X0227140Y0113005D01*
X0226683Y0113128D01*
X0221315Y0113128D01*
X0221315Y0108953D01*
X0219765Y0108953D01*
X0219765Y0107403D01*
X0212835Y0107403D01*
X0212835Y0104791D01*
X0212957Y0104334D01*
X0213194Y0103923D01*
X0213529Y0103588D01*
X0213940Y0103351D01*
X0214398Y0103228D01*
X0219765Y0103228D01*
X0219765Y0107403D01*
X0221315Y0107403D01*
X0221315Y0103228D01*
X0226683Y0103228D01*
X0227140Y0103351D01*
X0227451Y0103530D01*
X0227942Y0102345D01*
X0229274Y0101012D01*
X0231015Y0100291D01*
X0232090Y0100291D01*
X0232090Y0087558D01*
X0232090Y0088883D02*
X0229874Y0088883D01*
X0229874Y0088225D02*
X0229874Y0090737D01*
X0229752Y0091195D01*
X0229515Y0091606D01*
X0229180Y0091941D01*
X0228769Y0092178D01*
X0228311Y0092300D01*
X0224799Y0092300D01*
X0224799Y0088225D01*
X0229874Y0088225D01*
X0229874Y0090482D02*
X0232090Y0090482D01*
X0232090Y0092080D02*
X0228938Y0092080D01*
X0232090Y0093679D02*
X0216571Y0093679D01*
X0218169Y0092080D02*
X0219311Y0092080D01*
X0223449Y0092080D02*
X0224799Y0092080D01*
X0224799Y0090482D02*
X0223449Y0090482D01*
X0223449Y0088883D02*
X0224799Y0088883D01*
X0215973Y0086446D02*
X0215973Y0083690D01*
X0221485Y0078178D01*
X0223752Y0078178D01*
X0224124Y0078550D01*
X0230913Y0078550D01*
X0237627Y0085265D01*
X0237627Y0107942D01*
X0237863Y0108178D01*
X0238020Y0108335D01*
X0238020Y0137233D01*
X0233296Y0141957D01*
X0221485Y0141957D01*
X0217902Y0138375D01*
X0217902Y0131839D01*
X0211197Y0132043D02*
X0178206Y0132043D01*
X0176608Y0133642D02*
X0211197Y0133642D01*
X0211197Y0135240D02*
X0175009Y0135240D01*
X0173411Y0136839D02*
X0211247Y0136839D01*
X0211909Y0138437D02*
X0171812Y0138437D01*
X0170214Y0140036D02*
X0212597Y0140036D01*
X0213331Y0141634D02*
X0168615Y0141634D01*
X0167017Y0143233D02*
X0214930Y0143233D01*
X0216528Y0144831D02*
X0146362Y0144831D01*
X0147961Y0146430D02*
X0218127Y0146430D01*
X0227576Y0135240D02*
X0232183Y0135240D01*
X0232483Y0133642D02*
X0227576Y0133642D01*
X0227576Y0132043D02*
X0232483Y0132043D01*
X0232483Y0130445D02*
X0227576Y0130445D01*
X0227576Y0128846D02*
X0232483Y0128846D01*
X0232483Y0127248D02*
X0227464Y0127248D01*
X0224065Y0125649D02*
X0232483Y0125649D01*
X0232483Y0124051D02*
X0222718Y0124051D01*
X0223808Y0122627D02*
X0223808Y0131839D01*
X0223808Y0111446D01*
X0223335Y0110973D01*
X0221315Y0111262D02*
X0219765Y0111262D01*
X0219765Y0109664D02*
X0221315Y0109664D01*
X0219765Y0108953D02*
X0219765Y0113128D01*
X0214398Y0113128D01*
X0213940Y0113005D01*
X0213529Y0112768D01*
X0213194Y0112433D01*
X0212957Y0112022D01*
X0212835Y0111565D01*
X0212835Y0108953D01*
X0219765Y0108953D01*
X0219765Y0108065D02*
X0208544Y0108065D01*
X0210468Y0109664D02*
X0212835Y0109664D01*
X0212835Y0111262D02*
X0211714Y0111262D01*
X0212612Y0112861D02*
X0213691Y0112861D01*
X0213040Y0114459D02*
X0228390Y0114459D01*
X0227465Y0112861D02*
X0227390Y0112861D01*
X0230999Y0116058D02*
X0213293Y0116058D01*
X0213293Y0117657D02*
X0232483Y0117657D01*
X0232483Y0119255D02*
X0212988Y0119255D01*
X0212525Y0120854D02*
X0232483Y0120854D01*
X0232483Y0122452D02*
X0211602Y0122452D01*
X0210274Y0124051D02*
X0213087Y0124051D01*
X0211740Y0125649D02*
X0208209Y0125649D01*
X0211197Y0127248D02*
X0183002Y0127248D01*
X0181403Y0128846D02*
X0211197Y0128846D01*
X0211197Y0130445D02*
X0179805Y0130445D01*
X0184600Y0125649D02*
X0197753Y0125649D01*
X0195688Y0124051D02*
X0186199Y0124051D01*
X0187797Y0122452D02*
X0194360Y0122452D01*
X0193437Y0120854D02*
X0189396Y0120854D01*
X0190994Y0119255D02*
X0192974Y0119255D01*
X0192669Y0117657D02*
X0192593Y0117657D01*
X0188493Y0108020D02*
X0210855Y0085658D01*
X0210855Y0076721D01*
X0210816Y0076682D01*
X0210776Y0076643D01*
X0210776Y0059831D01*
X0199753Y0059831D02*
X0199123Y0060461D01*
X0173060Y0060461D01*
X0164241Y0069280D01*
X0155550Y0069280D01*
X0155550Y0066131D02*
X0160698Y0066131D01*
X0176603Y0050225D01*
X0201800Y0050225D01*
X0205343Y0053769D01*
X0205343Y0084083D01*
X0188020Y0101406D01*
X0149635Y0101406D01*
X0143060Y0107981D01*
X0132902Y0106524D02*
X0132902Y0124635D01*
X0147469Y0139202D01*
X0163217Y0139202D01*
X0215973Y0086446D01*
X0214972Y0095277D02*
X0232090Y0095277D01*
X0232090Y0096876D02*
X0213374Y0096876D01*
X0211775Y0098474D02*
X0232090Y0098474D01*
X0232090Y0100073D02*
X0210177Y0100073D01*
X0208578Y0101671D02*
X0228615Y0101671D01*
X0227559Y0103270D02*
X0226838Y0103270D01*
X0221315Y0103270D02*
X0219765Y0103270D01*
X0219765Y0104868D02*
X0221315Y0104868D01*
X0221315Y0106467D02*
X0219765Y0106467D01*
X0214243Y0103270D02*
X0206979Y0103270D01*
X0205381Y0104868D02*
X0212835Y0104868D01*
X0212835Y0106467D02*
X0204406Y0106467D01*
X0188493Y0108020D02*
X0162706Y0108020D01*
X0162706Y0118020D02*
X0158847Y0121879D01*
X0158847Y0131839D01*
X0152942Y0131839D02*
X0152942Y0127863D01*
X0143060Y0117981D01*
X0132902Y0106524D02*
X0127784Y0101406D01*
X0126209Y0101406D01*
X0136367Y0095461D02*
X0136367Y0088099D01*
X0137233Y0087233D01*
X0137233Y0081613D01*
X0137076Y0081456D01*
X0137233Y0081298D01*
X0137233Y0068335D01*
X0133926Y0065028D01*
X0133926Y0047656D01*
X0134083Y0047498D01*
X0134083Y0043139D01*
X0136052Y0041170D01*
X0130934Y0041170D01*
X0118335Y0028572D01*
X0118335Y0015186D01*
X0109950Y0023572D01*
X0104280Y0023572D01*
X0038099Y0023572D01*
X0027194Y0034477D01*
X0027194Y0060855D01*
X0027194Y0056455D01*
X0029016Y0056455D01*
X0030117Y0057556D01*
X0034155Y0053518D01*
X0040233Y0053518D01*
X0042112Y0055397D01*
X0046115Y0055397D01*
X0046564Y0054314D01*
X0047896Y0052981D01*
X0049637Y0052260D01*
X0057821Y0052260D01*
X0059241Y0052848D01*
X0060661Y0052260D01*
X0068845Y0052260D01*
X0069885Y0052691D01*
X0069885Y0046849D01*
X0066108Y0043072D01*
X0061173Y0043072D01*
X0059753Y0042484D01*
X0058333Y0043072D01*
X0050149Y0043072D01*
X0048408Y0042351D01*
X0047075Y0041019D01*
X0046627Y0039935D01*
X0042112Y0039935D01*
X0040233Y0041814D01*
X0034155Y0041814D01*
X0030117Y0037776D01*
X0029016Y0038877D01*
X0027194Y0038877D01*
X0027194Y0034477D01*
X0027194Y0034477D01*
X0027194Y0038877D01*
X0025371Y0038877D01*
X0022794Y0036300D01*
X0022794Y0034882D01*
X0022553Y0034946D01*
X0019630Y0034946D01*
X0016807Y0034190D01*
X0014276Y0032729D01*
X0012210Y0030662D01*
X0010749Y0028131D01*
X0009992Y0025308D01*
X0009992Y0022386D01*
X0010749Y0019563D01*
X0012210Y0017032D01*
X0014276Y0014966D01*
X0016807Y0013504D01*
X0019630Y0012748D01*
X0022553Y0012748D01*
X0025375Y0013504D01*
X0027906Y0014966D01*
X0029973Y0017032D01*
X0031434Y0019563D01*
X0032191Y0022386D01*
X0032191Y0025308D01*
X0031434Y0028131D01*
X0029973Y0030662D01*
X0029787Y0030848D01*
X0030117Y0031178D01*
X0034155Y0027140D01*
X0040233Y0027140D01*
X0041954Y0028861D01*
X0046627Y0028861D01*
X0047075Y0027778D01*
X0048408Y0026446D01*
X0050149Y0025724D01*
X0058333Y0025724D01*
X0059753Y0026313D01*
X0061173Y0025724D01*
X0069356Y0025724D01*
X0071097Y0026446D01*
X0072430Y0027778D01*
X0073151Y0029519D01*
X0073151Y0034455D01*
X0080116Y0041419D01*
X0080959Y0043455D01*
X0080959Y0056176D01*
X0081605Y0055909D01*
X0084200Y0055909D01*
X0086576Y0056893D01*
X0088787Y0056893D01*
X0090062Y0055619D01*
X0091628Y0054970D01*
X0091200Y0054543D01*
X0090357Y0052508D01*
X0090357Y0035344D01*
X0091200Y0033309D01*
X0093956Y0030553D01*
X0094297Y0030212D01*
X0094721Y0029189D01*
X0096898Y0027013D01*
X0097630Y0026709D01*
X0097619Y0026699D01*
X0097175Y0026087D01*
X0096832Y0025414D01*
X0096599Y0024696D01*
X0096480Y0023949D01*
X0096480Y0023772D01*
X0104080Y0023772D01*
X0104080Y0023372D01*
X0096480Y0023372D01*
X0096480Y0023194D01*
X0096599Y0022448D01*
X0096832Y0021729D01*
X0097175Y0021056D01*
X0097619Y0020445D01*
X0098153Y0019910D01*
X0098765Y0019466D01*
X0099438Y0019123D01*
X0100156Y0018890D01*
X0100903Y0018772D01*
X0104080Y0018772D01*
X0104080Y0023372D01*
X0104480Y0023372D01*
X0104480Y0023772D01*
X0112080Y0023772D01*
X0112080Y0023949D01*
X0111962Y0024696D01*
X0111729Y0025414D01*
X0111386Y0026087D01*
X0110942Y0026699D01*
X0110931Y0026709D01*
X0111663Y0027013D01*
X0113839Y0029189D01*
X0115017Y0032033D01*
X0115017Y0035111D01*
X0113839Y0037954D01*
X0113222Y0038572D01*
X0113839Y0039189D01*
X0115017Y0042033D01*
X0115017Y0045111D01*
X0113839Y0047954D01*
X0111663Y0050131D01*
X0111551Y0050177D01*
X0112519Y0051145D01*
X0114656Y0051145D01*
X0115235Y0049749D01*
X0116567Y0048416D01*
X0118308Y0047695D01*
X0121790Y0047695D01*
X0121790Y0044214D01*
X0122511Y0042473D01*
X0123843Y0041140D01*
X0125585Y0040419D01*
X0132588Y0040419D01*
X0131830Y0039661D01*
X0131830Y0039661D01*
X0125435Y0033266D01*
X0123878Y0031708D01*
X0123035Y0029673D01*
X0123035Y0022793D01*
X0121789Y0021547D01*
X0120672Y0018850D01*
X0120672Y0015931D01*
X0121789Y0013234D01*
X0123853Y0011171D01*
X0126549Y0010054D01*
X0129468Y0010054D01*
X0132165Y0011171D01*
X0134229Y0013234D01*
X0135346Y0015931D01*
X0135346Y0018850D01*
X0134229Y0021547D01*
X0134109Y0021667D01*
X0134109Y0026278D01*
X0138417Y0030586D01*
X0139055Y0030322D01*
X0139055Y0029742D01*
X0139178Y0029284D01*
X0139415Y0028874D01*
X0139750Y0028539D01*
X0140160Y0028302D01*
X0140618Y0028179D01*
X0142312Y0028179D01*
X0144005Y0028179D01*
X0144463Y0028302D01*
X0144874Y0028539D01*
X0145209Y0028874D01*
X0145446Y0029284D01*
X0145461Y0029343D01*
X0145477Y0029284D01*
X0145714Y0028874D01*
X0146049Y0028539D01*
X0146460Y0028302D01*
X0146917Y0028179D01*
X0147514Y0028179D01*
X0143011Y0023676D01*
X0142853Y0023611D01*
X0140789Y0021547D01*
X0139672Y0018850D01*
X0139672Y0015931D01*
X0140789Y0013234D01*
X0142853Y0011171D01*
X0145549Y0010054D01*
X0148468Y0010054D01*
X0151165Y0011171D01*
X0153229Y0013234D01*
X0154346Y0015931D01*
X0154346Y0018850D01*
X0154199Y0019203D01*
X0157299Y0022303D01*
X0158856Y0023860D01*
X0159699Y0025895D01*
X0159699Y0028984D01*
X0167578Y0021104D01*
X0169136Y0019547D01*
X0171171Y0018704D01*
X0188666Y0018704D01*
X0188887Y0018172D01*
X0190219Y0016839D01*
X0191960Y0016118D01*
X0196168Y0016118D01*
X0196712Y0014805D01*
X0198270Y0013248D01*
X0200649Y0010868D01*
X0202207Y0009311D01*
X0203143Y0008923D01*
X0006120Y0008923D01*
X0006120Y0008958D02*
X0203059Y0008958D01*
X0200961Y0010556D02*
X0149682Y0010556D01*
X0152149Y0012155D02*
X0199363Y0012155D01*
X0200649Y0010868D02*
X0200649Y0010868D01*
X0197764Y0013753D02*
X0153444Y0013753D01*
X0154106Y0015352D02*
X0196486Y0015352D01*
X0201406Y0017942D02*
X0201406Y0030816D01*
X0207666Y0037076D01*
X0224674Y0037076D01*
X0242430Y0054831D01*
X0242374Y0046945D02*
X0249278Y0046945D01*
X0251019Y0047666D01*
X0252351Y0048999D01*
X0252842Y0050184D01*
X0253152Y0050005D01*
X0253610Y0049882D01*
X0258978Y0049882D01*
X0258978Y0054057D01*
X0260528Y0054057D01*
X0260528Y0054924D01*
X0305264Y0054924D01*
X0306893Y0055599D01*
X0306893Y0033621D01*
X0296751Y0023479D01*
X0266986Y0023479D01*
X0266986Y0024765D01*
X0260055Y0024765D01*
X0260055Y0026315D01*
X0258505Y0026315D01*
X0258505Y0030490D01*
X0253138Y0030490D01*
X0252680Y0030367D01*
X0252370Y0030188D01*
X0251879Y0031373D01*
X0250546Y0032706D01*
X0248805Y0033427D01*
X0235110Y0033427D01*
X0233369Y0032706D01*
X0232036Y0031373D01*
X0231604Y0030329D01*
X0214705Y0030329D01*
X0214832Y0030455D01*
X0215280Y0031539D01*
X0225775Y0031539D01*
X0227810Y0032382D01*
X0242374Y0046945D01*
X0241152Y0045723D02*
X0306893Y0045723D01*
X0306893Y0044125D02*
X0239554Y0044125D01*
X0237955Y0042526D02*
X0306893Y0042526D01*
X0306893Y0040928D02*
X0236357Y0040928D01*
X0234758Y0039329D02*
X0306893Y0039329D01*
X0306893Y0037731D02*
X0233160Y0037731D01*
X0231561Y0036132D02*
X0306893Y0036132D01*
X0306893Y0034534D02*
X0229963Y0034534D01*
X0228364Y0032935D02*
X0233923Y0032935D01*
X0232021Y0031337D02*
X0215197Y0031337D01*
X0207076Y0024792D02*
X0241209Y0024792D01*
X0241957Y0025540D01*
X0249556Y0017942D01*
X0299044Y0017942D01*
X0312430Y0031328D01*
X0312430Y0080146D01*
X0305343Y0087233D01*
X0296839Y0087233D01*
X0296800Y0087272D01*
X0286839Y0097076D02*
X0281328Y0091564D01*
X0245107Y0091564D01*
X0241564Y0088020D01*
X0241564Y0081721D01*
X0229393Y0069550D01*
X0224124Y0069550D01*
X0232115Y0060461D02*
X0304162Y0060461D01*
X0308493Y0064792D01*
X0308493Y0074241D01*
X0305737Y0076997D01*
X0297076Y0076997D01*
X0296800Y0077272D01*
X0316761Y0084871D02*
X0304162Y0097469D01*
X0296997Y0097469D01*
X0296800Y0097272D01*
X0286839Y0097076D02*
X0286839Y0122548D01*
X0291170Y0126879D01*
X0296406Y0126879D01*
X0296800Y0127272D01*
X0296918Y0127391D01*
X0321091Y0127391D01*
X0337627Y0143926D01*
X0337627Y0177391D01*
X0334477Y0180540D01*
X0322272Y0180540D01*
X0318729Y0176997D01*
X0318729Y0173454D01*
X0329753Y0173454D02*
X0329753Y0161839D01*
X0329556Y0161643D01*
X0323650Y0161643D02*
X0314477Y0152469D01*
X0300973Y0152469D01*
X0306279Y0146430D02*
X0332090Y0146430D01*
X0332090Y0148028D02*
X0317867Y0148028D01*
X0319465Y0149627D02*
X0332090Y0149627D01*
X0332090Y0151225D02*
X0321064Y0151225D01*
X0322662Y0152824D02*
X0332090Y0152824D01*
X0332090Y0154422D02*
X0324261Y0154422D01*
X0330701Y0144831D02*
X0285733Y0144831D01*
X0284134Y0143233D02*
X0329103Y0143233D01*
X0327504Y0141634D02*
X0301813Y0141634D01*
X0303726Y0140036D02*
X0325906Y0140036D01*
X0324307Y0138437D02*
X0304469Y0138437D01*
X0304591Y0136839D02*
X0322709Y0136839D01*
X0321110Y0135240D02*
X0304152Y0135240D01*
X0304373Y0133642D02*
X0319512Y0133642D01*
X0296800Y0137272D02*
X0296800Y0143454D01*
X0291524Y0148729D01*
X0291340Y0148028D02*
X0291709Y0148028D01*
X0291709Y0146430D02*
X0291340Y0146430D01*
X0291788Y0141634D02*
X0283978Y0141634D01*
X0283833Y0140036D02*
X0289874Y0140036D01*
X0289131Y0138437D02*
X0283050Y0138437D01*
X0280782Y0136839D02*
X0289009Y0136839D01*
X0296600Y0138437D02*
X0297000Y0138437D01*
X0296800Y0137272D02*
X0273690Y0137272D01*
X0275461Y0144320D02*
X0275304Y0144477D01*
X0275461Y0144320D02*
X0277391Y0144320D01*
X0289280Y0156209D01*
X0291524Y0156209D01*
X0289595Y0165087D02*
X0275422Y0165087D01*
X0275304Y0164969D01*
X0275304Y0155501D01*
X0261367Y0159162D02*
X0261367Y0135973D01*
X0259241Y0133847D01*
X0244806Y0133642D02*
X0243557Y0133642D01*
X0243557Y0135240D02*
X0244806Y0135240D01*
X0244806Y0136839D02*
X0243557Y0136839D01*
X0243515Y0138437D02*
X0244806Y0138437D01*
X0244806Y0140036D02*
X0242853Y0140036D01*
X0241450Y0141634D02*
X0244806Y0141634D01*
X0244806Y0143233D02*
X0239851Y0143233D01*
X0238253Y0144831D02*
X0244806Y0144831D01*
X0244806Y0146430D02*
X0236654Y0146430D01*
X0244806Y0148028D02*
X0149559Y0148028D01*
X0151158Y0149627D02*
X0244806Y0149627D01*
X0244495Y0151225D02*
X0152757Y0151225D01*
X0154355Y0152824D02*
X0243061Y0152824D01*
X0261367Y0159162D02*
X0261367Y0171721D01*
X0261603Y0171957D01*
X0250580Y0171957D02*
X0250580Y0177824D01*
X0245107Y0183296D01*
X0266072Y0190383D02*
X0275422Y0181032D01*
X0280934Y0193532D02*
X0289989Y0184477D01*
X0289989Y0181426D01*
X0289595Y0181032D01*
X0280934Y0193532D02*
X0169123Y0193532D01*
X0164753Y0189162D01*
X0164753Y0183020D01*
X0170658Y0183020D02*
X0170658Y0185619D01*
X0175422Y0190383D01*
X0266072Y0190383D01*
X0296600Y0141634D02*
X0297000Y0141634D01*
X0297000Y0140036D02*
X0296600Y0140036D01*
X0296800Y0127272D02*
X0296524Y0126997D01*
X0294320Y0126997D01*
X0281302Y0116058D02*
X0279215Y0116058D01*
X0255803Y0107403D02*
X0255803Y0103228D01*
X0261171Y0103228D01*
X0261629Y0103351D01*
X0261939Y0103530D01*
X0262430Y0102345D01*
X0263762Y0101012D01*
X0265503Y0100291D01*
X0279199Y0100291D01*
X0280940Y0101012D01*
X0281302Y0101375D01*
X0281302Y0099369D01*
X0279034Y0097101D01*
X0244006Y0097101D01*
X0243164Y0096752D01*
X0243164Y0100291D01*
X0244711Y0100291D01*
X0246452Y0101012D01*
X0247784Y0102345D01*
X0248245Y0103457D01*
X0248428Y0103351D01*
X0248886Y0103228D01*
X0254254Y0103228D01*
X0254254Y0107403D01*
X0255803Y0107403D01*
X0255803Y0106467D02*
X0254254Y0106467D01*
X0254254Y0104868D02*
X0255803Y0104868D01*
X0255803Y0103270D02*
X0254254Y0103270D01*
X0248731Y0103270D02*
X0248167Y0103270D01*
X0247111Y0101671D02*
X0263103Y0101671D01*
X0262047Y0103270D02*
X0261326Y0103270D01*
X0243463Y0096876D02*
X0243164Y0096876D01*
X0243164Y0098474D02*
X0280408Y0098474D01*
X0281302Y0100073D02*
X0243164Y0100073D01*
X0221315Y0112861D02*
X0219765Y0112861D01*
X0243557Y0117657D02*
X0247011Y0117657D01*
X0245551Y0119255D02*
X0243557Y0119255D01*
X0243557Y0120854D02*
X0244889Y0120854D01*
X0244806Y0122452D02*
X0243557Y0122452D01*
X0243557Y0124051D02*
X0244806Y0124051D01*
X0244806Y0125649D02*
X0243557Y0125649D01*
X0243557Y0127248D02*
X0244806Y0127248D01*
X0244806Y0128846D02*
X0243557Y0128846D01*
X0243557Y0130445D02*
X0244806Y0130445D01*
X0244806Y0132043D02*
X0243557Y0132043D01*
X0244727Y0116058D02*
X0248609Y0116058D01*
X0247336Y0114459D02*
X0250208Y0114459D01*
X0199806Y0081790D02*
X0195561Y0086036D01*
X0195561Y0083005D01*
X0193765Y0081209D01*
X0194843Y0080132D01*
X0194843Y0080856D01*
X0194965Y0081314D01*
X0195202Y0081724D01*
X0195537Y0082059D01*
X0195948Y0082296D01*
X0196406Y0082419D01*
X0199017Y0082419D01*
X0199017Y0077457D01*
X0199806Y0077457D01*
X0199806Y0081790D01*
X0199806Y0080891D02*
X0199017Y0080891D01*
X0199017Y0079292D02*
X0199806Y0079292D01*
X0199806Y0077694D02*
X0199017Y0077694D01*
X0199792Y0076682D02*
X0189320Y0066209D01*
X0187824Y0066209D01*
X0188024Y0066009D02*
X0192404Y0066009D01*
X0192570Y0066409D01*
X0188024Y0066409D01*
X0188024Y0066009D01*
X0192624Y0066488D02*
X0192624Y0068198D01*
X0191689Y0069133D01*
X0194889Y0072333D01*
X0194965Y0072050D01*
X0195202Y0071640D01*
X0195537Y0071305D01*
X0195948Y0071068D01*
X0196406Y0070945D01*
X0199017Y0070945D01*
X0199017Y0075907D01*
X0199806Y0075907D01*
X0199806Y0068505D01*
X0195661Y0068505D01*
X0193920Y0067784D01*
X0192624Y0066488D01*
X0192624Y0066504D02*
X0192640Y0066504D01*
X0192624Y0068103D02*
X0194688Y0068103D01*
X0192257Y0069701D02*
X0199806Y0069701D01*
X0199806Y0071300D02*
X0199017Y0071300D01*
X0199017Y0072898D02*
X0199806Y0072898D01*
X0199806Y0074497D02*
X0199017Y0074497D01*
X0195546Y0071300D02*
X0193856Y0071300D01*
X0187824Y0076013D02*
X0182902Y0071091D01*
X0167942Y0071091D01*
X0166761Y0072272D01*
X0155708Y0072272D01*
X0155550Y0072430D01*
X0155550Y0075580D02*
X0166180Y0086209D01*
X0177824Y0086209D01*
X0182902Y0082902D02*
X0182902Y0089989D01*
X0179753Y0093139D01*
X0161357Y0093139D01*
X0149674Y0081456D01*
X0146524Y0081456D02*
X0146524Y0090619D01*
X0153375Y0097469D01*
X0183296Y0097469D01*
X0188020Y0092745D01*
X0188020Y0086406D01*
X0187824Y0086209D01*
X0182902Y0082902D02*
X0177824Y0077824D01*
X0177824Y0076209D01*
X0187824Y0076209D02*
X0187824Y0076013D01*
X0194084Y0080891D02*
X0194852Y0080891D01*
X0195045Y0082489D02*
X0199107Y0082489D01*
X0197508Y0084088D02*
X0195561Y0084088D01*
X0195561Y0085686D02*
X0195910Y0085686D01*
X0146524Y0081456D02*
X0146524Y0073690D01*
X0140383Y0067548D01*
X0140383Y0081298D01*
X0140225Y0081456D01*
X0140383Y0081613D01*
X0140383Y0086839D01*
X0141091Y0087548D01*
X0141091Y0095461D01*
X0120146Y0075580D02*
X0107312Y0088414D01*
X0080146Y0088414D01*
X0065186Y0103375D01*
X0065186Y0113020D01*
X0065146Y0113060D01*
X0054123Y0113060D02*
X0037430Y0113060D01*
X0037194Y0112824D01*
X0031651Y0117657D02*
X0005946Y0117657D01*
X0005943Y0119255D02*
X0033249Y0119255D01*
X0027194Y0117224D02*
X0025371Y0117224D01*
X0022794Y0114646D01*
X0022794Y0112824D01*
X0027194Y0112824D01*
X0027194Y0117224D01*
X0027194Y0116058D02*
X0027194Y0116058D01*
X0027194Y0114459D02*
X0027194Y0114459D01*
X0027194Y0112861D02*
X0027194Y0112861D01*
X0027194Y0112824D02*
X0027194Y0112824D01*
X0027194Y0086839D01*
X0027194Y0082439D01*
X0029016Y0082439D01*
X0030117Y0083540D01*
X0034155Y0079502D01*
X0040233Y0079502D01*
X0042190Y0081460D01*
X0046509Y0081460D01*
X0046957Y0080377D01*
X0048290Y0079044D01*
X0050031Y0078323D01*
X0058215Y0078323D01*
X0059635Y0078911D01*
X0061055Y0078323D01*
X0069238Y0078323D01*
X0069778Y0078546D01*
X0074535Y0078546D01*
X0065596Y0069608D01*
X0060661Y0069608D01*
X0059241Y0069020D01*
X0057821Y0069608D01*
X0049637Y0069608D01*
X0047896Y0068887D01*
X0046564Y0067554D01*
X0046115Y0066471D01*
X0041954Y0066471D01*
X0040233Y0068192D01*
X0034155Y0068192D01*
X0030117Y0064154D01*
X0029016Y0065255D01*
X0027194Y0065255D01*
X0027194Y0060855D01*
X0027194Y0060855D01*
X0027194Y0086839D01*
X0027194Y0086839D01*
X0027194Y0082439D01*
X0025371Y0082439D01*
X0022794Y0085017D01*
X0022794Y0086839D01*
X0027194Y0086839D01*
X0027194Y0086839D01*
X0027194Y0086839D01*
X0027194Y0091239D01*
X0029016Y0091239D01*
X0030117Y0090139D01*
X0034155Y0094176D01*
X0040233Y0094176D01*
X0041875Y0092534D01*
X0046509Y0092534D01*
X0046957Y0093617D01*
X0048290Y0094950D01*
X0050031Y0095671D01*
X0058215Y0095671D01*
X0059635Y0095083D01*
X0061055Y0095671D01*
X0065059Y0095671D01*
X0062049Y0098681D01*
X0060492Y0100238D01*
X0059649Y0102273D01*
X0059649Y0104968D01*
X0059635Y0104974D01*
X0058215Y0104386D01*
X0050031Y0104386D01*
X0048290Y0105107D01*
X0046957Y0106440D01*
X0046509Y0107523D01*
X0042269Y0107523D01*
X0040233Y0105487D01*
X0034155Y0105487D01*
X0030117Y0109524D01*
X0029016Y0108424D01*
X0027194Y0108424D01*
X0027194Y0112823D01*
X0027194Y0112823D01*
X0027194Y0108424D01*
X0025371Y0108424D01*
X0022794Y0111001D01*
X0022794Y0112824D01*
X0027194Y0112824D01*
X0027194Y0111262D02*
X0027194Y0111262D01*
X0027194Y0109664D02*
X0027194Y0109664D01*
X0024131Y0109664D02*
X0005959Y0109664D01*
X0005956Y0111262D02*
X0022794Y0111262D01*
X0022794Y0112861D02*
X0005954Y0112861D01*
X0005951Y0114459D02*
X0022794Y0114459D01*
X0024206Y0116058D02*
X0005948Y0116058D01*
X0005941Y0120854D02*
X0048131Y0120854D01*
X0046781Y0119255D02*
X0041138Y0119255D01*
X0048697Y0130445D02*
X0005925Y0130445D01*
X0005923Y0132043D02*
X0033582Y0132043D01*
X0031984Y0133642D02*
X0005920Y0133642D01*
X0005918Y0135240D02*
X0024539Y0135240D01*
X0023187Y0136839D02*
X0005915Y0136839D01*
X0005913Y0138437D02*
X0023187Y0138437D01*
X0023187Y0140036D02*
X0005910Y0140036D01*
X0005908Y0141634D02*
X0024585Y0141634D01*
X0027587Y0141634D02*
X0027587Y0141634D01*
X0027587Y0142814D02*
X0027587Y0138414D01*
X0027587Y0138414D01*
X0027587Y0142814D01*
X0032030Y0143233D02*
X0005905Y0143233D01*
X0005902Y0144831D02*
X0033628Y0144831D01*
X0027587Y0140036D02*
X0027587Y0140036D01*
X0027587Y0138437D02*
X0027587Y0138437D01*
X0027587Y0136839D02*
X0027587Y0136839D01*
X0027587Y0135240D02*
X0027587Y0135240D01*
X0041592Y0132043D02*
X0046629Y0132043D01*
X0058761Y0130445D02*
X0059721Y0130445D01*
X0066805Y0128846D02*
X0005928Y0128846D01*
X0005931Y0127248D02*
X0067917Y0127248D01*
X0067917Y0125649D02*
X0005933Y0125649D01*
X0005936Y0124051D02*
X0067917Y0124051D01*
X0067917Y0122452D02*
X0005938Y0122452D01*
X0005961Y0108065D02*
X0031576Y0108065D01*
X0033174Y0106467D02*
X0005964Y0106467D01*
X0005966Y0104868D02*
X0048866Y0104868D01*
X0046946Y0106467D02*
X0041213Y0106467D01*
X0059380Y0104868D02*
X0059649Y0104868D01*
X0059649Y0103270D02*
X0005969Y0103270D01*
X0005972Y0101671D02*
X0059898Y0101671D01*
X0060657Y0100073D02*
X0005974Y0100073D01*
X0005977Y0098474D02*
X0062256Y0098474D01*
X0063854Y0096876D02*
X0005979Y0096876D01*
X0005982Y0095277D02*
X0049081Y0095277D01*
X0047019Y0093679D02*
X0040730Y0093679D01*
X0033657Y0093679D02*
X0005984Y0093679D01*
X0005987Y0092080D02*
X0032059Y0092080D01*
X0030460Y0090482D02*
X0029774Y0090482D01*
X0027194Y0090482D02*
X0027194Y0090482D01*
X0027194Y0091239D02*
X0025371Y0091239D01*
X0022794Y0088662D01*
X0022794Y0086839D01*
X0027194Y0086839D01*
X0027194Y0091239D01*
X0027194Y0088883D02*
X0027194Y0088883D01*
X0027194Y0087285D02*
X0027194Y0087285D01*
X0027194Y0085686D02*
X0027194Y0085686D01*
X0027194Y0084088D02*
X0027194Y0084088D01*
X0027194Y0082489D02*
X0027194Y0082489D01*
X0029066Y0082489D02*
X0031168Y0082489D01*
X0032766Y0080891D02*
X0006005Y0080891D01*
X0006002Y0082489D02*
X0025321Y0082489D01*
X0023723Y0084088D02*
X0006000Y0084088D01*
X0005997Y0085686D02*
X0022794Y0085686D01*
X0022794Y0087285D02*
X0005995Y0087285D01*
X0005992Y0088883D02*
X0023015Y0088883D01*
X0024614Y0090482D02*
X0005989Y0090482D01*
X0006007Y0079292D02*
X0048042Y0079292D01*
X0046744Y0080891D02*
X0041621Y0080891D01*
X0037194Y0086839D02*
X0037351Y0086997D01*
X0054123Y0086997D01*
X0065146Y0086997D02*
X0068060Y0084083D01*
X0106131Y0084083D01*
X0117784Y0072430D01*
X0121750Y0072430D01*
X0121750Y0075580D02*
X0120146Y0075580D01*
X0121750Y0069280D02*
X0115028Y0069280D01*
X0104162Y0080146D01*
X0083965Y0080146D01*
X0064753Y0060934D01*
X0053729Y0060934D02*
X0037272Y0060934D01*
X0037194Y0060855D01*
X0042029Y0055315D02*
X0046149Y0055315D01*
X0047161Y0053716D02*
X0040431Y0053716D01*
X0033957Y0053716D02*
X0006048Y0053716D01*
X0006051Y0052118D02*
X0069885Y0052118D01*
X0069885Y0050519D02*
X0006053Y0050519D01*
X0006056Y0048921D02*
X0069885Y0048921D01*
X0069885Y0047322D02*
X0006058Y0047322D01*
X0006061Y0045723D02*
X0068759Y0045723D01*
X0067161Y0044125D02*
X0006064Y0044125D01*
X0006066Y0042526D02*
X0048831Y0042526D01*
X0047038Y0040928D02*
X0041119Y0040928D01*
X0033268Y0040928D02*
X0006069Y0040928D01*
X0006071Y0039329D02*
X0031670Y0039329D01*
X0027194Y0037731D02*
X0027194Y0037731D01*
X0027194Y0036132D02*
X0027194Y0036132D01*
X0027194Y0034534D02*
X0027194Y0034534D01*
X0022794Y0036132D02*
X0006076Y0036132D01*
X0006079Y0034534D02*
X0018091Y0034534D01*
X0014634Y0032935D02*
X0006081Y0032935D01*
X0006084Y0031337D02*
X0012884Y0031337D01*
X0011676Y0029738D02*
X0006087Y0029738D01*
X0006089Y0028140D02*
X0010753Y0028140D01*
X0010322Y0026541D02*
X0006092Y0026541D01*
X0006094Y0024943D02*
X0009992Y0024943D01*
X0009992Y0023344D02*
X0006097Y0023344D01*
X0006099Y0021746D02*
X0010164Y0021746D01*
X0010592Y0020147D02*
X0006102Y0020147D01*
X0006104Y0018549D02*
X0011334Y0018549D01*
X0012292Y0016950D02*
X0006107Y0016950D01*
X0006110Y0015352D02*
X0013890Y0015352D01*
X0016376Y0013753D02*
X0006112Y0013753D01*
X0006115Y0012155D02*
X0122868Y0012155D01*
X0122666Y0010855D02*
X0118335Y0015186D01*
X0120912Y0015352D02*
X0028293Y0015352D01*
X0029891Y0016950D02*
X0120672Y0016950D01*
X0120672Y0018549D02*
X0030849Y0018549D01*
X0031591Y0020147D02*
X0097916Y0020147D01*
X0096827Y0021746D02*
X0032019Y0021746D01*
X0032191Y0023344D02*
X0096480Y0023344D01*
X0096679Y0024943D02*
X0032191Y0024943D01*
X0031860Y0026541D02*
X0048312Y0026541D01*
X0046926Y0028140D02*
X0041232Y0028140D01*
X0033155Y0028140D02*
X0031429Y0028140D01*
X0031556Y0029738D02*
X0030506Y0029738D01*
X0037194Y0034477D02*
X0037272Y0034398D01*
X0054241Y0034398D01*
X0065265Y0034398D02*
X0075422Y0044556D01*
X0075422Y0062430D01*
X0081328Y0068335D01*
X0104162Y0068335D01*
X0106367Y0066131D01*
X0121750Y0066131D01*
X0121750Y0062981D02*
X0096879Y0062981D01*
X0096682Y0062784D01*
X0096328Y0062430D01*
X0082902Y0062430D01*
X0080959Y0055315D02*
X0090796Y0055315D01*
X0090858Y0053716D02*
X0080959Y0053716D01*
X0080959Y0052118D02*
X0090357Y0052118D01*
X0090357Y0050519D02*
X0080959Y0050519D01*
X0080959Y0048921D02*
X0090357Y0048921D01*
X0090357Y0047322D02*
X0080959Y0047322D01*
X0080959Y0045723D02*
X0090357Y0045723D01*
X0090357Y0044125D02*
X0080959Y0044125D01*
X0080575Y0042526D02*
X0090357Y0042526D01*
X0090357Y0040928D02*
X0079625Y0040928D01*
X0078026Y0039329D02*
X0090357Y0039329D01*
X0090357Y0037731D02*
X0076428Y0037731D01*
X0074829Y0036132D02*
X0090357Y0036132D01*
X0090693Y0034534D02*
X0073231Y0034534D01*
X0073151Y0032935D02*
X0091574Y0032935D01*
X0093173Y0031337D02*
X0073151Y0031337D01*
X0073151Y0029738D02*
X0094494Y0029738D01*
X0095770Y0028140D02*
X0072580Y0028140D01*
X0071193Y0026541D02*
X0097505Y0026541D01*
X0104080Y0023344D02*
X0104480Y0023344D01*
X0104480Y0023372D02*
X0104480Y0018772D01*
X0107658Y0018772D01*
X0108404Y0018890D01*
X0109123Y0019123D01*
X0109796Y0019466D01*
X0110407Y0019910D01*
X0110942Y0020445D01*
X0111386Y0021056D01*
X0111729Y0021729D01*
X0111962Y0022448D01*
X0112080Y0023194D01*
X0112080Y0023372D01*
X0104480Y0023372D01*
X0104480Y0021746D02*
X0104080Y0021746D01*
X0104080Y0020147D02*
X0104480Y0020147D01*
X0110644Y0020147D02*
X0121209Y0020147D01*
X0121988Y0021746D02*
X0111734Y0021746D01*
X0112080Y0023344D02*
X0123035Y0023344D01*
X0123035Y0024943D02*
X0111882Y0024943D01*
X0111056Y0026541D02*
X0123035Y0026541D01*
X0123035Y0028140D02*
X0112790Y0028140D01*
X0114067Y0029738D02*
X0123062Y0029738D01*
X0123724Y0031337D02*
X0114729Y0031337D01*
X0115017Y0032935D02*
X0125105Y0032935D01*
X0125435Y0033266D02*
X0125435Y0033266D01*
X0126703Y0034534D02*
X0115017Y0034534D01*
X0114594Y0036132D02*
X0128302Y0036132D01*
X0129900Y0037731D02*
X0113932Y0037731D01*
X0113898Y0039329D02*
X0131499Y0039329D01*
X0136052Y0041170D02*
X0138808Y0041170D01*
X0140225Y0042587D01*
X0140225Y0047656D01*
X0137076Y0047656D02*
X0137076Y0064241D01*
X0140383Y0067548D01*
X0155550Y0059831D02*
X0160698Y0059831D01*
X0176997Y0043532D01*
X0215186Y0043532D01*
X0232115Y0060461D01*
X0250188Y0047322D02*
X0306893Y0047322D01*
X0306893Y0048921D02*
X0252273Y0048921D01*
X0258978Y0050519D02*
X0260528Y0050519D01*
X0260528Y0049882D02*
X0265895Y0049882D01*
X0266353Y0050005D01*
X0266763Y0050242D01*
X0267099Y0050577D01*
X0267336Y0050987D01*
X0267458Y0051445D01*
X0267458Y0054057D01*
X0260528Y0054057D01*
X0260528Y0049882D01*
X0260528Y0052118D02*
X0258978Y0052118D01*
X0258978Y0053716D02*
X0260528Y0053716D01*
X0259753Y0054831D02*
X0276879Y0054831D01*
X0276997Y0054950D01*
X0267458Y0053716D02*
X0306893Y0053716D01*
X0306893Y0052118D02*
X0267458Y0052118D01*
X0267041Y0050519D02*
X0306893Y0050519D01*
X0306893Y0055315D02*
X0306205Y0055315D01*
X0306207Y0032935D02*
X0249991Y0032935D01*
X0251894Y0031337D02*
X0304609Y0031337D01*
X0303010Y0029738D02*
X0266659Y0029738D01*
X0266626Y0029795D02*
X0266291Y0030130D01*
X0265881Y0030367D01*
X0265423Y0030490D01*
X0260055Y0030490D01*
X0260055Y0026315D01*
X0266986Y0026315D01*
X0266986Y0028927D01*
X0266863Y0029385D01*
X0266626Y0029795D01*
X0266986Y0028140D02*
X0301412Y0028140D01*
X0299813Y0026541D02*
X0266986Y0026541D01*
X0260055Y0026541D02*
X0258505Y0026541D01*
X0259280Y0025540D02*
X0259280Y0054359D01*
X0259753Y0054831D01*
X0260055Y0029738D02*
X0258505Y0029738D01*
X0258505Y0028140D02*
X0260055Y0028140D01*
X0260055Y0024943D02*
X0298215Y0024943D01*
X0301013Y0014005D02*
X0316761Y0029753D01*
X0316761Y0084871D01*
X0196643Y0037076D02*
X0196406Y0036839D01*
X0178572Y0036839D01*
X0158729Y0056682D01*
X0155550Y0056682D01*
X0155550Y0053532D02*
X0155550Y0040963D01*
X0172272Y0024241D01*
X0195501Y0024241D01*
X0196052Y0024792D01*
X0188730Y0018549D02*
X0154346Y0018549D01*
X0154346Y0016950D02*
X0190108Y0016950D01*
X0201406Y0017942D02*
X0205343Y0014005D01*
X0301013Y0014005D01*
X0168536Y0020147D02*
X0155143Y0020147D01*
X0156742Y0021746D02*
X0166937Y0021746D01*
X0165339Y0023344D02*
X0158340Y0023344D01*
X0159305Y0024943D02*
X0163740Y0024943D01*
X0162142Y0026541D02*
X0159699Y0026541D01*
X0159699Y0028140D02*
X0160543Y0028140D01*
X0154162Y0026997D02*
X0154162Y0033926D01*
X0149674Y0038414D01*
X0149674Y0037587D01*
X0148611Y0036524D01*
X0149674Y0038414D02*
X0149674Y0047656D01*
X0146524Y0047656D02*
X0146288Y0047420D01*
X0146288Y0042351D01*
X0142312Y0038375D01*
X0142312Y0036524D01*
X0136524Y0036524D01*
X0128572Y0028572D01*
X0128572Y0017954D01*
X0128009Y0017391D01*
X0134808Y0020147D02*
X0140209Y0020147D01*
X0139672Y0018549D02*
X0135346Y0018549D01*
X0135346Y0016950D02*
X0139672Y0016950D01*
X0139912Y0015352D02*
X0135106Y0015352D01*
X0134444Y0013753D02*
X0140574Y0013753D01*
X0141868Y0012155D02*
X0133149Y0012155D01*
X0131328Y0010855D02*
X0122666Y0010855D01*
X0125336Y0010556D02*
X0006117Y0010556D01*
X0025806Y0013753D02*
X0121574Y0013753D01*
X0130682Y0010556D02*
X0144336Y0010556D01*
X0147009Y0017391D02*
X0147009Y0019843D01*
X0154162Y0026997D01*
X0147475Y0028140D02*
X0135970Y0028140D01*
X0134372Y0026541D02*
X0145876Y0026541D01*
X0144278Y0024943D02*
X0134109Y0024943D01*
X0134109Y0023344D02*
X0142586Y0023344D01*
X0140988Y0021746D02*
X0134109Y0021746D01*
X0139202Y0018729D02*
X0131328Y0010855D01*
X0139202Y0018729D02*
X0139202Y0027784D01*
X0143217Y0031800D01*
X0148611Y0031800D01*
X0142312Y0031800D01*
X0142312Y0029967D02*
X0142312Y0028179D01*
X0142312Y0029967D01*
X0142312Y0029967D01*
X0142312Y0029738D02*
X0142312Y0029738D01*
X0139056Y0029738D02*
X0137569Y0029738D01*
X0124355Y0040928D02*
X0114560Y0040928D01*
X0115017Y0042526D02*
X0122489Y0042526D01*
X0121826Y0044125D02*
X0115017Y0044125D01*
X0114763Y0045723D02*
X0121790Y0045723D01*
X0121790Y0047322D02*
X0114101Y0047322D01*
X0112873Y0048921D02*
X0116063Y0048921D01*
X0114916Y0050519D02*
X0111893Y0050519D01*
X0110225Y0056682D02*
X0104162Y0050619D01*
X0104162Y0043690D01*
X0104280Y0043572D01*
X0095894Y0036446D02*
X0098650Y0033690D01*
X0104162Y0033690D01*
X0104280Y0033572D01*
X0095894Y0036446D02*
X0095894Y0051406D01*
X0104320Y0059831D01*
X0121750Y0059831D01*
X0121750Y0056682D02*
X0110225Y0056682D01*
X0096682Y0073808D02*
X0086485Y0073808D01*
X0086446Y0073847D01*
X0073682Y0077694D02*
X0006010Y0077694D01*
X0006012Y0076095D02*
X0072084Y0076095D01*
X0070485Y0074497D02*
X0006015Y0074497D01*
X0006018Y0072898D02*
X0068887Y0072898D01*
X0067288Y0071300D02*
X0006020Y0071300D01*
X0006023Y0069701D02*
X0065690Y0069701D01*
X0047112Y0068103D02*
X0040322Y0068103D01*
X0041921Y0066504D02*
X0046129Y0066504D01*
X0034065Y0068103D02*
X0006025Y0068103D01*
X0006028Y0066504D02*
X0032467Y0066504D01*
X0030868Y0064906D02*
X0029366Y0064906D01*
X0027194Y0064906D02*
X0027194Y0064906D01*
X0027194Y0065255D02*
X0025371Y0065255D01*
X0022794Y0062678D01*
X0022794Y0060855D01*
X0022794Y0059033D01*
X0025371Y0056455D01*
X0027194Y0056455D01*
X0027194Y0060855D01*
X0027194Y0060855D01*
X0022794Y0060855D01*
X0027194Y0060855D01*
X0027194Y0060855D01*
X0027194Y0065255D01*
X0027194Y0063307D02*
X0027194Y0063307D01*
X0027194Y0061709D02*
X0027194Y0061709D01*
X0027194Y0060110D02*
X0027194Y0060110D01*
X0027194Y0058512D02*
X0027194Y0058512D01*
X0027194Y0056913D02*
X0027194Y0056913D01*
X0029474Y0056913D02*
X0030760Y0056913D01*
X0032358Y0055315D02*
X0006046Y0055315D01*
X0006043Y0056913D02*
X0024913Y0056913D01*
X0023315Y0058512D02*
X0006041Y0058512D01*
X0006038Y0060110D02*
X0022794Y0060110D01*
X0022794Y0061709D02*
X0006035Y0061709D01*
X0006033Y0063307D02*
X0023423Y0063307D01*
X0025022Y0064906D02*
X0006030Y0064906D01*
X0006074Y0037731D02*
X0024225Y0037731D01*
X0059651Y0042526D02*
X0059855Y0042526D01*
X0065343Y0034477D02*
X0065265Y0034398D01*
X0060105Y0095277D02*
X0059165Y0095277D01*
X0080578Y0104868D02*
X0090207Y0104868D01*
X0089826Y0103270D02*
X0082176Y0103270D01*
X0083775Y0101671D02*
X0089826Y0101671D01*
X0089826Y0100073D02*
X0085373Y0100073D01*
X0086972Y0098474D02*
X0089987Y0098474D01*
X0097863Y0101406D02*
X0105343Y0101406D01*
X0119517Y0115580D01*
X0119517Y0118335D01*
X0119517Y0149595D01*
X0152942Y0183020D01*
X0146236Y0184794D02*
X0031653Y0184794D01*
X0031434Y0185612D02*
X0029973Y0188143D01*
X0027906Y0190209D01*
X0025375Y0191670D01*
X0022553Y0192427D01*
X0019630Y0192427D01*
X0016807Y0191670D01*
X0014276Y0190209D01*
X0012210Y0188143D01*
X0010749Y0185612D01*
X0009992Y0182789D01*
X0009992Y0179866D01*
X0010749Y0177043D01*
X0012210Y0174512D01*
X0014276Y0172446D01*
X0016807Y0170985D01*
X0019630Y0170228D01*
X0022553Y0170228D01*
X0025375Y0170985D01*
X0027906Y0172446D01*
X0029973Y0174512D01*
X0031434Y0177043D01*
X0032191Y0179866D01*
X0032191Y0182789D01*
X0031434Y0185612D01*
X0030983Y0186392D02*
X0146236Y0186392D01*
X0146274Y0187991D02*
X0030060Y0187991D01*
X0028526Y0189590D02*
X0146936Y0189590D01*
X0148808Y0191188D02*
X0026211Y0191188D01*
X0015972Y0191188D02*
X0005828Y0191188D01*
X0005831Y0189590D02*
X0013657Y0189590D01*
X0012122Y0187991D02*
X0005833Y0187991D01*
X0005836Y0186392D02*
X0011199Y0186392D01*
X0010529Y0184794D02*
X0005839Y0184794D01*
X0005841Y0183195D02*
X0010101Y0183195D01*
X0009992Y0181597D02*
X0005844Y0181597D01*
X0005846Y0179998D02*
X0009992Y0179998D01*
X0010385Y0178400D02*
X0005849Y0178400D01*
X0005851Y0176801D02*
X0010888Y0176801D01*
X0011811Y0175203D02*
X0005854Y0175203D01*
X0005856Y0173604D02*
X0013118Y0173604D01*
X0015038Y0172006D02*
X0005859Y0172006D01*
X0005862Y0170407D02*
X0018962Y0170407D01*
X0023221Y0170407D02*
X0132498Y0170407D01*
X0130900Y0168809D02*
X0005864Y0168809D01*
X0005867Y0167210D02*
X0129301Y0167210D01*
X0127703Y0165612D02*
X0005869Y0165612D01*
X0005872Y0164013D02*
X0126104Y0164013D01*
X0124506Y0162415D02*
X0005874Y0162415D01*
X0005877Y0160816D02*
X0122907Y0160816D01*
X0121309Y0159218D02*
X0005879Y0159218D01*
X0005882Y0157619D02*
X0119710Y0157619D01*
X0118112Y0156021D02*
X0005885Y0156021D01*
X0005887Y0154422D02*
X0116513Y0154422D01*
X0114915Y0152824D02*
X0005890Y0152824D01*
X0005892Y0151225D02*
X0114198Y0151225D01*
X0113980Y0149627D02*
X0005895Y0149627D01*
X0027144Y0172006D02*
X0134097Y0172006D01*
X0135695Y0173604D02*
X0029065Y0173604D01*
X0030372Y0175203D02*
X0137294Y0175203D01*
X0138892Y0176801D02*
X0031294Y0176801D01*
X0031798Y0178400D02*
X0140491Y0178400D01*
X0142089Y0179998D02*
X0032191Y0179998D01*
X0032191Y0181597D02*
X0143688Y0181597D01*
X0145286Y0183195D02*
X0032082Y0183195D01*
X0005826Y0192787D02*
X0160547Y0192787D01*
X0159599Y0191188D02*
X0157075Y0191188D01*
X0162145Y0194385D02*
X0005823Y0194385D01*
X0005821Y0195984D02*
X0163744Y0195984D01*
X0097468Y0146430D02*
X0070838Y0146430D01*
X0072133Y0144831D02*
X0095111Y0144831D01*
X0093931Y0143233D02*
X0072639Y0143233D01*
X0072639Y0141634D02*
X0093268Y0141634D01*
X0093173Y0140036D02*
X0072639Y0140036D01*
X0072875Y0138437D02*
X0093262Y0138437D01*
X0093728Y0136839D02*
X0074474Y0136839D01*
X0076072Y0135240D02*
X0093173Y0135240D01*
X0093173Y0133642D02*
X0077671Y0133642D01*
X0078612Y0132043D02*
X0093465Y0132043D01*
X0094127Y0130445D02*
X0078991Y0130445D01*
X0078991Y0128846D02*
X0095584Y0128846D01*
X0098612Y0127248D02*
X0078991Y0127248D01*
X0078991Y0116058D02*
X0103543Y0116058D01*
X0103543Y0114459D02*
X0078991Y0114459D01*
X0078991Y0112861D02*
X0104406Y0112861D01*
X0107718Y0112861D02*
X0108967Y0112861D01*
X0109268Y0114459D02*
X0107718Y0114459D01*
X0107718Y0116058D02*
X0109268Y0116058D01*
X0109268Y0119255D02*
X0107718Y0119255D01*
X0107718Y0120854D02*
X0109268Y0120854D01*
X0109268Y0122452D02*
X0107718Y0122452D01*
X0107718Y0124051D02*
X0109268Y0124051D01*
X0111961Y0124051D02*
X0111976Y0124051D01*
X0107369Y0111262D02*
X0078991Y0111262D01*
X0078991Y0109664D02*
X0105770Y0109664D01*
X0104172Y0108065D02*
X0078991Y0108065D01*
X0078991Y0106467D02*
X0091324Y0106467D01*
D30*
X0086446Y0073847D03*
X0082902Y0062430D03*
D31*
X0276997Y0054950D03*
X0245107Y0183296D03*
M02*
