G75*
%MOIN*%
%OFA0B0*%
%FSLAX25Y25*%
%IPPOS*%
%LPD*%
%AMOC8*
5,1,8,0,0,1.08239X$1,22.5*
%
%ADD10C,0.05200*%
%ADD11C,0.06000*%
%ADD12OC8,0.05200*%
%ADD13OC8,0.06000*%
%ADD14C,0.04362*%
%ADD15C,0.01600*%
%ADD16C,0.03569*%
%ADD17C,0.03175*%
%ADD18C,0.04000*%
D10*
X0128009Y0017391D03*
X0147009Y0017391D03*
D11*
X0107280Y0023572D02*
X0101280Y0023572D01*
X0101280Y0033572D02*
X0107280Y0033572D01*
X0107280Y0043572D02*
X0101280Y0043572D01*
X0140060Y0107981D02*
X0146060Y0107981D01*
X0159706Y0108020D02*
X0165706Y0108020D01*
X0165706Y0118020D02*
X0159706Y0118020D01*
X0146060Y0117981D02*
X0140060Y0117981D01*
X0293800Y0117272D02*
X0299800Y0117272D01*
X0299800Y0107272D02*
X0293800Y0107272D01*
X0293800Y0097272D02*
X0299800Y0097272D01*
X0299800Y0087272D02*
X0293800Y0087272D01*
X0293800Y0077272D02*
X0299800Y0077272D01*
X0299800Y0067272D02*
X0293800Y0067272D01*
X0293800Y0127272D02*
X0299800Y0127272D01*
X0299800Y0137272D02*
X0293800Y0137272D01*
D12*
X0037587Y0138414D03*
X0027587Y0138414D03*
X0027194Y0112824D03*
X0037194Y0112824D03*
X0037194Y0086839D03*
X0027194Y0086839D03*
X0027194Y0060855D03*
X0037194Y0060855D03*
X0037194Y0034477D03*
X0027194Y0034477D03*
D13*
X0177824Y0066209D03*
X0187824Y0066209D03*
X0187824Y0076209D03*
X0177824Y0076209D03*
X0177824Y0086209D03*
X0187824Y0086209D03*
D14*
X0104454Y0134123D02*
X0100091Y0134123D01*
X0100091Y0140028D02*
X0104454Y0140028D01*
D15*
X0005820Y0196213D02*
X0006120Y0008923D01*
X0370585Y0008923D01*
X0370659Y0196213D01*
X0005820Y0196213D01*
X0005821Y0195984D02*
X0370659Y0195984D01*
X0370659Y0194385D02*
X0005823Y0194385D01*
X0005826Y0192787D02*
X0370658Y0192787D01*
X0370657Y0191188D02*
X0360857Y0191188D01*
X0360021Y0191670D02*
X0357198Y0192427D01*
X0354276Y0192427D01*
X0351453Y0191670D01*
X0348922Y0190209D01*
X0346855Y0188143D01*
X0345394Y0185612D01*
X0344638Y0182789D01*
X0344638Y0179866D01*
X0345394Y0177043D01*
X0346855Y0174512D01*
X0348922Y0172446D01*
X0351453Y0170985D01*
X0354276Y0170228D01*
X0357198Y0170228D01*
X0360021Y0170985D01*
X0362552Y0172446D01*
X0364619Y0174512D01*
X0366080Y0177043D01*
X0366836Y0179866D01*
X0366836Y0182789D01*
X0366080Y0185612D01*
X0364619Y0188143D01*
X0362552Y0190209D01*
X0360021Y0191670D01*
X0363172Y0189590D02*
X0370657Y0189590D01*
X0370656Y0187991D02*
X0364706Y0187991D01*
X0365629Y0186392D02*
X0370656Y0186392D01*
X0370655Y0184794D02*
X0366299Y0184794D01*
X0366727Y0183195D02*
X0370654Y0183195D01*
X0370654Y0181597D02*
X0366836Y0181597D01*
X0366836Y0179998D02*
X0370653Y0179998D01*
X0370652Y0178400D02*
X0366443Y0178400D01*
X0365940Y0176801D02*
X0370652Y0176801D01*
X0370651Y0175203D02*
X0365017Y0175203D01*
X0363711Y0173604D02*
X0370650Y0173604D01*
X0370650Y0172006D02*
X0361790Y0172006D01*
X0357866Y0170407D02*
X0370649Y0170407D01*
X0370649Y0168809D02*
X0266244Y0168809D01*
X0267842Y0167210D02*
X0370648Y0167210D01*
X0370647Y0165612D02*
X0269441Y0165612D01*
X0271039Y0164013D02*
X0370647Y0164013D01*
X0370646Y0162415D02*
X0272638Y0162415D01*
X0274236Y0160816D02*
X0370645Y0160816D01*
X0370645Y0159218D02*
X0310878Y0159218D01*
X0310620Y0159324D02*
X0275728Y0159324D01*
X0251431Y0183621D01*
X0251431Y0184554D01*
X0250469Y0186879D01*
X0248690Y0188658D01*
X0246365Y0189620D01*
X0243849Y0189620D01*
X0241525Y0188658D01*
X0239746Y0186879D01*
X0238783Y0184554D01*
X0238783Y0182038D01*
X0239746Y0179714D01*
X0240365Y0179094D01*
X0240413Y0178978D01*
X0260067Y0159324D01*
X0131562Y0159324D01*
X0129086Y0158299D01*
X0127191Y0156404D01*
X0117553Y0146765D01*
X0106267Y0146765D01*
X0105830Y0146946D01*
X0098715Y0146946D01*
X0096173Y0145893D01*
X0094226Y0143947D01*
X0093173Y0141404D01*
X0093173Y0138652D01*
X0093826Y0137076D01*
X0093173Y0135499D01*
X0093173Y0132747D01*
X0094226Y0130204D01*
X0096173Y0128258D01*
X0098715Y0127205D01*
X0105830Y0127205D01*
X0106267Y0127386D01*
X0132707Y0127386D01*
X0135183Y0128411D01*
X0145929Y0139157D01*
X0289373Y0139157D01*
X0289352Y0139115D01*
X0289118Y0138396D01*
X0289000Y0137650D01*
X0289000Y0137472D01*
X0296600Y0137472D01*
X0296600Y0137072D01*
X0289000Y0137072D01*
X0289000Y0136895D01*
X0289118Y0136148D01*
X0289352Y0135430D01*
X0289695Y0134757D01*
X0290139Y0134145D01*
X0290149Y0134135D01*
X0289417Y0133832D01*
X0288002Y0132416D01*
X0227392Y0132416D01*
X0225356Y0131573D01*
X0223799Y0130015D01*
X0212999Y0119215D01*
X0212590Y0120741D01*
X0211233Y0123092D01*
X0209313Y0125012D01*
X0206961Y0126370D01*
X0204339Y0127072D01*
X0201624Y0127072D01*
X0199001Y0126370D01*
X0196649Y0125012D01*
X0194730Y0123092D01*
X0193372Y0120741D01*
X0192669Y0118118D01*
X0192669Y0115403D01*
X0193372Y0112780D01*
X0194730Y0110429D01*
X0196649Y0108509D01*
X0199001Y0107152D01*
X0200526Y0106743D01*
X0187824Y0094040D01*
X0184425Y0097439D01*
X0182390Y0098282D01*
X0165659Y0098282D01*
X0163624Y0097439D01*
X0162067Y0095881D01*
X0145569Y0079384D01*
X0090119Y0079384D01*
X0087743Y0080368D01*
X0085148Y0080368D01*
X0082752Y0079376D01*
X0080917Y0077541D01*
X0079924Y0075144D01*
X0079924Y0072550D01*
X0080917Y0070153D01*
X0081856Y0069214D01*
X0081585Y0068943D01*
X0079208Y0067958D01*
X0077374Y0066124D01*
X0076381Y0063727D01*
X0076381Y0061133D01*
X0077374Y0058736D01*
X0079208Y0056901D01*
X0081605Y0055909D01*
X0084200Y0055909D01*
X0086596Y0056901D01*
X0088431Y0058736D01*
X0089233Y0060672D01*
X0172419Y0060672D01*
X0174619Y0058472D01*
X0181028Y0058472D01*
X0184900Y0062344D01*
X0185835Y0061409D01*
X0187624Y0061409D01*
X0187624Y0066009D01*
X0188024Y0066009D01*
X0188024Y0066409D01*
X0192624Y0066409D01*
X0192624Y0068198D01*
X0191689Y0069133D01*
X0195561Y0073005D01*
X0195561Y0079414D01*
X0193765Y0081209D01*
X0195561Y0083005D01*
X0195561Y0086116D01*
X0230786Y0121342D01*
X0287111Y0121342D01*
X0286063Y0118811D01*
X0286063Y0115733D01*
X0287241Y0112890D01*
X0287858Y0112272D01*
X0287241Y0111655D01*
X0286063Y0108811D01*
X0286063Y0105733D01*
X0287241Y0102890D01*
X0287858Y0102272D01*
X0287241Y0101655D01*
X0286063Y0098811D01*
X0286063Y0095733D01*
X0287241Y0092890D01*
X0287858Y0092272D01*
X0287241Y0091655D01*
X0286063Y0088811D01*
X0286063Y0085733D01*
X0287241Y0082890D01*
X0287858Y0082272D01*
X0287241Y0081655D01*
X0286063Y0078811D01*
X0286063Y0075733D01*
X0287241Y0072890D01*
X0287715Y0072416D01*
X0211447Y0072416D01*
X0209412Y0071573D01*
X0207854Y0070015D01*
X0177459Y0039620D01*
X0114018Y0039620D01*
X0115017Y0042033D01*
X0115017Y0045111D01*
X0113839Y0047954D01*
X0111663Y0050131D01*
X0108819Y0051309D01*
X0099741Y0051309D01*
X0096898Y0050131D01*
X0094721Y0047954D01*
X0093543Y0045111D01*
X0093543Y0042033D01*
X0094721Y0039189D01*
X0095339Y0038572D01*
X0094721Y0037954D01*
X0093543Y0035111D01*
X0093543Y0032033D01*
X0094721Y0029189D01*
X0096898Y0027013D01*
X0097630Y0026709D01*
X0097619Y0026699D01*
X0097175Y0026087D01*
X0096832Y0025414D01*
X0096599Y0024696D01*
X0096480Y0023949D01*
X0096480Y0023772D01*
X0104080Y0023772D01*
X0104080Y0023372D01*
X0096480Y0023372D01*
X0096480Y0023194D01*
X0096599Y0022448D01*
X0096832Y0021729D01*
X0097175Y0021056D01*
X0097619Y0020445D01*
X0098153Y0019910D01*
X0098765Y0019466D01*
X0099438Y0019123D01*
X0100156Y0018890D01*
X0100903Y0018772D01*
X0104080Y0018772D01*
X0104080Y0023372D01*
X0104480Y0023372D01*
X0104480Y0023772D01*
X0112080Y0023772D01*
X0112080Y0023949D01*
X0111962Y0024696D01*
X0111729Y0025414D01*
X0111386Y0026087D01*
X0110942Y0026699D01*
X0110931Y0026709D01*
X0111663Y0027013D01*
X0113197Y0028546D01*
X0180854Y0028546D01*
X0182889Y0029389D01*
X0184447Y0030947D01*
X0214842Y0061342D01*
X0288789Y0061342D01*
X0289417Y0060713D01*
X0292261Y0059535D01*
X0301339Y0059535D01*
X0304183Y0060713D01*
X0306359Y0062890D01*
X0307537Y0065733D01*
X0307537Y0068811D01*
X0306359Y0071655D01*
X0305742Y0072272D01*
X0306359Y0072890D01*
X0307537Y0075733D01*
X0307537Y0078811D01*
X0306359Y0081655D01*
X0305742Y0082272D01*
X0306359Y0082890D01*
X0307537Y0085733D01*
X0307537Y0088811D01*
X0306359Y0091655D01*
X0305742Y0092272D01*
X0306359Y0092890D01*
X0307537Y0095733D01*
X0307537Y0098811D01*
X0306807Y0100575D01*
X0309439Y0100575D01*
X0311915Y0101600D01*
X0313811Y0103496D01*
X0326803Y0116488D01*
X0327828Y0118964D01*
X0327828Y0142116D01*
X0326803Y0144593D01*
X0313097Y0158299D01*
X0310620Y0159324D01*
X0313776Y0157619D02*
X0370644Y0157619D01*
X0370643Y0156021D02*
X0315374Y0156021D01*
X0316973Y0154422D02*
X0370643Y0154422D01*
X0370642Y0152824D02*
X0318572Y0152824D01*
X0320170Y0151225D02*
X0370642Y0151225D01*
X0370641Y0149627D02*
X0321769Y0149627D01*
X0323367Y0148028D02*
X0370640Y0148028D01*
X0370640Y0146430D02*
X0324966Y0146430D01*
X0326564Y0144831D02*
X0370639Y0144831D01*
X0370638Y0143233D02*
X0327366Y0143233D01*
X0327828Y0141634D02*
X0370638Y0141634D01*
X0370637Y0140036D02*
X0327828Y0140036D01*
X0327828Y0138437D02*
X0370636Y0138437D01*
X0370636Y0136839D02*
X0327828Y0136839D01*
X0327828Y0135240D02*
X0370635Y0135240D01*
X0370634Y0133642D02*
X0327828Y0133642D01*
X0327828Y0132043D02*
X0370634Y0132043D01*
X0370633Y0130445D02*
X0327828Y0130445D01*
X0327828Y0128846D02*
X0370633Y0128846D01*
X0370632Y0127248D02*
X0327828Y0127248D01*
X0327828Y0125649D02*
X0370631Y0125649D01*
X0370631Y0124051D02*
X0327828Y0124051D01*
X0327828Y0122452D02*
X0370630Y0122452D01*
X0370629Y0120854D02*
X0327828Y0120854D01*
X0327828Y0119255D02*
X0370629Y0119255D01*
X0370628Y0117657D02*
X0327287Y0117657D01*
X0326373Y0116058D02*
X0370627Y0116058D01*
X0370627Y0114459D02*
X0324774Y0114459D01*
X0323176Y0112861D02*
X0370626Y0112861D01*
X0370626Y0111262D02*
X0321577Y0111262D01*
X0319979Y0109664D02*
X0370625Y0109664D01*
X0370624Y0108065D02*
X0318380Y0108065D01*
X0316782Y0106467D02*
X0370624Y0106467D01*
X0370623Y0104868D02*
X0315183Y0104868D01*
X0313811Y0103496D02*
X0313811Y0103496D01*
X0313585Y0103270D02*
X0370622Y0103270D01*
X0370622Y0101671D02*
X0311986Y0101671D01*
X0307014Y0100073D02*
X0370621Y0100073D01*
X0370620Y0098474D02*
X0307537Y0098474D01*
X0307537Y0096876D02*
X0370620Y0096876D01*
X0370619Y0095277D02*
X0307348Y0095277D01*
X0306686Y0093679D02*
X0370619Y0093679D01*
X0370618Y0092080D02*
X0305934Y0092080D01*
X0306845Y0090482D02*
X0370617Y0090482D01*
X0370617Y0088883D02*
X0307507Y0088883D01*
X0307537Y0087285D02*
X0370616Y0087285D01*
X0370615Y0085686D02*
X0307517Y0085686D01*
X0306855Y0084088D02*
X0370615Y0084088D01*
X0370614Y0082489D02*
X0305959Y0082489D01*
X0306676Y0080891D02*
X0370613Y0080891D01*
X0370613Y0079292D02*
X0307338Y0079292D01*
X0307537Y0077694D02*
X0370612Y0077694D01*
X0370611Y0076095D02*
X0307537Y0076095D01*
X0307025Y0074497D02*
X0370611Y0074497D01*
X0370610Y0072898D02*
X0306363Y0072898D01*
X0306506Y0071300D02*
X0370610Y0071300D01*
X0370609Y0069701D02*
X0307168Y0069701D01*
X0307537Y0068103D02*
X0370608Y0068103D01*
X0370608Y0066504D02*
X0307537Y0066504D01*
X0307194Y0064906D02*
X0370607Y0064906D01*
X0370606Y0063307D02*
X0306532Y0063307D01*
X0305178Y0061709D02*
X0370606Y0061709D01*
X0370605Y0060110D02*
X0302726Y0060110D01*
X0296406Y0066879D02*
X0296800Y0067272D01*
X0296406Y0066879D02*
X0212548Y0066879D01*
X0179753Y0034083D01*
X0104792Y0034083D01*
X0104280Y0033572D01*
X0094629Y0037731D02*
X0044316Y0037731D01*
X0044531Y0037516D02*
X0040233Y0041814D01*
X0034155Y0041814D01*
X0030117Y0037776D01*
X0029016Y0038877D01*
X0027194Y0038877D01*
X0027194Y0034477D01*
X0027194Y0034477D01*
X0027194Y0038877D01*
X0025371Y0038877D01*
X0022794Y0036300D01*
X0022794Y0034882D01*
X0022553Y0034946D01*
X0019630Y0034946D01*
X0016807Y0034190D01*
X0014276Y0032729D01*
X0012210Y0030662D01*
X0010749Y0028131D01*
X0009992Y0025308D01*
X0009992Y0022386D01*
X0010749Y0019563D01*
X0012210Y0017032D01*
X0014276Y0014966D01*
X0016807Y0013504D01*
X0019630Y0012748D01*
X0022553Y0012748D01*
X0025375Y0013504D01*
X0027906Y0014966D01*
X0029973Y0017032D01*
X0031434Y0019563D01*
X0032191Y0022386D01*
X0032191Y0025308D01*
X0031434Y0028131D01*
X0029973Y0030662D01*
X0029787Y0030848D01*
X0030117Y0031178D01*
X0034155Y0027140D01*
X0040233Y0027140D01*
X0044531Y0031438D01*
X0044531Y0037516D01*
X0044531Y0036132D02*
X0093967Y0036132D01*
X0093543Y0034534D02*
X0044531Y0034534D01*
X0044531Y0032935D02*
X0093543Y0032935D01*
X0093831Y0031337D02*
X0044430Y0031337D01*
X0042831Y0029738D02*
X0094494Y0029738D01*
X0095770Y0028140D02*
X0041232Y0028140D01*
X0033155Y0028140D02*
X0031429Y0028140D01*
X0031556Y0029738D02*
X0030506Y0029738D01*
X0031860Y0026541D02*
X0097505Y0026541D01*
X0096679Y0024943D02*
X0032191Y0024943D01*
X0032191Y0023344D02*
X0096480Y0023344D01*
X0096827Y0021746D02*
X0032019Y0021746D01*
X0031591Y0020147D02*
X0097916Y0020147D01*
X0104080Y0020147D02*
X0104480Y0020147D01*
X0104480Y0018772D02*
X0107658Y0018772D01*
X0108404Y0018890D01*
X0109123Y0019123D01*
X0109796Y0019466D01*
X0110407Y0019910D01*
X0110942Y0020445D01*
X0111386Y0021056D01*
X0111729Y0021729D01*
X0111962Y0022448D01*
X0112080Y0023194D01*
X0112080Y0023372D01*
X0104480Y0023372D01*
X0104480Y0018772D01*
X0104480Y0021746D02*
X0104080Y0021746D01*
X0104080Y0023344D02*
X0104480Y0023344D01*
X0104280Y0023572D02*
X0104556Y0023847D01*
X0118335Y0023847D01*
X0121485Y0026997D01*
X0187233Y0026997D01*
X0215186Y0054950D01*
X0276997Y0054950D01*
X0290874Y0060110D02*
X0213610Y0060110D01*
X0212011Y0058512D02*
X0370604Y0058512D01*
X0370604Y0056913D02*
X0210413Y0056913D01*
X0208814Y0055315D02*
X0370603Y0055315D01*
X0370603Y0053716D02*
X0207216Y0053716D01*
X0205617Y0052118D02*
X0370602Y0052118D01*
X0370601Y0050519D02*
X0204019Y0050519D01*
X0202420Y0048921D02*
X0370601Y0048921D01*
X0370600Y0047322D02*
X0200822Y0047322D01*
X0199223Y0045723D02*
X0370599Y0045723D01*
X0370599Y0044125D02*
X0197625Y0044125D01*
X0196026Y0042526D02*
X0370598Y0042526D01*
X0370597Y0040928D02*
X0194428Y0040928D01*
X0192829Y0039329D02*
X0370597Y0039329D01*
X0370596Y0037731D02*
X0191231Y0037731D01*
X0189632Y0036132D02*
X0370595Y0036132D01*
X0370595Y0034534D02*
X0358738Y0034534D01*
X0360021Y0034190D02*
X0357198Y0034946D01*
X0354276Y0034946D01*
X0351453Y0034190D01*
X0348922Y0032729D01*
X0346855Y0030662D01*
X0345394Y0028131D01*
X0344638Y0025308D01*
X0344638Y0022386D01*
X0345394Y0019563D01*
X0346855Y0017032D01*
X0348922Y0014966D01*
X0351453Y0013504D01*
X0354276Y0012748D01*
X0357198Y0012748D01*
X0360021Y0013504D01*
X0362552Y0014966D01*
X0364619Y0017032D01*
X0366080Y0019563D01*
X0366836Y0022386D01*
X0366836Y0025308D01*
X0366080Y0028131D01*
X0364619Y0030662D01*
X0362552Y0032729D01*
X0360021Y0034190D01*
X0362194Y0032935D02*
X0370594Y0032935D01*
X0370594Y0031337D02*
X0363944Y0031337D01*
X0365152Y0029738D02*
X0370593Y0029738D01*
X0370592Y0028140D02*
X0366075Y0028140D01*
X0366506Y0026541D02*
X0370592Y0026541D01*
X0370591Y0024943D02*
X0366836Y0024943D01*
X0366836Y0023344D02*
X0370590Y0023344D01*
X0370590Y0021746D02*
X0366665Y0021746D01*
X0366236Y0020147D02*
X0370589Y0020147D01*
X0370588Y0018549D02*
X0365494Y0018549D01*
X0364537Y0016950D02*
X0370588Y0016950D01*
X0370587Y0015352D02*
X0362938Y0015352D01*
X0360452Y0013753D02*
X0370587Y0013753D01*
X0370586Y0012155D02*
X0152149Y0012155D01*
X0151165Y0011171D02*
X0153229Y0013234D01*
X0154346Y0015931D01*
X0154346Y0018850D01*
X0153229Y0021547D01*
X0151165Y0023611D01*
X0148468Y0024728D01*
X0145549Y0024728D01*
X0142853Y0023611D01*
X0140789Y0021547D01*
X0139672Y0018850D01*
X0139672Y0015931D01*
X0140789Y0013234D01*
X0142853Y0011171D01*
X0145549Y0010054D01*
X0148468Y0010054D01*
X0151165Y0011171D01*
X0149682Y0010556D02*
X0370585Y0010556D01*
X0370585Y0008958D02*
X0006120Y0008958D01*
X0006117Y0010556D02*
X0125336Y0010556D01*
X0126549Y0010054D02*
X0123853Y0011171D01*
X0121789Y0013234D01*
X0120672Y0015931D01*
X0120672Y0018850D01*
X0121789Y0021547D01*
X0123853Y0023611D01*
X0126549Y0024728D01*
X0129468Y0024728D01*
X0132165Y0023611D01*
X0134229Y0021547D01*
X0135346Y0018850D01*
X0135346Y0015931D01*
X0134229Y0013234D01*
X0132165Y0011171D01*
X0129468Y0010054D01*
X0126549Y0010054D01*
X0130682Y0010556D02*
X0144336Y0010556D01*
X0141868Y0012155D02*
X0133149Y0012155D01*
X0134444Y0013753D02*
X0140574Y0013753D01*
X0139912Y0015352D02*
X0135106Y0015352D01*
X0135346Y0016950D02*
X0139672Y0016950D01*
X0139672Y0018549D02*
X0135346Y0018549D01*
X0134808Y0020147D02*
X0140209Y0020147D01*
X0140988Y0021746D02*
X0134029Y0021746D01*
X0132431Y0023344D02*
X0142586Y0023344D01*
X0151431Y0023344D02*
X0344638Y0023344D01*
X0344638Y0024943D02*
X0111882Y0024943D01*
X0112080Y0023344D02*
X0123586Y0023344D01*
X0121988Y0021746D02*
X0111734Y0021746D01*
X0110644Y0020147D02*
X0121209Y0020147D01*
X0120672Y0018549D02*
X0030849Y0018549D01*
X0029891Y0016950D02*
X0120672Y0016950D01*
X0120912Y0015352D02*
X0028293Y0015352D01*
X0025806Y0013753D02*
X0121574Y0013753D01*
X0122868Y0012155D02*
X0006115Y0012155D01*
X0006112Y0013753D02*
X0016376Y0013753D01*
X0013890Y0015352D02*
X0006110Y0015352D01*
X0006107Y0016950D02*
X0012292Y0016950D01*
X0011334Y0018549D02*
X0006104Y0018549D01*
X0006102Y0020147D02*
X0010592Y0020147D01*
X0010164Y0021746D02*
X0006099Y0021746D01*
X0006097Y0023344D02*
X0009992Y0023344D01*
X0009992Y0024943D02*
X0006094Y0024943D01*
X0006092Y0026541D02*
X0010322Y0026541D01*
X0010753Y0028140D02*
X0006089Y0028140D01*
X0006087Y0029738D02*
X0011676Y0029738D01*
X0012884Y0031337D02*
X0006084Y0031337D01*
X0006081Y0032935D02*
X0014634Y0032935D01*
X0018091Y0034534D02*
X0006079Y0034534D01*
X0006076Y0036132D02*
X0022794Y0036132D01*
X0024225Y0037731D02*
X0006074Y0037731D01*
X0006071Y0039329D02*
X0031670Y0039329D01*
X0033268Y0040928D02*
X0006069Y0040928D01*
X0006066Y0042526D02*
X0093543Y0042526D01*
X0093543Y0044125D02*
X0006064Y0044125D01*
X0006061Y0045723D02*
X0093797Y0045723D01*
X0094459Y0047322D02*
X0006058Y0047322D01*
X0006056Y0048921D02*
X0095687Y0048921D01*
X0097835Y0050519D02*
X0006053Y0050519D01*
X0006051Y0052118D02*
X0189956Y0052118D01*
X0191555Y0053716D02*
X0040431Y0053716D01*
X0040233Y0053518D02*
X0044531Y0057816D01*
X0044531Y0063894D01*
X0040233Y0068192D01*
X0034155Y0068192D01*
X0030117Y0064154D01*
X0029016Y0065255D01*
X0027194Y0065255D01*
X0027194Y0060855D01*
X0027194Y0056455D01*
X0029016Y0056455D01*
X0030117Y0057556D01*
X0034155Y0053518D01*
X0040233Y0053518D01*
X0042029Y0055315D02*
X0193153Y0055315D01*
X0194752Y0056913D02*
X0086608Y0056913D01*
X0088206Y0058512D02*
X0174580Y0058512D01*
X0172981Y0060110D02*
X0089000Y0060110D01*
X0086682Y0066209D02*
X0082902Y0062430D01*
X0086682Y0066209D02*
X0177824Y0066209D01*
X0184265Y0061709D02*
X0185536Y0061709D01*
X0187624Y0061709D02*
X0188024Y0061709D01*
X0188024Y0061409D02*
X0189812Y0061409D01*
X0192624Y0064221D01*
X0192624Y0066009D01*
X0188024Y0066009D01*
X0188024Y0061409D01*
X0187824Y0063020D02*
X0178572Y0053769D01*
X0097469Y0053769D01*
X0090776Y0047076D01*
X0090776Y0033808D01*
X0101013Y0023572D01*
X0104280Y0023572D01*
X0111056Y0026541D02*
X0344968Y0026541D01*
X0345399Y0028140D02*
X0112790Y0028140D01*
X0094663Y0039329D02*
X0042717Y0039329D01*
X0041119Y0040928D02*
X0094001Y0040928D01*
X0110726Y0050519D02*
X0188358Y0050519D01*
X0186759Y0048921D02*
X0112873Y0048921D01*
X0114101Y0047322D02*
X0185161Y0047322D01*
X0183562Y0045723D02*
X0114763Y0045723D01*
X0115017Y0044125D02*
X0181964Y0044125D01*
X0180365Y0042526D02*
X0115017Y0042526D01*
X0114560Y0040928D02*
X0178767Y0040928D01*
X0186435Y0032935D02*
X0349280Y0032935D01*
X0347530Y0031337D02*
X0184837Y0031337D01*
X0183238Y0029738D02*
X0346322Y0029738D01*
X0352736Y0034534D02*
X0188034Y0034534D01*
X0154346Y0018549D02*
X0345980Y0018549D01*
X0345238Y0020147D02*
X0153808Y0020147D01*
X0153029Y0021746D02*
X0344809Y0021746D01*
X0346937Y0016950D02*
X0154346Y0016950D01*
X0154106Y0015352D02*
X0348536Y0015352D01*
X0351022Y0013753D02*
X0153444Y0013753D01*
X0079197Y0056913D02*
X0043628Y0056913D01*
X0044531Y0058512D02*
X0077598Y0058512D01*
X0076805Y0060110D02*
X0044531Y0060110D01*
X0044531Y0061709D02*
X0076381Y0061709D01*
X0076381Y0063307D02*
X0044531Y0063307D01*
X0043519Y0064906D02*
X0076869Y0064906D01*
X0077754Y0066504D02*
X0041921Y0066504D01*
X0040322Y0068103D02*
X0079557Y0068103D01*
X0081369Y0069701D02*
X0006023Y0069701D01*
X0006025Y0068103D02*
X0034065Y0068103D01*
X0032467Y0066504D02*
X0006028Y0066504D01*
X0006030Y0064906D02*
X0025022Y0064906D01*
X0025371Y0065255D02*
X0022794Y0062678D01*
X0022794Y0060855D01*
X0022794Y0059033D01*
X0025371Y0056455D01*
X0027194Y0056455D01*
X0027194Y0060855D01*
X0027194Y0060855D01*
X0027194Y0060855D01*
X0022794Y0060855D01*
X0027194Y0060855D01*
X0027194Y0060855D01*
X0027194Y0065255D01*
X0025371Y0065255D01*
X0027194Y0064906D02*
X0027194Y0064906D01*
X0027194Y0063307D02*
X0027194Y0063307D01*
X0027194Y0061709D02*
X0027194Y0061709D01*
X0027194Y0060110D02*
X0027194Y0060110D01*
X0027194Y0058512D02*
X0027194Y0058512D01*
X0027194Y0056913D02*
X0027194Y0056913D01*
X0029474Y0056913D02*
X0030760Y0056913D01*
X0032358Y0055315D02*
X0006046Y0055315D01*
X0006043Y0056913D02*
X0024913Y0056913D01*
X0023315Y0058512D02*
X0006041Y0058512D01*
X0006038Y0060110D02*
X0022794Y0060110D01*
X0022794Y0061709D02*
X0006035Y0061709D01*
X0006033Y0063307D02*
X0023423Y0063307D01*
X0029366Y0064906D02*
X0030868Y0064906D01*
X0033957Y0053716D02*
X0006048Y0053716D01*
X0006020Y0071300D02*
X0080442Y0071300D01*
X0079924Y0072898D02*
X0006018Y0072898D01*
X0006015Y0074497D02*
X0079924Y0074497D01*
X0080318Y0076095D02*
X0006012Y0076095D01*
X0006010Y0077694D02*
X0081070Y0077694D01*
X0082668Y0079292D02*
X0006007Y0079292D01*
X0006005Y0080891D02*
X0032766Y0080891D01*
X0034155Y0079502D02*
X0030117Y0083540D01*
X0029016Y0082439D01*
X0027194Y0082439D01*
X0027194Y0086839D01*
X0027194Y0086839D01*
X0027194Y0082439D01*
X0025371Y0082439D01*
X0022794Y0085017D01*
X0022794Y0086839D01*
X0027194Y0086839D01*
X0027194Y0086839D01*
X0027194Y0086839D01*
X0027194Y0091239D01*
X0029016Y0091239D01*
X0030117Y0090139D01*
X0034155Y0094176D01*
X0040233Y0094176D01*
X0044531Y0089878D01*
X0044531Y0083800D01*
X0040233Y0079502D01*
X0034155Y0079502D01*
X0031168Y0082489D02*
X0029066Y0082489D01*
X0027194Y0082489D02*
X0027194Y0082489D01*
X0027194Y0084088D02*
X0027194Y0084088D01*
X0027194Y0085686D02*
X0027194Y0085686D01*
X0027194Y0086839D02*
X0022794Y0086839D01*
X0022794Y0088662D01*
X0025371Y0091239D01*
X0027194Y0091239D01*
X0027194Y0086839D01*
X0027194Y0087285D02*
X0027194Y0087285D01*
X0027194Y0088883D02*
X0027194Y0088883D01*
X0027194Y0090482D02*
X0027194Y0090482D01*
X0029774Y0090482D02*
X0030460Y0090482D01*
X0032059Y0092080D02*
X0005987Y0092080D01*
X0005989Y0090482D02*
X0024614Y0090482D01*
X0023015Y0088883D02*
X0005992Y0088883D01*
X0005995Y0087285D02*
X0022794Y0087285D01*
X0022794Y0085686D02*
X0005997Y0085686D01*
X0006000Y0084088D02*
X0023723Y0084088D01*
X0025321Y0082489D02*
X0006002Y0082489D01*
X0005984Y0093679D02*
X0033657Y0093679D01*
X0040730Y0093679D02*
X0159864Y0093679D01*
X0161463Y0095277D02*
X0005982Y0095277D01*
X0005979Y0096876D02*
X0163061Y0096876D01*
X0167245Y0100283D02*
X0158167Y0100283D01*
X0155323Y0101461D01*
X0153146Y0103638D01*
X0152891Y0104255D01*
X0152619Y0103598D01*
X0150442Y0101422D01*
X0147599Y0100244D01*
X0138521Y0100244D01*
X0135677Y0101422D01*
X0133501Y0103598D01*
X0132323Y0106442D01*
X0132323Y0109520D01*
X0133501Y0112364D01*
X0134118Y0112981D01*
X0133501Y0113598D01*
X0132323Y0116442D01*
X0132323Y0119520D01*
X0133501Y0122364D01*
X0135677Y0124540D01*
X0138521Y0125718D01*
X0147599Y0125718D01*
X0150442Y0124540D01*
X0152619Y0122364D01*
X0152875Y0121747D01*
X0153146Y0122403D01*
X0155323Y0124580D01*
X0158167Y0125757D01*
X0167245Y0125757D01*
X0170088Y0124580D01*
X0172265Y0122403D01*
X0173443Y0119559D01*
X0173443Y0116481D01*
X0172265Y0113638D01*
X0171647Y0113020D01*
X0172265Y0112403D01*
X0173443Y0109559D01*
X0173443Y0106481D01*
X0172265Y0103638D01*
X0170088Y0101461D01*
X0167245Y0100283D01*
X0170298Y0101671D02*
X0195455Y0101671D01*
X0193857Y0100073D02*
X0005974Y0100073D01*
X0005972Y0101671D02*
X0135428Y0101671D01*
X0133829Y0103270D02*
X0005969Y0103270D01*
X0005966Y0104868D02*
X0132975Y0104868D01*
X0132323Y0106467D02*
X0041213Y0106467D01*
X0040233Y0105487D02*
X0044531Y0109785D01*
X0044531Y0115863D01*
X0040233Y0120161D01*
X0034155Y0120161D01*
X0030117Y0116123D01*
X0029016Y0117224D01*
X0027194Y0117224D01*
X0027194Y0112824D01*
X0027194Y0112824D01*
X0027194Y0117224D01*
X0025371Y0117224D01*
X0022794Y0114646D01*
X0022794Y0112824D01*
X0027194Y0112824D01*
X0027194Y0112824D01*
X0027194Y0112823D02*
X0027194Y0108424D01*
X0029016Y0108424D01*
X0030117Y0109524D01*
X0034155Y0105487D01*
X0040233Y0105487D01*
X0042812Y0108065D02*
X0132323Y0108065D01*
X0132382Y0109664D02*
X0044410Y0109664D01*
X0044531Y0111262D02*
X0133045Y0111262D01*
X0133998Y0112861D02*
X0044531Y0112861D01*
X0044531Y0114459D02*
X0133144Y0114459D01*
X0132482Y0116058D02*
X0044335Y0116058D01*
X0042737Y0117657D02*
X0132323Y0117657D01*
X0132323Y0119255D02*
X0041138Y0119255D01*
X0033249Y0119255D02*
X0005943Y0119255D01*
X0005946Y0117657D02*
X0031651Y0117657D01*
X0027194Y0116058D02*
X0027194Y0116058D01*
X0027194Y0114459D02*
X0027194Y0114459D01*
X0027194Y0112861D02*
X0027194Y0112861D01*
X0027194Y0112824D02*
X0022794Y0112824D01*
X0022794Y0111001D01*
X0025371Y0108424D01*
X0027194Y0108424D01*
X0027194Y0112823D01*
X0027194Y0112823D01*
X0027194Y0111262D02*
X0027194Y0111262D01*
X0027194Y0109664D02*
X0027194Y0109664D01*
X0024131Y0109664D02*
X0005959Y0109664D01*
X0005956Y0111262D02*
X0022794Y0111262D01*
X0022794Y0112861D02*
X0005954Y0112861D01*
X0005951Y0114459D02*
X0022794Y0114459D01*
X0024206Y0116058D02*
X0005948Y0116058D01*
X0005941Y0120854D02*
X0132875Y0120854D01*
X0133589Y0122452D02*
X0005938Y0122452D01*
X0005936Y0124051D02*
X0135188Y0124051D01*
X0134477Y0125422D02*
X0148650Y0139595D01*
X0294477Y0139595D01*
X0296800Y0137272D01*
X0294871Y0139202D01*
X0297000Y0137472D02*
X0304238Y0137472D01*
X0306480Y0135230D01*
X0306480Y0131362D01*
X0306359Y0131655D01*
X0304183Y0133832D01*
X0303451Y0134135D01*
X0303461Y0134145D01*
X0303905Y0134757D01*
X0304248Y0135430D01*
X0304482Y0136148D01*
X0304600Y0136895D01*
X0304600Y0137072D01*
X0297000Y0137072D01*
X0297000Y0137472D01*
X0304152Y0135240D02*
X0306470Y0135240D01*
X0306480Y0133642D02*
X0304373Y0133642D01*
X0305971Y0132043D02*
X0306480Y0132043D01*
X0296800Y0127272D02*
X0296406Y0126879D01*
X0228493Y0126879D01*
X0187824Y0086209D01*
X0181288Y0092745D01*
X0166761Y0092745D01*
X0147863Y0073847D01*
X0086446Y0073847D01*
X0044531Y0084088D02*
X0150273Y0084088D01*
X0151872Y0085686D02*
X0044531Y0085686D01*
X0044531Y0087285D02*
X0153470Y0087285D01*
X0155069Y0088883D02*
X0044531Y0088883D01*
X0043927Y0090482D02*
X0156667Y0090482D01*
X0158266Y0092080D02*
X0042329Y0092080D01*
X0043220Y0082489D02*
X0148675Y0082489D01*
X0147076Y0080891D02*
X0041621Y0080891D01*
X0005977Y0098474D02*
X0192258Y0098474D01*
X0190660Y0096876D02*
X0184988Y0096876D01*
X0186586Y0095277D02*
X0189061Y0095277D01*
X0198328Y0088883D02*
X0286093Y0088883D01*
X0286063Y0087285D02*
X0196729Y0087285D01*
X0195561Y0085686D02*
X0286083Y0085686D01*
X0286745Y0084088D02*
X0195561Y0084088D01*
X0195045Y0082489D02*
X0287641Y0082489D01*
X0286924Y0080891D02*
X0194084Y0080891D01*
X0195561Y0079292D02*
X0286262Y0079292D01*
X0286063Y0077694D02*
X0195561Y0077694D01*
X0195561Y0076095D02*
X0286063Y0076095D01*
X0286575Y0074497D02*
X0195561Y0074497D01*
X0195454Y0072898D02*
X0287237Y0072898D01*
X0286755Y0090482D02*
X0199926Y0090482D01*
X0201525Y0092080D02*
X0287666Y0092080D01*
X0286914Y0093679D02*
X0203123Y0093679D01*
X0204722Y0095277D02*
X0286252Y0095277D01*
X0286063Y0096876D02*
X0206321Y0096876D01*
X0207919Y0098474D02*
X0286063Y0098474D01*
X0286586Y0100073D02*
X0209518Y0100073D01*
X0211116Y0101671D02*
X0287257Y0101671D01*
X0287083Y0103270D02*
X0212715Y0103270D01*
X0214313Y0104868D02*
X0286421Y0104868D01*
X0286063Y0106467D02*
X0215912Y0106467D01*
X0217510Y0108065D02*
X0286063Y0108065D01*
X0286416Y0109664D02*
X0219109Y0109664D01*
X0220707Y0111262D02*
X0287078Y0111262D01*
X0287270Y0112861D02*
X0222306Y0112861D01*
X0223904Y0114459D02*
X0286591Y0114459D01*
X0286063Y0116058D02*
X0225503Y0116058D01*
X0227101Y0117657D02*
X0286063Y0117657D01*
X0286247Y0119255D02*
X0228700Y0119255D01*
X0230298Y0120854D02*
X0286909Y0120854D01*
X0289227Y0133642D02*
X0140413Y0133642D01*
X0142012Y0135240D02*
X0289448Y0135240D01*
X0289009Y0136839D02*
X0143610Y0136839D01*
X0145209Y0138437D02*
X0289131Y0138437D01*
X0304591Y0136839D02*
X0304872Y0136839D01*
X0274635Y0152587D02*
X0245107Y0182115D01*
X0245107Y0183296D01*
X0239627Y0179998D02*
X0032191Y0179998D01*
X0032191Y0179866D02*
X0031434Y0177043D01*
X0029973Y0174512D01*
X0027906Y0172446D01*
X0025375Y0170985D01*
X0022553Y0170228D01*
X0019630Y0170228D01*
X0016807Y0170985D01*
X0014276Y0172446D01*
X0012210Y0174512D01*
X0010749Y0177043D01*
X0009992Y0179866D01*
X0009992Y0182789D01*
X0010749Y0185612D01*
X0012210Y0188143D01*
X0014276Y0190209D01*
X0016807Y0191670D01*
X0019630Y0192427D01*
X0022553Y0192427D01*
X0025375Y0191670D01*
X0027906Y0190209D01*
X0029973Y0188143D01*
X0031434Y0185612D01*
X0032191Y0182789D01*
X0032191Y0179866D01*
X0031798Y0178400D02*
X0240992Y0178400D01*
X0242590Y0176801D02*
X0031294Y0176801D01*
X0030372Y0175203D02*
X0244189Y0175203D01*
X0245787Y0173604D02*
X0029065Y0173604D01*
X0027144Y0172006D02*
X0247386Y0172006D01*
X0248984Y0170407D02*
X0023221Y0170407D01*
X0018962Y0170407D02*
X0005862Y0170407D01*
X0005864Y0168809D02*
X0250583Y0168809D01*
X0252181Y0167210D02*
X0005867Y0167210D01*
X0005869Y0165612D02*
X0253780Y0165612D01*
X0255378Y0164013D02*
X0005872Y0164013D01*
X0005874Y0162415D02*
X0256977Y0162415D01*
X0258575Y0160816D02*
X0005877Y0160816D01*
X0005879Y0159218D02*
X0131305Y0159218D01*
X0128407Y0157619D02*
X0005882Y0157619D01*
X0005885Y0156021D02*
X0126808Y0156021D01*
X0125210Y0154422D02*
X0005887Y0154422D01*
X0005890Y0152824D02*
X0123611Y0152824D01*
X0122013Y0151225D02*
X0005892Y0151225D01*
X0005895Y0149627D02*
X0120414Y0149627D01*
X0118816Y0148028D02*
X0005897Y0148028D01*
X0005900Y0146430D02*
X0097468Y0146430D01*
X0095111Y0144831D02*
X0041546Y0144831D01*
X0040626Y0145751D02*
X0034548Y0145751D01*
X0030511Y0141713D01*
X0029410Y0142814D01*
X0027587Y0142814D01*
X0025765Y0142814D01*
X0023187Y0140237D01*
X0023187Y0138414D01*
X0023187Y0136592D01*
X0025765Y0134014D01*
X0027587Y0134014D01*
X0027587Y0138414D01*
X0023187Y0138414D01*
X0027587Y0138414D01*
X0027587Y0138414D01*
X0027587Y0138414D01*
X0027587Y0138611D01*
X0036839Y0147863D01*
X0069517Y0147863D01*
X0091957Y0125422D01*
X0134477Y0125422D01*
X0138354Y0125649D02*
X0005933Y0125649D01*
X0005931Y0127248D02*
X0098612Y0127248D01*
X0095584Y0128846D02*
X0005928Y0128846D01*
X0005925Y0130445D02*
X0094127Y0130445D01*
X0093465Y0132043D02*
X0041592Y0132043D01*
X0040626Y0131077D02*
X0044924Y0135375D01*
X0044924Y0141453D01*
X0040626Y0145751D01*
X0043145Y0143233D02*
X0093931Y0143233D01*
X0093268Y0141634D02*
X0044743Y0141634D01*
X0044924Y0140036D02*
X0093173Y0140036D01*
X0093262Y0138437D02*
X0044924Y0138437D01*
X0044924Y0136839D02*
X0093728Y0136839D01*
X0093173Y0135240D02*
X0044789Y0135240D01*
X0043191Y0133642D02*
X0093173Y0133642D01*
X0105933Y0127248D02*
X0221031Y0127248D01*
X0222630Y0128846D02*
X0135618Y0128846D01*
X0137216Y0130445D02*
X0224228Y0130445D01*
X0223799Y0130015D02*
X0223799Y0130015D01*
X0226492Y0132043D02*
X0138815Y0132043D01*
X0147766Y0125649D02*
X0157905Y0125649D01*
X0154794Y0124051D02*
X0150932Y0124051D01*
X0152531Y0122452D02*
X0153195Y0122452D01*
X0167506Y0125649D02*
X0197753Y0125649D01*
X0195688Y0124051D02*
X0170617Y0124051D01*
X0172216Y0122452D02*
X0194360Y0122452D01*
X0193437Y0120854D02*
X0172906Y0120854D01*
X0173443Y0119255D02*
X0192974Y0119255D01*
X0192669Y0117657D02*
X0173443Y0117657D01*
X0173267Y0116058D02*
X0192669Y0116058D01*
X0192922Y0114459D02*
X0172605Y0114459D01*
X0171807Y0112861D02*
X0193350Y0112861D01*
X0194248Y0111262D02*
X0172737Y0111262D01*
X0173399Y0109664D02*
X0195495Y0109664D01*
X0197418Y0108065D02*
X0173443Y0108065D01*
X0173436Y0106467D02*
X0200251Y0106467D01*
X0198652Y0104868D02*
X0172774Y0104868D01*
X0171897Y0103270D02*
X0197054Y0103270D01*
X0212988Y0119255D02*
X0213039Y0119255D01*
X0212525Y0120854D02*
X0214637Y0120854D01*
X0216236Y0122452D02*
X0211602Y0122452D01*
X0210274Y0124051D02*
X0217834Y0124051D01*
X0219433Y0125649D02*
X0208209Y0125649D01*
X0155113Y0101671D02*
X0150692Y0101671D01*
X0152290Y0103270D02*
X0153514Y0103270D01*
X0192257Y0069701D02*
X0207540Y0069701D01*
X0207854Y0070015D02*
X0207854Y0070015D01*
X0209138Y0071300D02*
X0193856Y0071300D01*
X0192624Y0068103D02*
X0205941Y0068103D01*
X0204343Y0066504D02*
X0192624Y0066504D01*
X0192624Y0064906D02*
X0202744Y0064906D01*
X0201146Y0063307D02*
X0191710Y0063307D01*
X0190111Y0061709D02*
X0199547Y0061709D01*
X0197949Y0060110D02*
X0182666Y0060110D01*
X0181068Y0058512D02*
X0196350Y0058512D01*
X0187824Y0063020D02*
X0187824Y0066209D01*
X0187624Y0064906D02*
X0188024Y0064906D01*
X0188024Y0063307D02*
X0187624Y0063307D01*
X0040626Y0131077D02*
X0034548Y0131077D01*
X0030511Y0135115D01*
X0029410Y0134014D01*
X0027587Y0134014D01*
X0027587Y0138414D01*
X0027587Y0142814D01*
X0027587Y0138414D01*
X0027587Y0138414D01*
X0027587Y0138437D02*
X0027587Y0138437D01*
X0027587Y0136839D02*
X0027587Y0136839D01*
X0027587Y0135240D02*
X0027587Y0135240D01*
X0024539Y0135240D02*
X0005918Y0135240D01*
X0005920Y0133642D02*
X0031984Y0133642D01*
X0033582Y0132043D02*
X0005923Y0132043D01*
X0005915Y0136839D02*
X0023187Y0136839D01*
X0023187Y0138437D02*
X0005913Y0138437D01*
X0005910Y0140036D02*
X0023187Y0140036D01*
X0024585Y0141634D02*
X0005908Y0141634D01*
X0005905Y0143233D02*
X0032030Y0143233D01*
X0033628Y0144831D02*
X0005902Y0144831D01*
X0027587Y0141634D02*
X0027587Y0141634D01*
X0027587Y0140036D02*
X0027587Y0140036D01*
X0031576Y0108065D02*
X0005961Y0108065D01*
X0005964Y0106467D02*
X0033174Y0106467D01*
X0015038Y0172006D02*
X0005859Y0172006D01*
X0005856Y0173604D02*
X0013118Y0173604D01*
X0011811Y0175203D02*
X0005854Y0175203D01*
X0005851Y0176801D02*
X0010888Y0176801D01*
X0010385Y0178400D02*
X0005849Y0178400D01*
X0005846Y0179998D02*
X0009992Y0179998D01*
X0009992Y0181597D02*
X0005844Y0181597D01*
X0005841Y0183195D02*
X0010101Y0183195D01*
X0010529Y0184794D02*
X0005839Y0184794D01*
X0005836Y0186392D02*
X0011199Y0186392D01*
X0012122Y0187991D02*
X0005833Y0187991D01*
X0005831Y0189590D02*
X0013657Y0189590D01*
X0015972Y0191188D02*
X0005828Y0191188D01*
X0026211Y0191188D02*
X0350617Y0191188D01*
X0348302Y0189590D02*
X0246440Y0189590D01*
X0243774Y0189590D02*
X0028526Y0189590D01*
X0030060Y0187991D02*
X0240858Y0187991D01*
X0239544Y0186392D02*
X0030983Y0186392D01*
X0031653Y0184794D02*
X0238882Y0184794D01*
X0238783Y0183195D02*
X0032082Y0183195D01*
X0032191Y0181597D02*
X0238965Y0181597D01*
X0249356Y0187991D02*
X0346768Y0187991D01*
X0345845Y0186392D02*
X0250670Y0186392D01*
X0251332Y0184794D02*
X0345175Y0184794D01*
X0344747Y0183195D02*
X0251857Y0183195D01*
X0253456Y0181597D02*
X0344638Y0181597D01*
X0344638Y0179998D02*
X0255054Y0179998D01*
X0256653Y0178400D02*
X0345031Y0178400D01*
X0345534Y0176801D02*
X0258251Y0176801D01*
X0259850Y0175203D02*
X0346457Y0175203D01*
X0347763Y0173604D02*
X0261448Y0173604D01*
X0263047Y0172006D02*
X0349684Y0172006D01*
X0353608Y0170407D02*
X0264645Y0170407D01*
X0027194Y0037731D02*
X0027194Y0037731D01*
X0027194Y0036132D02*
X0027194Y0036132D01*
X0027194Y0034534D02*
X0027194Y0034534D01*
D16*
X0082902Y0062430D03*
X0086446Y0073847D03*
D17*
X0276997Y0054950D03*
X0245107Y0183296D03*
D18*
X0273847Y0152587D02*
X0274635Y0152587D01*
X0309280Y0152587D01*
X0321091Y0140776D01*
X0321091Y0120304D01*
X0308099Y0107312D01*
X0296839Y0107312D01*
X0296800Y0107272D01*
X0296918Y0117154D02*
X0296800Y0117272D01*
X0296918Y0117154D02*
X0306524Y0117154D01*
X0313217Y0123847D01*
X0313217Y0138020D01*
X0305343Y0145894D01*
X0143139Y0145894D01*
X0131367Y0134123D01*
X0102272Y0134123D01*
X0102272Y0140028D02*
X0120343Y0140028D01*
X0132902Y0152587D01*
X0273847Y0152587D01*
M02*
