G75*
%MOIN*%
%OFA0B0*%
%FSLAX25Y25*%
%IPPOS*%
%LPD*%
%AMOC8*
5,1,8,0,0,1.08239X$1,22.5*
%
%ADD10C,0.13398*%
%ADD11C,0.11824*%
%ADD12C,0.06000*%
%ADD13C,0.06800*%
%ADD14OC8,0.06000*%
%ADD15OC8,0.06800*%
%ADD16C,0.05162*%
%ADD17C,0.04369*%
%ADD18C,0.03975*%
D10*
X0021091Y0023847D03*
X0021091Y0181328D03*
X0355737Y0181328D03*
X0355737Y0023847D03*
D11*
X0202981Y0116761D03*
D12*
X0147009Y0017391D03*
X0128009Y0017391D03*
D13*
X0107280Y0023572D02*
X0101280Y0023572D01*
X0101280Y0033572D02*
X0107280Y0033572D01*
X0107280Y0043572D02*
X0101280Y0043572D01*
X0140060Y0107981D02*
X0146060Y0107981D01*
X0159706Y0108020D02*
X0165706Y0108020D01*
X0165706Y0118020D02*
X0159706Y0118020D01*
X0146060Y0117981D02*
X0140060Y0117981D01*
X0293800Y0117272D02*
X0299800Y0117272D01*
X0299800Y0107272D02*
X0293800Y0107272D01*
X0293800Y0097272D02*
X0299800Y0097272D01*
X0299800Y0087272D02*
X0293800Y0087272D01*
X0293800Y0077272D02*
X0299800Y0077272D01*
X0299800Y0067272D02*
X0293800Y0067272D01*
X0293800Y0127272D02*
X0299800Y0127272D01*
X0299800Y0137272D02*
X0293800Y0137272D01*
D14*
X0037587Y0138414D03*
X0027587Y0138414D03*
X0027194Y0112824D03*
X0037194Y0112824D03*
X0037194Y0086839D03*
X0027194Y0086839D03*
X0027194Y0060855D03*
X0037194Y0060855D03*
X0037194Y0034477D03*
X0027194Y0034477D03*
D15*
X0177824Y0066209D03*
X0187824Y0066209D03*
X0187824Y0076209D03*
X0177824Y0076209D03*
X0177824Y0086209D03*
X0187824Y0086209D03*
D16*
X0104454Y0134123D02*
X0100091Y0134123D01*
X0100091Y0140028D02*
X0104454Y0140028D01*
D17*
X0086446Y0073847D03*
X0082902Y0062430D03*
D18*
X0276997Y0054950D03*
X0245107Y0183296D03*
M02*
