G75*
%MOIN*%
%OFA0B0*%
%FSLAX25Y25*%
%IPPOS*%
%LPD*%
%AMOC8*
5,1,8,0,0,1.08239X$1,22.5*
%
%ADD10C,0.13398*%
%ADD11C,0.11824*%
%ADD12C,0.06000*%
%ADD13C,0.06800*%
%ADD14OC8,0.06000*%
%ADD15OC8,0.06800*%
%ADD16R,0.03000X0.05800*%
%ADD17R,0.05800X0.03000*%
%ADD18R,0.07099X0.08674*%
%ADD19R,0.08674X0.07099*%
%ADD20R,0.12611X0.07099*%
%ADD21R,0.03713X0.04442*%
%ADD22R,0.04442X0.03713*%
%ADD23C,0.05162*%
%ADD24R,0.04737X0.08674*%
%ADD25R,0.06312X0.04737*%
%ADD26R,0.08700X0.06700*%
%ADD27R,0.08700X0.15800*%
%ADD28R,0.03950X0.03950*%
%ADD29R,0.10249X0.07887*%
%ADD30R,0.07400X0.04000*%
%ADD31C,0.04369*%
%ADD32C,0.03975*%
D10*
X0021091Y0023847D03*
X0021091Y0181328D03*
X0355737Y0181328D03*
X0355737Y0023847D03*
D11*
X0202981Y0116761D03*
D12*
X0147009Y0017391D03*
X0128009Y0017391D03*
D13*
X0107280Y0023572D02*
X0101280Y0023572D01*
X0101280Y0033572D02*
X0107280Y0033572D01*
X0107280Y0043572D02*
X0101280Y0043572D01*
X0140060Y0107981D02*
X0146060Y0107981D01*
X0159706Y0108020D02*
X0165706Y0108020D01*
X0165706Y0118020D02*
X0159706Y0118020D01*
X0146060Y0117981D02*
X0140060Y0117981D01*
X0293800Y0117272D02*
X0299800Y0117272D01*
X0299800Y0107272D02*
X0293800Y0107272D01*
X0293800Y0097272D02*
X0299800Y0097272D01*
X0299800Y0087272D02*
X0293800Y0087272D01*
X0293800Y0077272D02*
X0299800Y0077272D01*
X0299800Y0067272D02*
X0293800Y0067272D01*
X0293800Y0127272D02*
X0299800Y0127272D01*
X0299800Y0137272D02*
X0293800Y0137272D01*
D14*
X0037587Y0138414D03*
X0027587Y0138414D03*
X0027194Y0112824D03*
X0037194Y0112824D03*
X0037194Y0086839D03*
X0027194Y0086839D03*
X0027194Y0060855D03*
X0037194Y0060855D03*
X0037194Y0034477D03*
X0027194Y0034477D03*
D15*
X0177824Y0066209D03*
X0187824Y0066209D03*
X0187824Y0076209D03*
X0177824Y0076209D03*
X0177824Y0086209D03*
X0187824Y0086209D03*
D16*
X0149674Y0081456D03*
X0146524Y0081456D03*
X0143375Y0081456D03*
X0140225Y0081456D03*
X0137076Y0081456D03*
X0133926Y0081456D03*
X0130776Y0081456D03*
X0127627Y0081456D03*
X0127627Y0047656D03*
X0130776Y0047656D03*
X0133926Y0047656D03*
X0137076Y0047656D03*
X0140225Y0047656D03*
X0143375Y0047656D03*
X0146524Y0047656D03*
X0149674Y0047656D03*
D17*
X0155550Y0053532D03*
X0155550Y0056682D03*
X0155550Y0059831D03*
X0155550Y0062981D03*
X0155550Y0066131D03*
X0155550Y0069280D03*
X0155550Y0072430D03*
X0155550Y0075580D03*
X0121750Y0075580D03*
X0121750Y0072430D03*
X0121750Y0069280D03*
X0121750Y0066131D03*
X0121750Y0062981D03*
X0121750Y0059831D03*
X0121750Y0056682D03*
X0121750Y0053532D03*
D18*
X0065265Y0034398D03*
X0054241Y0034398D03*
X0053729Y0060934D03*
X0064753Y0060934D03*
X0065146Y0086997D03*
X0054123Y0086997D03*
X0054123Y0113060D03*
X0065146Y0113060D03*
X0108493Y0118335D03*
X0119517Y0118335D03*
X0064753Y0138729D03*
X0053729Y0138729D03*
X0199792Y0076682D03*
X0210816Y0076682D03*
X0210776Y0059831D03*
X0199753Y0059831D03*
X0196643Y0037076D03*
X0207666Y0037076D03*
X0207076Y0024792D03*
X0196052Y0024792D03*
X0259241Y0133847D03*
X0270265Y0133847D03*
X0261367Y0159162D03*
X0250343Y0159162D03*
X0250580Y0171957D03*
X0261603Y0171957D03*
X0318729Y0173454D03*
X0329753Y0173454D03*
D19*
X0275304Y0155501D03*
X0275304Y0144477D03*
X0096682Y0073808D03*
X0096682Y0062784D03*
D20*
X0220540Y0108178D03*
X0237863Y0108178D03*
X0255028Y0108178D03*
X0272351Y0108178D03*
X0259753Y0054831D03*
X0242430Y0054831D03*
X0241957Y0025540D03*
X0259280Y0025540D03*
D21*
X0148611Y0031800D03*
X0142312Y0031800D03*
X0142312Y0036524D03*
X0148611Y0036524D03*
D22*
X0141091Y0095461D03*
X0136367Y0095461D03*
D23*
X0104454Y0134123D02*
X0100091Y0134123D01*
X0100091Y0140028D02*
X0104454Y0140028D01*
D24*
X0152942Y0131839D03*
X0158847Y0131839D03*
X0217902Y0131839D03*
X0223808Y0131839D03*
X0223808Y0183060D03*
X0170658Y0183020D03*
X0164753Y0183020D03*
X0152942Y0183020D03*
D25*
X0291524Y0156209D03*
X0300973Y0152469D03*
X0291524Y0148729D03*
D26*
X0224124Y0087550D03*
X0224124Y0078550D03*
X0224124Y0069550D03*
D27*
X0248924Y0078650D03*
D28*
X0323650Y0161643D03*
X0329556Y0161643D03*
D29*
X0289595Y0165087D03*
X0275422Y0165087D03*
X0275422Y0181032D03*
X0289595Y0181032D03*
D30*
X0126209Y0101406D03*
X0097863Y0101406D03*
D31*
X0086446Y0073847D03*
X0082902Y0062430D03*
D32*
X0276997Y0054950D03*
X0245107Y0183296D03*
M02*
