G75*
%MOIN*%
%OFA0B0*%
%FSLAX25Y25*%
%IPPOS*%
%LPD*%
%AMOC8*
5,1,8,0,0,1.08239X$1,22.5*
%
%ADD10C,0.11824*%
%ADD11C,0.06400*%
%ADD12R,0.03713X0.04442*%
%ADD13R,0.04442X0.03713*%
%ADD14C,0.05162*%
%ADD15R,0.05800X0.03000*%
%ADD16R,0.03000X0.05800*%
%ADD17C,0.06000*%
%ADD18R,0.07099X0.08674*%
%ADD19C,0.06800*%
%ADD20C,0.06737*%
%ADD21C,0.03975*%
D10*
X0029595Y0022076D03*
X0112627Y0101564D03*
D11*
X0104123Y0072391D03*
X0104123Y0052391D03*
X0082469Y0037076D03*
X0056879Y0037076D03*
D12*
X0048572Y0028926D03*
X0048572Y0024202D03*
X0042194Y0024162D03*
X0042194Y0028887D03*
D13*
X0094831Y0082351D03*
X0099556Y0082351D03*
D14*
X0077745Y0026997D03*
X0071839Y0026997D03*
X0065934Y0026997D03*
X0060028Y0026997D03*
D15*
X0052026Y0058335D03*
X0052026Y0061485D03*
X0052026Y0064635D03*
X0052026Y0067784D03*
X0052026Y0070934D03*
X0052026Y0074083D03*
X0052026Y0077233D03*
X0052026Y0080383D03*
X0085826Y0080383D03*
X0085826Y0077233D03*
X0085826Y0074083D03*
X0085826Y0070934D03*
X0085826Y0067784D03*
X0085826Y0064635D03*
X0085826Y0061485D03*
X0085826Y0058335D03*
D16*
X0079950Y0052459D03*
X0076800Y0052459D03*
X0073650Y0052459D03*
X0070501Y0052459D03*
X0067351Y0052459D03*
X0064202Y0052459D03*
X0061052Y0052459D03*
X0057902Y0052459D03*
X0057902Y0086259D03*
X0061052Y0086259D03*
X0064202Y0086259D03*
X0067351Y0086259D03*
X0070501Y0086259D03*
X0073650Y0086259D03*
X0076800Y0086259D03*
X0079950Y0086259D03*
D17*
X0034950Y0064528D03*
X0034950Y0045528D03*
D18*
X0033217Y0087587D03*
X0044241Y0087587D03*
D19*
X0044595Y0099902D02*
X0044595Y0105902D01*
X0054595Y0105902D02*
X0054595Y0099902D01*
X0064595Y0099902D02*
X0064595Y0105902D01*
X0074595Y0105902D02*
X0074595Y0099902D01*
X0084595Y0099902D02*
X0084595Y0105902D01*
X0094595Y0105902D02*
X0094595Y0099902D01*
D20*
X0100107Y0040540D03*
X0110107Y0040540D03*
X0110107Y0030540D03*
X0100107Y0030540D03*
X0100107Y0020540D03*
X0110107Y0020540D03*
D21*
X0052194Y0088808D03*
X0027784Y0081131D03*
M02*
