%
M48
M72
T01C0.01575
T02C0.02362
T03C0.03150
T04C0.03200
T05C0.03937
T06C0.04000
T07C0.11024
%
T01
X27784Y81131
X52194Y88808
T02
X60028Y26997
X65934Y26997
X71839Y26997
X77745Y26997
T03
X82469Y37076
X104123Y52391
X104123Y72391
X56879Y37076
T04
X34950Y45528
X34950Y64528
T05
X100107Y40540
X110107Y40540
X110107Y30540
X100107Y30540
X100107Y20540
X110107Y20540
T06
X94595Y102902
X84595Y102902
X74595Y102902
X64595Y102902
X54595Y102902
X44595Y102902
T07
X29595Y22076
X112627Y101564
M30
