G75*
%MOIN*%
%OFA0B0*%
%FSLAX25Y25*%
%IPPOS*%
%LPD*%
%AMOC8*
5,1,8,0,0,1.08239X$1,22.5*
%
%ADD10C,0.05600*%
%ADD11R,0.02913X0.03642*%
%ADD12R,0.03642X0.02913*%
%ADD13C,0.04362*%
%ADD14R,0.05000X0.02200*%
%ADD15R,0.02200X0.05000*%
%ADD16C,0.05200*%
%ADD17R,0.06299X0.07874*%
%ADD18C,0.06000*%
%ADD19C,0.05937*%
%ADD20C,0.01600*%
%ADD21C,0.03175*%
D10*
X0056879Y0037076D03*
X0082469Y0037076D03*
X0104123Y0052391D03*
X0104123Y0072391D03*
D11*
X0048572Y0028926D03*
X0048572Y0024202D03*
X0042194Y0024162D03*
X0042194Y0028887D03*
D12*
X0094831Y0082351D03*
X0099556Y0082351D03*
D13*
X0077745Y0026997D03*
X0071839Y0026997D03*
X0065934Y0026997D03*
X0060028Y0026997D03*
D14*
X0052026Y0058335D03*
X0052026Y0061485D03*
X0052026Y0064635D03*
X0052026Y0067784D03*
X0052026Y0070934D03*
X0052026Y0074083D03*
X0052026Y0077233D03*
X0052026Y0080383D03*
X0085826Y0080383D03*
X0085826Y0077233D03*
X0085826Y0074083D03*
X0085826Y0070934D03*
X0085826Y0067784D03*
X0085826Y0064635D03*
X0085826Y0061485D03*
X0085826Y0058335D03*
D15*
X0079950Y0052459D03*
X0076800Y0052459D03*
X0073650Y0052459D03*
X0070501Y0052459D03*
X0067351Y0052459D03*
X0064202Y0052459D03*
X0061052Y0052459D03*
X0057902Y0052459D03*
X0057902Y0086259D03*
X0061052Y0086259D03*
X0064202Y0086259D03*
X0067351Y0086259D03*
X0070501Y0086259D03*
X0073650Y0086259D03*
X0076800Y0086259D03*
X0079950Y0086259D03*
D16*
X0034950Y0064528D03*
X0034950Y0045528D03*
D17*
X0033217Y0087587D03*
X0044241Y0087587D03*
D18*
X0044595Y0099902D02*
X0044595Y0105902D01*
X0054595Y0105902D02*
X0054595Y0099902D01*
X0064595Y0099902D02*
X0064595Y0105902D01*
X0074595Y0105902D02*
X0074595Y0099902D01*
X0084595Y0099902D02*
X0084595Y0105902D01*
X0094595Y0105902D02*
X0094595Y0099902D01*
D19*
X0100107Y0040540D03*
X0110107Y0040540D03*
X0110107Y0030540D03*
X0100107Y0030540D03*
X0100107Y0020540D03*
X0110107Y0020540D03*
D20*
X0039204Y0018095D02*
X0038705Y0017230D01*
X0094416Y0017230D01*
X0093583Y0019242D01*
X0093583Y0021838D01*
X0094576Y0024236D01*
X0095880Y0025540D01*
X0094576Y0026844D01*
X0093583Y0029242D01*
X0093583Y0031302D01*
X0093453Y0031302D01*
X0091852Y0031966D01*
X0090627Y0033191D01*
X0088585Y0035232D01*
X0087858Y0033475D01*
X0086070Y0031687D01*
X0083734Y0030720D01*
X0082534Y0030720D01*
X0082534Y0030321D01*
X0082608Y0030247D01*
X0083482Y0028138D01*
X0083482Y0025856D01*
X0082608Y0023747D01*
X0080995Y0022133D01*
X0078886Y0021260D01*
X0076604Y0021260D01*
X0074792Y0022010D01*
X0072981Y0021260D01*
X0070698Y0021260D01*
X0068887Y0022010D01*
X0067075Y0021260D01*
X0064793Y0021260D01*
X0062684Y0022133D01*
X0061514Y0023303D01*
X0061190Y0023169D01*
X0060420Y0023016D01*
X0060028Y0023016D01*
X0060028Y0026997D01*
X0060028Y0026997D01*
X0056047Y0026997D01*
X0056047Y0027389D01*
X0056200Y0028158D01*
X0056500Y0028883D01*
X0056936Y0029535D01*
X0057491Y0030089D01*
X0058143Y0030525D01*
X0058867Y0030825D01*
X0059636Y0030978D01*
X0060028Y0030978D01*
X0060028Y0026997D01*
X0060028Y0026997D01*
X0056047Y0026997D01*
X0056047Y0026605D01*
X0056200Y0025836D01*
X0056500Y0025111D01*
X0056936Y0024459D01*
X0057491Y0023905D01*
X0058143Y0023469D01*
X0058867Y0023169D01*
X0059636Y0023016D01*
X0060028Y0023016D01*
X0060028Y0026997D01*
X0057233Y0024202D01*
X0048572Y0024202D01*
X0048532Y0024162D01*
X0042194Y0024162D01*
X0042194Y0023510D02*
X0042194Y0020541D01*
X0043887Y0020541D01*
X0044345Y0020664D01*
X0044756Y0020901D01*
X0045091Y0021236D01*
X0045328Y0021647D01*
X0045388Y0021871D01*
X0045438Y0021686D01*
X0045675Y0021275D01*
X0046010Y0020940D01*
X0046420Y0020703D01*
X0046878Y0020581D01*
X0048572Y0020581D01*
X0050265Y0020581D01*
X0050723Y0020703D01*
X0051134Y0020940D01*
X0051469Y0021275D01*
X0051706Y0021686D01*
X0051828Y0022144D01*
X0051828Y0024002D01*
X0052043Y0024091D01*
X0053043Y0025091D01*
X0053584Y0026398D01*
X0053584Y0031454D01*
X0053043Y0032761D01*
X0052854Y0032950D01*
X0052264Y0034374D01*
X0041105Y0045533D01*
X0041105Y0046753D01*
X0041104Y0046755D01*
X0048260Y0053911D01*
X0048819Y0053680D01*
X0053246Y0053680D01*
X0053246Y0049252D01*
X0053788Y0047945D01*
X0054788Y0046945D01*
X0056095Y0046403D01*
X0059846Y0046403D01*
X0059846Y0043256D01*
X0060509Y0041655D01*
X0067523Y0034641D01*
X0067523Y0032548D01*
X0067075Y0032734D01*
X0064793Y0032734D01*
X0062684Y0031860D01*
X0061514Y0030691D01*
X0061190Y0030825D01*
X0060420Y0030978D01*
X0060028Y0030978D01*
X0060028Y0026997D01*
X0060028Y0033926D01*
X0056879Y0037076D01*
X0056879Y0037076D01*
X0056879Y0041676D01*
X0057241Y0041676D01*
X0057956Y0041562D01*
X0058645Y0041339D01*
X0059290Y0041010D01*
X0059875Y0040584D01*
X0060387Y0040072D01*
X0060813Y0039487D01*
X0061142Y0038841D01*
X0061365Y0038153D01*
X0061479Y0037438D01*
X0061479Y0037076D01*
X0056879Y0037076D01*
X0056879Y0037076D01*
X0056879Y0041676D01*
X0056517Y0041676D01*
X0055802Y0041562D01*
X0055113Y0041339D01*
X0054468Y0041010D01*
X0053882Y0040584D01*
X0053370Y0040072D01*
X0052944Y0039487D01*
X0052616Y0038841D01*
X0052392Y0038153D01*
X0052279Y0037438D01*
X0052279Y0037076D01*
X0056879Y0037076D01*
X0061479Y0037076D01*
X0061479Y0036714D01*
X0061365Y0035998D01*
X0061142Y0035310D01*
X0060813Y0034665D01*
X0060387Y0034079D01*
X0059875Y0033567D01*
X0059290Y0033141D01*
X0058645Y0032813D01*
X0057956Y0032589D01*
X0057241Y0032476D01*
X0056879Y0032476D01*
X0056879Y0037075D01*
X0056879Y0037075D01*
X0056879Y0032476D01*
X0056517Y0032476D01*
X0055802Y0032589D01*
X0055113Y0032813D01*
X0054468Y0033141D01*
X0053882Y0033567D01*
X0053370Y0034079D01*
X0052944Y0034665D01*
X0052616Y0035310D01*
X0052392Y0035998D01*
X0052279Y0036714D01*
X0052279Y0037076D01*
X0056879Y0037076D01*
X0056879Y0037076D01*
X0056879Y0036408D02*
X0056879Y0036408D01*
X0056879Y0038006D02*
X0056879Y0038006D01*
X0056879Y0039605D02*
X0056879Y0039605D01*
X0056879Y0041203D02*
X0056879Y0041203D01*
X0058910Y0041203D02*
X0060961Y0041203D01*
X0060034Y0042802D02*
X0043836Y0042802D01*
X0042238Y0044400D02*
X0059846Y0044400D01*
X0059846Y0045999D02*
X0041105Y0045999D01*
X0041946Y0047597D02*
X0054135Y0047597D01*
X0053270Y0049196D02*
X0043545Y0049196D01*
X0045143Y0050794D02*
X0053246Y0050794D01*
X0053246Y0052393D02*
X0046742Y0052393D01*
X0046682Y0058493D02*
X0051869Y0058493D01*
X0052026Y0058335D01*
X0052026Y0061485D02*
X0037993Y0061485D01*
X0034950Y0064528D01*
X0027942Y0057520D01*
X0027942Y0042548D01*
X0041603Y0028887D01*
X0042194Y0028887D01*
X0042194Y0023510D02*
X0042194Y0023510D01*
X0042194Y0020541D01*
X0040500Y0020541D01*
X0040042Y0020664D01*
X0039907Y0020742D01*
X0039907Y0020718D01*
X0039204Y0018095D01*
X0039400Y0018824D02*
X0093756Y0018824D01*
X0093583Y0020422D02*
X0039828Y0020422D01*
X0042194Y0022021D02*
X0042194Y0022021D01*
X0048572Y0022021D02*
X0048572Y0022021D01*
X0048572Y0020581D02*
X0048572Y0023549D01*
X0048572Y0023549D01*
X0048572Y0020581D01*
X0051795Y0022021D02*
X0062955Y0022021D01*
X0060028Y0023620D02*
X0060028Y0023620D01*
X0057917Y0023620D02*
X0051828Y0023620D01*
X0053096Y0025218D02*
X0056456Y0025218D01*
X0056047Y0026817D02*
X0053584Y0026817D01*
X0053584Y0028415D02*
X0056307Y0028415D01*
X0057415Y0030014D02*
X0053584Y0030014D01*
X0053519Y0031612D02*
X0062436Y0031612D01*
X0060028Y0030014D02*
X0060028Y0030014D01*
X0060028Y0028415D02*
X0060028Y0028415D01*
X0060028Y0026997D02*
X0060028Y0026997D01*
X0060028Y0026817D02*
X0060028Y0026817D01*
X0060028Y0025218D02*
X0060028Y0025218D01*
X0059385Y0033211D02*
X0067523Y0033211D01*
X0067355Y0034809D02*
X0060887Y0034809D01*
X0061430Y0036408D02*
X0065757Y0036408D01*
X0064158Y0038006D02*
X0061389Y0038006D01*
X0060727Y0039605D02*
X0062560Y0039605D01*
X0064202Y0044123D02*
X0071879Y0036446D01*
X0071879Y0027036D01*
X0071839Y0026997D01*
X0077745Y0026997D02*
X0078178Y0027430D01*
X0078178Y0030146D01*
X0075028Y0033296D01*
X0075028Y0038414D01*
X0070501Y0042942D01*
X0070501Y0052459D01*
X0073650Y0052459D02*
X0073650Y0045894D01*
X0082469Y0037076D01*
X0088410Y0034809D02*
X0089009Y0034809D01*
X0087593Y0033211D02*
X0090607Y0033211D01*
X0092706Y0031612D02*
X0085888Y0031612D01*
X0082705Y0030014D02*
X0093583Y0030014D01*
X0093925Y0028415D02*
X0083367Y0028415D01*
X0083482Y0026817D02*
X0094604Y0026817D01*
X0095558Y0025218D02*
X0083218Y0025218D01*
X0082481Y0023620D02*
X0094321Y0023620D01*
X0093659Y0022021D02*
X0080724Y0022021D01*
X0094320Y0035658D02*
X0104989Y0035658D01*
X0110107Y0030540D01*
X0115065Y0034809D02*
X0117472Y0034809D01*
X0117472Y0033211D02*
X0116063Y0033211D01*
X0115638Y0034236D02*
X0114334Y0035540D01*
X0115638Y0036844D01*
X0116631Y0039242D01*
X0116631Y0041838D01*
X0115638Y0044236D01*
X0113803Y0046071D01*
X0111405Y0047065D01*
X0108809Y0047065D01*
X0106411Y0046071D01*
X0105107Y0044767D01*
X0103839Y0046035D01*
X0105387Y0046035D01*
X0107723Y0047002D01*
X0109511Y0048790D01*
X0110479Y0051126D01*
X0110479Y0053655D01*
X0109511Y0055991D01*
X0107723Y0057779D01*
X0107331Y0057941D01*
X0104312Y0060960D01*
X0103086Y0062186D01*
X0101485Y0062849D01*
X0091882Y0062849D01*
X0091882Y0063192D01*
X0093218Y0063192D01*
X0094819Y0063855D01*
X0096044Y0065081D01*
X0100506Y0069543D01*
X0100614Y0069394D01*
X0101126Y0068882D01*
X0101712Y0068456D01*
X0102357Y0068128D01*
X0103046Y0067904D01*
X0103761Y0067791D01*
X0104123Y0067791D01*
X0104485Y0067791D01*
X0105200Y0067904D01*
X0105889Y0068128D01*
X0106534Y0068456D01*
X0107120Y0068882D01*
X0107632Y0069394D01*
X0108057Y0069980D01*
X0108386Y0070625D01*
X0108610Y0071313D01*
X0108723Y0072029D01*
X0108723Y0072390D01*
X0104123Y0072390D01*
X0104123Y0067791D01*
X0104123Y0072390D01*
X0104123Y0072390D01*
X0104123Y0072391D01*
X0104123Y0072391D01*
X0104123Y0076991D01*
X0104485Y0076991D01*
X0105200Y0076877D01*
X0105889Y0076654D01*
X0106534Y0076325D01*
X0107120Y0075899D01*
X0107632Y0075387D01*
X0108057Y0074801D01*
X0108386Y0074156D01*
X0108610Y0073468D01*
X0108723Y0072753D01*
X0108723Y0072391D01*
X0104123Y0072391D01*
X0104123Y0076991D01*
X0103912Y0076991D01*
X0103912Y0078401D01*
X0104391Y0078880D01*
X0104933Y0080187D01*
X0104933Y0084515D01*
X0104391Y0085822D01*
X0103391Y0086822D01*
X0102084Y0087364D01*
X0097028Y0087364D01*
X0095721Y0086822D01*
X0094720Y0085822D01*
X0094632Y0085608D01*
X0092774Y0085608D01*
X0092316Y0085485D01*
X0091905Y0085248D01*
X0091570Y0084913D01*
X0091333Y0084503D01*
X0091211Y0084045D01*
X0091211Y0083627D01*
X0090340Y0084497D01*
X0089033Y0085039D01*
X0084605Y0085039D01*
X0084605Y0089466D01*
X0084064Y0090773D01*
X0083064Y0091774D01*
X0081757Y0092315D01*
X0078006Y0092315D01*
X0078006Y0094219D01*
X0078309Y0094345D01*
X0079595Y0095631D01*
X0080882Y0094345D01*
X0083291Y0093346D01*
X0085899Y0093346D01*
X0088309Y0094345D01*
X0089595Y0095631D01*
X0090882Y0094345D01*
X0093291Y0093346D01*
X0095899Y0093346D01*
X0098309Y0094345D01*
X0100153Y0096189D01*
X0101151Y0098598D01*
X0101151Y0106449D01*
X0103540Y0106449D01*
X0103018Y0105544D01*
X0102315Y0102921D01*
X0102315Y0100206D01*
X0103018Y0097584D01*
X0104375Y0095232D01*
X0106295Y0093312D01*
X0108647Y0091955D01*
X0111269Y0091252D01*
X0113984Y0091252D01*
X0116607Y0091955D01*
X0117472Y0092454D01*
X0117472Y0017230D01*
X0113541Y0017230D01*
X0113744Y0017434D01*
X0114185Y0018041D01*
X0114526Y0018710D01*
X0114758Y0019424D01*
X0114876Y0020165D01*
X0114876Y0020356D01*
X0110291Y0020356D01*
X0110291Y0020724D01*
X0114876Y0020724D01*
X0114876Y0020915D01*
X0114758Y0021657D01*
X0114526Y0022371D01*
X0114185Y0023039D01*
X0113744Y0023647D01*
X0113214Y0024177D01*
X0112698Y0024552D01*
X0113803Y0025009D01*
X0115638Y0026844D01*
X0116631Y0029242D01*
X0116631Y0031838D01*
X0115638Y0034236D01*
X0115201Y0036408D02*
X0117472Y0036408D01*
X0117472Y0038006D02*
X0116119Y0038006D01*
X0116631Y0039605D02*
X0117472Y0039605D01*
X0117472Y0041203D02*
X0116631Y0041203D01*
X0116232Y0042802D02*
X0117472Y0042802D01*
X0117472Y0044400D02*
X0115474Y0044400D01*
X0113875Y0045999D02*
X0117472Y0045999D01*
X0117472Y0047597D02*
X0108318Y0047597D01*
X0106339Y0045999D02*
X0103875Y0045999D01*
X0109679Y0049196D02*
X0117472Y0049196D01*
X0117472Y0050794D02*
X0110341Y0050794D01*
X0110479Y0052393D02*
X0117472Y0052393D01*
X0117472Y0053991D02*
X0110339Y0053991D01*
X0109677Y0055590D02*
X0117472Y0055590D01*
X0117472Y0057188D02*
X0108314Y0057188D01*
X0106485Y0058787D02*
X0117472Y0058787D01*
X0117472Y0060385D02*
X0104887Y0060385D01*
X0103288Y0061984D02*
X0117472Y0061984D01*
X0116367Y0060146D02*
X0116367Y0026800D01*
X0110107Y0020540D01*
X0110291Y0020422D02*
X0117472Y0020422D01*
X0117472Y0018824D02*
X0114563Y0018824D01*
X0114640Y0022021D02*
X0117472Y0022021D01*
X0117472Y0023620D02*
X0113764Y0023620D01*
X0114012Y0025218D02*
X0117472Y0025218D01*
X0117472Y0026817D02*
X0115610Y0026817D01*
X0116289Y0028415D02*
X0117472Y0028415D01*
X0117472Y0030014D02*
X0116631Y0030014D01*
X0116631Y0031612D02*
X0117472Y0031612D01*
X0100107Y0040540D02*
X0088188Y0052459D01*
X0079950Y0052459D01*
X0076800Y0052459D02*
X0076800Y0047666D01*
X0079359Y0045107D01*
X0084871Y0045107D01*
X0094320Y0035658D01*
X0104123Y0052391D02*
X0104123Y0054989D01*
X0100619Y0058493D01*
X0085983Y0058493D01*
X0085826Y0058335D01*
X0085826Y0061485D02*
X0085669Y0061643D01*
X0067154Y0061643D01*
X0064162Y0064635D01*
X0070146Y0064635D01*
X0073454Y0067942D01*
X0085669Y0067942D01*
X0085826Y0067784D01*
X0086062Y0067548D01*
X0092351Y0067548D01*
X0099556Y0074753D01*
X0099556Y0082351D01*
X0094831Y0082351D02*
X0094713Y0082469D01*
X0094713Y0086052D01*
X0096288Y0087627D01*
X0101800Y0087627D01*
X0104123Y0085304D01*
X0104123Y0072391D01*
X0116367Y0060146D01*
X0117472Y0063582D02*
X0094160Y0063582D01*
X0096144Y0065181D02*
X0117472Y0065181D01*
X0117472Y0066779D02*
X0097743Y0066779D01*
X0099341Y0068378D02*
X0101866Y0068378D01*
X0104123Y0068378D02*
X0104123Y0068378D01*
X0104123Y0069976D02*
X0104123Y0069976D01*
X0104123Y0071575D02*
X0104123Y0071575D01*
X0104123Y0073173D02*
X0104123Y0073173D01*
X0104123Y0074772D02*
X0104123Y0074772D01*
X0104123Y0076370D02*
X0104123Y0076370D01*
X0103912Y0077969D02*
X0117472Y0077969D01*
X0117472Y0076370D02*
X0106444Y0076370D01*
X0108072Y0074772D02*
X0117472Y0074772D01*
X0117472Y0073173D02*
X0108656Y0073173D01*
X0108651Y0071575D02*
X0117472Y0071575D01*
X0117472Y0069976D02*
X0108055Y0069976D01*
X0106380Y0068378D02*
X0117472Y0068378D01*
X0117472Y0079567D02*
X0104676Y0079567D01*
X0104933Y0081166D02*
X0117472Y0081166D01*
X0117472Y0082764D02*
X0104933Y0082764D01*
X0104933Y0084363D02*
X0117472Y0084363D01*
X0117472Y0085961D02*
X0104252Y0085961D01*
X0107952Y0092355D02*
X0078006Y0092355D01*
X0078006Y0093954D02*
X0081824Y0093954D01*
X0079674Y0095553D02*
X0079517Y0095553D01*
X0084071Y0090757D02*
X0117472Y0090757D01*
X0117472Y0092355D02*
X0117301Y0092355D01*
X0117472Y0089158D02*
X0084605Y0089158D01*
X0084605Y0087560D02*
X0117472Y0087560D01*
X0105653Y0093954D02*
X0097366Y0093954D01*
X0099517Y0095553D02*
X0104190Y0095553D01*
X0103267Y0097151D02*
X0100552Y0097151D01*
X0101151Y0098750D02*
X0102705Y0098750D01*
X0102315Y0100348D02*
X0101151Y0100348D01*
X0101151Y0101947D02*
X0102315Y0101947D01*
X0102482Y0103545D02*
X0101151Y0103545D01*
X0101151Y0105144D02*
X0102910Y0105144D01*
X0089674Y0095553D02*
X0089517Y0095553D01*
X0087366Y0093954D02*
X0091824Y0093954D01*
X0094860Y0085961D02*
X0084605Y0085961D01*
X0090475Y0084363D02*
X0091296Y0084363D01*
X0094831Y0082351D02*
X0094831Y0075540D01*
X0090383Y0071091D01*
X0085983Y0071091D01*
X0085826Y0070934D01*
X0085669Y0071091D01*
X0069910Y0071091D01*
X0066918Y0074083D01*
X0052026Y0074083D01*
X0051869Y0074241D01*
X0045894Y0074241D01*
X0044713Y0073060D01*
X0044713Y0069123D01*
X0038808Y0075028D01*
X0038808Y0092745D01*
X0040776Y0094713D01*
X0051013Y0094713D01*
X0054595Y0098296D01*
X0054595Y0102902D01*
X0054395Y0102702D02*
X0054395Y0096280D01*
X0054477Y0096313D01*
X0054795Y0096313D01*
X0054795Y0102702D01*
X0054395Y0102702D01*
X0054395Y0101947D02*
X0054795Y0101947D01*
X0054795Y0100348D02*
X0054395Y0100348D01*
X0054395Y0098750D02*
X0054795Y0098750D01*
X0054795Y0097151D02*
X0054395Y0097151D01*
X0052704Y0095479D02*
X0051177Y0093951D01*
X0051171Y0093951D01*
X0050338Y0093606D01*
X0049405Y0094539D01*
X0048767Y0094803D01*
X0050153Y0096189D01*
X0050591Y0097247D01*
X0050934Y0096775D01*
X0051468Y0096241D01*
X0052080Y0095797D01*
X0052704Y0095479D01*
X0052559Y0095553D02*
X0049517Y0095553D01*
X0050552Y0097151D02*
X0050661Y0097151D01*
X0051180Y0093954D02*
X0049990Y0093954D01*
X0052194Y0088808D02*
X0045461Y0088808D01*
X0044241Y0087587D01*
X0052194Y0088808D02*
X0055343Y0091957D01*
X0065580Y0091957D01*
X0067351Y0090186D01*
X0067351Y0086259D01*
X0070501Y0086259D02*
X0070501Y0092942D01*
X0064792Y0098650D01*
X0064792Y0102706D01*
X0064595Y0102902D01*
X0073650Y0101957D02*
X0074595Y0102902D01*
X0073650Y0101957D02*
X0073650Y0086259D01*
X0065343Y0070934D02*
X0068335Y0067942D01*
X0073454Y0067942D01*
X0065343Y0070934D02*
X0052026Y0070934D01*
X0052026Y0067784D02*
X0046052Y0067784D01*
X0044713Y0069123D01*
X0045614Y0069976D02*
X0045970Y0069976D01*
X0045970Y0069633D02*
X0035130Y0080094D01*
X0037074Y0080094D01*
X0038381Y0080636D01*
X0038729Y0080984D01*
X0039077Y0080636D01*
X0040384Y0080094D01*
X0045970Y0080094D01*
X0045970Y0075426D01*
X0046511Y0074119D01*
X0046547Y0074083D01*
X0046511Y0074048D01*
X0045970Y0072741D01*
X0045970Y0069633D01*
X0045970Y0071575D02*
X0043958Y0071575D01*
X0042302Y0073173D02*
X0046149Y0073173D01*
X0046241Y0074772D02*
X0040645Y0074772D01*
X0038989Y0076370D02*
X0045970Y0076370D01*
X0045970Y0077969D02*
X0037333Y0077969D01*
X0035677Y0079567D02*
X0045970Y0079567D01*
X0033296Y0087509D02*
X0033217Y0087587D01*
X0027784Y0082154D01*
X0027784Y0081131D01*
X0044713Y0064792D01*
X0051869Y0064792D01*
X0052026Y0064635D01*
X0064162Y0064635D01*
X0064202Y0052459D02*
X0064202Y0044123D01*
X0054847Y0041203D02*
X0045435Y0041203D01*
X0047034Y0039605D02*
X0053030Y0039605D01*
X0052369Y0038006D02*
X0048632Y0038006D01*
X0050231Y0036408D02*
X0052327Y0036408D01*
X0051829Y0034809D02*
X0052871Y0034809D01*
X0052746Y0033211D02*
X0054372Y0033211D01*
X0056879Y0033211D02*
X0056879Y0033211D01*
X0056879Y0034809D02*
X0056879Y0034809D01*
X0048572Y0031906D02*
X0048572Y0028926D01*
X0048572Y0031906D02*
X0034950Y0045528D01*
X0034950Y0046761D01*
X0046682Y0058493D01*
D21*
X0027784Y0081131D03*
X0052194Y0088808D03*
M02*
