G75*
%MOIN*%
%OFA0B0*%
%FSLAX25Y25*%
%IPPOS*%
%LPD*%
%AMOC8*
5,1,8,0,0,1.08239X$1,22.5*
%
%ADD10C,0.00000*%
D10*
X0019910Y0012430D02*
X0019910Y0111249D01*
X0122272Y0111249D01*
X0122272Y0012430D01*
X0019910Y0012430D01*
X0024083Y0022076D02*
X0024085Y0022224D01*
X0024091Y0022372D01*
X0024101Y0022520D01*
X0024115Y0022667D01*
X0024133Y0022814D01*
X0024154Y0022960D01*
X0024180Y0023106D01*
X0024210Y0023251D01*
X0024243Y0023395D01*
X0024281Y0023538D01*
X0024322Y0023680D01*
X0024367Y0023821D01*
X0024415Y0023961D01*
X0024468Y0024100D01*
X0024524Y0024237D01*
X0024584Y0024372D01*
X0024647Y0024506D01*
X0024714Y0024638D01*
X0024785Y0024768D01*
X0024859Y0024896D01*
X0024936Y0025022D01*
X0025017Y0025146D01*
X0025101Y0025268D01*
X0025188Y0025387D01*
X0025279Y0025504D01*
X0025373Y0025619D01*
X0025469Y0025731D01*
X0025569Y0025841D01*
X0025671Y0025947D01*
X0025777Y0026051D01*
X0025885Y0026152D01*
X0025996Y0026250D01*
X0026109Y0026346D01*
X0026225Y0026438D01*
X0026343Y0026527D01*
X0026464Y0026612D01*
X0026587Y0026695D01*
X0026712Y0026774D01*
X0026839Y0026850D01*
X0026968Y0026922D01*
X0027099Y0026991D01*
X0027232Y0027056D01*
X0027367Y0027117D01*
X0027503Y0027175D01*
X0027640Y0027230D01*
X0027779Y0027280D01*
X0027920Y0027327D01*
X0028061Y0027370D01*
X0028204Y0027410D01*
X0028348Y0027445D01*
X0028492Y0027477D01*
X0028638Y0027504D01*
X0028784Y0027528D01*
X0028931Y0027548D01*
X0029078Y0027564D01*
X0029225Y0027576D01*
X0029373Y0027584D01*
X0029521Y0027588D01*
X0029669Y0027588D01*
X0029817Y0027584D01*
X0029965Y0027576D01*
X0030112Y0027564D01*
X0030259Y0027548D01*
X0030406Y0027528D01*
X0030552Y0027504D01*
X0030698Y0027477D01*
X0030842Y0027445D01*
X0030986Y0027410D01*
X0031129Y0027370D01*
X0031270Y0027327D01*
X0031411Y0027280D01*
X0031550Y0027230D01*
X0031687Y0027175D01*
X0031823Y0027117D01*
X0031958Y0027056D01*
X0032091Y0026991D01*
X0032222Y0026922D01*
X0032351Y0026850D01*
X0032478Y0026774D01*
X0032603Y0026695D01*
X0032726Y0026612D01*
X0032847Y0026527D01*
X0032965Y0026438D01*
X0033081Y0026346D01*
X0033194Y0026250D01*
X0033305Y0026152D01*
X0033413Y0026051D01*
X0033519Y0025947D01*
X0033621Y0025841D01*
X0033721Y0025731D01*
X0033817Y0025619D01*
X0033911Y0025504D01*
X0034002Y0025387D01*
X0034089Y0025268D01*
X0034173Y0025146D01*
X0034254Y0025022D01*
X0034331Y0024896D01*
X0034405Y0024768D01*
X0034476Y0024638D01*
X0034543Y0024506D01*
X0034606Y0024372D01*
X0034666Y0024237D01*
X0034722Y0024100D01*
X0034775Y0023961D01*
X0034823Y0023821D01*
X0034868Y0023680D01*
X0034909Y0023538D01*
X0034947Y0023395D01*
X0034980Y0023251D01*
X0035010Y0023106D01*
X0035036Y0022960D01*
X0035057Y0022814D01*
X0035075Y0022667D01*
X0035089Y0022520D01*
X0035099Y0022372D01*
X0035105Y0022224D01*
X0035107Y0022076D01*
X0035105Y0021928D01*
X0035099Y0021780D01*
X0035089Y0021632D01*
X0035075Y0021485D01*
X0035057Y0021338D01*
X0035036Y0021192D01*
X0035010Y0021046D01*
X0034980Y0020901D01*
X0034947Y0020757D01*
X0034909Y0020614D01*
X0034868Y0020472D01*
X0034823Y0020331D01*
X0034775Y0020191D01*
X0034722Y0020052D01*
X0034666Y0019915D01*
X0034606Y0019780D01*
X0034543Y0019646D01*
X0034476Y0019514D01*
X0034405Y0019384D01*
X0034331Y0019256D01*
X0034254Y0019130D01*
X0034173Y0019006D01*
X0034089Y0018884D01*
X0034002Y0018765D01*
X0033911Y0018648D01*
X0033817Y0018533D01*
X0033721Y0018421D01*
X0033621Y0018311D01*
X0033519Y0018205D01*
X0033413Y0018101D01*
X0033305Y0018000D01*
X0033194Y0017902D01*
X0033081Y0017806D01*
X0032965Y0017714D01*
X0032847Y0017625D01*
X0032726Y0017540D01*
X0032603Y0017457D01*
X0032478Y0017378D01*
X0032351Y0017302D01*
X0032222Y0017230D01*
X0032091Y0017161D01*
X0031958Y0017096D01*
X0031823Y0017035D01*
X0031687Y0016977D01*
X0031550Y0016922D01*
X0031411Y0016872D01*
X0031270Y0016825D01*
X0031129Y0016782D01*
X0030986Y0016742D01*
X0030842Y0016707D01*
X0030698Y0016675D01*
X0030552Y0016648D01*
X0030406Y0016624D01*
X0030259Y0016604D01*
X0030112Y0016588D01*
X0029965Y0016576D01*
X0029817Y0016568D01*
X0029669Y0016564D01*
X0029521Y0016564D01*
X0029373Y0016568D01*
X0029225Y0016576D01*
X0029078Y0016588D01*
X0028931Y0016604D01*
X0028784Y0016624D01*
X0028638Y0016648D01*
X0028492Y0016675D01*
X0028348Y0016707D01*
X0028204Y0016742D01*
X0028061Y0016782D01*
X0027920Y0016825D01*
X0027779Y0016872D01*
X0027640Y0016922D01*
X0027503Y0016977D01*
X0027367Y0017035D01*
X0027232Y0017096D01*
X0027099Y0017161D01*
X0026968Y0017230D01*
X0026839Y0017302D01*
X0026712Y0017378D01*
X0026587Y0017457D01*
X0026464Y0017540D01*
X0026343Y0017625D01*
X0026225Y0017714D01*
X0026109Y0017806D01*
X0025996Y0017902D01*
X0025885Y0018000D01*
X0025777Y0018101D01*
X0025671Y0018205D01*
X0025569Y0018311D01*
X0025469Y0018421D01*
X0025373Y0018533D01*
X0025279Y0018648D01*
X0025188Y0018765D01*
X0025101Y0018884D01*
X0025017Y0019006D01*
X0024936Y0019130D01*
X0024859Y0019256D01*
X0024785Y0019384D01*
X0024714Y0019514D01*
X0024647Y0019646D01*
X0024584Y0019780D01*
X0024524Y0019915D01*
X0024468Y0020052D01*
X0024415Y0020191D01*
X0024367Y0020331D01*
X0024322Y0020472D01*
X0024281Y0020614D01*
X0024243Y0020757D01*
X0024210Y0020901D01*
X0024180Y0021046D01*
X0024154Y0021192D01*
X0024133Y0021338D01*
X0024115Y0021485D01*
X0024101Y0021632D01*
X0024091Y0021780D01*
X0024085Y0021928D01*
X0024083Y0022076D01*
X0107115Y0101564D02*
X0107117Y0101712D01*
X0107123Y0101860D01*
X0107133Y0102008D01*
X0107147Y0102155D01*
X0107165Y0102302D01*
X0107186Y0102448D01*
X0107212Y0102594D01*
X0107242Y0102739D01*
X0107275Y0102883D01*
X0107313Y0103026D01*
X0107354Y0103168D01*
X0107399Y0103309D01*
X0107447Y0103449D01*
X0107500Y0103588D01*
X0107556Y0103725D01*
X0107616Y0103860D01*
X0107679Y0103994D01*
X0107746Y0104126D01*
X0107817Y0104256D01*
X0107891Y0104384D01*
X0107968Y0104510D01*
X0108049Y0104634D01*
X0108133Y0104756D01*
X0108220Y0104875D01*
X0108311Y0104992D01*
X0108405Y0105107D01*
X0108501Y0105219D01*
X0108601Y0105329D01*
X0108703Y0105435D01*
X0108809Y0105539D01*
X0108917Y0105640D01*
X0109028Y0105738D01*
X0109141Y0105834D01*
X0109257Y0105926D01*
X0109375Y0106015D01*
X0109496Y0106100D01*
X0109619Y0106183D01*
X0109744Y0106262D01*
X0109871Y0106338D01*
X0110000Y0106410D01*
X0110131Y0106479D01*
X0110264Y0106544D01*
X0110399Y0106605D01*
X0110535Y0106663D01*
X0110672Y0106718D01*
X0110811Y0106768D01*
X0110952Y0106815D01*
X0111093Y0106858D01*
X0111236Y0106898D01*
X0111380Y0106933D01*
X0111524Y0106965D01*
X0111670Y0106992D01*
X0111816Y0107016D01*
X0111963Y0107036D01*
X0112110Y0107052D01*
X0112257Y0107064D01*
X0112405Y0107072D01*
X0112553Y0107076D01*
X0112701Y0107076D01*
X0112849Y0107072D01*
X0112997Y0107064D01*
X0113144Y0107052D01*
X0113291Y0107036D01*
X0113438Y0107016D01*
X0113584Y0106992D01*
X0113730Y0106965D01*
X0113874Y0106933D01*
X0114018Y0106898D01*
X0114161Y0106858D01*
X0114302Y0106815D01*
X0114443Y0106768D01*
X0114582Y0106718D01*
X0114719Y0106663D01*
X0114855Y0106605D01*
X0114990Y0106544D01*
X0115123Y0106479D01*
X0115254Y0106410D01*
X0115383Y0106338D01*
X0115510Y0106262D01*
X0115635Y0106183D01*
X0115758Y0106100D01*
X0115879Y0106015D01*
X0115997Y0105926D01*
X0116113Y0105834D01*
X0116226Y0105738D01*
X0116337Y0105640D01*
X0116445Y0105539D01*
X0116551Y0105435D01*
X0116653Y0105329D01*
X0116753Y0105219D01*
X0116849Y0105107D01*
X0116943Y0104992D01*
X0117034Y0104875D01*
X0117121Y0104756D01*
X0117205Y0104634D01*
X0117286Y0104510D01*
X0117363Y0104384D01*
X0117437Y0104256D01*
X0117508Y0104126D01*
X0117575Y0103994D01*
X0117638Y0103860D01*
X0117698Y0103725D01*
X0117754Y0103588D01*
X0117807Y0103449D01*
X0117855Y0103309D01*
X0117900Y0103168D01*
X0117941Y0103026D01*
X0117979Y0102883D01*
X0118012Y0102739D01*
X0118042Y0102594D01*
X0118068Y0102448D01*
X0118089Y0102302D01*
X0118107Y0102155D01*
X0118121Y0102008D01*
X0118131Y0101860D01*
X0118137Y0101712D01*
X0118139Y0101564D01*
X0118137Y0101416D01*
X0118131Y0101268D01*
X0118121Y0101120D01*
X0118107Y0100973D01*
X0118089Y0100826D01*
X0118068Y0100680D01*
X0118042Y0100534D01*
X0118012Y0100389D01*
X0117979Y0100245D01*
X0117941Y0100102D01*
X0117900Y0099960D01*
X0117855Y0099819D01*
X0117807Y0099679D01*
X0117754Y0099540D01*
X0117698Y0099403D01*
X0117638Y0099268D01*
X0117575Y0099134D01*
X0117508Y0099002D01*
X0117437Y0098872D01*
X0117363Y0098744D01*
X0117286Y0098618D01*
X0117205Y0098494D01*
X0117121Y0098372D01*
X0117034Y0098253D01*
X0116943Y0098136D01*
X0116849Y0098021D01*
X0116753Y0097909D01*
X0116653Y0097799D01*
X0116551Y0097693D01*
X0116445Y0097589D01*
X0116337Y0097488D01*
X0116226Y0097390D01*
X0116113Y0097294D01*
X0115997Y0097202D01*
X0115879Y0097113D01*
X0115758Y0097028D01*
X0115635Y0096945D01*
X0115510Y0096866D01*
X0115383Y0096790D01*
X0115254Y0096718D01*
X0115123Y0096649D01*
X0114990Y0096584D01*
X0114855Y0096523D01*
X0114719Y0096465D01*
X0114582Y0096410D01*
X0114443Y0096360D01*
X0114302Y0096313D01*
X0114161Y0096270D01*
X0114018Y0096230D01*
X0113874Y0096195D01*
X0113730Y0096163D01*
X0113584Y0096136D01*
X0113438Y0096112D01*
X0113291Y0096092D01*
X0113144Y0096076D01*
X0112997Y0096064D01*
X0112849Y0096056D01*
X0112701Y0096052D01*
X0112553Y0096052D01*
X0112405Y0096056D01*
X0112257Y0096064D01*
X0112110Y0096076D01*
X0111963Y0096092D01*
X0111816Y0096112D01*
X0111670Y0096136D01*
X0111524Y0096163D01*
X0111380Y0096195D01*
X0111236Y0096230D01*
X0111093Y0096270D01*
X0110952Y0096313D01*
X0110811Y0096360D01*
X0110672Y0096410D01*
X0110535Y0096465D01*
X0110399Y0096523D01*
X0110264Y0096584D01*
X0110131Y0096649D01*
X0110000Y0096718D01*
X0109871Y0096790D01*
X0109744Y0096866D01*
X0109619Y0096945D01*
X0109496Y0097028D01*
X0109375Y0097113D01*
X0109257Y0097202D01*
X0109141Y0097294D01*
X0109028Y0097390D01*
X0108917Y0097488D01*
X0108809Y0097589D01*
X0108703Y0097693D01*
X0108601Y0097799D01*
X0108501Y0097909D01*
X0108405Y0098021D01*
X0108311Y0098136D01*
X0108220Y0098253D01*
X0108133Y0098372D01*
X0108049Y0098494D01*
X0107968Y0098618D01*
X0107891Y0098744D01*
X0107817Y0098872D01*
X0107746Y0099002D01*
X0107679Y0099134D01*
X0107616Y0099268D01*
X0107556Y0099403D01*
X0107500Y0099540D01*
X0107447Y0099679D01*
X0107399Y0099819D01*
X0107354Y0099960D01*
X0107313Y0100102D01*
X0107275Y0100245D01*
X0107242Y0100389D01*
X0107212Y0100534D01*
X0107186Y0100680D01*
X0107165Y0100826D01*
X0107147Y0100973D01*
X0107133Y0101120D01*
X0107123Y0101268D01*
X0107117Y0101416D01*
X0107115Y0101564D01*
M02*
