G75*
%MOIN*%
%OFA0B0*%
%FSLAX25Y25*%
%IPPOS*%
%LPD*%
%AMOC8*
5,1,8,0,0,1.08239X$1,22.5*
%
%ADD10C,0.00500*%
%ADD11C,0.00600*%
D10*
X0045855Y0037076D02*
X0045862Y0037656D01*
X0045883Y0038235D01*
X0045919Y0038814D01*
X0045969Y0039391D01*
X0046033Y0039968D01*
X0046111Y0040542D01*
X0046203Y0041114D01*
X0046309Y0041684D01*
X0046429Y0042252D01*
X0046563Y0042816D01*
X0046711Y0043376D01*
X0046872Y0043933D01*
X0047047Y0044486D01*
X0047236Y0045034D01*
X0047438Y0045577D01*
X0047653Y0046116D01*
X0047882Y0046649D01*
X0048123Y0047176D01*
X0048377Y0047697D01*
X0048644Y0048211D01*
X0048924Y0048719D01*
X0049216Y0049220D01*
X0049520Y0049714D01*
X0049836Y0050200D01*
X0050164Y0050678D01*
X0050504Y0051148D01*
X0050855Y0051609D01*
X0051217Y0052062D01*
X0051590Y0052505D01*
X0051974Y0052940D01*
X0052369Y0053364D01*
X0052774Y0053779D01*
X0053189Y0054184D01*
X0053613Y0054579D01*
X0054048Y0054963D01*
X0054491Y0055336D01*
X0054944Y0055698D01*
X0055405Y0056049D01*
X0055875Y0056389D01*
X0056353Y0056717D01*
X0056839Y0057033D01*
X0057333Y0057337D01*
X0057834Y0057629D01*
X0058342Y0057909D01*
X0058856Y0058176D01*
X0059377Y0058430D01*
X0059904Y0058671D01*
X0060437Y0058900D01*
X0060976Y0059115D01*
X0061519Y0059317D01*
X0062067Y0059506D01*
X0062620Y0059681D01*
X0063177Y0059842D01*
X0063737Y0059990D01*
X0064301Y0060124D01*
X0064869Y0060244D01*
X0065439Y0060350D01*
X0066011Y0060442D01*
X0066585Y0060520D01*
X0067162Y0060584D01*
X0067739Y0060634D01*
X0068318Y0060670D01*
X0068897Y0060691D01*
X0069477Y0060698D01*
X0070057Y0060691D01*
X0070636Y0060670D01*
X0071215Y0060634D01*
X0071792Y0060584D01*
X0072369Y0060520D01*
X0072943Y0060442D01*
X0073515Y0060350D01*
X0074085Y0060244D01*
X0074653Y0060124D01*
X0075217Y0059990D01*
X0075777Y0059842D01*
X0076334Y0059681D01*
X0076887Y0059506D01*
X0077435Y0059317D01*
X0077978Y0059115D01*
X0078517Y0058900D01*
X0079050Y0058671D01*
X0079577Y0058430D01*
X0080098Y0058176D01*
X0080612Y0057909D01*
X0081120Y0057629D01*
X0081621Y0057337D01*
X0082115Y0057033D01*
X0082601Y0056717D01*
X0083079Y0056389D01*
X0083549Y0056049D01*
X0084010Y0055698D01*
X0084463Y0055336D01*
X0084906Y0054963D01*
X0085341Y0054579D01*
X0085765Y0054184D01*
X0086180Y0053779D01*
X0086585Y0053364D01*
X0086980Y0052940D01*
X0087364Y0052505D01*
X0087737Y0052062D01*
X0088099Y0051609D01*
X0088450Y0051148D01*
X0088790Y0050678D01*
X0089118Y0050200D01*
X0089434Y0049714D01*
X0089738Y0049220D01*
X0090030Y0048719D01*
X0090310Y0048211D01*
X0090577Y0047697D01*
X0090831Y0047176D01*
X0091072Y0046649D01*
X0091301Y0046116D01*
X0091516Y0045577D01*
X0091718Y0045034D01*
X0091907Y0044486D01*
X0092082Y0043933D01*
X0092243Y0043376D01*
X0092391Y0042816D01*
X0092525Y0042252D01*
X0092645Y0041684D01*
X0092751Y0041114D01*
X0092843Y0040542D01*
X0092921Y0039968D01*
X0092985Y0039391D01*
X0093035Y0038814D01*
X0093071Y0038235D01*
X0093092Y0037656D01*
X0093099Y0037076D01*
X0093092Y0036496D01*
X0093071Y0035917D01*
X0093035Y0035338D01*
X0092985Y0034761D01*
X0092921Y0034184D01*
X0092843Y0033610D01*
X0092751Y0033038D01*
X0092645Y0032468D01*
X0092525Y0031900D01*
X0092391Y0031336D01*
X0092243Y0030776D01*
X0092082Y0030219D01*
X0091907Y0029666D01*
X0091718Y0029118D01*
X0091516Y0028575D01*
X0091301Y0028036D01*
X0091072Y0027503D01*
X0090831Y0026976D01*
X0090577Y0026455D01*
X0090310Y0025941D01*
X0090030Y0025433D01*
X0089738Y0024932D01*
X0089434Y0024438D01*
X0089118Y0023952D01*
X0088790Y0023474D01*
X0088450Y0023004D01*
X0088099Y0022543D01*
X0087737Y0022090D01*
X0087364Y0021647D01*
X0086980Y0021212D01*
X0086585Y0020788D01*
X0086180Y0020373D01*
X0085765Y0019968D01*
X0085341Y0019573D01*
X0084906Y0019189D01*
X0084463Y0018816D01*
X0084010Y0018454D01*
X0083549Y0018103D01*
X0083079Y0017763D01*
X0082601Y0017435D01*
X0082115Y0017119D01*
X0081621Y0016815D01*
X0081120Y0016523D01*
X0080612Y0016243D01*
X0080098Y0015976D01*
X0079577Y0015722D01*
X0079050Y0015481D01*
X0078517Y0015252D01*
X0077978Y0015037D01*
X0077435Y0014835D01*
X0076887Y0014646D01*
X0076334Y0014471D01*
X0075777Y0014310D01*
X0075217Y0014162D01*
X0074653Y0014028D01*
X0074085Y0013908D01*
X0073515Y0013802D01*
X0072943Y0013710D01*
X0072369Y0013632D01*
X0071792Y0013568D01*
X0071215Y0013518D01*
X0070636Y0013482D01*
X0070057Y0013461D01*
X0069477Y0013454D01*
X0068897Y0013461D01*
X0068318Y0013482D01*
X0067739Y0013518D01*
X0067162Y0013568D01*
X0066585Y0013632D01*
X0066011Y0013710D01*
X0065439Y0013802D01*
X0064869Y0013908D01*
X0064301Y0014028D01*
X0063737Y0014162D01*
X0063177Y0014310D01*
X0062620Y0014471D01*
X0062067Y0014646D01*
X0061519Y0014835D01*
X0060976Y0015037D01*
X0060437Y0015252D01*
X0059904Y0015481D01*
X0059377Y0015722D01*
X0058856Y0015976D01*
X0058342Y0016243D01*
X0057834Y0016523D01*
X0057333Y0016815D01*
X0056839Y0017119D01*
X0056353Y0017435D01*
X0055875Y0017763D01*
X0055405Y0018103D01*
X0054944Y0018454D01*
X0054491Y0018816D01*
X0054048Y0019189D01*
X0053613Y0019573D01*
X0053189Y0019968D01*
X0052774Y0020373D01*
X0052369Y0020788D01*
X0051974Y0021212D01*
X0051590Y0021647D01*
X0051217Y0022090D01*
X0050855Y0022543D01*
X0050504Y0023004D01*
X0050164Y0023474D01*
X0049836Y0023952D01*
X0049520Y0024438D01*
X0049216Y0024932D01*
X0048924Y0025433D01*
X0048644Y0025941D01*
X0048377Y0026455D01*
X0048123Y0026976D01*
X0047882Y0027503D01*
X0047653Y0028036D01*
X0047438Y0028575D01*
X0047236Y0029118D01*
X0047047Y0029666D01*
X0046872Y0030219D01*
X0046711Y0030776D01*
X0046563Y0031336D01*
X0046429Y0031900D01*
X0046309Y0032468D01*
X0046203Y0033038D01*
X0046111Y0033610D01*
X0046033Y0034184D01*
X0045969Y0034761D01*
X0045919Y0035338D01*
X0045883Y0035917D01*
X0045862Y0036496D01*
X0045855Y0037076D01*
X0080905Y0047071D02*
X0084975Y0047071D01*
X0082940Y0049106D02*
X0082940Y0045036D01*
D11*
X0058154Y0047271D02*
X0053883Y0047271D01*
M02*
