G75*
%MOIN*%
%OFA0B0*%
%FSLAX25Y25*%
%IPPOS*%
%LPD*%
%AMOC8*
5,1,8,0,0,1.08239X$1,22.5*
%
%ADD10C,0.06600*%
%ADD11C,0.06000*%
%ADD12C,0.05200*%
%ADD13C,0.03969*%
%ADD14R,0.03937X0.07874*%
%ADD15C,0.07000*%
%ADD16R,0.03200X0.06600*%
%ADD17R,0.03543X0.12598*%
%ADD18OC8,0.05937*%
%ADD19C,0.01600*%
%ADD20C,0.02800*%
D10*
X0018953Y0098795D03*
X0058953Y0098795D03*
D11*
X0082772Y0109969D02*
X0082772Y0115969D01*
X0092772Y0115969D02*
X0092772Y0109969D01*
X0102772Y0109969D02*
X0102772Y0115969D01*
X0112772Y0115969D02*
X0112772Y0109969D01*
X0122772Y0109969D02*
X0122772Y0115969D01*
X0132772Y0115969D02*
X0132772Y0109969D01*
X0142772Y0109969D02*
X0142772Y0115969D01*
X0152772Y0115969D02*
X0152772Y0109969D01*
X0048126Y0022937D02*
X0048126Y0016937D01*
X0038126Y0016937D02*
X0038126Y0022937D01*
X0019748Y0062575D02*
X0013748Y0062575D01*
X0013748Y0072575D02*
X0019748Y0072575D01*
D12*
X0086894Y0023047D03*
X0105894Y0023047D03*
D13*
X0125409Y0023693D02*
X0125409Y0019724D01*
X0130331Y0019724D02*
X0130331Y0023693D01*
X0135252Y0023693D02*
X0135252Y0019724D01*
X0140173Y0019724D02*
X0140173Y0023693D01*
X0145094Y0023693D02*
X0145094Y0019724D01*
X0150016Y0019724D02*
X0150016Y0023693D01*
D14*
X0119346Y0035921D03*
X0113441Y0035921D03*
X0054386Y0035921D03*
X0048480Y0035921D03*
X0101630Y0087102D03*
X0107535Y0087102D03*
X0119346Y0087102D03*
D15*
X0069110Y0111945D03*
X0015961Y0111945D03*
X0015961Y0023362D03*
X0027772Y0023362D03*
X0057299Y0023362D03*
X0068717Y0023362D03*
D16*
X0030921Y0034110D03*
X0030921Y0062457D03*
D17*
X0082890Y0097496D03*
X0088795Y0097496D03*
D18*
X0144213Y0096984D03*
X0144213Y0086984D03*
X0144213Y0077299D03*
X0144213Y0067299D03*
X0144213Y0057102D03*
X0144213Y0047102D03*
X0144213Y0037102D03*
D19*
X0006179Y0005838D02*
X0005815Y0124585D01*
X0158365Y0124548D01*
X0158365Y0118665D01*
X0158028Y0119481D01*
X0156284Y0121225D01*
X0154005Y0122168D01*
X0151538Y0122168D01*
X0149260Y0121225D01*
X0147772Y0119737D01*
X0146284Y0121225D01*
X0144005Y0122168D01*
X0141538Y0122168D01*
X0139260Y0121225D01*
X0137772Y0119737D01*
X0136284Y0121225D01*
X0134005Y0122168D01*
X0131538Y0122168D01*
X0129260Y0121225D01*
X0127772Y0119737D01*
X0126284Y0121225D01*
X0124005Y0122168D01*
X0121538Y0122168D01*
X0119260Y0121225D01*
X0117772Y0119737D01*
X0116284Y0121225D01*
X0114005Y0122168D01*
X0111538Y0122168D01*
X0109260Y0121225D01*
X0107772Y0119737D01*
X0106284Y0121225D01*
X0104005Y0122168D01*
X0101538Y0122168D01*
X0099260Y0121225D01*
X0097516Y0119481D01*
X0097002Y0118240D01*
X0096877Y0118484D01*
X0096433Y0119095D01*
X0095899Y0119630D01*
X0095287Y0120074D01*
X0094614Y0120417D01*
X0093896Y0120650D01*
X0093149Y0120768D01*
X0092972Y0120768D01*
X0092972Y0113169D01*
X0092572Y0113169D01*
X0092572Y0120768D01*
X0092394Y0120768D01*
X0091648Y0120650D01*
X0090929Y0120417D01*
X0090256Y0120074D01*
X0089645Y0119630D01*
X0089110Y0119095D01*
X0088666Y0118484D01*
X0088542Y0118240D01*
X0088028Y0119481D01*
X0086284Y0121225D01*
X0084005Y0122168D01*
X0081538Y0122168D01*
X0079260Y0121225D01*
X0077516Y0119481D01*
X0076572Y0117202D01*
X0076572Y0108735D01*
X0077516Y0106456D01*
X0078393Y0105579D01*
X0077918Y0104432D01*
X0077918Y0094244D01*
X0076902Y0093228D01*
X0072736Y0093228D01*
X0071535Y0094429D01*
X0071535Y0100654D01*
X0070926Y0102124D01*
X0067806Y0105245D01*
X0070443Y0105245D01*
X0072905Y0106265D01*
X0074790Y0108150D01*
X0075810Y0110612D01*
X0075810Y0113278D01*
X0074790Y0115740D01*
X0072905Y0117625D01*
X0070443Y0118645D01*
X0067778Y0118645D01*
X0065315Y0117625D01*
X0063430Y0115740D01*
X0062410Y0113278D01*
X0062410Y0110612D01*
X0062831Y0109596D01*
X0062426Y0109764D01*
X0025126Y0109764D01*
X0023655Y0109155D01*
X0019796Y0105295D01*
X0017660Y0105295D01*
X0015271Y0104306D01*
X0013442Y0102477D01*
X0012453Y0100088D01*
X0012453Y0097502D01*
X0013442Y0095113D01*
X0015271Y0093285D01*
X0017660Y0092295D01*
X0020246Y0092295D01*
X0022635Y0093285D01*
X0024463Y0095113D01*
X0025453Y0097502D01*
X0025453Y0099638D01*
X0027578Y0101764D01*
X0054806Y0101764D01*
X0054591Y0101468D01*
X0054226Y0100753D01*
X0053978Y0099990D01*
X0053853Y0099197D01*
X0053853Y0099095D01*
X0058653Y0099095D01*
X0058653Y0098495D01*
X0059253Y0098495D01*
X0059253Y0093695D01*
X0059354Y0093695D01*
X0060147Y0093821D01*
X0060910Y0094069D01*
X0061626Y0094433D01*
X0062275Y0094905D01*
X0062843Y0095473D01*
X0063315Y0096122D01*
X0063535Y0096556D01*
X0063535Y0091976D01*
X0064144Y0090506D01*
X0065270Y0089381D01*
X0068813Y0085837D01*
X0070283Y0085228D01*
X0078890Y0085228D01*
X0078890Y0078680D01*
X0050995Y0050785D01*
X0050386Y0049315D01*
X0050386Y0042352D01*
X0049704Y0041671D01*
X0049699Y0041658D01*
X0048665Y0041658D01*
X0048665Y0036106D01*
X0048296Y0036106D01*
X0048296Y0041658D01*
X0046275Y0041658D01*
X0045817Y0041536D01*
X0045407Y0041299D01*
X0045071Y0040963D01*
X0044834Y0040553D01*
X0044712Y0040095D01*
X0044712Y0036106D01*
X0048296Y0036106D01*
X0048296Y0035737D01*
X0044712Y0035737D01*
X0044712Y0033851D01*
X0041061Y0037501D01*
X0039591Y0038110D01*
X0035695Y0038110D01*
X0035234Y0039223D01*
X0034334Y0040123D01*
X0033158Y0040610D01*
X0028685Y0040610D01*
X0027509Y0040123D01*
X0026608Y0039223D01*
X0026121Y0038047D01*
X0026121Y0030174D01*
X0026207Y0029966D01*
X0023976Y0029042D01*
X0022092Y0027157D01*
X0021088Y0024734D01*
X0020872Y0025397D01*
X0020494Y0026140D01*
X0020003Y0026815D01*
X0019413Y0027405D01*
X0018738Y0027895D01*
X0017995Y0028274D01*
X0017202Y0028532D01*
X0016378Y0028662D01*
X0015961Y0028662D01*
X0015961Y0023362D01*
X0015961Y0018062D01*
X0016378Y0018062D01*
X0017202Y0018193D01*
X0017995Y0018451D01*
X0018738Y0018829D01*
X0019413Y0019320D01*
X0020003Y0019909D01*
X0020494Y0020584D01*
X0020872Y0021328D01*
X0021088Y0021991D01*
X0022092Y0019567D01*
X0023976Y0017682D01*
X0026439Y0016662D01*
X0029104Y0016662D01*
X0031567Y0017682D01*
X0031926Y0018041D01*
X0031926Y0015704D01*
X0032870Y0013425D01*
X0034614Y0011681D01*
X0036893Y0010737D01*
X0039359Y0010737D01*
X0041638Y0011681D01*
X0043126Y0013169D01*
X0044614Y0011681D01*
X0046893Y0010737D01*
X0049359Y0010737D01*
X0051638Y0011681D01*
X0053382Y0013425D01*
X0054326Y0015704D01*
X0054326Y0017342D01*
X0055966Y0016662D01*
X0058632Y0016662D01*
X0061094Y0017682D01*
X0062979Y0019567D01*
X0063008Y0019636D01*
X0063037Y0019567D01*
X0064921Y0017682D01*
X0067384Y0016662D01*
X0070049Y0016662D01*
X0072512Y0017682D01*
X0074397Y0019567D01*
X0075417Y0022029D01*
X0075417Y0024695D01*
X0075130Y0025386D01*
X0081585Y0025386D01*
X0081094Y0024201D01*
X0081094Y0021894D01*
X0081977Y0019762D01*
X0083608Y0018130D01*
X0085740Y0017247D01*
X0088047Y0017247D01*
X0090179Y0018130D01*
X0091811Y0019762D01*
X0092276Y0020884D01*
X0092276Y0020716D01*
X0092885Y0019246D01*
X0097609Y0014522D01*
X0098734Y0013396D01*
X0100204Y0012787D01*
X0113213Y0012787D01*
X0114683Y0013396D01*
X0117118Y0015831D01*
X0118566Y0016431D01*
X0119860Y0017725D01*
X0120561Y0019416D01*
X0120561Y0021246D01*
X0119860Y0022936D01*
X0118986Y0023811D01*
X0121625Y0023811D01*
X0121625Y0021709D01*
X0125146Y0021709D01*
X0125146Y0021709D01*
X0121625Y0021709D01*
X0121625Y0019352D01*
X0121771Y0018621D01*
X0122056Y0017932D01*
X0122470Y0017312D01*
X0122997Y0016785D01*
X0123617Y0016371D01*
X0124306Y0016086D01*
X0125037Y0015940D01*
X0125409Y0015940D01*
X0125409Y0018058D01*
X0125409Y0015940D01*
X0125782Y0015940D01*
X0126513Y0016086D01*
X0126601Y0016122D01*
X0127394Y0015329D01*
X0129299Y0014540D01*
X0131362Y0014540D01*
X0132791Y0015132D01*
X0134221Y0014540D01*
X0136283Y0014540D01*
X0137713Y0015132D01*
X0139142Y0014540D01*
X0141204Y0014540D01*
X0142634Y0015132D01*
X0144063Y0014540D01*
X0146126Y0014540D01*
X0147555Y0015132D01*
X0148985Y0014540D01*
X0151047Y0014540D01*
X0152952Y0015329D01*
X0154411Y0016788D01*
X0155200Y0018693D01*
X0155200Y0024724D01*
X0154411Y0026630D01*
X0152952Y0028088D01*
X0151047Y0028877D01*
X0148985Y0028877D01*
X0147555Y0028285D01*
X0146126Y0028877D01*
X0144063Y0028877D01*
X0142634Y0028285D01*
X0141204Y0028877D01*
X0139142Y0028877D01*
X0137713Y0028285D01*
X0136283Y0028877D01*
X0134331Y0028877D01*
X0134331Y0031075D01*
X0136121Y0032866D01*
X0139725Y0032866D01*
X0141658Y0030934D01*
X0146768Y0030934D01*
X0150381Y0034547D01*
X0150381Y0039657D01*
X0147936Y0042102D01*
X0150381Y0044547D01*
X0150381Y0049657D01*
X0147936Y0052102D01*
X0150381Y0054547D01*
X0150381Y0059657D01*
X0147838Y0062201D01*
X0150381Y0064744D01*
X0150381Y0069854D01*
X0147936Y0072299D01*
X0150381Y0074744D01*
X0150381Y0079854D01*
X0148094Y0082142D01*
X0150381Y0084429D01*
X0150381Y0089539D01*
X0147936Y0091984D01*
X0150381Y0094429D01*
X0150381Y0099539D01*
X0149338Y0100583D01*
X0152189Y0100583D01*
X0153660Y0101192D01*
X0155234Y0102766D01*
X0156360Y0103892D01*
X0156968Y0105362D01*
X0156968Y0105397D01*
X0158028Y0106456D01*
X0158365Y0107272D01*
X0158365Y0005801D01*
X0006179Y0005838D01*
X0006177Y0006480D02*
X0158365Y0006480D01*
X0158365Y0008079D02*
X0006172Y0008079D01*
X0006167Y0009677D02*
X0158365Y0009677D01*
X0158365Y0011276D02*
X0050659Y0011276D01*
X0052831Y0012874D02*
X0099995Y0012874D01*
X0097658Y0014473D02*
X0053816Y0014473D01*
X0054326Y0016071D02*
X0096059Y0016071D01*
X0094461Y0017670D02*
X0089067Y0017670D01*
X0091317Y0019268D02*
X0092875Y0019268D01*
X0092276Y0020867D02*
X0092268Y0020867D01*
X0096276Y0021512D02*
X0101000Y0016787D01*
X0112417Y0016787D01*
X0115961Y0020331D01*
X0119805Y0017670D02*
X0122231Y0017670D01*
X0121642Y0019268D02*
X0120499Y0019268D01*
X0120561Y0020867D02*
X0121625Y0020867D01*
X0121625Y0022465D02*
X0120055Y0022465D01*
X0121079Y0027811D02*
X0110449Y0027811D01*
X0102969Y0035291D01*
X0055016Y0035291D01*
X0054386Y0035921D01*
X0054386Y0048520D01*
X0082890Y0077024D01*
X0082890Y0097496D01*
X0082890Y0093559D01*
X0078559Y0089228D01*
X0071079Y0089228D01*
X0067535Y0092772D01*
X0067535Y0099858D01*
X0061630Y0105764D01*
X0025921Y0105764D01*
X0018953Y0098795D01*
X0023748Y0094398D02*
X0056349Y0094398D01*
X0056280Y0094433D02*
X0056995Y0094069D01*
X0057758Y0093821D01*
X0058551Y0093695D01*
X0058653Y0093695D01*
X0058653Y0098495D01*
X0053853Y0098495D01*
X0053853Y0098394D01*
X0053978Y0097601D01*
X0054226Y0096838D01*
X0054591Y0096122D01*
X0055063Y0095473D01*
X0055630Y0094905D01*
X0056280Y0094433D01*
X0054682Y0095997D02*
X0024829Y0095997D01*
X0025453Y0097595D02*
X0053980Y0097595D01*
X0053853Y0099194D02*
X0025453Y0099194D01*
X0026607Y0100792D02*
X0054246Y0100792D01*
X0058874Y0098717D02*
X0058953Y0098795D01*
X0058874Y0098717D02*
X0058874Y0089228D01*
X0048480Y0078835D01*
X0048480Y0035921D01*
X0046827Y0035921D01*
X0030921Y0051827D01*
X0030921Y0046315D01*
X0015961Y0031354D01*
X0015961Y0023362D01*
X0015961Y0023362D01*
X0015961Y0018062D01*
X0015544Y0018062D01*
X0014720Y0018193D01*
X0013926Y0018451D01*
X0013183Y0018829D01*
X0012508Y0019320D01*
X0011918Y0019909D01*
X0011428Y0020584D01*
X0011049Y0021328D01*
X0010791Y0022121D01*
X0010661Y0022945D01*
X0010661Y0023362D01*
X0015960Y0023362D01*
X0015960Y0023362D01*
X0010661Y0023362D01*
X0010661Y0023779D01*
X0010791Y0024603D01*
X0011049Y0025397D01*
X0011428Y0026140D01*
X0011918Y0026815D01*
X0012508Y0027405D01*
X0013183Y0027895D01*
X0013926Y0028274D01*
X0014720Y0028532D01*
X0015544Y0028662D01*
X0015961Y0028662D01*
X0015961Y0023362D01*
X0015961Y0023362D01*
X0015961Y0024064D02*
X0015961Y0024064D01*
X0015961Y0025662D02*
X0015961Y0025662D01*
X0015961Y0027261D02*
X0015961Y0027261D01*
X0019557Y0027261D02*
X0022195Y0027261D01*
X0021472Y0025662D02*
X0020737Y0025662D01*
X0023793Y0028859D02*
X0006108Y0028859D01*
X0006103Y0030458D02*
X0026121Y0030458D01*
X0026121Y0032056D02*
X0006099Y0032056D01*
X0006094Y0033655D02*
X0026121Y0033655D01*
X0026121Y0035253D02*
X0006089Y0035253D01*
X0006084Y0036852D02*
X0026121Y0036852D01*
X0026288Y0038450D02*
X0006079Y0038450D01*
X0006074Y0040049D02*
X0027434Y0040049D01*
X0030921Y0034110D02*
X0038795Y0034110D01*
X0043520Y0029386D01*
X0092339Y0029386D01*
X0096276Y0025449D01*
X0096276Y0021512D01*
X0084720Y0017670D02*
X0072481Y0017670D01*
X0074098Y0019268D02*
X0082470Y0019268D01*
X0081519Y0020867D02*
X0074935Y0020867D01*
X0075417Y0022465D02*
X0081094Y0022465D01*
X0081094Y0024064D02*
X0075417Y0024064D01*
X0064952Y0017670D02*
X0061064Y0017670D01*
X0062680Y0019268D02*
X0063335Y0019268D01*
X0057299Y0023362D02*
X0051551Y0023362D01*
X0048126Y0019937D01*
X0043421Y0012874D02*
X0042831Y0012874D01*
X0040659Y0011276D02*
X0045592Y0011276D01*
X0035592Y0011276D02*
X0006162Y0011276D01*
X0006157Y0012874D02*
X0033421Y0012874D01*
X0032436Y0014473D02*
X0006153Y0014473D01*
X0006148Y0016071D02*
X0031926Y0016071D01*
X0031926Y0017670D02*
X0031537Y0017670D01*
X0034701Y0023362D02*
X0027772Y0023362D01*
X0021553Y0020867D02*
X0020637Y0020867D01*
X0019343Y0019268D02*
X0022390Y0019268D01*
X0024007Y0017670D02*
X0006143Y0017670D01*
X0006138Y0019268D02*
X0012579Y0019268D01*
X0011284Y0020867D02*
X0006133Y0020867D01*
X0006128Y0022465D02*
X0010737Y0022465D01*
X0010706Y0024064D02*
X0006123Y0024064D01*
X0006118Y0025662D02*
X0011184Y0025662D01*
X0012364Y0027261D02*
X0006113Y0027261D01*
X0015961Y0022465D02*
X0015961Y0022465D01*
X0015961Y0020867D02*
X0015961Y0020867D01*
X0015961Y0019268D02*
X0015961Y0019268D01*
X0034701Y0023362D02*
X0038126Y0019937D01*
X0043309Y0035253D02*
X0044712Y0035253D01*
X0044712Y0036852D02*
X0041711Y0036852D01*
X0044712Y0038450D02*
X0035554Y0038450D01*
X0034408Y0040049D02*
X0044712Y0040049D01*
X0046234Y0041647D02*
X0006069Y0041647D01*
X0006064Y0043246D02*
X0050386Y0043246D01*
X0050386Y0044844D02*
X0006059Y0044844D01*
X0006054Y0046443D02*
X0050386Y0046443D01*
X0050386Y0048041D02*
X0006050Y0048041D01*
X0006045Y0049640D02*
X0050520Y0049640D01*
X0051448Y0051238D02*
X0006040Y0051238D01*
X0006035Y0052837D02*
X0053046Y0052837D01*
X0054645Y0054435D02*
X0006030Y0054435D01*
X0006025Y0056034D02*
X0056243Y0056034D01*
X0057842Y0057632D02*
X0033481Y0057632D01*
X0033626Y0057716D02*
X0033962Y0058051D01*
X0034199Y0058462D01*
X0034321Y0058920D01*
X0034321Y0062457D01*
X0034321Y0065994D01*
X0034199Y0066451D01*
X0033962Y0066862D01*
X0033626Y0067197D01*
X0033216Y0067434D01*
X0032758Y0067557D01*
X0030921Y0067557D01*
X0029084Y0067557D01*
X0028626Y0067434D01*
X0028216Y0067197D01*
X0027881Y0066862D01*
X0027644Y0066451D01*
X0027521Y0065994D01*
X0027521Y0062457D01*
X0030921Y0062457D01*
X0030921Y0067557D01*
X0030921Y0062457D01*
X0030921Y0062457D01*
X0030921Y0062457D01*
X0030921Y0051827D01*
X0030921Y0057357D02*
X0032758Y0057357D01*
X0033216Y0057479D01*
X0033626Y0057716D01*
X0034321Y0059231D02*
X0059440Y0059231D01*
X0061039Y0060829D02*
X0034321Y0060829D01*
X0034321Y0062428D02*
X0062637Y0062428D01*
X0064236Y0064026D02*
X0034321Y0064026D01*
X0034321Y0065625D02*
X0065834Y0065625D01*
X0067433Y0067223D02*
X0033581Y0067223D01*
X0030921Y0067223D02*
X0030921Y0067223D01*
X0030921Y0065625D02*
X0030921Y0065625D01*
X0030921Y0064026D02*
X0030921Y0064026D01*
X0030921Y0062457D02*
X0034321Y0062457D01*
X0030921Y0062457D01*
X0027521Y0062457D01*
X0027521Y0058920D01*
X0027644Y0058462D01*
X0027881Y0058051D01*
X0028216Y0057716D01*
X0028626Y0057479D01*
X0029084Y0057357D01*
X0030921Y0057357D01*
X0030921Y0062457D01*
X0030921Y0062457D01*
X0030921Y0062457D01*
X0030921Y0057357D01*
X0030921Y0057632D02*
X0030921Y0057632D01*
X0030921Y0059231D02*
X0030921Y0059231D01*
X0030921Y0060829D02*
X0030921Y0060829D01*
X0030921Y0062428D02*
X0030921Y0062428D01*
X0027521Y0062428D02*
X0025948Y0062428D01*
X0025948Y0061342D02*
X0025948Y0063808D01*
X0025004Y0066087D01*
X0023516Y0067575D01*
X0025004Y0069063D01*
X0025948Y0071342D01*
X0025948Y0073808D01*
X0025004Y0076087D01*
X0023260Y0077831D01*
X0020981Y0078775D01*
X0012515Y0078775D01*
X0010236Y0077831D01*
X0008492Y0076087D01*
X0007548Y0073808D01*
X0007548Y0071342D01*
X0008492Y0069063D01*
X0009980Y0067575D01*
X0008492Y0066087D01*
X0007548Y0063808D01*
X0007548Y0061342D01*
X0008492Y0059063D01*
X0010236Y0057319D01*
X0012515Y0056375D01*
X0020981Y0056375D01*
X0023260Y0057319D01*
X0025004Y0059063D01*
X0025948Y0061342D01*
X0025736Y0060829D02*
X0027521Y0060829D01*
X0027521Y0059231D02*
X0025074Y0059231D01*
X0023574Y0057632D02*
X0028361Y0057632D01*
X0027521Y0064026D02*
X0025858Y0064026D01*
X0025195Y0065625D02*
X0027521Y0065625D01*
X0028262Y0067223D02*
X0023867Y0067223D01*
X0024763Y0068822D02*
X0069031Y0068822D01*
X0070630Y0070421D02*
X0025567Y0070421D01*
X0025948Y0072019D02*
X0072228Y0072019D01*
X0073827Y0073618D02*
X0025948Y0073618D01*
X0025365Y0075216D02*
X0075425Y0075216D01*
X0077024Y0076815D02*
X0024276Y0076815D01*
X0021855Y0078413D02*
X0078622Y0078413D01*
X0078890Y0080012D02*
X0005951Y0080012D01*
X0005947Y0081610D02*
X0078890Y0081610D01*
X0078890Y0083209D02*
X0005942Y0083209D01*
X0005937Y0084807D02*
X0078890Y0084807D01*
X0088795Y0085291D02*
X0094701Y0079386D01*
X0116748Y0079386D01*
X0091551Y0054189D01*
X0071472Y0054189D01*
X0048665Y0041647D02*
X0048296Y0041647D01*
X0048296Y0040049D02*
X0048665Y0040049D01*
X0048665Y0038450D02*
X0048296Y0038450D01*
X0048296Y0036852D02*
X0048665Y0036852D01*
X0009922Y0057632D02*
X0006020Y0057632D01*
X0006015Y0059231D02*
X0008422Y0059231D01*
X0007760Y0060829D02*
X0006010Y0060829D01*
X0006005Y0062428D02*
X0007548Y0062428D01*
X0007639Y0064026D02*
X0006000Y0064026D01*
X0005996Y0065625D02*
X0008301Y0065625D01*
X0009629Y0067223D02*
X0005991Y0067223D01*
X0005986Y0068822D02*
X0008733Y0068822D01*
X0007930Y0070421D02*
X0005981Y0070421D01*
X0005976Y0072019D02*
X0007548Y0072019D01*
X0007548Y0073618D02*
X0005971Y0073618D01*
X0005966Y0075216D02*
X0008131Y0075216D01*
X0009220Y0076815D02*
X0005961Y0076815D01*
X0005956Y0078413D02*
X0011641Y0078413D01*
X0005932Y0086406D02*
X0068245Y0086406D01*
X0066646Y0088004D02*
X0005927Y0088004D01*
X0005922Y0089603D02*
X0065048Y0089603D01*
X0063856Y0091201D02*
X0005917Y0091201D01*
X0005912Y0092800D02*
X0016442Y0092800D01*
X0014157Y0094398D02*
X0005907Y0094398D01*
X0005902Y0095997D02*
X0013076Y0095997D01*
X0012453Y0097595D02*
X0005898Y0097595D01*
X0005893Y0099194D02*
X0012453Y0099194D01*
X0012744Y0100792D02*
X0005888Y0100792D01*
X0005883Y0102391D02*
X0013407Y0102391D01*
X0014954Y0103989D02*
X0005878Y0103989D01*
X0005873Y0105588D02*
X0013800Y0105588D01*
X0014628Y0105245D02*
X0017293Y0105245D01*
X0019756Y0106265D01*
X0021641Y0108150D01*
X0022661Y0110612D01*
X0022661Y0113278D01*
X0021641Y0115740D01*
X0019756Y0117625D01*
X0017293Y0118645D01*
X0014628Y0118645D01*
X0012165Y0117625D01*
X0010281Y0115740D01*
X0009261Y0113278D01*
X0009261Y0110612D01*
X0010281Y0108150D01*
X0012165Y0106265D01*
X0014628Y0105245D01*
X0011244Y0107186D02*
X0005868Y0107186D01*
X0005863Y0108785D02*
X0010018Y0108785D01*
X0009355Y0110383D02*
X0005858Y0110383D01*
X0005853Y0111982D02*
X0009261Y0111982D01*
X0009386Y0113580D02*
X0005848Y0113580D01*
X0005844Y0115179D02*
X0010048Y0115179D01*
X0011318Y0116777D02*
X0005839Y0116777D01*
X0005834Y0118376D02*
X0013978Y0118376D01*
X0017943Y0118376D02*
X0067128Y0118376D01*
X0064467Y0116777D02*
X0020603Y0116777D01*
X0021873Y0115179D02*
X0063198Y0115179D01*
X0062536Y0113580D02*
X0022535Y0113580D01*
X0022661Y0111982D02*
X0062410Y0111982D01*
X0062505Y0110383D02*
X0022566Y0110383D01*
X0021904Y0108785D02*
X0023285Y0108785D01*
X0021687Y0107186D02*
X0020677Y0107186D01*
X0020088Y0105588D02*
X0018121Y0105588D01*
X0021463Y0092800D02*
X0063535Y0092800D01*
X0063535Y0094398D02*
X0061557Y0094398D01*
X0059253Y0094398D02*
X0058653Y0094398D01*
X0058653Y0095997D02*
X0059253Y0095997D01*
X0059253Y0097595D02*
X0058653Y0097595D01*
X0063223Y0095997D02*
X0063535Y0095997D01*
X0071535Y0095997D02*
X0077918Y0095997D01*
X0077918Y0097595D02*
X0071535Y0097595D01*
X0071535Y0099194D02*
X0077918Y0099194D01*
X0077918Y0100792D02*
X0071478Y0100792D01*
X0070660Y0102391D02*
X0077918Y0102391D01*
X0077918Y0103989D02*
X0069061Y0103989D01*
X0071271Y0105588D02*
X0078384Y0105588D01*
X0077213Y0107186D02*
X0073827Y0107186D01*
X0075053Y0108785D02*
X0076572Y0108785D01*
X0076572Y0110383D02*
X0075715Y0110383D01*
X0075810Y0111982D02*
X0076572Y0111982D01*
X0076572Y0113580D02*
X0075685Y0113580D01*
X0075023Y0115179D02*
X0076572Y0115179D01*
X0076572Y0116777D02*
X0073753Y0116777D01*
X0071092Y0118376D02*
X0077058Y0118376D01*
X0078009Y0119974D02*
X0005829Y0119974D01*
X0005824Y0121573D02*
X0080100Y0121573D01*
X0085443Y0121573D02*
X0100100Y0121573D01*
X0098009Y0119974D02*
X0095424Y0119974D01*
X0096932Y0118376D02*
X0097058Y0118376D01*
X0092972Y0118376D02*
X0092572Y0118376D01*
X0092572Y0116777D02*
X0092972Y0116777D01*
X0092972Y0115179D02*
X0092572Y0115179D01*
X0092572Y0113580D02*
X0092972Y0113580D01*
X0088611Y0118376D02*
X0088485Y0118376D01*
X0087534Y0119974D02*
X0090119Y0119974D01*
X0092572Y0119974D02*
X0092972Y0119974D01*
X0105443Y0121573D02*
X0110100Y0121573D01*
X0108009Y0119974D02*
X0107534Y0119974D01*
X0115443Y0121573D02*
X0120100Y0121573D01*
X0118009Y0119974D02*
X0117534Y0119974D01*
X0125443Y0121573D02*
X0130100Y0121573D01*
X0128009Y0119974D02*
X0127534Y0119974D01*
X0135443Y0121573D02*
X0140100Y0121573D01*
X0138009Y0119974D02*
X0137534Y0119974D01*
X0145443Y0121573D02*
X0150100Y0121573D01*
X0148009Y0119974D02*
X0147534Y0119974D01*
X0155443Y0121573D02*
X0158365Y0121573D01*
X0158365Y0123171D02*
X0005819Y0123171D01*
X0071566Y0094398D02*
X0077918Y0094398D01*
X0088795Y0097496D02*
X0088795Y0085291D01*
X0101000Y0095134D02*
X0102969Y0097102D01*
X0126197Y0097102D01*
X0136827Y0086472D01*
X0136827Y0080173D01*
X0139583Y0077417D01*
X0144094Y0077417D01*
X0144213Y0077299D01*
X0148625Y0081610D02*
X0158365Y0081610D01*
X0158365Y0080012D02*
X0150224Y0080012D01*
X0150381Y0078413D02*
X0158365Y0078413D01*
X0158365Y0076815D02*
X0150381Y0076815D01*
X0150381Y0075216D02*
X0158365Y0075216D01*
X0158365Y0073618D02*
X0149254Y0073618D01*
X0148216Y0072019D02*
X0158365Y0072019D01*
X0158365Y0070421D02*
X0149815Y0070421D01*
X0150381Y0068822D02*
X0158365Y0068822D01*
X0158365Y0067223D02*
X0150381Y0067223D01*
X0150381Y0065625D02*
X0158365Y0065625D01*
X0158365Y0064026D02*
X0149663Y0064026D01*
X0148065Y0062428D02*
X0158365Y0062428D01*
X0158365Y0060829D02*
X0149209Y0060829D01*
X0150381Y0059231D02*
X0158365Y0059231D01*
X0158365Y0057632D02*
X0150381Y0057632D01*
X0150381Y0056034D02*
X0158365Y0056034D01*
X0158365Y0054435D02*
X0150269Y0054435D01*
X0148671Y0052837D02*
X0158365Y0052837D01*
X0158365Y0051238D02*
X0148800Y0051238D01*
X0150381Y0049640D02*
X0158365Y0049640D01*
X0158365Y0048041D02*
X0150381Y0048041D01*
X0150381Y0046443D02*
X0158365Y0046443D01*
X0158365Y0044844D02*
X0150381Y0044844D01*
X0149080Y0043246D02*
X0158365Y0043246D01*
X0158365Y0041647D02*
X0148391Y0041647D01*
X0149990Y0040049D02*
X0158365Y0040049D01*
X0158365Y0038450D02*
X0150381Y0038450D01*
X0150381Y0036852D02*
X0158365Y0036852D01*
X0158365Y0035253D02*
X0150381Y0035253D01*
X0149489Y0033655D02*
X0158365Y0033655D01*
X0158365Y0032056D02*
X0147890Y0032056D01*
X0148941Y0028859D02*
X0146169Y0028859D01*
X0144020Y0028859D02*
X0141248Y0028859D01*
X0139099Y0028859D02*
X0136326Y0028859D01*
X0134331Y0030458D02*
X0158365Y0030458D01*
X0158365Y0028859D02*
X0151090Y0028859D01*
X0153780Y0027261D02*
X0158365Y0027261D01*
X0158365Y0025662D02*
X0154811Y0025662D01*
X0155200Y0024064D02*
X0158365Y0024064D01*
X0158365Y0022465D02*
X0155200Y0022465D01*
X0155200Y0020867D02*
X0158365Y0020867D01*
X0158365Y0019268D02*
X0155200Y0019268D01*
X0154776Y0017670D02*
X0158365Y0017670D01*
X0158365Y0016071D02*
X0153694Y0016071D01*
X0158365Y0014473D02*
X0115759Y0014473D01*
X0117697Y0016071D02*
X0124378Y0016071D01*
X0125409Y0016071D02*
X0125409Y0016071D01*
X0126441Y0016071D02*
X0126652Y0016071D01*
X0125409Y0017670D02*
X0125409Y0017670D01*
X0125409Y0018058D02*
X0125409Y0018058D01*
X0130331Y0021709D02*
X0130331Y0032732D01*
X0134465Y0036866D01*
X0143976Y0036866D01*
X0144213Y0037102D01*
X0140535Y0032056D02*
X0135312Y0032056D01*
X0126984Y0033717D02*
X0121079Y0027811D01*
X0126984Y0033717D02*
X0126984Y0049858D01*
X0134465Y0057339D01*
X0143976Y0057339D01*
X0144213Y0057102D01*
X0144213Y0067299D02*
X0138913Y0067299D01*
X0119504Y0047890D01*
X0119504Y0036079D01*
X0119346Y0035921D01*
X0113441Y0035921D02*
X0113205Y0036157D01*
X0113205Y0049465D01*
X0131709Y0067969D01*
X0119307Y0081945D02*
X0116748Y0079386D01*
X0119307Y0081945D02*
X0119504Y0082142D01*
X0119504Y0086945D01*
X0119346Y0087102D01*
X0099819Y0100646D02*
X0140551Y0100646D01*
X0144213Y0096984D01*
X0148752Y0092800D02*
X0158365Y0092800D01*
X0158365Y0094398D02*
X0150350Y0094398D01*
X0150381Y0095997D02*
X0158365Y0095997D01*
X0158365Y0097595D02*
X0150381Y0097595D01*
X0150381Y0099194D02*
X0158365Y0099194D01*
X0158365Y0100792D02*
X0152695Y0100792D01*
X0154859Y0102391D02*
X0158365Y0102391D01*
X0158365Y0103989D02*
X0156400Y0103989D01*
X0157159Y0105588D02*
X0158365Y0105588D01*
X0158330Y0107186D02*
X0158365Y0107186D01*
X0152969Y0106157D02*
X0152969Y0112772D01*
X0152772Y0112969D01*
X0152969Y0106157D02*
X0151394Y0104583D01*
X0097457Y0104583D01*
X0094701Y0101827D01*
X0097850Y0098677D02*
X0099819Y0100646D01*
X0148719Y0091201D02*
X0158365Y0091201D01*
X0158365Y0089603D02*
X0150318Y0089603D01*
X0150381Y0088004D02*
X0158365Y0088004D01*
X0158365Y0086406D02*
X0150381Y0086406D01*
X0150381Y0084807D02*
X0158365Y0084807D01*
X0158365Y0083209D02*
X0149161Y0083209D01*
X0157534Y0119974D02*
X0158365Y0119974D01*
X0158365Y0012874D02*
X0113422Y0012874D01*
D20*
X0115961Y0020331D03*
X0071472Y0054189D03*
X0101000Y0095134D03*
X0097850Y0098677D03*
X0094701Y0101827D03*
X0131709Y0067969D03*
M02*
