G75*
%MOIN*%
%OFA0B0*%
%FSLAX25Y25*%
%IPPOS*%
%LPD*%
%AMOC8*
5,1,8,0,0,1.08239X$1,22.5*
%
%ADD10C,0.07400*%
%ADD11C,0.06800*%
%ADD12C,0.06000*%
%ADD13C,0.04769*%
%ADD14R,0.04737X0.08674*%
%ADD15C,0.07800*%
%ADD16R,0.04000X0.07400*%
%ADD17R,0.04343X0.13398*%
%ADD18OC8,0.06737*%
%ADD19C,0.03600*%
D10*
X0018953Y0098795D03*
X0058953Y0098795D03*
D11*
X0082772Y0109969D02*
X0082772Y0115969D01*
X0092772Y0115969D02*
X0092772Y0109969D01*
X0102772Y0109969D02*
X0102772Y0115969D01*
X0112772Y0115969D02*
X0112772Y0109969D01*
X0122772Y0109969D02*
X0122772Y0115969D01*
X0132772Y0115969D02*
X0132772Y0109969D01*
X0142772Y0109969D02*
X0142772Y0115969D01*
X0152772Y0115969D02*
X0152772Y0109969D01*
X0048126Y0022937D02*
X0048126Y0016937D01*
X0038126Y0016937D02*
X0038126Y0022937D01*
X0019748Y0062575D02*
X0013748Y0062575D01*
X0013748Y0072575D02*
X0019748Y0072575D01*
D12*
X0086894Y0023047D03*
X0105894Y0023047D03*
D13*
X0125409Y0023693D02*
X0125409Y0019724D01*
X0130331Y0019724D02*
X0130331Y0023693D01*
X0135252Y0023693D02*
X0135252Y0019724D01*
X0140173Y0019724D02*
X0140173Y0023693D01*
X0145094Y0023693D02*
X0145094Y0019724D01*
X0150016Y0019724D02*
X0150016Y0023693D01*
D14*
X0119346Y0035921D03*
X0113441Y0035921D03*
X0054386Y0035921D03*
X0048480Y0035921D03*
X0101630Y0087102D03*
X0107535Y0087102D03*
X0119346Y0087102D03*
D15*
X0015961Y0023362D03*
X0027772Y0023362D03*
X0057299Y0023362D03*
X0068717Y0023362D03*
X0069110Y0111945D03*
X0015961Y0111945D03*
D16*
X0030921Y0062457D03*
X0030921Y0034110D03*
D17*
X0082890Y0097496D03*
X0088795Y0097496D03*
D18*
X0144213Y0096984D03*
X0144213Y0086984D03*
X0144213Y0077299D03*
X0144213Y0067299D03*
X0144213Y0057102D03*
X0144213Y0047102D03*
X0144213Y0037102D03*
D19*
X0115961Y0020331D03*
X0071472Y0054189D03*
X0101000Y0095134D03*
X0097850Y0098677D03*
X0094701Y0101827D03*
X0131709Y0067969D03*
M02*
