G75*
%MOIN*%
%OFA0B0*%
%FSLAX25Y25*%
%IPPOS*%
%LPD*%
%AMOC8*
5,1,8,0,0,1.08239X$1,22.5*
%
%ADD10R,0.02913X0.03642*%
%ADD11R,0.03642X0.02913*%
%ADD12C,0.06600*%
%ADD13R,0.05000X0.02200*%
%ADD14R,0.02200X0.05000*%
%ADD15C,0.06000*%
%ADD16C,0.05200*%
%ADD17R,0.07874X0.06299*%
%ADD18R,0.07087X0.12598*%
%ADD19R,0.06299X0.07874*%
%ADD20C,0.03969*%
%ADD21C,0.07000*%
%ADD22R,0.04724X0.04724*%
%ADD23R,0.01969X0.03150*%
%ADD24R,0.01378X0.01378*%
%ADD25OC8,0.05937*%
%ADD26C,0.01600*%
%ADD27C,0.01200*%
%ADD28C,0.02800*%
D10*
X0071787Y0064740D03*
X0071787Y0069465D03*
X0077693Y0069504D03*
X0077693Y0064780D03*
D11*
X0074898Y0076315D03*
X0070173Y0076315D03*
D12*
X0058953Y0098795D03*
X0018953Y0098795D03*
D13*
X0088903Y0082811D03*
X0088903Y0079661D03*
X0088903Y0076512D03*
X0088903Y0073362D03*
X0088903Y0070213D03*
X0088903Y0067063D03*
X0088903Y0063913D03*
X0088903Y0060764D03*
X0122703Y0060764D03*
X0122703Y0063913D03*
X0122703Y0067063D03*
X0122703Y0070213D03*
X0122703Y0073362D03*
X0122703Y0076512D03*
X0122703Y0079661D03*
X0122703Y0082811D03*
D14*
X0116827Y0088687D03*
X0113677Y0088687D03*
X0110528Y0088687D03*
X0107378Y0088687D03*
X0104228Y0088687D03*
X0101079Y0088687D03*
X0097929Y0088687D03*
X0094780Y0088687D03*
X0094780Y0054887D03*
X0097929Y0054887D03*
X0101079Y0054887D03*
X0104228Y0054887D03*
X0107378Y0054887D03*
X0110528Y0054887D03*
X0113677Y0054887D03*
X0116827Y0054887D03*
D15*
X0112772Y0109969D02*
X0112772Y0115969D01*
X0122772Y0115969D02*
X0122772Y0109969D01*
X0132772Y0109969D02*
X0132772Y0115969D01*
X0142772Y0115969D02*
X0142772Y0109969D01*
X0152772Y0109969D02*
X0152772Y0115969D01*
X0102772Y0115969D02*
X0102772Y0109969D01*
X0092772Y0109969D02*
X0092772Y0115969D01*
X0082772Y0115969D02*
X0082772Y0109969D01*
X0019748Y0072575D02*
X0013748Y0072575D01*
X0013748Y0062575D02*
X0019748Y0062575D01*
X0038126Y0022937D02*
X0038126Y0016937D01*
X0048126Y0016937D02*
X0048126Y0022937D01*
D16*
X0086894Y0023047D03*
X0105894Y0023047D03*
D17*
X0058441Y0068677D03*
X0058441Y0079701D03*
D18*
X0053756Y0112890D03*
X0031709Y0112890D03*
D19*
X0053441Y0054425D03*
X0064465Y0054425D03*
X0116354Y0097732D03*
X0127378Y0097732D03*
D20*
X0125409Y0023693D02*
X0125409Y0019724D01*
X0130331Y0019724D02*
X0130331Y0023693D01*
X0135252Y0023693D02*
X0135252Y0019724D01*
X0140173Y0019724D02*
X0140173Y0023693D01*
X0145094Y0023693D02*
X0145094Y0019724D01*
X0150016Y0019724D02*
X0150016Y0023693D01*
D21*
X0068717Y0023362D03*
X0057299Y0023362D03*
X0027772Y0023362D03*
X0015961Y0023362D03*
X0015961Y0111945D03*
X0069110Y0111945D03*
D22*
X0042496Y0086000D03*
X0042890Y0071827D03*
X0025173Y0086000D03*
D23*
X0074720Y0037260D03*
X0081610Y0037260D03*
D24*
X0080134Y0037260D03*
X0076197Y0037260D03*
D25*
X0144213Y0037102D03*
X0144213Y0047102D03*
X0144213Y0057102D03*
X0144213Y0067299D03*
X0144213Y0077299D03*
X0144213Y0086984D03*
X0144213Y0096984D03*
D26*
X0006148Y0015957D02*
X0006179Y0005838D01*
X0158365Y0005801D01*
X0158365Y0124548D01*
X0005815Y0124585D01*
X0006107Y0029330D01*
X0006555Y0030411D01*
X0007455Y0031311D01*
X0013548Y0037404D01*
X0013548Y0057175D01*
X0012674Y0057175D01*
X0010689Y0057997D01*
X0009170Y0059516D01*
X0008348Y0061501D01*
X0008348Y0063649D01*
X0009170Y0065634D01*
X0010689Y0067153D01*
X0011708Y0067575D01*
X0010689Y0067997D01*
X0009170Y0069516D01*
X0008348Y0071501D01*
X0008348Y0073649D01*
X0009170Y0075634D01*
X0010689Y0077153D01*
X0012674Y0077975D01*
X0013548Y0077975D01*
X0013548Y0087503D01*
X0014035Y0088679D01*
X0018452Y0093095D01*
X0017819Y0093095D01*
X0015724Y0093963D01*
X0014121Y0095566D01*
X0013253Y0097661D01*
X0013253Y0099929D01*
X0014121Y0102024D01*
X0015724Y0103627D01*
X0017819Y0104495D01*
X0020087Y0104495D01*
X0020115Y0104483D01*
X0025765Y0110133D01*
X0025765Y0119666D01*
X0026131Y0120548D01*
X0026806Y0121224D01*
X0027688Y0121589D01*
X0035729Y0121589D01*
X0036611Y0121224D01*
X0037287Y0120548D01*
X0037652Y0119666D01*
X0037652Y0106113D01*
X0037287Y0105231D01*
X0036611Y0104556D01*
X0035729Y0104191D01*
X0028873Y0104191D01*
X0024641Y0099958D01*
X0024653Y0099929D01*
X0024653Y0099296D01*
X0027421Y0102065D01*
X0028321Y0102965D01*
X0029497Y0103452D01*
X0039793Y0103452D01*
X0047813Y0111472D01*
X0047813Y0119666D01*
X0048178Y0120548D01*
X0048853Y0121224D01*
X0049735Y0121589D01*
X0057777Y0121589D01*
X0058659Y0121224D01*
X0058919Y0120964D01*
X0059311Y0121356D01*
X0060211Y0122256D01*
X0061387Y0122743D01*
X0076833Y0122743D01*
X0078009Y0122256D01*
X0079717Y0120548D01*
X0081698Y0121368D01*
X0083846Y0121368D01*
X0085830Y0120546D01*
X0087350Y0119027D01*
X0088117Y0117175D01*
X0088323Y0117811D01*
X0088666Y0118484D01*
X0089110Y0119095D01*
X0089645Y0119630D01*
X0090256Y0120074D01*
X0090929Y0120417D01*
X0091648Y0120650D01*
X0092394Y0120768D01*
X0092572Y0120768D01*
X0092572Y0113169D01*
X0092972Y0113169D01*
X0092972Y0120768D01*
X0093149Y0120768D01*
X0093896Y0120650D01*
X0094614Y0120417D01*
X0095287Y0120074D01*
X0095899Y0119630D01*
X0096433Y0119095D01*
X0096877Y0118484D01*
X0097220Y0117811D01*
X0097427Y0117175D01*
X0098194Y0119027D01*
X0099713Y0120546D01*
X0101698Y0121368D01*
X0103846Y0121368D01*
X0105830Y0120546D01*
X0107350Y0119027D01*
X0107772Y0118008D01*
X0108194Y0119027D01*
X0109713Y0120546D01*
X0111698Y0121368D01*
X0113846Y0121368D01*
X0115830Y0120546D01*
X0117350Y0119027D01*
X0117772Y0118008D01*
X0118194Y0119027D01*
X0119713Y0120546D01*
X0121698Y0121368D01*
X0123846Y0121368D01*
X0125830Y0120546D01*
X0127350Y0119027D01*
X0127772Y0118008D01*
X0128194Y0119027D01*
X0129713Y0120546D01*
X0131698Y0121368D01*
X0133846Y0121368D01*
X0135830Y0120546D01*
X0137350Y0119027D01*
X0137772Y0118008D01*
X0138194Y0119027D01*
X0139713Y0120546D01*
X0141698Y0121368D01*
X0143846Y0121368D01*
X0145830Y0120546D01*
X0147350Y0119027D01*
X0147772Y0118008D01*
X0148194Y0119027D01*
X0149713Y0120546D01*
X0151698Y0121368D01*
X0153846Y0121368D01*
X0155830Y0120546D01*
X0157350Y0119027D01*
X0158172Y0117043D01*
X0158172Y0108894D01*
X0157350Y0106910D01*
X0155830Y0105391D01*
X0153846Y0104569D01*
X0151698Y0104569D01*
X0150863Y0104914D01*
X0152729Y0103049D01*
X0153216Y0101873D01*
X0153216Y0026693D01*
X0153733Y0026176D01*
X0154400Y0024565D01*
X0154400Y0018852D01*
X0153733Y0017241D01*
X0152499Y0016008D01*
X0150888Y0015340D01*
X0149144Y0015340D01*
X0147555Y0015998D01*
X0145967Y0015340D01*
X0144222Y0015340D01*
X0142634Y0015998D01*
X0141045Y0015340D01*
X0139301Y0015340D01*
X0137713Y0015998D01*
X0136124Y0015340D01*
X0134380Y0015340D01*
X0132791Y0015998D01*
X0131203Y0015340D01*
X0129459Y0015340D01*
X0127847Y0016008D01*
X0127371Y0016484D01*
X0127202Y0016371D01*
X0126513Y0016086D01*
X0125782Y0015940D01*
X0125409Y0015940D01*
X0125409Y0021709D01*
X0125409Y0021709D01*
X0121625Y0021709D01*
X0121625Y0024066D01*
X0121771Y0024797D01*
X0122056Y0025485D01*
X0122470Y0026105D01*
X0122551Y0026186D01*
X0121623Y0026186D01*
X0120447Y0026673D01*
X0119547Y0027573D01*
X0119161Y0027960D01*
X0119161Y0022505D01*
X0119182Y0022483D01*
X0119761Y0021087D01*
X0119761Y0019575D01*
X0119182Y0018178D01*
X0118113Y0017109D01*
X0116716Y0016531D01*
X0115205Y0016531D01*
X0113808Y0017109D01*
X0112739Y0018178D01*
X0112161Y0019575D01*
X0112161Y0021087D01*
X0112739Y0022483D01*
X0112761Y0022505D01*
X0112761Y0028454D01*
X0108924Y0032290D01*
X0108924Y0027088D01*
X0110132Y0025880D01*
X0110894Y0024042D01*
X0110894Y0022053D01*
X0110132Y0020215D01*
X0108726Y0018808D01*
X0106888Y0018047D01*
X0105419Y0018047D01*
X0103134Y0015762D01*
X0103134Y0015762D01*
X0102234Y0014862D01*
X0101058Y0014375D01*
X0083041Y0014375D01*
X0081865Y0014862D01*
X0080964Y0015762D01*
X0077815Y0018912D01*
X0077328Y0020088D01*
X0077328Y0027266D01*
X0077815Y0028443D01*
X0078715Y0029343D01*
X0081077Y0031705D01*
X0082253Y0032192D01*
X0090619Y0032192D01*
X0091160Y0032732D01*
X0084994Y0038897D01*
X0084994Y0035208D01*
X0084629Y0034326D01*
X0083954Y0033650D01*
X0083072Y0033285D01*
X0080149Y0033285D01*
X0079266Y0033650D01*
X0078591Y0034326D01*
X0078428Y0034719D01*
X0078245Y0034536D01*
X0077740Y0034327D01*
X0077739Y0034326D01*
X0077064Y0033650D01*
X0076182Y0033285D01*
X0073259Y0033285D01*
X0072377Y0033650D01*
X0071702Y0034326D01*
X0071336Y0035208D01*
X0071336Y0039312D01*
X0071702Y0040194D01*
X0072260Y0040753D01*
X0061781Y0040753D01*
X0060605Y0041240D01*
X0057455Y0044390D01*
X0056555Y0045290D01*
X0056068Y0046466D01*
X0056068Y0048688D01*
X0054216Y0048688D01*
X0054216Y0053650D01*
X0052666Y0053650D01*
X0052666Y0048688D01*
X0050054Y0048688D01*
X0049597Y0048811D01*
X0049186Y0049048D01*
X0048851Y0049383D01*
X0048614Y0049793D01*
X0048491Y0050251D01*
X0048491Y0053650D01*
X0052666Y0053650D01*
X0052666Y0055200D01*
X0048491Y0055200D01*
X0048491Y0058599D01*
X0048614Y0059057D01*
X0048851Y0059467D01*
X0049186Y0059803D01*
X0049597Y0060040D01*
X0050054Y0060162D01*
X0052666Y0060162D01*
X0052666Y0055200D01*
X0054216Y0055200D01*
X0054216Y0060162D01*
X0056068Y0060162D01*
X0056068Y0063128D01*
X0054027Y0063128D01*
X0053144Y0063493D01*
X0052469Y0064168D01*
X0052104Y0065050D01*
X0052104Y0072304D01*
X0052469Y0073186D01*
X0053144Y0073861D01*
X0053935Y0074189D01*
X0053144Y0074517D01*
X0052469Y0075192D01*
X0052104Y0076074D01*
X0052104Y0082800D01*
X0047109Y0082800D01*
X0046893Y0082278D01*
X0046218Y0081603D01*
X0045336Y0081238D01*
X0039656Y0081238D01*
X0038774Y0081603D01*
X0038099Y0082278D01*
X0037734Y0083160D01*
X0037734Y0088840D01*
X0038099Y0089722D01*
X0038774Y0090397D01*
X0039656Y0090762D01*
X0045336Y0090762D01*
X0046218Y0090397D01*
X0046893Y0089722D01*
X0047109Y0089200D01*
X0086351Y0089200D01*
X0087527Y0088713D01*
X0088427Y0087813D01*
X0088427Y0087813D01*
X0089929Y0086311D01*
X0091280Y0086311D01*
X0091280Y0091665D01*
X0091580Y0092389D01*
X0091580Y0099574D01*
X0091479Y0099674D01*
X0090901Y0101071D01*
X0090901Y0102583D01*
X0091479Y0103979D01*
X0092548Y0105048D01*
X0092972Y0105224D01*
X0092972Y0112768D01*
X0092572Y0112768D01*
X0092572Y0105168D01*
X0092394Y0105169D01*
X0091648Y0105287D01*
X0090929Y0105520D01*
X0090256Y0105863D01*
X0089645Y0106307D01*
X0089110Y0106842D01*
X0088666Y0107453D01*
X0088323Y0108126D01*
X0088117Y0108762D01*
X0087350Y0106910D01*
X0085830Y0105391D01*
X0083846Y0104569D01*
X0081698Y0104569D01*
X0079713Y0105391D01*
X0078194Y0106910D01*
X0077372Y0108894D01*
X0077372Y0113843D01*
X0074871Y0116343D01*
X0073056Y0116343D01*
X0074112Y0115287D01*
X0075010Y0113118D01*
X0075010Y0110771D01*
X0074112Y0108603D01*
X0072452Y0106943D01*
X0070284Y0106045D01*
X0067937Y0106045D01*
X0065768Y0106943D01*
X0064108Y0108603D01*
X0063210Y0110771D01*
X0063210Y0113118D01*
X0064108Y0115287D01*
X0065165Y0116343D01*
X0063349Y0116343D01*
X0059699Y0112693D01*
X0059699Y0106113D01*
X0059334Y0105231D01*
X0058659Y0104556D01*
X0057777Y0104191D01*
X0049735Y0104191D01*
X0049627Y0104235D01*
X0042931Y0097539D01*
X0041755Y0097052D01*
X0031459Y0097052D01*
X0024570Y0090162D01*
X0024792Y0090162D01*
X0024792Y0086381D01*
X0024792Y0085619D01*
X0021011Y0085619D01*
X0021011Y0083401D01*
X0021134Y0082943D01*
X0021371Y0082533D01*
X0021706Y0082197D01*
X0022116Y0081960D01*
X0022574Y0081838D01*
X0024792Y0081838D01*
X0024792Y0085619D01*
X0025554Y0085619D01*
X0025554Y0081838D01*
X0027772Y0081838D01*
X0028230Y0081960D01*
X0028641Y0082197D01*
X0028976Y0082533D01*
X0029213Y0082943D01*
X0029335Y0083401D01*
X0029335Y0085619D01*
X0025554Y0085619D01*
X0025554Y0086381D01*
X0024792Y0086381D01*
X0021011Y0086381D01*
X0021011Y0086604D01*
X0019948Y0085541D01*
X0019948Y0077975D01*
X0020822Y0077975D01*
X0022807Y0077153D01*
X0024326Y0075634D01*
X0025148Y0073649D01*
X0025148Y0071501D01*
X0024326Y0069516D01*
X0022807Y0067997D01*
X0021788Y0067575D01*
X0022807Y0067153D01*
X0024326Y0065634D01*
X0025148Y0063649D01*
X0025148Y0061501D01*
X0024326Y0059516D01*
X0022807Y0057997D01*
X0020822Y0057175D01*
X0019948Y0057175D01*
X0019948Y0035442D01*
X0019461Y0034266D01*
X0012843Y0027648D01*
X0013183Y0027895D01*
X0013926Y0028274D01*
X0014720Y0028532D01*
X0015544Y0028662D01*
X0015961Y0028662D01*
X0015961Y0023362D01*
X0015961Y0023362D01*
X0021261Y0023362D01*
X0021261Y0022945D01*
X0021130Y0022121D01*
X0020872Y0021328D01*
X0020494Y0020584D01*
X0020003Y0019909D01*
X0019413Y0019320D01*
X0018738Y0018829D01*
X0017995Y0018451D01*
X0017202Y0018193D01*
X0016378Y0018062D01*
X0015961Y0018062D01*
X0015961Y0023362D01*
X0015961Y0023362D01*
X0021261Y0023362D01*
X0021261Y0023779D01*
X0021130Y0024603D01*
X0020872Y0025397D01*
X0020494Y0026140D01*
X0020003Y0026815D01*
X0019413Y0027405D01*
X0018738Y0027895D01*
X0017995Y0028274D01*
X0017202Y0028532D01*
X0016378Y0028662D01*
X0015961Y0028662D01*
X0015961Y0023362D01*
X0022772Y0030173D01*
X0072654Y0030173D01*
X0076197Y0026630D01*
X0076197Y0019543D01*
X0083283Y0012457D01*
X0119110Y0012457D01*
X0125409Y0018756D01*
X0125409Y0021709D01*
X0121625Y0021709D01*
X0121625Y0019352D01*
X0121771Y0018621D01*
X0122056Y0017932D01*
X0122470Y0017312D01*
X0122997Y0016785D01*
X0123617Y0016371D01*
X0124306Y0016086D01*
X0125037Y0015940D01*
X0125409Y0015940D01*
X0125409Y0021709D01*
X0125409Y0021709D01*
X0125409Y0020867D02*
X0125409Y0020867D01*
X0125409Y0019268D02*
X0125409Y0019268D01*
X0125409Y0017670D02*
X0125409Y0017670D01*
X0125409Y0016071D02*
X0125409Y0016071D01*
X0124378Y0016071D02*
X0103443Y0016071D01*
X0105042Y0017670D02*
X0113248Y0017670D01*
X0112288Y0019268D02*
X0109186Y0019268D01*
X0110402Y0020867D02*
X0112161Y0020867D01*
X0112732Y0022465D02*
X0110894Y0022465D01*
X0110885Y0024064D02*
X0112761Y0024064D01*
X0112761Y0025662D02*
X0110223Y0025662D01*
X0108924Y0027261D02*
X0112761Y0027261D01*
X0112355Y0028859D02*
X0108924Y0028859D01*
X0108924Y0030458D02*
X0110757Y0030458D01*
X0109158Y0032056D02*
X0108924Y0032056D01*
X0105724Y0034110D02*
X0105724Y0023217D01*
X0105894Y0023047D01*
X0100421Y0017575D01*
X0083677Y0017575D01*
X0080528Y0020724D01*
X0080528Y0026630D01*
X0082890Y0028992D01*
X0091945Y0028992D01*
X0094701Y0031748D01*
X0094701Y0033717D01*
X0080528Y0047890D01*
X0080528Y0053402D01*
X0071787Y0062142D01*
X0071787Y0064740D01*
X0067931Y0064026D02*
X0064271Y0064026D01*
X0064413Y0064168D02*
X0064778Y0065050D01*
X0064778Y0072304D01*
X0064413Y0073186D01*
X0063737Y0073861D01*
X0062947Y0074189D01*
X0063737Y0074517D01*
X0064413Y0075192D01*
X0064778Y0076074D01*
X0064778Y0079335D01*
X0067461Y0079335D01*
X0067247Y0079212D01*
X0066912Y0078877D01*
X0066675Y0078466D01*
X0066552Y0078009D01*
X0066552Y0076315D01*
X0070173Y0076315D01*
X0070173Y0076315D01*
X0066552Y0076315D01*
X0066552Y0074621D01*
X0066675Y0074163D01*
X0066912Y0073753D01*
X0067247Y0073418D01*
X0067658Y0073181D01*
X0068115Y0073058D01*
X0069992Y0073058D01*
X0069636Y0072963D01*
X0069225Y0072726D01*
X0068890Y0072391D01*
X0068653Y0071980D01*
X0068531Y0071522D01*
X0068531Y0069465D01*
X0071787Y0069465D01*
X0071787Y0069464D01*
X0068531Y0069464D01*
X0068531Y0068155D01*
X0068296Y0067921D01*
X0067931Y0067038D01*
X0067931Y0062442D01*
X0068296Y0061560D01*
X0068755Y0061101D01*
X0069075Y0060329D01*
X0071415Y0057989D01*
X0070717Y0057989D01*
X0070014Y0057698D01*
X0070014Y0058840D01*
X0069649Y0059722D01*
X0068974Y0060397D01*
X0068092Y0060762D01*
X0062468Y0060762D01*
X0062468Y0063128D01*
X0062855Y0063128D01*
X0063737Y0063493D01*
X0064413Y0064168D01*
X0064778Y0065625D02*
X0067931Y0065625D01*
X0068007Y0067223D02*
X0064778Y0067223D01*
X0064778Y0068822D02*
X0068531Y0068822D01*
X0068531Y0070421D02*
X0064778Y0070421D01*
X0064778Y0072019D02*
X0068676Y0072019D01*
X0070291Y0072299D02*
X0070291Y0076197D01*
X0070173Y0076315D01*
X0069898Y0076591D01*
X0069898Y0078205D01*
X0065961Y0074268D01*
X0050213Y0074268D01*
X0045488Y0078992D01*
X0032181Y0078992D01*
X0025173Y0086000D01*
X0025173Y0087417D01*
X0033283Y0095528D01*
X0043520Y0095528D01*
X0046669Y0098677D01*
X0058835Y0098677D01*
X0058953Y0098795D01*
X0083008Y0098795D01*
X0093126Y0108913D01*
X0093126Y0112614D01*
X0092772Y0112969D01*
X0092572Y0113580D02*
X0092972Y0113580D01*
X0092972Y0115179D02*
X0092572Y0115179D01*
X0092572Y0116777D02*
X0092972Y0116777D01*
X0092972Y0118376D02*
X0092572Y0118376D01*
X0092572Y0119974D02*
X0092972Y0119974D01*
X0095424Y0119974D02*
X0099141Y0119974D01*
X0097924Y0118376D02*
X0096932Y0118376D01*
X0102772Y0112969D02*
X0102969Y0112378D01*
X0102969Y0107339D01*
X0107378Y0102929D01*
X0107378Y0088687D01*
X0110528Y0088687D02*
X0110528Y0103087D01*
X0112811Y0105370D01*
X0112811Y0112535D01*
X0112772Y0112969D01*
X0117619Y0118376D02*
X0117924Y0118376D01*
X0119141Y0119974D02*
X0116403Y0119974D01*
X0109141Y0119974D02*
X0106403Y0119974D01*
X0107619Y0118376D02*
X0107924Y0118376D01*
X0092972Y0111982D02*
X0092572Y0111982D01*
X0092572Y0110383D02*
X0092972Y0110383D01*
X0092972Y0108785D02*
X0092572Y0108785D01*
X0092572Y0107186D02*
X0092972Y0107186D01*
X0092972Y0105588D02*
X0092572Y0105588D01*
X0090796Y0105588D02*
X0086028Y0105588D01*
X0087464Y0107186D02*
X0088860Y0107186D01*
X0091489Y0103989D02*
X0049381Y0103989D01*
X0047782Y0102391D02*
X0055336Y0102391D01*
X0055063Y0102118D02*
X0054591Y0101468D01*
X0054226Y0100753D01*
X0053978Y0099990D01*
X0053853Y0099197D01*
X0053853Y0099095D01*
X0058653Y0099095D01*
X0058653Y0098495D01*
X0059253Y0098495D01*
X0059253Y0099095D01*
X0064053Y0099095D01*
X0064053Y0099197D01*
X0063927Y0099990D01*
X0063679Y0100753D01*
X0063315Y0101468D01*
X0062843Y0102118D01*
X0062275Y0102685D01*
X0061626Y0103157D01*
X0060910Y0103522D01*
X0060147Y0103770D01*
X0059354Y0103895D01*
X0059253Y0103895D01*
X0059253Y0099095D01*
X0058653Y0099095D01*
X0058653Y0103895D01*
X0058551Y0103895D01*
X0057758Y0103770D01*
X0056995Y0103522D01*
X0056280Y0103157D01*
X0055630Y0102685D01*
X0055063Y0102118D01*
X0054246Y0100792D02*
X0046184Y0100792D01*
X0044585Y0099194D02*
X0053853Y0099194D01*
X0053853Y0098495D02*
X0053853Y0098394D01*
X0053978Y0097601D01*
X0054226Y0096838D01*
X0054591Y0096122D01*
X0055063Y0095473D01*
X0055630Y0094905D01*
X0056280Y0094433D01*
X0056995Y0094069D01*
X0057758Y0093821D01*
X0058551Y0093695D01*
X0058653Y0093695D01*
X0058653Y0098495D01*
X0053853Y0098495D01*
X0053980Y0097595D02*
X0042987Y0097595D01*
X0041118Y0100252D02*
X0053756Y0112890D01*
X0055370Y0112890D01*
X0062024Y0119543D01*
X0076197Y0119543D01*
X0082772Y0112969D01*
X0077372Y0113580D02*
X0074819Y0113580D01*
X0074157Y0115179D02*
X0076036Y0115179D01*
X0075010Y0111982D02*
X0077372Y0111982D01*
X0077372Y0110383D02*
X0074850Y0110383D01*
X0074187Y0108785D02*
X0077417Y0108785D01*
X0078079Y0107186D02*
X0072695Y0107186D01*
X0079516Y0105588D02*
X0059482Y0105588D01*
X0059699Y0107186D02*
X0065525Y0107186D01*
X0064033Y0108785D02*
X0059699Y0108785D01*
X0059699Y0110383D02*
X0063371Y0110383D01*
X0063210Y0111982D02*
X0059699Y0111982D01*
X0060586Y0113580D02*
X0063402Y0113580D01*
X0064064Y0115179D02*
X0062185Y0115179D01*
X0059528Y0121573D02*
X0057815Y0121573D01*
X0049696Y0121573D02*
X0035768Y0121573D01*
X0037524Y0119974D02*
X0047940Y0119974D01*
X0047813Y0118376D02*
X0037652Y0118376D01*
X0037652Y0116777D02*
X0047813Y0116777D01*
X0047813Y0115179D02*
X0037652Y0115179D01*
X0037652Y0113580D02*
X0047813Y0113580D01*
X0047813Y0111982D02*
X0037652Y0111982D01*
X0037652Y0110383D02*
X0046724Y0110383D01*
X0045125Y0108785D02*
X0037652Y0108785D01*
X0037652Y0107186D02*
X0043527Y0107186D01*
X0041928Y0105588D02*
X0037434Y0105588D01*
X0040330Y0103989D02*
X0028672Y0103989D01*
X0027747Y0102391D02*
X0027074Y0102391D01*
X0026149Y0100792D02*
X0025475Y0100792D01*
X0030134Y0100252D02*
X0041118Y0100252D01*
X0030134Y0100252D02*
X0016748Y0086866D01*
X0016748Y0072575D01*
X0010351Y0076815D02*
X0005961Y0076815D01*
X0005966Y0075216D02*
X0008997Y0075216D01*
X0008348Y0073618D02*
X0005971Y0073618D01*
X0005976Y0072019D02*
X0008348Y0072019D01*
X0008795Y0070421D02*
X0005981Y0070421D01*
X0005986Y0068822D02*
X0009864Y0068822D01*
X0010860Y0067223D02*
X0005991Y0067223D01*
X0005996Y0065625D02*
X0009167Y0065625D01*
X0008504Y0064026D02*
X0006001Y0064026D01*
X0006005Y0062428D02*
X0008348Y0062428D01*
X0008626Y0060829D02*
X0006010Y0060829D01*
X0006015Y0059231D02*
X0009455Y0059231D01*
X0011569Y0057632D02*
X0006020Y0057632D01*
X0006025Y0056034D02*
X0013548Y0056034D01*
X0013548Y0054435D02*
X0006030Y0054435D01*
X0006035Y0052837D02*
X0013548Y0052837D01*
X0013548Y0051238D02*
X0006040Y0051238D01*
X0006045Y0049640D02*
X0013548Y0049640D01*
X0013548Y0048041D02*
X0006050Y0048041D01*
X0006054Y0046443D02*
X0013548Y0046443D01*
X0013548Y0044844D02*
X0006059Y0044844D01*
X0006064Y0043246D02*
X0013548Y0043246D01*
X0013548Y0041647D02*
X0006069Y0041647D01*
X0006074Y0040049D02*
X0013548Y0040049D01*
X0013548Y0038450D02*
X0006079Y0038450D01*
X0006084Y0036852D02*
X0012996Y0036852D01*
X0011397Y0035253D02*
X0006089Y0035253D01*
X0006094Y0033655D02*
X0009799Y0033655D01*
X0008200Y0032056D02*
X0006099Y0032056D01*
X0006103Y0030458D02*
X0006602Y0030458D01*
X0009268Y0028598D02*
X0009268Y0016787D01*
X0014386Y0011669D01*
X0057024Y0011669D01*
X0068717Y0023362D01*
X0072966Y0019268D02*
X0077667Y0019268D01*
X0079057Y0017670D02*
X0070391Y0017670D01*
X0069890Y0017462D02*
X0072059Y0018360D01*
X0073718Y0020020D01*
X0074617Y0022189D01*
X0074617Y0024536D01*
X0073718Y0026704D01*
X0072059Y0028364D01*
X0069890Y0029262D01*
X0067543Y0029262D01*
X0065374Y0028364D01*
X0063715Y0026704D01*
X0063008Y0024998D01*
X0062301Y0026704D01*
X0060641Y0028364D01*
X0058473Y0029262D01*
X0056126Y0029262D01*
X0053957Y0028364D01*
X0052297Y0026704D01*
X0052209Y0026491D01*
X0051185Y0027515D01*
X0049200Y0028337D01*
X0047052Y0028337D01*
X0045067Y0027515D01*
X0043548Y0025996D01*
X0043126Y0024977D01*
X0042704Y0025996D01*
X0041185Y0027515D01*
X0039200Y0028337D01*
X0037052Y0028337D01*
X0035067Y0027515D01*
X0033548Y0025996D01*
X0033307Y0025415D01*
X0032773Y0026704D01*
X0031114Y0028364D01*
X0028945Y0029262D01*
X0026598Y0029262D01*
X0024430Y0028364D01*
X0022770Y0026704D01*
X0021872Y0024536D01*
X0021872Y0022189D01*
X0022770Y0020020D01*
X0024430Y0018360D01*
X0026598Y0017462D01*
X0028945Y0017462D01*
X0031114Y0018360D01*
X0032726Y0019973D01*
X0032726Y0015863D01*
X0033138Y0014869D01*
X0015711Y0014869D01*
X0012468Y0018113D01*
X0012468Y0019360D01*
X0012508Y0019320D01*
X0013183Y0018829D01*
X0013926Y0018451D01*
X0014720Y0018193D01*
X0015544Y0018062D01*
X0015961Y0018062D01*
X0015961Y0023362D01*
X0047024Y0054425D01*
X0053441Y0054425D01*
X0052666Y0054435D02*
X0019948Y0054435D01*
X0019948Y0052837D02*
X0048491Y0052837D01*
X0048491Y0051238D02*
X0019948Y0051238D01*
X0019948Y0049640D02*
X0048703Y0049640D01*
X0052666Y0049640D02*
X0054216Y0049640D01*
X0054216Y0051238D02*
X0052666Y0051238D01*
X0052666Y0052837D02*
X0054216Y0052837D01*
X0054216Y0056034D02*
X0052666Y0056034D01*
X0052666Y0057632D02*
X0054216Y0057632D01*
X0054216Y0059231D02*
X0052666Y0059231D01*
X0056068Y0060829D02*
X0024870Y0060829D01*
X0025148Y0062428D02*
X0056068Y0062428D01*
X0052611Y0064026D02*
X0024992Y0064026D01*
X0024330Y0065625D02*
X0052104Y0065625D01*
X0052104Y0067223D02*
X0046113Y0067223D01*
X0045729Y0067065D02*
X0046611Y0067430D01*
X0047287Y0068105D01*
X0047652Y0068987D01*
X0047652Y0074666D01*
X0047287Y0075548D01*
X0046611Y0076224D01*
X0045729Y0076589D01*
X0040050Y0076589D01*
X0039168Y0076224D01*
X0038493Y0075548D01*
X0038128Y0074666D01*
X0038128Y0068987D01*
X0038493Y0068105D01*
X0039168Y0067430D01*
X0040050Y0067065D01*
X0045729Y0067065D01*
X0047584Y0068822D02*
X0052104Y0068822D01*
X0052104Y0070421D02*
X0047652Y0070421D01*
X0047652Y0072019D02*
X0052104Y0072019D01*
X0052901Y0073618D02*
X0047652Y0073618D01*
X0047424Y0075216D02*
X0052459Y0075216D01*
X0052104Y0076815D02*
X0023145Y0076815D01*
X0024499Y0075216D02*
X0038355Y0075216D01*
X0038128Y0073618D02*
X0025148Y0073618D01*
X0025148Y0072019D02*
X0038128Y0072019D01*
X0038128Y0070421D02*
X0024701Y0070421D01*
X0023632Y0068822D02*
X0038196Y0068822D01*
X0039666Y0067223D02*
X0022636Y0067223D01*
X0016748Y0062575D02*
X0016748Y0036079D01*
X0009268Y0028598D01*
X0014054Y0028859D02*
X0025625Y0028859D01*
X0023326Y0027261D02*
X0019557Y0027261D01*
X0020737Y0025662D02*
X0022338Y0025662D01*
X0021872Y0024064D02*
X0021216Y0024064D01*
X0021185Y0022465D02*
X0021872Y0022465D01*
X0022419Y0020867D02*
X0020637Y0020867D01*
X0019343Y0019268D02*
X0023522Y0019268D01*
X0026097Y0017670D02*
X0012911Y0017670D01*
X0012579Y0019268D02*
X0012468Y0019268D01*
X0015961Y0019268D02*
X0015961Y0019268D01*
X0015961Y0020867D02*
X0015961Y0020867D01*
X0015961Y0022465D02*
X0015961Y0022465D01*
X0015961Y0023362D02*
X0015961Y0023362D01*
X0015961Y0024064D02*
X0015961Y0024064D01*
X0015961Y0025662D02*
X0015961Y0025662D01*
X0015961Y0027261D02*
X0015961Y0027261D01*
X0015652Y0030458D02*
X0079830Y0030458D01*
X0078231Y0028859D02*
X0070863Y0028859D01*
X0072654Y0030173D02*
X0076591Y0030173D01*
X0080134Y0033717D01*
X0080134Y0037260D01*
X0076197Y0037260D02*
X0076197Y0042378D01*
X0074622Y0043953D01*
X0062417Y0043953D01*
X0059268Y0047102D01*
X0059268Y0067850D01*
X0058441Y0068677D01*
X0063981Y0073618D02*
X0067048Y0073618D01*
X0066552Y0075216D02*
X0064423Y0075216D01*
X0064778Y0076815D02*
X0066552Y0076815D01*
X0066661Y0078413D02*
X0064778Y0078413D01*
X0069898Y0078205D02*
X0069898Y0078992D01*
X0070685Y0079780D01*
X0077772Y0079780D01*
X0081039Y0076512D01*
X0088903Y0076512D01*
X0089021Y0076630D01*
X0109661Y0076630D01*
X0112929Y0073362D01*
X0122703Y0073362D01*
X0118403Y0073531D02*
X0112562Y0073531D01*
X0110017Y0076075D01*
X0108841Y0076562D01*
X0093203Y0076562D01*
X0093203Y0076967D01*
X0093438Y0077202D01*
X0093803Y0078084D01*
X0093803Y0083787D01*
X0096357Y0083787D01*
X0099507Y0083787D01*
X0101408Y0083787D01*
X0101685Y0083120D01*
X0103969Y0080836D01*
X0104812Y0079992D01*
X0105915Y0079535D01*
X0117345Y0079535D01*
X0117803Y0079725D01*
X0117803Y0074934D01*
X0118169Y0074052D01*
X0118403Y0073818D01*
X0118403Y0073531D01*
X0118403Y0073618D02*
X0112475Y0073618D01*
X0110876Y0075216D02*
X0117803Y0075216D01*
X0117803Y0076815D02*
X0093203Y0076815D01*
X0093803Y0078413D02*
X0117803Y0078413D01*
X0122703Y0079661D02*
X0122821Y0079780D01*
X0126197Y0079780D01*
X0128165Y0077811D01*
X0128165Y0072299D01*
X0128559Y0072693D01*
X0128559Y0093165D01*
X0127378Y0094346D01*
X0127378Y0097732D01*
X0120685Y0093402D02*
X0116354Y0097732D01*
X0117142Y0098520D01*
X0117142Y0101827D01*
X0119898Y0104583D01*
X0146669Y0104583D01*
X0150016Y0101236D01*
X0150016Y0021709D01*
X0154400Y0022465D02*
X0158365Y0022465D01*
X0158365Y0020867D02*
X0154400Y0020867D01*
X0154400Y0019268D02*
X0158365Y0019268D01*
X0158365Y0017670D02*
X0153910Y0017670D01*
X0152563Y0016071D02*
X0158365Y0016071D01*
X0158365Y0014473D02*
X0101294Y0014473D01*
X0095055Y0023047D02*
X0100606Y0028598D01*
X0100606Y0034110D01*
X0084465Y0050252D01*
X0084465Y0055370D01*
X0077772Y0062063D01*
X0077772Y0064701D01*
X0077693Y0064780D01*
X0078559Y0063913D01*
X0088903Y0063913D01*
X0088903Y0067063D02*
X0096276Y0067063D01*
X0102575Y0073362D01*
X0108205Y0073362D01*
X0111236Y0070331D01*
X0122585Y0070331D01*
X0122703Y0070213D01*
X0126079Y0070213D01*
X0128165Y0072299D01*
X0131709Y0067969D02*
X0132890Y0069150D01*
X0132890Y0084110D01*
X0135764Y0086984D01*
X0144213Y0086984D01*
X0153216Y0086406D02*
X0158365Y0086406D01*
X0158365Y0088004D02*
X0153216Y0088004D01*
X0153216Y0089603D02*
X0158365Y0089603D01*
X0158365Y0091201D02*
X0153216Y0091201D01*
X0153216Y0092800D02*
X0158365Y0092800D01*
X0158365Y0094398D02*
X0153216Y0094398D01*
X0153216Y0095997D02*
X0158365Y0095997D01*
X0158365Y0097595D02*
X0153216Y0097595D01*
X0153216Y0099194D02*
X0158365Y0099194D01*
X0158365Y0100792D02*
X0153216Y0100792D01*
X0153001Y0102391D02*
X0158365Y0102391D01*
X0158365Y0103989D02*
X0151788Y0103989D01*
X0156028Y0105588D02*
X0158365Y0105588D01*
X0158365Y0107186D02*
X0157464Y0107186D01*
X0158126Y0108785D02*
X0158365Y0108785D01*
X0158365Y0110383D02*
X0158172Y0110383D01*
X0158172Y0111982D02*
X0158365Y0111982D01*
X0158365Y0113580D02*
X0158172Y0113580D01*
X0158172Y0115179D02*
X0158365Y0115179D01*
X0158365Y0116777D02*
X0158172Y0116777D01*
X0158365Y0118376D02*
X0157619Y0118376D01*
X0158365Y0119974D02*
X0156403Y0119974D01*
X0158365Y0121573D02*
X0078693Y0121573D01*
X0086403Y0119974D02*
X0090119Y0119974D01*
X0088611Y0118376D02*
X0087619Y0118376D01*
X0090901Y0102391D02*
X0062570Y0102391D01*
X0063659Y0100792D02*
X0091016Y0100792D01*
X0091580Y0099194D02*
X0064053Y0099194D01*
X0064053Y0098495D02*
X0059253Y0098495D01*
X0059253Y0093695D01*
X0059354Y0093695D01*
X0060147Y0093821D01*
X0060910Y0094069D01*
X0061626Y0094433D01*
X0062275Y0094905D01*
X0062843Y0095473D01*
X0063315Y0096122D01*
X0063679Y0096838D01*
X0063927Y0097601D01*
X0064053Y0098394D01*
X0064053Y0098495D01*
X0063925Y0097595D02*
X0091580Y0097595D01*
X0091580Y0095997D02*
X0063223Y0095997D01*
X0061557Y0094398D02*
X0091580Y0094398D01*
X0091580Y0092800D02*
X0027207Y0092800D01*
X0028806Y0094398D02*
X0056349Y0094398D01*
X0058653Y0094398D02*
X0059253Y0094398D01*
X0059253Y0095997D02*
X0058653Y0095997D01*
X0058653Y0097595D02*
X0059253Y0097595D01*
X0059253Y0099194D02*
X0058653Y0099194D01*
X0058653Y0100792D02*
X0059253Y0100792D01*
X0059253Y0102391D02*
X0058653Y0102391D01*
X0054682Y0095997D02*
X0030404Y0095997D01*
X0028230Y0090040D02*
X0027772Y0090162D01*
X0025554Y0090162D01*
X0025554Y0086381D01*
X0029335Y0086381D01*
X0029335Y0088599D01*
X0029213Y0089057D01*
X0028976Y0089467D01*
X0028641Y0089803D01*
X0028230Y0090040D01*
X0028841Y0089603D02*
X0038050Y0089603D01*
X0037734Y0088004D02*
X0029335Y0088004D01*
X0029335Y0086406D02*
X0037734Y0086406D01*
X0037734Y0084807D02*
X0029335Y0084807D01*
X0029284Y0083209D02*
X0037734Y0083209D01*
X0038767Y0081610D02*
X0019948Y0081610D01*
X0019948Y0080012D02*
X0052104Y0080012D01*
X0052104Y0081610D02*
X0046225Y0081610D01*
X0042496Y0086000D02*
X0085714Y0086000D01*
X0088903Y0082811D01*
X0088903Y0079661D02*
X0082614Y0079661D01*
X0079740Y0082535D01*
X0061276Y0082535D01*
X0058441Y0079701D01*
X0052104Y0078413D02*
X0019948Y0078413D01*
X0019948Y0083209D02*
X0021063Y0083209D01*
X0021011Y0084807D02*
X0019948Y0084807D01*
X0020813Y0086406D02*
X0021011Y0086406D01*
X0024792Y0086406D02*
X0025554Y0086406D01*
X0025554Y0088004D02*
X0024792Y0088004D01*
X0024792Y0089603D02*
X0025554Y0089603D01*
X0025609Y0091201D02*
X0091280Y0091201D01*
X0091280Y0089603D02*
X0046942Y0089603D01*
X0025554Y0084807D02*
X0024792Y0084807D01*
X0024792Y0083209D02*
X0025554Y0083209D01*
X0016558Y0091201D02*
X0005917Y0091201D01*
X0005922Y0089603D02*
X0014959Y0089603D01*
X0013756Y0088004D02*
X0005927Y0088004D01*
X0005932Y0086406D02*
X0013548Y0086406D01*
X0013548Y0084807D02*
X0005937Y0084807D01*
X0005942Y0083209D02*
X0013548Y0083209D01*
X0013548Y0081610D02*
X0005947Y0081610D01*
X0005951Y0080012D02*
X0013548Y0080012D01*
X0013548Y0078413D02*
X0005956Y0078413D01*
X0005912Y0092800D02*
X0018156Y0092800D01*
X0015289Y0094398D02*
X0005907Y0094398D01*
X0005902Y0095997D02*
X0013942Y0095997D01*
X0013280Y0097595D02*
X0005898Y0097595D01*
X0005893Y0099194D02*
X0013253Y0099194D01*
X0013610Y0100792D02*
X0005888Y0100792D01*
X0005883Y0102391D02*
X0014487Y0102391D01*
X0016597Y0103989D02*
X0005878Y0103989D01*
X0005873Y0105588D02*
X0021220Y0105588D01*
X0022818Y0107186D02*
X0019546Y0107186D01*
X0019303Y0106943D02*
X0020962Y0108603D01*
X0021861Y0110771D01*
X0021861Y0113118D01*
X0020962Y0115287D01*
X0019303Y0116947D01*
X0017134Y0117845D01*
X0014787Y0117845D01*
X0012619Y0116947D01*
X0010959Y0115287D01*
X0010061Y0113118D01*
X0010061Y0110771D01*
X0010959Y0108603D01*
X0012619Y0106943D01*
X0014787Y0106045D01*
X0017134Y0106045D01*
X0019303Y0106943D01*
X0021038Y0108785D02*
X0024417Y0108785D01*
X0025765Y0110383D02*
X0021700Y0110383D01*
X0021861Y0111982D02*
X0025765Y0111982D01*
X0025765Y0113580D02*
X0021669Y0113580D01*
X0021007Y0115179D02*
X0025765Y0115179D01*
X0025765Y0116777D02*
X0019472Y0116777D01*
X0025765Y0118376D02*
X0005834Y0118376D01*
X0005839Y0116777D02*
X0012449Y0116777D01*
X0010914Y0115179D02*
X0005844Y0115179D01*
X0005848Y0113580D02*
X0010252Y0113580D01*
X0010061Y0111982D02*
X0005853Y0111982D01*
X0005858Y0110383D02*
X0010221Y0110383D01*
X0010883Y0108785D02*
X0005863Y0108785D01*
X0005868Y0107186D02*
X0012375Y0107186D01*
X0018953Y0098795D02*
X0031709Y0111551D01*
X0031709Y0112890D01*
X0025893Y0119974D02*
X0005829Y0119974D01*
X0005824Y0121573D02*
X0027649Y0121573D01*
X0005819Y0123171D02*
X0158365Y0123171D01*
X0149141Y0119974D02*
X0146403Y0119974D01*
X0147619Y0118376D02*
X0147924Y0118376D01*
X0139141Y0119974D02*
X0136403Y0119974D01*
X0137619Y0118376D02*
X0137924Y0118376D01*
X0129141Y0119974D02*
X0126403Y0119974D01*
X0127619Y0118376D02*
X0127924Y0118376D01*
X0101079Y0095055D02*
X0101000Y0095134D01*
X0101079Y0095055D02*
X0101079Y0088687D01*
X0097929Y0088687D02*
X0097929Y0098598D01*
X0097850Y0098677D01*
X0094780Y0101748D02*
X0094701Y0101827D01*
X0094780Y0101748D02*
X0094780Y0088687D01*
X0091280Y0088004D02*
X0088236Y0088004D01*
X0089834Y0086406D02*
X0091280Y0086406D01*
X0093803Y0083209D02*
X0101648Y0083209D01*
X0103195Y0081610D02*
X0093803Y0081610D01*
X0093803Y0080012D02*
X0104793Y0080012D01*
X0103969Y0080836D02*
X0103969Y0080836D01*
X0102575Y0073362D02*
X0088903Y0073362D01*
X0088785Y0073480D01*
X0079740Y0073480D01*
X0076906Y0076315D01*
X0074898Y0076315D01*
X0070291Y0072299D02*
X0073047Y0069543D01*
X0076984Y0069543D01*
X0076984Y0069150D01*
X0078047Y0070213D01*
X0088903Y0070213D01*
X0078402Y0070213D01*
X0077693Y0069504D01*
X0080950Y0069504D01*
X0080950Y0070280D01*
X0084603Y0070280D01*
X0084603Y0070213D01*
X0085080Y0070213D01*
X0085080Y0070213D01*
X0085080Y0070213D01*
X0084603Y0070213D01*
X0084603Y0069757D01*
X0084369Y0069522D01*
X0084003Y0068640D01*
X0084003Y0067113D01*
X0081535Y0067113D01*
X0081184Y0067960D01*
X0080950Y0068195D01*
X0080950Y0069504D01*
X0077693Y0069504D01*
X0077693Y0069504D01*
X0077654Y0069465D01*
X0071787Y0069465D01*
X0067936Y0062428D02*
X0062468Y0062428D01*
X0062468Y0060829D02*
X0068867Y0060829D01*
X0069852Y0059231D02*
X0070173Y0059231D01*
X0071236Y0054425D02*
X0064465Y0054425D01*
X0071236Y0054425D02*
X0071472Y0054189D01*
X0058599Y0043246D02*
X0019948Y0043246D01*
X0019948Y0044844D02*
X0057000Y0044844D01*
X0056077Y0046443D02*
X0019948Y0046443D01*
X0019948Y0048041D02*
X0056068Y0048041D01*
X0060197Y0041647D02*
X0019948Y0041647D01*
X0019948Y0040049D02*
X0071641Y0040049D01*
X0071336Y0038450D02*
X0019948Y0038450D01*
X0019948Y0036852D02*
X0071336Y0036852D01*
X0071336Y0035253D02*
X0019870Y0035253D01*
X0018850Y0033655D02*
X0072372Y0033655D01*
X0077069Y0033655D02*
X0079262Y0033655D01*
X0081925Y0032056D02*
X0017251Y0032056D01*
X0029918Y0028859D02*
X0055153Y0028859D01*
X0052854Y0027261D02*
X0051439Y0027261D01*
X0044813Y0027261D02*
X0041439Y0027261D01*
X0042842Y0025662D02*
X0043410Y0025662D01*
X0034813Y0027261D02*
X0032217Y0027261D01*
X0033205Y0025662D02*
X0033410Y0025662D01*
X0032726Y0019268D02*
X0032021Y0019268D01*
X0032726Y0017670D02*
X0029446Y0017670D01*
X0032726Y0016071D02*
X0014509Y0016071D01*
X0008656Y0012874D02*
X0006157Y0012874D01*
X0006162Y0011276D02*
X0010254Y0011276D01*
X0011673Y0009857D02*
X0012573Y0008956D01*
X0013749Y0008469D01*
X0057660Y0008469D01*
X0058836Y0008956D01*
X0067401Y0017521D01*
X0067543Y0017462D01*
X0069890Y0017462D01*
X0065951Y0016071D02*
X0080655Y0016071D01*
X0082804Y0014473D02*
X0064352Y0014473D01*
X0062754Y0012874D02*
X0158365Y0012874D01*
X0158365Y0011276D02*
X0061155Y0011276D01*
X0059557Y0009677D02*
X0158365Y0009677D01*
X0158365Y0008079D02*
X0006172Y0008079D01*
X0006167Y0009677D02*
X0011853Y0009677D01*
X0011673Y0009857D02*
X0006555Y0014975D01*
X0006148Y0015957D01*
X0006153Y0014473D02*
X0007057Y0014473D01*
X0006177Y0006480D02*
X0158365Y0006480D01*
X0145094Y0021709D02*
X0145094Y0027417D01*
X0135252Y0037260D01*
X0125409Y0037260D01*
X0122703Y0039966D01*
X0122703Y0060764D01*
X0122703Y0063913D02*
X0122821Y0064031D01*
X0128165Y0064031D01*
X0131709Y0060488D01*
X0131709Y0053795D01*
X0138402Y0047102D01*
X0144213Y0047102D01*
X0153216Y0046443D02*
X0158365Y0046443D01*
X0158365Y0048041D02*
X0153216Y0048041D01*
X0153216Y0049640D02*
X0158365Y0049640D01*
X0158365Y0051238D02*
X0153216Y0051238D01*
X0153216Y0052837D02*
X0158365Y0052837D01*
X0158365Y0054435D02*
X0153216Y0054435D01*
X0153216Y0056034D02*
X0158365Y0056034D01*
X0158365Y0057632D02*
X0153216Y0057632D01*
X0153216Y0059231D02*
X0158365Y0059231D01*
X0158365Y0060829D02*
X0153216Y0060829D01*
X0153216Y0062428D02*
X0158365Y0062428D01*
X0158365Y0064026D02*
X0153216Y0064026D01*
X0153216Y0065625D02*
X0158365Y0065625D01*
X0158365Y0067223D02*
X0153216Y0067223D01*
X0153216Y0068822D02*
X0158365Y0068822D01*
X0158365Y0070421D02*
X0153216Y0070421D01*
X0153216Y0072019D02*
X0158365Y0072019D01*
X0158365Y0073618D02*
X0153216Y0073618D01*
X0153216Y0075216D02*
X0158365Y0075216D01*
X0158365Y0076815D02*
X0153216Y0076815D01*
X0153216Y0078413D02*
X0158365Y0078413D01*
X0158365Y0080012D02*
X0153216Y0080012D01*
X0153216Y0081610D02*
X0158365Y0081610D01*
X0158365Y0083209D02*
X0153216Y0083209D01*
X0153216Y0084807D02*
X0158365Y0084807D01*
X0122703Y0070213D02*
X0118992Y0070213D01*
X0116748Y0067969D01*
X0116748Y0065606D01*
X0118323Y0064031D01*
X0122585Y0064031D01*
X0122703Y0063913D01*
X0116827Y0054887D02*
X0116827Y0039937D01*
X0123835Y0032929D01*
X0134465Y0032929D01*
X0139976Y0027417D01*
X0139976Y0021906D01*
X0140173Y0021709D01*
X0135646Y0022102D02*
X0135646Y0025843D01*
X0132102Y0029386D01*
X0122260Y0029386D01*
X0113677Y0037969D01*
X0113677Y0054887D01*
X0097929Y0054887D02*
X0097850Y0054809D01*
X0097850Y0047890D01*
X0115961Y0029780D01*
X0115961Y0020331D01*
X0118674Y0017670D02*
X0122231Y0017670D01*
X0121642Y0019268D02*
X0119634Y0019268D01*
X0119761Y0020867D02*
X0121625Y0020867D01*
X0121625Y0022465D02*
X0119190Y0022465D01*
X0119161Y0024064D02*
X0121625Y0024064D01*
X0122174Y0025662D02*
X0119161Y0025662D01*
X0119161Y0027261D02*
X0119859Y0027261D01*
X0126441Y0016071D02*
X0127784Y0016071D01*
X0135252Y0021709D02*
X0135646Y0022102D01*
X0153216Y0027261D02*
X0158365Y0027261D01*
X0158365Y0025662D02*
X0153946Y0025662D01*
X0154400Y0024064D02*
X0158365Y0024064D01*
X0158365Y0028859D02*
X0153216Y0028859D01*
X0153216Y0030458D02*
X0158365Y0030458D01*
X0158365Y0032056D02*
X0153216Y0032056D01*
X0153216Y0033655D02*
X0158365Y0033655D01*
X0158365Y0035253D02*
X0153216Y0035253D01*
X0153216Y0036852D02*
X0158365Y0036852D01*
X0158365Y0038450D02*
X0153216Y0038450D01*
X0153216Y0040049D02*
X0158365Y0040049D01*
X0158365Y0041647D02*
X0153216Y0041647D01*
X0153216Y0043246D02*
X0158365Y0043246D01*
X0158365Y0044844D02*
X0153216Y0044844D01*
X0105724Y0034110D02*
X0088903Y0050931D01*
X0088903Y0060764D01*
X0084003Y0067223D02*
X0081489Y0067223D01*
X0080950Y0068822D02*
X0084078Y0068822D01*
X0048714Y0059231D02*
X0024041Y0059231D01*
X0021927Y0057632D02*
X0048491Y0057632D01*
X0048491Y0056034D02*
X0019948Y0056034D01*
X0059446Y0028859D02*
X0066570Y0028859D01*
X0064271Y0027261D02*
X0061745Y0027261D01*
X0062733Y0025662D02*
X0063283Y0025662D01*
X0073162Y0027261D02*
X0077328Y0027261D01*
X0077328Y0025662D02*
X0074150Y0025662D01*
X0074617Y0024064D02*
X0077328Y0024064D01*
X0077328Y0022465D02*
X0074617Y0022465D01*
X0074069Y0020867D02*
X0077328Y0020867D01*
X0086894Y0023047D02*
X0095055Y0023047D01*
X0090237Y0033655D02*
X0083958Y0033655D01*
X0084994Y0035253D02*
X0088639Y0035253D01*
X0087040Y0036852D02*
X0084994Y0036852D01*
X0084994Y0038450D02*
X0085442Y0038450D01*
X0120685Y0086472D02*
X0120685Y0093402D01*
D27*
X0120685Y0086472D02*
X0116748Y0082535D01*
X0106512Y0082535D01*
X0104228Y0084819D01*
X0104228Y0088687D01*
D28*
X0101000Y0095134D03*
X0097850Y0098677D03*
X0094701Y0101827D03*
X0131709Y0067969D03*
X0115961Y0020331D03*
X0071472Y0054189D03*
M02*
