G75*
%MOIN*%
%OFA0B0*%
%FSLAX25Y25*%
%IPPOS*%
%LPD*%
%AMOC8*
5,1,8,0,0,1.08239X$1,22.5*
%
%ADD10R,0.03713X0.04442*%
%ADD11R,0.04442X0.03713*%
%ADD12C,0.07400*%
%ADD13R,0.05800X0.03000*%
%ADD14R,0.03000X0.05800*%
%ADD15C,0.06800*%
%ADD16C,0.06000*%
%ADD17R,0.08674X0.07099*%
%ADD18R,0.07887X0.13398*%
%ADD19R,0.07099X0.08674*%
%ADD20C,0.04769*%
%ADD21C,0.07800*%
%ADD22R,0.05524X0.05524*%
%ADD23R,0.02178X0.02178*%
%ADD24R,0.01476X0.01378*%
%ADD25R,0.01969X0.03150*%
%ADD26R,0.01378X0.01378*%
%ADD27OC8,0.06737*%
%ADD28C,0.03600*%
D10*
X0071787Y0064740D03*
X0071787Y0069465D03*
X0077693Y0069504D03*
X0077693Y0064780D03*
D11*
X0074898Y0076315D03*
X0070173Y0076315D03*
D12*
X0058953Y0098795D03*
X0018953Y0098795D03*
D13*
X0088903Y0082811D03*
X0088903Y0079661D03*
X0088903Y0076512D03*
X0088903Y0073362D03*
X0088903Y0070213D03*
X0088903Y0067063D03*
X0088903Y0063913D03*
X0088903Y0060764D03*
X0122703Y0060764D03*
X0122703Y0063913D03*
X0122703Y0067063D03*
X0122703Y0070213D03*
X0122703Y0073362D03*
X0122703Y0076512D03*
X0122703Y0079661D03*
X0122703Y0082811D03*
D14*
X0116827Y0088687D03*
X0113677Y0088687D03*
X0110528Y0088687D03*
X0107378Y0088687D03*
X0104228Y0088687D03*
X0101079Y0088687D03*
X0097929Y0088687D03*
X0094780Y0088687D03*
X0094780Y0054887D03*
X0097929Y0054887D03*
X0101079Y0054887D03*
X0104228Y0054887D03*
X0107378Y0054887D03*
X0110528Y0054887D03*
X0113677Y0054887D03*
X0116827Y0054887D03*
D15*
X0112772Y0109969D02*
X0112772Y0115969D01*
X0122772Y0115969D02*
X0122772Y0109969D01*
X0132772Y0109969D02*
X0132772Y0115969D01*
X0142772Y0115969D02*
X0142772Y0109969D01*
X0152772Y0109969D02*
X0152772Y0115969D01*
X0102772Y0115969D02*
X0102772Y0109969D01*
X0092772Y0109969D02*
X0092772Y0115969D01*
X0082772Y0115969D02*
X0082772Y0109969D01*
X0019748Y0072575D02*
X0013748Y0072575D01*
X0013748Y0062575D02*
X0019748Y0062575D01*
X0038126Y0022937D02*
X0038126Y0016937D01*
X0048126Y0016937D02*
X0048126Y0022937D01*
D16*
X0086894Y0023047D03*
X0105894Y0023047D03*
D17*
X0058441Y0068677D03*
X0058441Y0079701D03*
D18*
X0053756Y0112890D03*
X0031709Y0112890D03*
D19*
X0053441Y0054425D03*
X0064465Y0054425D03*
X0116354Y0097732D03*
X0127378Y0097732D03*
D20*
X0125409Y0023693D02*
X0125409Y0019724D01*
X0130331Y0019724D02*
X0130331Y0023693D01*
X0135252Y0023693D02*
X0135252Y0019724D01*
X0140173Y0019724D02*
X0140173Y0023693D01*
X0145094Y0023693D02*
X0145094Y0019724D01*
X0150016Y0019724D02*
X0150016Y0023693D01*
D21*
X0015961Y0023362D03*
X0027772Y0023362D03*
X0057299Y0023362D03*
X0068717Y0023362D03*
X0069110Y0111945D03*
X0015961Y0111945D03*
D22*
X0025173Y0086000D03*
X0042496Y0086000D03*
X0042890Y0071827D03*
D23*
X0076197Y0037260D03*
X0080134Y0037260D03*
D24*
X0080183Y0037260D03*
D25*
X0081610Y0037260D03*
X0074720Y0037260D03*
D26*
X0076197Y0037260D03*
D27*
X0144213Y0037102D03*
X0144213Y0047102D03*
X0144213Y0057102D03*
X0144213Y0067299D03*
X0144213Y0077299D03*
X0144213Y0086984D03*
X0144213Y0096984D03*
D28*
X0131709Y0067969D03*
X0101000Y0095134D03*
X0097850Y0098677D03*
X0094701Y0101827D03*
X0071472Y0054189D03*
X0115961Y0020331D03*
M02*
