G75*
%MOIN*%
%OFA0B0*%
%FSLAX25Y25*%
%IPPOS*%
%LPD*%
%AMOC8*
5,1,8,0,0,1.08239X$1,22.5*
%
%ADD10C,0.00300*%
%ADD11C,0.00600*%
%ADD12R,0.02000X0.10000*%
%ADD13R,0.07500X0.03000*%
%ADD14C,0.00500*%
%ADD15C,0.01600*%
%ADD16C,0.00400*%
%ADD17R,0.00984X0.00984*%
D10*
X0065697Y0064496D02*
X0065080Y0065114D01*
X0065080Y0066348D01*
X0065697Y0066965D01*
X0065697Y0068180D02*
X0065080Y0068797D01*
X0065080Y0070031D01*
X0065697Y0070648D01*
X0066314Y0070648D01*
X0068783Y0068180D01*
X0068783Y0070648D01*
X0068166Y0066965D02*
X0068783Y0066348D01*
X0068783Y0065114D01*
X0068166Y0064496D01*
X0065697Y0064496D01*
X0080434Y0065940D02*
X0081051Y0065323D01*
X0083520Y0065323D01*
X0084137Y0065940D01*
X0084137Y0067175D01*
X0083520Y0067792D01*
X0084137Y0069006D02*
X0084137Y0071475D01*
X0084137Y0070241D02*
X0080434Y0070241D01*
X0081669Y0069006D01*
X0081051Y0067792D02*
X0080434Y0067175D01*
X0080434Y0065940D01*
X0075464Y0080107D02*
X0074230Y0080107D01*
X0073613Y0080724D01*
X0072398Y0080724D02*
X0071781Y0080107D01*
X0070547Y0080107D01*
X0069930Y0080724D01*
X0069930Y0083193D01*
X0070547Y0083810D01*
X0071781Y0083810D01*
X0072398Y0083193D01*
X0073613Y0083193D02*
X0074230Y0083810D01*
X0075464Y0083810D01*
X0076081Y0083193D01*
X0076081Y0082575D01*
X0075464Y0081958D01*
X0076081Y0081341D01*
X0076081Y0080724D01*
X0075464Y0080107D01*
X0075464Y0081958D02*
X0074847Y0081958D01*
X0116767Y0009463D02*
X0116767Y0007528D01*
X0117250Y0007044D01*
X0118247Y0007044D02*
X0118247Y0008979D01*
X0118247Y0008012D02*
X0119215Y0008979D01*
X0119698Y0008979D01*
X0121186Y0008979D02*
X0122154Y0008979D01*
X0122638Y0008496D01*
X0122638Y0007044D01*
X0121186Y0007044D01*
X0120703Y0007528D01*
X0121186Y0008012D01*
X0122638Y0008012D01*
X0123649Y0007044D02*
X0123649Y0008979D01*
X0125100Y0008979D01*
X0125584Y0008496D01*
X0125584Y0007044D01*
X0126596Y0007044D02*
X0128047Y0007044D01*
X0128531Y0007528D01*
X0128047Y0008012D01*
X0127079Y0008012D01*
X0126596Y0008496D01*
X0127079Y0008979D01*
X0128531Y0008979D01*
X0129542Y0008979D02*
X0130026Y0008979D01*
X0130510Y0008496D01*
X0130993Y0008979D01*
X0131477Y0008496D01*
X0131477Y0007044D01*
X0130510Y0007044D02*
X0130510Y0008496D01*
X0129542Y0008979D02*
X0129542Y0007044D01*
X0132489Y0007044D02*
X0133456Y0007044D01*
X0132972Y0007044D02*
X0132972Y0008979D01*
X0132489Y0008979D01*
X0132972Y0009947D02*
X0132972Y0010431D01*
X0134453Y0008979D02*
X0135421Y0008979D01*
X0134937Y0009463D02*
X0134937Y0007528D01*
X0135421Y0007044D01*
X0136901Y0007528D02*
X0137385Y0007044D01*
X0136901Y0007528D02*
X0136901Y0009463D01*
X0136417Y0008979D02*
X0137385Y0008979D01*
X0138382Y0008496D02*
X0138382Y0007528D01*
X0138865Y0007044D01*
X0139833Y0007044D01*
X0140317Y0008012D02*
X0138382Y0008012D01*
X0138382Y0008496D02*
X0138865Y0008979D01*
X0139833Y0008979D01*
X0140317Y0008496D01*
X0140317Y0008012D01*
X0141328Y0008012D02*
X0142296Y0008979D01*
X0142780Y0008979D01*
X0143784Y0008979D02*
X0144751Y0009947D01*
X0144751Y0007044D01*
X0143784Y0007044D02*
X0145719Y0007044D01*
X0146730Y0007044D02*
X0147214Y0007044D01*
X0147214Y0007528D01*
X0146730Y0007528D01*
X0146730Y0007044D01*
X0148203Y0007528D02*
X0150138Y0009463D01*
X0150138Y0007528D01*
X0149655Y0007044D01*
X0148687Y0007044D01*
X0148203Y0007528D01*
X0148203Y0009463D01*
X0148687Y0009947D01*
X0149655Y0009947D01*
X0150138Y0009463D01*
X0141328Y0008979D02*
X0141328Y0007044D01*
X0117250Y0008979D02*
X0116283Y0008979D01*
D11*
X0108394Y0015047D02*
X0084394Y0015047D01*
X0084199Y0015049D01*
X0084004Y0015056D01*
X0083810Y0015068D01*
X0083616Y0015085D01*
X0083422Y0015106D01*
X0083229Y0015132D01*
X0083037Y0015163D01*
X0082845Y0015198D01*
X0082655Y0015238D01*
X0082465Y0015283D01*
X0082276Y0015332D01*
X0082089Y0015386D01*
X0081903Y0015445D01*
X0081719Y0015507D01*
X0081536Y0015575D01*
X0081355Y0015647D01*
X0081176Y0015723D01*
X0080998Y0015803D01*
X0080823Y0015888D01*
X0080650Y0015977D01*
X0080479Y0016071D01*
X0080310Y0016168D01*
X0080144Y0016270D01*
X0079980Y0016375D01*
X0079819Y0016484D01*
X0079660Y0016598D01*
X0079505Y0016715D01*
X0079352Y0016836D01*
X0079202Y0016961D01*
X0079055Y0017089D01*
X0078912Y0017221D01*
X0078772Y0017356D01*
X0078635Y0017494D01*
X0078501Y0017636D01*
X0078371Y0017781D01*
X0078245Y0017930D01*
X0078122Y0018081D01*
X0078003Y0018235D01*
X0077888Y0018392D01*
X0077776Y0018552D01*
X0077669Y0018714D01*
X0077565Y0018879D01*
X0077466Y0019047D01*
X0077370Y0019217D01*
X0077279Y0019389D01*
X0077192Y0019563D01*
X0077110Y0019740D01*
X0077031Y0019918D01*
X0076957Y0020098D01*
X0076888Y0020280D01*
X0076822Y0020464D01*
X0076762Y0020649D01*
X0076706Y0020836D01*
X0076654Y0021024D01*
X0076607Y0021213D01*
X0076565Y0021403D01*
X0076527Y0021594D01*
X0076494Y0021786D01*
X0076466Y0021979D01*
X0076442Y0022172D01*
X0076423Y0022366D01*
X0076409Y0022560D01*
X0076399Y0022755D01*
X0076395Y0022950D01*
X0076395Y0023144D01*
X0076399Y0023339D01*
X0076409Y0023534D01*
X0076423Y0023728D01*
X0076442Y0023922D01*
X0076466Y0024115D01*
X0076494Y0024308D01*
X0076527Y0024500D01*
X0076565Y0024691D01*
X0076607Y0024881D01*
X0076654Y0025070D01*
X0076706Y0025258D01*
X0076762Y0025445D01*
X0076822Y0025630D01*
X0076888Y0025814D01*
X0076957Y0025996D01*
X0077031Y0026176D01*
X0077110Y0026354D01*
X0077192Y0026531D01*
X0077279Y0026705D01*
X0077370Y0026877D01*
X0077466Y0027047D01*
X0077565Y0027215D01*
X0077669Y0027380D01*
X0077776Y0027542D01*
X0077888Y0027702D01*
X0078003Y0027859D01*
X0078122Y0028013D01*
X0078245Y0028164D01*
X0078371Y0028313D01*
X0078501Y0028458D01*
X0078635Y0028600D01*
X0078772Y0028738D01*
X0078912Y0028873D01*
X0079055Y0029005D01*
X0079202Y0029133D01*
X0079352Y0029258D01*
X0079505Y0029379D01*
X0079660Y0029496D01*
X0079819Y0029610D01*
X0079980Y0029719D01*
X0080144Y0029824D01*
X0080310Y0029926D01*
X0080479Y0030023D01*
X0080650Y0030117D01*
X0080823Y0030206D01*
X0080998Y0030291D01*
X0081176Y0030371D01*
X0081355Y0030447D01*
X0081536Y0030519D01*
X0081719Y0030587D01*
X0081903Y0030649D01*
X0082089Y0030708D01*
X0082276Y0030762D01*
X0082465Y0030811D01*
X0082655Y0030856D01*
X0082845Y0030896D01*
X0083037Y0030931D01*
X0083229Y0030962D01*
X0083422Y0030988D01*
X0083616Y0031009D01*
X0083810Y0031026D01*
X0084004Y0031038D01*
X0084199Y0031045D01*
X0084394Y0031047D01*
X0108394Y0031047D01*
X0108589Y0031045D01*
X0108784Y0031038D01*
X0108978Y0031026D01*
X0109172Y0031009D01*
X0109366Y0030988D01*
X0109559Y0030962D01*
X0109751Y0030931D01*
X0109943Y0030896D01*
X0110133Y0030856D01*
X0110323Y0030811D01*
X0110512Y0030762D01*
X0110699Y0030708D01*
X0110885Y0030649D01*
X0111069Y0030587D01*
X0111252Y0030519D01*
X0111433Y0030447D01*
X0111612Y0030371D01*
X0111790Y0030291D01*
X0111965Y0030206D01*
X0112138Y0030117D01*
X0112309Y0030023D01*
X0112478Y0029926D01*
X0112644Y0029824D01*
X0112808Y0029719D01*
X0112969Y0029610D01*
X0113128Y0029496D01*
X0113283Y0029379D01*
X0113436Y0029258D01*
X0113586Y0029133D01*
X0113733Y0029005D01*
X0113876Y0028873D01*
X0114016Y0028738D01*
X0114153Y0028600D01*
X0114287Y0028458D01*
X0114417Y0028313D01*
X0114543Y0028164D01*
X0114666Y0028013D01*
X0114785Y0027859D01*
X0114900Y0027702D01*
X0115012Y0027542D01*
X0115119Y0027380D01*
X0115223Y0027215D01*
X0115322Y0027047D01*
X0115418Y0026877D01*
X0115509Y0026705D01*
X0115596Y0026531D01*
X0115678Y0026354D01*
X0115757Y0026176D01*
X0115831Y0025996D01*
X0115900Y0025814D01*
X0115966Y0025630D01*
X0116026Y0025445D01*
X0116082Y0025258D01*
X0116134Y0025070D01*
X0116181Y0024881D01*
X0116223Y0024691D01*
X0116261Y0024500D01*
X0116294Y0024308D01*
X0116322Y0024115D01*
X0116346Y0023922D01*
X0116365Y0023728D01*
X0116379Y0023534D01*
X0116389Y0023339D01*
X0116393Y0023144D01*
X0116393Y0022950D01*
X0116389Y0022755D01*
X0116379Y0022560D01*
X0116365Y0022366D01*
X0116346Y0022172D01*
X0116322Y0021979D01*
X0116294Y0021786D01*
X0116261Y0021594D01*
X0116223Y0021403D01*
X0116181Y0021213D01*
X0116134Y0021024D01*
X0116082Y0020836D01*
X0116026Y0020649D01*
X0115966Y0020464D01*
X0115900Y0020280D01*
X0115831Y0020098D01*
X0115757Y0019918D01*
X0115678Y0019740D01*
X0115596Y0019563D01*
X0115509Y0019389D01*
X0115418Y0019217D01*
X0115322Y0019047D01*
X0115223Y0018879D01*
X0115119Y0018714D01*
X0115012Y0018552D01*
X0114900Y0018392D01*
X0114785Y0018235D01*
X0114666Y0018081D01*
X0114543Y0017930D01*
X0114417Y0017781D01*
X0114287Y0017636D01*
X0114153Y0017494D01*
X0114016Y0017356D01*
X0113876Y0017221D01*
X0113733Y0017089D01*
X0113586Y0016961D01*
X0113436Y0016836D01*
X0113283Y0016715D01*
X0113128Y0016598D01*
X0112969Y0016484D01*
X0112808Y0016375D01*
X0112644Y0016270D01*
X0112478Y0016168D01*
X0112309Y0016071D01*
X0112138Y0015977D01*
X0111965Y0015888D01*
X0111790Y0015803D01*
X0111612Y0015723D01*
X0111433Y0015647D01*
X0111252Y0015575D01*
X0111069Y0015507D01*
X0110885Y0015445D01*
X0110699Y0015386D01*
X0110512Y0015332D01*
X0110323Y0015283D01*
X0110133Y0015238D01*
X0109943Y0015198D01*
X0109751Y0015163D01*
X0109559Y0015132D01*
X0109366Y0015106D01*
X0109172Y0015085D01*
X0108978Y0015068D01*
X0108784Y0015056D01*
X0108589Y0015049D01*
X0108394Y0015047D01*
X0099094Y0019047D02*
X0099094Y0023047D01*
X0099094Y0027047D01*
X0097694Y0027047D02*
X0095194Y0027047D01*
X0095194Y0019047D01*
X0097694Y0019047D01*
X0097694Y0027047D01*
X0093694Y0027047D02*
X0093694Y0023047D01*
X0090894Y0023047D01*
X0093694Y0023047D02*
X0093694Y0019047D01*
X0099094Y0023047D02*
X0101894Y0023047D01*
X0092004Y0057988D02*
X0092004Y0084189D01*
X0093402Y0085587D01*
X0119602Y0085587D01*
X0119602Y0057988D01*
X0092004Y0057988D01*
X0093589Y0082587D02*
X0093591Y0082662D01*
X0093597Y0082736D01*
X0093607Y0082810D01*
X0093620Y0082883D01*
X0093638Y0082956D01*
X0093659Y0083027D01*
X0093684Y0083098D01*
X0093713Y0083167D01*
X0093746Y0083234D01*
X0093782Y0083299D01*
X0093821Y0083363D01*
X0093863Y0083424D01*
X0093909Y0083483D01*
X0093958Y0083540D01*
X0094010Y0083593D01*
X0094064Y0083644D01*
X0094121Y0083693D01*
X0094181Y0083737D01*
X0094243Y0083779D01*
X0094307Y0083818D01*
X0094373Y0083853D01*
X0094440Y0083884D01*
X0094510Y0083912D01*
X0094580Y0083936D01*
X0094652Y0083957D01*
X0094725Y0083973D01*
X0094798Y0083986D01*
X0094873Y0083995D01*
X0094947Y0084000D01*
X0095022Y0084001D01*
X0095096Y0083998D01*
X0095171Y0083991D01*
X0095244Y0083980D01*
X0095318Y0083966D01*
X0095390Y0083947D01*
X0095461Y0083925D01*
X0095531Y0083899D01*
X0095600Y0083869D01*
X0095666Y0083836D01*
X0095731Y0083799D01*
X0095794Y0083759D01*
X0095855Y0083715D01*
X0095913Y0083669D01*
X0095969Y0083619D01*
X0096022Y0083567D01*
X0096073Y0083512D01*
X0096120Y0083454D01*
X0096164Y0083394D01*
X0096205Y0083331D01*
X0096243Y0083267D01*
X0096277Y0083201D01*
X0096308Y0083132D01*
X0096335Y0083063D01*
X0096358Y0082992D01*
X0096377Y0082920D01*
X0096393Y0082847D01*
X0096405Y0082773D01*
X0096413Y0082699D01*
X0096417Y0082624D01*
X0096417Y0082550D01*
X0096413Y0082475D01*
X0096405Y0082401D01*
X0096393Y0082327D01*
X0096377Y0082254D01*
X0096358Y0082182D01*
X0096335Y0082111D01*
X0096308Y0082042D01*
X0096277Y0081973D01*
X0096243Y0081907D01*
X0096205Y0081843D01*
X0096164Y0081780D01*
X0096120Y0081720D01*
X0096073Y0081662D01*
X0096022Y0081607D01*
X0095969Y0081555D01*
X0095913Y0081505D01*
X0095855Y0081459D01*
X0095794Y0081415D01*
X0095731Y0081375D01*
X0095666Y0081338D01*
X0095600Y0081305D01*
X0095531Y0081275D01*
X0095461Y0081249D01*
X0095390Y0081227D01*
X0095318Y0081208D01*
X0095244Y0081194D01*
X0095171Y0081183D01*
X0095096Y0081176D01*
X0095022Y0081173D01*
X0094947Y0081174D01*
X0094873Y0081179D01*
X0094798Y0081188D01*
X0094725Y0081201D01*
X0094652Y0081217D01*
X0094580Y0081238D01*
X0094510Y0081262D01*
X0094440Y0081290D01*
X0094373Y0081321D01*
X0094307Y0081356D01*
X0094243Y0081395D01*
X0094181Y0081437D01*
X0094121Y0081481D01*
X0094064Y0081530D01*
X0094010Y0081581D01*
X0093958Y0081634D01*
X0093909Y0081691D01*
X0093863Y0081750D01*
X0093821Y0081811D01*
X0093782Y0081875D01*
X0093746Y0081940D01*
X0093713Y0082007D01*
X0093684Y0082076D01*
X0093659Y0082147D01*
X0093638Y0082218D01*
X0093620Y0082291D01*
X0093607Y0082364D01*
X0093597Y0082438D01*
X0093591Y0082512D01*
X0093589Y0082587D01*
X0046953Y0093795D02*
X0046953Y0103795D01*
X0030953Y0103795D01*
X0030953Y0093795D01*
X0046953Y0093795D01*
X0042953Y0096295D02*
X0038953Y0098795D01*
X0038953Y0101295D01*
X0039953Y0101295D01*
X0038953Y0098795D02*
X0036453Y0098795D01*
X0038953Y0098795D02*
X0038953Y0096295D01*
X0038953Y0098795D02*
X0042953Y0101295D01*
X0042953Y0096295D01*
X0044953Y0098795D02*
X0038953Y0098795D01*
D12*
X0033453Y0098795D03*
D13*
X0027203Y0098795D03*
X0050703Y0098795D03*
D14*
X0043677Y0089543D02*
X0023992Y0089543D01*
X0023835Y0082220D02*
X0023835Y0074346D01*
X0023992Y0074189D02*
X0029110Y0068283D01*
X0043677Y0068283D01*
X0043520Y0075528D02*
X0043520Y0082614D01*
X0076793Y0100231D02*
X0076793Y0104735D01*
X0078295Y0103234D01*
X0079796Y0104735D01*
X0079796Y0100231D01*
X0081397Y0100231D02*
X0081397Y0104735D01*
X0083649Y0104735D01*
X0084400Y0103984D01*
X0084400Y0102483D01*
X0083649Y0101732D01*
X0081397Y0101732D01*
X0086001Y0100982D02*
X0086752Y0100231D01*
X0088253Y0100231D01*
X0089004Y0100982D01*
X0089004Y0104735D01*
X0086001Y0104735D02*
X0086001Y0100982D01*
X0120488Y0026630D02*
X0120488Y0011866D01*
X0154937Y0011866D01*
X0154937Y0026630D01*
X0120488Y0026630D01*
D15*
X0108394Y0033047D02*
X0108638Y0033044D01*
X0108881Y0033035D01*
X0109124Y0033020D01*
X0109367Y0033000D01*
X0109609Y0032973D01*
X0109850Y0032940D01*
X0110090Y0032902D01*
X0110330Y0032858D01*
X0110568Y0032808D01*
X0110805Y0032752D01*
X0111041Y0032690D01*
X0111275Y0032623D01*
X0111507Y0032550D01*
X0111738Y0032471D01*
X0111966Y0032387D01*
X0112193Y0032297D01*
X0112417Y0032202D01*
X0112639Y0032101D01*
X0112858Y0031995D01*
X0113074Y0031884D01*
X0113288Y0031767D01*
X0113499Y0031646D01*
X0113707Y0031519D01*
X0113912Y0031387D01*
X0114113Y0031250D01*
X0114311Y0031108D01*
X0114506Y0030962D01*
X0114697Y0030811D01*
X0114884Y0030655D01*
X0115067Y0030495D01*
X0115247Y0030330D01*
X0115422Y0030161D01*
X0115593Y0029988D01*
X0115760Y0029810D01*
X0115922Y0029629D01*
X0116080Y0029444D01*
X0116234Y0029255D01*
X0116383Y0029062D01*
X0116527Y0028866D01*
X0116666Y0028666D01*
X0116801Y0028463D01*
X0116930Y0028256D01*
X0117054Y0028047D01*
X0117173Y0027835D01*
X0117287Y0027619D01*
X0117396Y0027402D01*
X0117499Y0027181D01*
X0117597Y0026958D01*
X0117690Y0026733D01*
X0117777Y0026505D01*
X0117858Y0026276D01*
X0117934Y0026044D01*
X0118004Y0025811D01*
X0118069Y0025576D01*
X0118128Y0025340D01*
X0118181Y0025102D01*
X0118228Y0024863D01*
X0118269Y0024623D01*
X0118304Y0024382D01*
X0118334Y0024141D01*
X0118358Y0023898D01*
X0118375Y0023655D01*
X0118387Y0023412D01*
X0118393Y0023169D01*
X0118393Y0022925D01*
X0118387Y0022682D01*
X0118375Y0022439D01*
X0118358Y0022196D01*
X0118334Y0021953D01*
X0118304Y0021712D01*
X0118269Y0021471D01*
X0118228Y0021231D01*
X0118181Y0020992D01*
X0118128Y0020754D01*
X0118069Y0020518D01*
X0118004Y0020283D01*
X0117934Y0020050D01*
X0117858Y0019818D01*
X0117777Y0019589D01*
X0117690Y0019361D01*
X0117597Y0019136D01*
X0117499Y0018913D01*
X0117396Y0018692D01*
X0117287Y0018475D01*
X0117173Y0018259D01*
X0117054Y0018047D01*
X0116930Y0017838D01*
X0116801Y0017631D01*
X0116666Y0017428D01*
X0116527Y0017228D01*
X0116383Y0017032D01*
X0116234Y0016839D01*
X0116080Y0016650D01*
X0115922Y0016465D01*
X0115760Y0016284D01*
X0115593Y0016106D01*
X0115422Y0015933D01*
X0115247Y0015764D01*
X0115067Y0015599D01*
X0114884Y0015439D01*
X0114697Y0015283D01*
X0114506Y0015132D01*
X0114311Y0014986D01*
X0114113Y0014844D01*
X0113912Y0014707D01*
X0113707Y0014575D01*
X0113499Y0014448D01*
X0113288Y0014327D01*
X0113074Y0014210D01*
X0112858Y0014099D01*
X0112639Y0013993D01*
X0112417Y0013892D01*
X0112193Y0013797D01*
X0111966Y0013707D01*
X0111738Y0013623D01*
X0111507Y0013544D01*
X0111275Y0013471D01*
X0111041Y0013404D01*
X0110805Y0013342D01*
X0110568Y0013286D01*
X0110330Y0013236D01*
X0110090Y0013192D01*
X0109850Y0013154D01*
X0109609Y0013121D01*
X0109367Y0013094D01*
X0109124Y0013074D01*
X0108881Y0013059D01*
X0108638Y0013050D01*
X0108394Y0013047D01*
X0084394Y0013047D01*
X0084150Y0013050D01*
X0083907Y0013059D01*
X0083664Y0013074D01*
X0083421Y0013094D01*
X0083179Y0013121D01*
X0082938Y0013154D01*
X0082698Y0013192D01*
X0082458Y0013236D01*
X0082220Y0013286D01*
X0081983Y0013342D01*
X0081747Y0013404D01*
X0081513Y0013471D01*
X0081281Y0013544D01*
X0081050Y0013623D01*
X0080822Y0013707D01*
X0080595Y0013797D01*
X0080371Y0013892D01*
X0080149Y0013993D01*
X0079930Y0014099D01*
X0079714Y0014210D01*
X0079500Y0014327D01*
X0079289Y0014448D01*
X0079081Y0014575D01*
X0078876Y0014707D01*
X0078675Y0014844D01*
X0078477Y0014986D01*
X0078282Y0015132D01*
X0078091Y0015283D01*
X0077904Y0015439D01*
X0077721Y0015599D01*
X0077541Y0015764D01*
X0077366Y0015933D01*
X0077195Y0016106D01*
X0077028Y0016284D01*
X0076866Y0016465D01*
X0076708Y0016650D01*
X0076554Y0016839D01*
X0076405Y0017032D01*
X0076261Y0017228D01*
X0076122Y0017428D01*
X0075987Y0017631D01*
X0075858Y0017838D01*
X0075734Y0018047D01*
X0075615Y0018259D01*
X0075501Y0018475D01*
X0075392Y0018692D01*
X0075289Y0018913D01*
X0075191Y0019136D01*
X0075098Y0019361D01*
X0075011Y0019589D01*
X0074930Y0019818D01*
X0074854Y0020050D01*
X0074784Y0020283D01*
X0074719Y0020518D01*
X0074660Y0020754D01*
X0074607Y0020992D01*
X0074560Y0021231D01*
X0074519Y0021471D01*
X0074484Y0021712D01*
X0074454Y0021953D01*
X0074430Y0022196D01*
X0074413Y0022439D01*
X0074401Y0022682D01*
X0074395Y0022925D01*
X0074395Y0023169D01*
X0074401Y0023412D01*
X0074413Y0023655D01*
X0074430Y0023898D01*
X0074454Y0024141D01*
X0074484Y0024382D01*
X0074519Y0024623D01*
X0074560Y0024863D01*
X0074607Y0025102D01*
X0074660Y0025340D01*
X0074719Y0025576D01*
X0074784Y0025811D01*
X0074854Y0026044D01*
X0074930Y0026276D01*
X0075011Y0026505D01*
X0075098Y0026733D01*
X0075191Y0026958D01*
X0075289Y0027181D01*
X0075392Y0027402D01*
X0075501Y0027619D01*
X0075615Y0027835D01*
X0075734Y0028047D01*
X0075858Y0028256D01*
X0075987Y0028463D01*
X0076122Y0028666D01*
X0076261Y0028866D01*
X0076405Y0029062D01*
X0076554Y0029255D01*
X0076708Y0029444D01*
X0076866Y0029629D01*
X0077028Y0029810D01*
X0077195Y0029988D01*
X0077366Y0030161D01*
X0077541Y0030330D01*
X0077721Y0030495D01*
X0077904Y0030655D01*
X0078091Y0030811D01*
X0078282Y0030962D01*
X0078477Y0031108D01*
X0078675Y0031250D01*
X0078876Y0031387D01*
X0079081Y0031519D01*
X0079289Y0031646D01*
X0079500Y0031767D01*
X0079714Y0031884D01*
X0079930Y0031995D01*
X0080149Y0032101D01*
X0080371Y0032202D01*
X0080595Y0032297D01*
X0080822Y0032387D01*
X0081050Y0032471D01*
X0081281Y0032550D01*
X0081513Y0032623D01*
X0081747Y0032690D01*
X0081983Y0032752D01*
X0082220Y0032808D01*
X0082458Y0032858D01*
X0082698Y0032902D01*
X0082938Y0032940D01*
X0083179Y0032973D01*
X0083421Y0033000D01*
X0083664Y0033020D01*
X0083907Y0033035D01*
X0084150Y0033044D01*
X0084394Y0033047D01*
X0108394Y0033047D01*
D16*
X0054945Y0044625D02*
X0054945Y0049229D01*
X0057247Y0049229D01*
X0058014Y0048462D01*
X0058014Y0046927D01*
X0057247Y0046160D01*
X0054945Y0046160D01*
X0056480Y0046160D02*
X0058014Y0044625D01*
X0059549Y0046927D02*
X0062618Y0046927D01*
X0061851Y0044625D02*
X0061851Y0049229D01*
X0059549Y0046927D01*
X0075728Y0046532D02*
X0075728Y0041928D01*
X0078797Y0041928D01*
X0080331Y0041928D02*
X0083401Y0041928D01*
X0084935Y0041928D02*
X0087237Y0041928D01*
X0088005Y0042696D01*
X0088005Y0045765D01*
X0087237Y0046532D01*
X0084935Y0046532D01*
X0084935Y0041928D01*
X0081866Y0044230D02*
X0080331Y0044230D01*
X0080331Y0046532D02*
X0080331Y0041928D01*
X0080331Y0046532D02*
X0083401Y0046532D01*
X0089539Y0044998D02*
X0091074Y0046532D01*
X0091074Y0041928D01*
X0089539Y0041928D02*
X0092609Y0041928D01*
X0052493Y0069000D02*
X0047889Y0069000D01*
X0047889Y0071302D01*
X0048656Y0072069D01*
X0050191Y0072069D01*
X0050958Y0071302D01*
X0050958Y0069000D01*
X0050958Y0070535D02*
X0052493Y0072069D01*
X0052493Y0073604D02*
X0052493Y0076673D01*
X0052493Y0075139D02*
X0047889Y0075139D01*
X0049424Y0073604D01*
X0043917Y0064938D02*
X0040848Y0064938D01*
X0039313Y0064938D02*
X0039313Y0064170D01*
X0036244Y0061101D01*
X0036244Y0060334D01*
X0039313Y0060334D01*
X0040848Y0060334D02*
X0043917Y0060334D01*
X0040848Y0060334D02*
X0040848Y0061101D01*
X0043917Y0064170D01*
X0043917Y0064938D01*
X0039313Y0064938D02*
X0036244Y0064938D01*
X0034709Y0064938D02*
X0034709Y0061101D01*
X0033942Y0060334D01*
X0032407Y0060334D01*
X0031640Y0061101D01*
X0031640Y0064938D01*
X0030106Y0064170D02*
X0030106Y0063403D01*
X0029338Y0062636D01*
X0027036Y0062636D01*
X0027036Y0064938D02*
X0029338Y0064938D01*
X0030106Y0064170D01*
X0029338Y0062636D02*
X0030106Y0061868D01*
X0030106Y0061101D01*
X0029338Y0060334D01*
X0027036Y0060334D01*
X0027036Y0064938D01*
X0037425Y0110432D02*
X0037425Y0115036D01*
X0039727Y0115036D01*
X0040494Y0114269D01*
X0040494Y0112734D01*
X0039727Y0111967D01*
X0037425Y0111967D01*
X0038960Y0111967D02*
X0040494Y0110432D01*
X0042029Y0110432D02*
X0045098Y0113502D01*
X0045098Y0114269D01*
X0044331Y0115036D01*
X0042796Y0115036D01*
X0042029Y0114269D01*
X0042029Y0110432D02*
X0045098Y0110432D01*
X0124945Y0091355D02*
X0124945Y0086751D01*
X0124945Y0088286D02*
X0127247Y0088286D01*
X0128014Y0089053D01*
X0128014Y0090588D01*
X0127247Y0091355D01*
X0124945Y0091355D01*
X0129549Y0090588D02*
X0130316Y0091355D01*
X0131851Y0091355D01*
X0132618Y0090588D01*
X0132618Y0089820D01*
X0131851Y0089053D01*
X0132618Y0088286D01*
X0132618Y0087518D01*
X0131851Y0086751D01*
X0130316Y0086751D01*
X0129549Y0087518D01*
X0128014Y0086751D02*
X0126480Y0088286D01*
X0131083Y0089053D02*
X0131851Y0089053D01*
D17*
X0078657Y0037260D03*
M02*
