%
M48
M72
T01C0.01200
T02C0.01969
T03C0.03150
T04C0.03200
T05C0.03937
T06C0.04000
T07C0.04400
%
T01
X71472Y54189
X115961Y20331
X131709Y67969
X101000Y95134
X97850Y98677
X94701Y101827
T02
X125409Y21709
X130331Y21709
X135252Y21709
X140173Y21709
X145094Y21709
X150016Y21709
T03
X15961Y23362
X27772Y23362
X57299Y23362
X68717Y23362
X69110Y111945
X15961Y111945
T04
X86894Y23047
X105894Y23047
T05
X144213Y37102
X144213Y47102
X144213Y57102
X144213Y67299
X144213Y77299
X144213Y86984
X144213Y96984
T06
X142772Y112969
X132772Y112969
X122772Y112969
X112772Y112969
X102772Y112969
X92772Y112969
X82772Y112969
X16748Y72575
X16748Y62575
X38126Y19937
X48126Y19937
X152772Y112969
T07
X58953Y98795
X18953Y98795
M30
