G75*
%MOIN*%
%OFA0B0*%
%FSLAX25Y25*%
%IPPOS*%
%LPD*%
%AMOC8*
5,1,8,0,0,1.08239X$1,22.5*
%
%ADD10R,0.03713X0.04442*%
%ADD11R,0.04442X0.03713*%
%ADD12C,0.07400*%
%ADD13R,0.05800X0.03000*%
%ADD14R,0.03000X0.05800*%
%ADD15C,0.06800*%
%ADD16C,0.06000*%
%ADD17R,0.08674X0.07099*%
%ADD18R,0.07887X0.13398*%
%ADD19R,0.07099X0.08674*%
%ADD20C,0.04769*%
%ADD21C,0.07800*%
%ADD22R,0.05524X0.05524*%
%ADD23R,0.02178X0.02178*%
%ADD24R,0.01476X0.01378*%
%ADD25R,0.01969X0.03150*%
%ADD26R,0.01378X0.01378*%
%ADD27OC8,0.06737*%
%ADD28C,0.04369*%
%ADD29C,0.03600*%
D10*
X0077076Y0057745D03*
X0077076Y0062469D03*
X0082981Y0062509D03*
X0082981Y0057784D03*
D11*
X0080186Y0069320D03*
X0075461Y0069320D03*
D12*
X0064241Y0091800D03*
X0024241Y0091800D03*
D13*
X0094191Y0075816D03*
X0094191Y0072666D03*
X0094191Y0069517D03*
X0094191Y0066367D03*
X0094191Y0063217D03*
X0094191Y0060068D03*
X0094191Y0056918D03*
X0094191Y0053769D03*
X0127991Y0053769D03*
X0127991Y0056918D03*
X0127991Y0060068D03*
X0127991Y0063217D03*
X0127991Y0066367D03*
X0127991Y0069517D03*
X0127991Y0072666D03*
X0127991Y0075816D03*
D14*
X0122115Y0081692D03*
X0118965Y0081692D03*
X0115816Y0081692D03*
X0112666Y0081692D03*
X0109517Y0081692D03*
X0106367Y0081692D03*
X0103217Y0081692D03*
X0100068Y0081692D03*
X0100068Y0047892D03*
X0103217Y0047892D03*
X0106367Y0047892D03*
X0109517Y0047892D03*
X0112666Y0047892D03*
X0115816Y0047892D03*
X0118965Y0047892D03*
X0122115Y0047892D03*
D15*
X0053414Y0015942D02*
X0053414Y0009942D01*
X0043414Y0009942D02*
X0043414Y0015942D01*
X0027398Y0071721D02*
X0021398Y0071721D01*
X0021398Y0081721D02*
X0027398Y0081721D01*
X0088060Y0102973D02*
X0088060Y0108973D01*
X0098060Y0108973D02*
X0098060Y0102973D01*
X0108060Y0102973D02*
X0108060Y0108973D01*
X0118060Y0108973D02*
X0118060Y0102973D01*
X0128060Y0102973D02*
X0128060Y0108973D01*
X0138060Y0108973D02*
X0138060Y0102973D01*
X0148060Y0102973D02*
X0148060Y0108973D01*
X0158060Y0108973D02*
X0158060Y0102973D01*
D16*
X0111182Y0016052D03*
X0092182Y0016052D03*
D17*
X0063729Y0061682D03*
X0063729Y0072706D03*
D18*
X0059044Y0105894D03*
X0036997Y0105894D03*
D19*
X0058729Y0047430D03*
X0069753Y0047430D03*
X0121643Y0090737D03*
X0132666Y0090737D03*
D20*
X0130698Y0016698D02*
X0130698Y0012729D01*
X0135619Y0012729D02*
X0135619Y0016698D01*
X0140540Y0016698D02*
X0140540Y0012729D01*
X0145461Y0012729D02*
X0145461Y0016698D01*
X0150383Y0016698D02*
X0150383Y0012729D01*
X0155304Y0012729D02*
X0155304Y0016698D01*
D21*
X0021249Y0016367D03*
X0033060Y0016367D03*
X0062587Y0016367D03*
X0074005Y0016367D03*
X0074398Y0104950D03*
X0021249Y0104950D03*
D22*
X0035580Y0075855D03*
X0052902Y0075855D03*
X0053296Y0061682D03*
D23*
X0081485Y0030265D03*
X0085422Y0030265D03*
D24*
X0085471Y0030265D03*
D25*
X0086898Y0030265D03*
X0080009Y0030265D03*
D26*
X0081485Y0030265D03*
D27*
X0147926Y0030894D03*
X0147926Y0040894D03*
X0147926Y0050894D03*
X0147926Y0061091D03*
X0147926Y0071091D03*
X0147926Y0080776D03*
X0147926Y0090776D03*
D28*
X0139792Y0066643D03*
X0127430Y0023965D03*
X0078020Y0047430D03*
X0050776Y0042469D03*
X0050776Y0027509D03*
X0017312Y0049950D03*
D29*
X0099989Y0094831D03*
X0103139Y0091682D03*
X0106288Y0088139D03*
M02*
