%
M48
M72
T01C0.01200
T02C0.01969
T03C0.03150
T04C0.03200
T05C0.03937
T06C0.04000
T07C0.04400
%
T01
X106288Y88139
X103139Y91682
X99989Y94831
T02
X139792Y66643
X127430Y23965
X130698Y14713
X135619Y14713
X140540Y14713
X145461Y14713
X150383Y14713
X155304Y14713
X78020Y47430
X50776Y42469
X50776Y27509
X17312Y49950
T03
X21249Y16367
X33060Y16367
X62587Y16367
X74005Y16367
X74398Y104950
X21249Y104950
T04
X92182Y16052
X111182Y16052
T05
X147926Y30894
X147926Y40894
X147926Y50894
X147926Y61091
X147926Y71091
X147926Y80776
X147926Y90776
T06
X148060Y105973
X158060Y105973
X138060Y105973
X128060Y105973
X118060Y105973
X108060Y105973
X98060Y105973
X88060Y105973
X24398Y81721
X24398Y71721
X43414Y12942
X53414Y12942
T07
X64241Y91800
X24241Y91800
M30
